%TF.GenerationSoftware,KiCad,Pcbnew,9.0.3*%
%TF.CreationDate,2025-12-10T22:25:10-05:00*%
%TF.ProjectId,Leviosa,4c657669-6f73-4612-9e6b-696361645f70,0*%
%TF.SameCoordinates,Original*%
%TF.FileFunction,Drillmap*%
%TF.FilePolarity,Positive*%
%FSLAX45Y45*%
G04 Gerber Fmt 4.5, Leading zero omitted, Abs format (unit mm)*
G04 Created by KiCad (PCBNEW 9.0.3) date 2025-12-10 22:25:10*
%MOMM*%
%LPD*%
G01*
G04 APERTURE LIST*
%ADD10C,0.300000*%
%ADD11C,0.200000*%
%ADD12C,0.100000*%
G04 APERTURE END LIST*
D10*
X12100000Y-10000000D02*
G75*
G02*
X7900000Y-10000000I-2100000J0D01*
G01*
X7900000Y-10000000D02*
G75*
G02*
X12100000Y-10000000I2100000J0D01*
G01*
X13998900Y-10000000D02*
G75*
G02*
X6001100Y-10000000I-3998900J0D01*
G01*
X6001100Y-10000000D02*
G75*
G02*
X13998900Y-10000000I3998900J0D01*
G01*
D11*
D12*
X6279000Y-10297400D02*
X6309000Y-10327400D01*
X6309000Y-10297400D02*
X6279000Y-10327400D01*
X6279000Y-10411700D02*
X6309000Y-10441700D01*
X6309000Y-10411700D02*
X6279000Y-10441700D01*
X6279000Y-10526000D02*
X6309000Y-10556000D01*
X6309000Y-10526000D02*
X6279000Y-10556000D01*
X6787000Y-10424400D02*
X6817000Y-10454400D01*
X6817000Y-10424400D02*
X6787000Y-10454400D01*
X7046200Y-8468600D02*
X7076200Y-8498600D01*
X7076200Y-8468600D02*
X7046200Y-8498600D01*
X7071600Y-8854680D02*
X7101600Y-8884680D01*
X7101600Y-8854680D02*
X7071600Y-8884680D01*
X7414500Y-8849000D02*
X7444500Y-8879000D01*
X7444500Y-8849000D02*
X7414500Y-8879000D01*
X7541500Y-7960600D02*
X7571500Y-7990600D01*
X7571500Y-7960600D02*
X7541500Y-7990600D01*
X7605000Y-7605000D02*
X7635000Y-7635000D01*
X7635000Y-7605000D02*
X7605000Y-7635000D01*
X7668500Y-9827500D02*
X7698500Y-9857500D01*
X7698500Y-9827500D02*
X7668500Y-9857500D01*
X7909800Y-7909800D02*
X7939800Y-7939800D01*
X7939800Y-7909800D02*
X7909800Y-7939800D01*
X7960600Y-7554200D02*
X7990600Y-7584200D01*
X7990600Y-7554200D02*
X7960600Y-7584200D01*
X8430500Y-7541500D02*
X8460500Y-7571500D01*
X8460500Y-7541500D02*
X8430500Y-7571500D01*
X8614102Y-7725102D02*
X8644102Y-7755102D01*
X8644102Y-7725102D02*
X8614102Y-7755102D01*
X8748000Y-8189200D02*
X8778000Y-8219200D01*
X8778000Y-8189200D02*
X8748000Y-8219200D01*
X9046227Y-7570251D02*
X9076227Y-7600251D01*
X9076227Y-7570251D02*
X9046227Y-7600251D01*
X9052800Y-7732000D02*
X9082800Y-7762000D01*
X9082800Y-7732000D02*
X9052800Y-7762000D01*
X9510000Y-7808200D02*
X9540000Y-7838200D01*
X9540000Y-7808200D02*
X9510000Y-7838200D01*
X9891000Y-6538200D02*
X9921000Y-6568200D01*
X9921000Y-6538200D02*
X9891000Y-6568200D01*
X10905000Y-6685000D02*
X10935000Y-6715000D01*
X10935000Y-6685000D02*
X10905000Y-6715000D01*
X11543404Y-7388178D02*
X11573404Y-7418178D01*
X11573404Y-7388178D02*
X11543404Y-7418178D01*
X11618200Y-8062200D02*
X11648200Y-8092200D01*
X11648200Y-8062200D02*
X11618200Y-8092200D01*
X11669000Y-7033500D02*
X11699000Y-7063500D01*
X11699000Y-7033500D02*
X11669000Y-7063500D01*
X11689750Y-7935200D02*
X11719750Y-7965200D01*
X11719750Y-7935200D02*
X11689750Y-7965200D01*
X11719819Y-12155329D02*
X11749819Y-12185329D01*
X11749819Y-12155329D02*
X11719819Y-12185329D01*
X11869819Y-11999200D02*
X11899819Y-12029200D01*
X11899819Y-11999200D02*
X11869819Y-12029200D01*
X11872200Y-6995400D02*
X11902200Y-7025400D01*
X11902200Y-6995400D02*
X11872200Y-7025400D01*
X11872200Y-7935200D02*
X11902200Y-7965200D01*
X11902200Y-7935200D02*
X11872200Y-7965200D01*
X11915138Y-7587462D02*
X11945138Y-7617462D01*
X11945138Y-7587462D02*
X11915138Y-7617462D01*
X12011900Y-7490700D02*
X12041900Y-7520700D01*
X12041900Y-7490700D02*
X12011900Y-7520700D01*
X12126200Y-7960600D02*
X12156200Y-7990600D01*
X12156200Y-7960600D02*
X12126200Y-7990600D01*
X12227800Y-7274800D02*
X12257800Y-7304800D01*
X12257800Y-7274800D02*
X12227800Y-7304800D01*
X12255000Y-7525000D02*
X12285000Y-7555000D01*
X12285000Y-7525000D02*
X12255000Y-7555000D01*
X12418300Y-8425600D02*
X12448300Y-8455600D01*
X12448300Y-8425600D02*
X12418300Y-8455600D01*
X12482519Y-12170000D02*
X12512519Y-12200000D01*
X12512519Y-12170000D02*
X12482519Y-12200000D01*
X12608800Y-9179800D02*
X12638800Y-9209800D01*
X12638800Y-9179800D02*
X12608800Y-9209800D01*
X12609519Y-12500600D02*
X12639519Y-12530600D01*
X12639519Y-12500600D02*
X12609519Y-12530600D01*
X12672300Y-8933600D02*
X12702300Y-8963600D01*
X12702300Y-8933600D02*
X12672300Y-8963600D01*
X12749200Y-9205200D02*
X12779200Y-9235200D01*
X12779200Y-9205200D02*
X12749200Y-9235200D01*
X12837400Y-7808200D02*
X12867400Y-7838200D01*
X12867400Y-7808200D02*
X12837400Y-7838200D01*
X12914319Y-11669000D02*
X12944319Y-11699000D01*
X12944319Y-11669000D02*
X12914319Y-11699000D01*
X12926300Y-8304600D02*
X12956300Y-8334600D01*
X12956300Y-8304600D02*
X12926300Y-8334600D01*
X13041319Y-11999200D02*
X13071319Y-12029200D01*
X13071319Y-11999200D02*
X13041319Y-12029200D01*
X13396200Y-8849600D02*
X13426200Y-8879600D01*
X13426200Y-8849600D02*
X13396200Y-8879600D01*
X13447000Y-10068800D02*
X13477000Y-10098800D01*
X13477000Y-10068800D02*
X13447000Y-10098800D01*
X13650919Y-10297400D02*
X13680919Y-10327400D01*
X13680919Y-10297400D02*
X13650919Y-10327400D01*
X13701000Y-9894600D02*
X13731000Y-9924600D01*
X13731000Y-9894600D02*
X13701000Y-9924600D01*
X12605919Y-10236200D02*
G75*
G02*
X12525919Y-10236200I-40000J0D01*
G01*
X12525919Y-10236200D02*
G75*
G02*
X12605919Y-10236200I40000J0D01*
G01*
X12605919Y-10490200D02*
G75*
G02*
X12525919Y-10490200I-40000J0D01*
G01*
X12525919Y-10490200D02*
G75*
G02*
X12605919Y-10490200I40000J0D01*
G01*
X12605919Y-10744200D02*
G75*
G02*
X12525919Y-10744200I-40000J0D01*
G01*
X12525919Y-10744200D02*
G75*
G02*
X12605919Y-10744200I40000J0D01*
G01*
X12605919Y-10998200D02*
G75*
G02*
X12525919Y-10998200I-40000J0D01*
G01*
X12525919Y-10998200D02*
G75*
G02*
X12605919Y-10998200I40000J0D01*
G01*
X13367919Y-10236200D02*
G75*
G02*
X13287919Y-10236200I-40000J0D01*
G01*
X13287919Y-10236200D02*
G75*
G02*
X13367919Y-10236200I40000J0D01*
G01*
X13367919Y-10490200D02*
G75*
G02*
X13287919Y-10490200I-40000J0D01*
G01*
X13287919Y-10490200D02*
G75*
G02*
X13367919Y-10490200I40000J0D01*
G01*
X13367919Y-10744200D02*
G75*
G02*
X13287919Y-10744200I-40000J0D01*
G01*
X13287919Y-10744200D02*
G75*
G02*
X13367919Y-10744200I40000J0D01*
G01*
X13367919Y-10998200D02*
G75*
G02*
X13287919Y-10998200I-40000J0D01*
G01*
X13287919Y-10998200D02*
G75*
G02*
X13367919Y-10998200I40000J0D01*
G01*
X12971400Y-9331600D02*
X12971400Y-9421600D01*
X12926400Y-9376600D02*
X13016400Y-9376600D01*
X12971400Y-9831600D02*
X12971400Y-9921600D01*
X12926400Y-9876600D02*
X13016400Y-9876600D01*
X13221400Y-9581600D02*
X13221400Y-9671600D01*
X13176400Y-9626600D02*
X13266400Y-9626600D01*
X7687547Y-8352228D02*
X7687547Y-8281516D01*
X7616836Y-8281516D01*
X7616836Y-8352228D01*
X7687547Y-8352228D01*
X7546126Y-8281517D02*
X7687547Y-8422938D01*
X7758258Y-8352228D02*
G75*
G02*
X7687547Y-8422938I-35355J-35355D01*
G01*
X7758258Y-8352227D02*
X7616836Y-8210806D01*
X7616836Y-8210806D02*
G75*
G03*
X7546126Y-8281517I-35355J-35355D01*
G01*
X7807756Y-7807756D02*
X7807756Y-7737044D01*
X7737044Y-7737044D01*
X7737044Y-7807756D01*
X7807756Y-7807756D01*
X7807755Y-7666334D02*
X7666334Y-7807755D01*
X7737045Y-7878466D02*
G75*
G02*
X7666334Y-7807755I-35355J35355D01*
G01*
X7737045Y-7878466D02*
X7878466Y-7737045D01*
X7878466Y-7737045D02*
G75*
G03*
X7807755Y-7666334I-35355J35355D01*
G01*
X8246162Y-8246162D02*
X8246162Y-8175450D01*
X8175450Y-8175450D01*
X8175450Y-8246162D01*
X8246162Y-8246162D01*
X8263839Y-8087062D02*
X8087062Y-8263839D01*
X8157773Y-8334550D02*
G75*
G02*
X8087063Y-8263839I-35355J35355D01*
G01*
X8157773Y-8334550D02*
X8334550Y-8157773D01*
X8334550Y-8157773D02*
G75*
G03*
X8263839Y-8087063I-35355J35355D01*
G01*
X9877356Y-7655356D02*
X9877356Y-7584644D01*
X9806644Y-7584644D01*
X9806644Y-7655356D01*
X9877356Y-7655356D01*
X10131356Y-7655356D02*
X10131356Y-7584644D01*
X10060644Y-7584644D01*
X10060644Y-7655356D01*
X10131356Y-7655356D01*
X11720075Y-12074956D02*
X11720075Y-12004244D01*
X11649363Y-12004244D01*
X11649363Y-12074956D01*
X11720075Y-12074956D01*
X11720075Y-12328956D02*
X11720075Y-12258244D01*
X11649363Y-12258244D01*
X11649363Y-12328956D01*
X11720075Y-12328956D01*
X11720075Y-12582956D02*
X11720075Y-12512244D01*
X11649363Y-12512244D01*
X11649363Y-12582956D01*
X11720075Y-12582956D01*
X12228075Y-11940956D02*
X12228075Y-11870244D01*
X12157363Y-11870244D01*
X12157363Y-11940956D01*
X12228075Y-11940956D01*
X12228075Y-12194956D02*
X12228075Y-12124244D01*
X12157363Y-12124244D01*
X12157363Y-12194956D01*
X12228075Y-12194956D01*
X12228075Y-12448956D02*
X12228075Y-12378244D01*
X12157363Y-12378244D01*
X12157363Y-12448956D01*
X12228075Y-12448956D01*
X12659875Y-11439956D02*
X12659875Y-11369244D01*
X12589163Y-11369244D01*
X12589163Y-11439956D01*
X12659875Y-11439956D01*
X12659875Y-11693956D02*
X12659875Y-11623244D01*
X12589163Y-11623244D01*
X12589163Y-11693956D01*
X12659875Y-11693956D01*
X12659875Y-11947956D02*
X12659875Y-11877244D01*
X12589163Y-11877244D01*
X12589163Y-11947956D01*
X12659875Y-11947956D01*
X13167156Y-8391956D02*
X13167156Y-8321244D01*
X13096444Y-8321244D01*
X13096444Y-8391956D01*
X13167156Y-8391956D01*
X13167156Y-8645956D02*
X13167156Y-8575244D01*
X13096444Y-8575244D01*
X13096444Y-8645956D01*
X13167156Y-8645956D01*
X13167156Y-8899956D02*
X13167156Y-8829244D01*
X13096444Y-8829244D01*
X13096444Y-8899956D01*
X13167156Y-8899956D01*
D11*
X6246877Y-14325384D02*
X6246877Y-14125384D01*
X6246877Y-14125384D02*
X6294496Y-14125384D01*
X6294496Y-14125384D02*
X6323067Y-14134907D01*
X6323067Y-14134907D02*
X6342115Y-14153955D01*
X6342115Y-14153955D02*
X6351639Y-14173003D01*
X6351639Y-14173003D02*
X6361163Y-14211098D01*
X6361163Y-14211098D02*
X6361163Y-14239669D01*
X6361163Y-14239669D02*
X6351639Y-14277764D01*
X6351639Y-14277764D02*
X6342115Y-14296812D01*
X6342115Y-14296812D02*
X6323067Y-14315860D01*
X6323067Y-14315860D02*
X6294496Y-14325384D01*
X6294496Y-14325384D02*
X6246877Y-14325384D01*
X6446877Y-14325384D02*
X6446877Y-14192050D01*
X6446877Y-14230145D02*
X6456401Y-14211098D01*
X6456401Y-14211098D02*
X6465925Y-14201574D01*
X6465925Y-14201574D02*
X6484972Y-14192050D01*
X6484972Y-14192050D02*
X6504020Y-14192050D01*
X6570686Y-14325384D02*
X6570686Y-14192050D01*
X6570686Y-14125384D02*
X6561163Y-14134907D01*
X6561163Y-14134907D02*
X6570686Y-14144431D01*
X6570686Y-14144431D02*
X6580210Y-14134907D01*
X6580210Y-14134907D02*
X6570686Y-14125384D01*
X6570686Y-14125384D02*
X6570686Y-14144431D01*
X6694496Y-14325384D02*
X6675448Y-14315860D01*
X6675448Y-14315860D02*
X6665925Y-14296812D01*
X6665925Y-14296812D02*
X6665925Y-14125384D01*
X6799258Y-14325384D02*
X6780210Y-14315860D01*
X6780210Y-14315860D02*
X6770686Y-14296812D01*
X6770686Y-14296812D02*
X6770686Y-14125384D01*
X7027829Y-14325384D02*
X7027829Y-14125384D01*
X7027829Y-14125384D02*
X7094496Y-14268241D01*
X7094496Y-14268241D02*
X7161163Y-14125384D01*
X7161163Y-14125384D02*
X7161163Y-14325384D01*
X7342115Y-14325384D02*
X7342115Y-14220622D01*
X7342115Y-14220622D02*
X7332591Y-14201574D01*
X7332591Y-14201574D02*
X7313544Y-14192050D01*
X7313544Y-14192050D02*
X7275448Y-14192050D01*
X7275448Y-14192050D02*
X7256401Y-14201574D01*
X7342115Y-14315860D02*
X7323067Y-14325384D01*
X7323067Y-14325384D02*
X7275448Y-14325384D01*
X7275448Y-14325384D02*
X7256401Y-14315860D01*
X7256401Y-14315860D02*
X7246877Y-14296812D01*
X7246877Y-14296812D02*
X7246877Y-14277764D01*
X7246877Y-14277764D02*
X7256401Y-14258717D01*
X7256401Y-14258717D02*
X7275448Y-14249193D01*
X7275448Y-14249193D02*
X7323067Y-14249193D01*
X7323067Y-14249193D02*
X7342115Y-14239669D01*
X7437353Y-14192050D02*
X7437353Y-14392050D01*
X7437353Y-14201574D02*
X7456401Y-14192050D01*
X7456401Y-14192050D02*
X7494496Y-14192050D01*
X7494496Y-14192050D02*
X7513544Y-14201574D01*
X7513544Y-14201574D02*
X7523067Y-14211098D01*
X7523067Y-14211098D02*
X7532591Y-14230145D01*
X7532591Y-14230145D02*
X7532591Y-14287288D01*
X7532591Y-14287288D02*
X7523067Y-14306336D01*
X7523067Y-14306336D02*
X7513544Y-14315860D01*
X7513544Y-14315860D02*
X7494496Y-14325384D01*
X7494496Y-14325384D02*
X7456401Y-14325384D01*
X7456401Y-14325384D02*
X7437353Y-14315860D01*
X7618306Y-14306336D02*
X7627829Y-14315860D01*
X7627829Y-14315860D02*
X7618306Y-14325384D01*
X7618306Y-14325384D02*
X7608782Y-14315860D01*
X7608782Y-14315860D02*
X7618306Y-14306336D01*
X7618306Y-14306336D02*
X7618306Y-14325384D01*
X7618306Y-14201574D02*
X7627829Y-14211098D01*
X7627829Y-14211098D02*
X7618306Y-14220622D01*
X7618306Y-14220622D02*
X7608782Y-14211098D01*
X7608782Y-14211098D02*
X7618306Y-14201574D01*
X7618306Y-14201574D02*
X7618306Y-14220622D01*
D12*
X5956100Y-14638900D02*
X5986100Y-14668900D01*
X5986100Y-14638900D02*
X5956100Y-14668900D01*
D11*
X6284972Y-14545384D02*
X6304020Y-14545384D01*
X6304020Y-14545384D02*
X6323067Y-14554907D01*
X6323067Y-14554907D02*
X6332591Y-14564431D01*
X6332591Y-14564431D02*
X6342115Y-14583479D01*
X6342115Y-14583479D02*
X6351639Y-14621574D01*
X6351639Y-14621574D02*
X6351639Y-14669193D01*
X6351639Y-14669193D02*
X6342115Y-14707288D01*
X6342115Y-14707288D02*
X6332591Y-14726336D01*
X6332591Y-14726336D02*
X6323067Y-14735860D01*
X6323067Y-14735860D02*
X6304020Y-14745384D01*
X6304020Y-14745384D02*
X6284972Y-14745384D01*
X6284972Y-14745384D02*
X6265925Y-14735860D01*
X6265925Y-14735860D02*
X6256401Y-14726336D01*
X6256401Y-14726336D02*
X6246877Y-14707288D01*
X6246877Y-14707288D02*
X6237353Y-14669193D01*
X6237353Y-14669193D02*
X6237353Y-14621574D01*
X6237353Y-14621574D02*
X6246877Y-14583479D01*
X6246877Y-14583479D02*
X6256401Y-14564431D01*
X6256401Y-14564431D02*
X6265925Y-14554907D01*
X6265925Y-14554907D02*
X6284972Y-14545384D01*
X6437353Y-14726336D02*
X6446877Y-14735860D01*
X6446877Y-14735860D02*
X6437353Y-14745384D01*
X6437353Y-14745384D02*
X6427829Y-14735860D01*
X6427829Y-14735860D02*
X6437353Y-14726336D01*
X6437353Y-14726336D02*
X6437353Y-14745384D01*
X6513544Y-14545384D02*
X6637353Y-14545384D01*
X6637353Y-14545384D02*
X6570686Y-14621574D01*
X6570686Y-14621574D02*
X6599258Y-14621574D01*
X6599258Y-14621574D02*
X6618306Y-14631098D01*
X6618306Y-14631098D02*
X6627829Y-14640622D01*
X6627829Y-14640622D02*
X6637353Y-14659669D01*
X6637353Y-14659669D02*
X6637353Y-14707288D01*
X6637353Y-14707288D02*
X6627829Y-14726336D01*
X6627829Y-14726336D02*
X6618306Y-14735860D01*
X6618306Y-14735860D02*
X6599258Y-14745384D01*
X6599258Y-14745384D02*
X6542115Y-14745384D01*
X6542115Y-14745384D02*
X6523067Y-14735860D01*
X6523067Y-14735860D02*
X6513544Y-14726336D01*
X6761163Y-14545384D02*
X6780210Y-14545384D01*
X6780210Y-14545384D02*
X6799258Y-14554907D01*
X6799258Y-14554907D02*
X6808782Y-14564431D01*
X6808782Y-14564431D02*
X6818306Y-14583479D01*
X6818306Y-14583479D02*
X6827829Y-14621574D01*
X6827829Y-14621574D02*
X6827829Y-14669193D01*
X6827829Y-14669193D02*
X6818306Y-14707288D01*
X6818306Y-14707288D02*
X6808782Y-14726336D01*
X6808782Y-14726336D02*
X6799258Y-14735860D01*
X6799258Y-14735860D02*
X6780210Y-14745384D01*
X6780210Y-14745384D02*
X6761163Y-14745384D01*
X6761163Y-14745384D02*
X6742115Y-14735860D01*
X6742115Y-14735860D02*
X6732591Y-14726336D01*
X6732591Y-14726336D02*
X6723067Y-14707288D01*
X6723067Y-14707288D02*
X6713544Y-14669193D01*
X6713544Y-14669193D02*
X6713544Y-14621574D01*
X6713544Y-14621574D02*
X6723067Y-14583479D01*
X6723067Y-14583479D02*
X6732591Y-14564431D01*
X6732591Y-14564431D02*
X6742115Y-14554907D01*
X6742115Y-14554907D02*
X6761163Y-14545384D01*
X6951639Y-14545384D02*
X6970687Y-14545384D01*
X6970687Y-14545384D02*
X6989734Y-14554907D01*
X6989734Y-14554907D02*
X6999258Y-14564431D01*
X6999258Y-14564431D02*
X7008782Y-14583479D01*
X7008782Y-14583479D02*
X7018306Y-14621574D01*
X7018306Y-14621574D02*
X7018306Y-14669193D01*
X7018306Y-14669193D02*
X7008782Y-14707288D01*
X7008782Y-14707288D02*
X6999258Y-14726336D01*
X6999258Y-14726336D02*
X6989734Y-14735860D01*
X6989734Y-14735860D02*
X6970687Y-14745384D01*
X6970687Y-14745384D02*
X6951639Y-14745384D01*
X6951639Y-14745384D02*
X6932591Y-14735860D01*
X6932591Y-14735860D02*
X6923067Y-14726336D01*
X6923067Y-14726336D02*
X6913544Y-14707288D01*
X6913544Y-14707288D02*
X6904020Y-14669193D01*
X6904020Y-14669193D02*
X6904020Y-14621574D01*
X6904020Y-14621574D02*
X6913544Y-14583479D01*
X6913544Y-14583479D02*
X6923067Y-14564431D01*
X6923067Y-14564431D02*
X6932591Y-14554907D01*
X6932591Y-14554907D02*
X6951639Y-14545384D01*
X7104020Y-14745384D02*
X7104020Y-14612050D01*
X7104020Y-14631098D02*
X7113544Y-14621574D01*
X7113544Y-14621574D02*
X7132591Y-14612050D01*
X7132591Y-14612050D02*
X7161163Y-14612050D01*
X7161163Y-14612050D02*
X7180210Y-14621574D01*
X7180210Y-14621574D02*
X7189734Y-14640622D01*
X7189734Y-14640622D02*
X7189734Y-14745384D01*
X7189734Y-14640622D02*
X7199258Y-14621574D01*
X7199258Y-14621574D02*
X7218306Y-14612050D01*
X7218306Y-14612050D02*
X7246877Y-14612050D01*
X7246877Y-14612050D02*
X7265925Y-14621574D01*
X7265925Y-14621574D02*
X7275448Y-14640622D01*
X7275448Y-14640622D02*
X7275448Y-14745384D01*
X7370687Y-14745384D02*
X7370687Y-14612050D01*
X7370687Y-14631098D02*
X7380210Y-14621574D01*
X7380210Y-14621574D02*
X7399258Y-14612050D01*
X7399258Y-14612050D02*
X7427829Y-14612050D01*
X7427829Y-14612050D02*
X7446877Y-14621574D01*
X7446877Y-14621574D02*
X7456401Y-14640622D01*
X7456401Y-14640622D02*
X7456401Y-14745384D01*
X7456401Y-14640622D02*
X7465925Y-14621574D01*
X7465925Y-14621574D02*
X7484972Y-14612050D01*
X7484972Y-14612050D02*
X7513544Y-14612050D01*
X7513544Y-14612050D02*
X7532591Y-14621574D01*
X7532591Y-14621574D02*
X7542115Y-14640622D01*
X7542115Y-14640622D02*
X7542115Y-14745384D01*
X7932591Y-14535860D02*
X7761163Y-14793003D01*
X8189734Y-14545384D02*
X8208782Y-14545384D01*
X8208782Y-14545384D02*
X8227830Y-14554907D01*
X8227830Y-14554907D02*
X8237353Y-14564431D01*
X8237353Y-14564431D02*
X8246877Y-14583479D01*
X8246877Y-14583479D02*
X8256401Y-14621574D01*
X8256401Y-14621574D02*
X8256401Y-14669193D01*
X8256401Y-14669193D02*
X8246877Y-14707288D01*
X8246877Y-14707288D02*
X8237353Y-14726336D01*
X8237353Y-14726336D02*
X8227830Y-14735860D01*
X8227830Y-14735860D02*
X8208782Y-14745384D01*
X8208782Y-14745384D02*
X8189734Y-14745384D01*
X8189734Y-14745384D02*
X8170687Y-14735860D01*
X8170687Y-14735860D02*
X8161163Y-14726336D01*
X8161163Y-14726336D02*
X8151639Y-14707288D01*
X8151639Y-14707288D02*
X8142115Y-14669193D01*
X8142115Y-14669193D02*
X8142115Y-14621574D01*
X8142115Y-14621574D02*
X8151639Y-14583479D01*
X8151639Y-14583479D02*
X8161163Y-14564431D01*
X8161163Y-14564431D02*
X8170687Y-14554907D01*
X8170687Y-14554907D02*
X8189734Y-14545384D01*
X8342115Y-14726336D02*
X8351639Y-14735860D01*
X8351639Y-14735860D02*
X8342115Y-14745384D01*
X8342115Y-14745384D02*
X8332591Y-14735860D01*
X8332591Y-14735860D02*
X8342115Y-14726336D01*
X8342115Y-14726336D02*
X8342115Y-14745384D01*
X8475449Y-14545384D02*
X8494496Y-14545384D01*
X8494496Y-14545384D02*
X8513544Y-14554907D01*
X8513544Y-14554907D02*
X8523068Y-14564431D01*
X8523068Y-14564431D02*
X8532592Y-14583479D01*
X8532592Y-14583479D02*
X8542115Y-14621574D01*
X8542115Y-14621574D02*
X8542115Y-14669193D01*
X8542115Y-14669193D02*
X8532592Y-14707288D01*
X8532592Y-14707288D02*
X8523068Y-14726336D01*
X8523068Y-14726336D02*
X8513544Y-14735860D01*
X8513544Y-14735860D02*
X8494496Y-14745384D01*
X8494496Y-14745384D02*
X8475449Y-14745384D01*
X8475449Y-14745384D02*
X8456401Y-14735860D01*
X8456401Y-14735860D02*
X8446877Y-14726336D01*
X8446877Y-14726336D02*
X8437353Y-14707288D01*
X8437353Y-14707288D02*
X8427830Y-14669193D01*
X8427830Y-14669193D02*
X8427830Y-14621574D01*
X8427830Y-14621574D02*
X8437353Y-14583479D01*
X8437353Y-14583479D02*
X8446877Y-14564431D01*
X8446877Y-14564431D02*
X8456401Y-14554907D01*
X8456401Y-14554907D02*
X8475449Y-14545384D01*
X8732592Y-14745384D02*
X8618306Y-14745384D01*
X8675449Y-14745384D02*
X8675449Y-14545384D01*
X8675449Y-14545384D02*
X8656401Y-14573955D01*
X8656401Y-14573955D02*
X8637353Y-14593003D01*
X8637353Y-14593003D02*
X8618306Y-14602526D01*
X8923068Y-14745384D02*
X8808782Y-14745384D01*
X8865925Y-14745384D02*
X8865925Y-14545384D01*
X8865925Y-14545384D02*
X8846877Y-14573955D01*
X8846877Y-14573955D02*
X8827830Y-14593003D01*
X8827830Y-14593003D02*
X8808782Y-14602526D01*
X9037353Y-14631098D02*
X9018306Y-14621574D01*
X9018306Y-14621574D02*
X9008782Y-14612050D01*
X9008782Y-14612050D02*
X8999258Y-14593003D01*
X8999258Y-14593003D02*
X8999258Y-14583479D01*
X8999258Y-14583479D02*
X9008782Y-14564431D01*
X9008782Y-14564431D02*
X9018306Y-14554907D01*
X9018306Y-14554907D02*
X9037353Y-14545384D01*
X9037353Y-14545384D02*
X9075449Y-14545384D01*
X9075449Y-14545384D02*
X9094496Y-14554907D01*
X9094496Y-14554907D02*
X9104020Y-14564431D01*
X9104020Y-14564431D02*
X9113544Y-14583479D01*
X9113544Y-14583479D02*
X9113544Y-14593003D01*
X9113544Y-14593003D02*
X9104020Y-14612050D01*
X9104020Y-14612050D02*
X9094496Y-14621574D01*
X9094496Y-14621574D02*
X9075449Y-14631098D01*
X9075449Y-14631098D02*
X9037353Y-14631098D01*
X9037353Y-14631098D02*
X9018306Y-14640622D01*
X9018306Y-14640622D02*
X9008782Y-14650145D01*
X9008782Y-14650145D02*
X8999258Y-14669193D01*
X8999258Y-14669193D02*
X8999258Y-14707288D01*
X8999258Y-14707288D02*
X9008782Y-14726336D01*
X9008782Y-14726336D02*
X9018306Y-14735860D01*
X9018306Y-14735860D02*
X9037353Y-14745384D01*
X9037353Y-14745384D02*
X9075449Y-14745384D01*
X9075449Y-14745384D02*
X9094496Y-14735860D01*
X9094496Y-14735860D02*
X9104020Y-14726336D01*
X9104020Y-14726336D02*
X9113544Y-14707288D01*
X9113544Y-14707288D02*
X9113544Y-14669193D01*
X9113544Y-14669193D02*
X9104020Y-14650145D01*
X9104020Y-14650145D02*
X9094496Y-14640622D01*
X9094496Y-14640622D02*
X9075449Y-14631098D01*
X9189734Y-14545384D02*
X9189734Y-14583479D01*
X9265925Y-14545384D02*
X9265925Y-14583479D01*
X9561163Y-14821574D02*
X9551639Y-14812050D01*
X9551639Y-14812050D02*
X9532592Y-14783479D01*
X9532592Y-14783479D02*
X9523068Y-14764431D01*
X9523068Y-14764431D02*
X9513544Y-14735860D01*
X9513544Y-14735860D02*
X9504020Y-14688241D01*
X9504020Y-14688241D02*
X9504020Y-14650145D01*
X9504020Y-14650145D02*
X9513544Y-14602526D01*
X9513544Y-14602526D02*
X9523068Y-14573955D01*
X9523068Y-14573955D02*
X9532592Y-14554907D01*
X9532592Y-14554907D02*
X9551639Y-14526336D01*
X9551639Y-14526336D02*
X9561163Y-14516812D01*
X9723068Y-14612050D02*
X9723068Y-14745384D01*
X9675449Y-14535860D02*
X9627830Y-14678717D01*
X9627830Y-14678717D02*
X9751639Y-14678717D01*
X9808782Y-14545384D02*
X9942115Y-14545384D01*
X9942115Y-14545384D02*
X9856401Y-14745384D01*
X10170687Y-14745384D02*
X10170687Y-14545384D01*
X10256401Y-14745384D02*
X10256401Y-14640622D01*
X10256401Y-14640622D02*
X10246877Y-14621574D01*
X10246877Y-14621574D02*
X10227830Y-14612050D01*
X10227830Y-14612050D02*
X10199258Y-14612050D01*
X10199258Y-14612050D02*
X10180211Y-14621574D01*
X10180211Y-14621574D02*
X10170687Y-14631098D01*
X10380211Y-14745384D02*
X10361163Y-14735860D01*
X10361163Y-14735860D02*
X10351639Y-14726336D01*
X10351639Y-14726336D02*
X10342116Y-14707288D01*
X10342116Y-14707288D02*
X10342116Y-14650145D01*
X10342116Y-14650145D02*
X10351639Y-14631098D01*
X10351639Y-14631098D02*
X10361163Y-14621574D01*
X10361163Y-14621574D02*
X10380211Y-14612050D01*
X10380211Y-14612050D02*
X10408782Y-14612050D01*
X10408782Y-14612050D02*
X10427830Y-14621574D01*
X10427830Y-14621574D02*
X10437354Y-14631098D01*
X10437354Y-14631098D02*
X10446877Y-14650145D01*
X10446877Y-14650145D02*
X10446877Y-14707288D01*
X10446877Y-14707288D02*
X10437354Y-14726336D01*
X10437354Y-14726336D02*
X10427830Y-14735860D01*
X10427830Y-14735860D02*
X10408782Y-14745384D01*
X10408782Y-14745384D02*
X10380211Y-14745384D01*
X10561163Y-14745384D02*
X10542116Y-14735860D01*
X10542116Y-14735860D02*
X10532592Y-14716812D01*
X10532592Y-14716812D02*
X10532592Y-14545384D01*
X10713544Y-14735860D02*
X10694497Y-14745384D01*
X10694497Y-14745384D02*
X10656401Y-14745384D01*
X10656401Y-14745384D02*
X10637354Y-14735860D01*
X10637354Y-14735860D02*
X10627830Y-14716812D01*
X10627830Y-14716812D02*
X10627830Y-14640622D01*
X10627830Y-14640622D02*
X10637354Y-14621574D01*
X10637354Y-14621574D02*
X10656401Y-14612050D01*
X10656401Y-14612050D02*
X10694497Y-14612050D01*
X10694497Y-14612050D02*
X10713544Y-14621574D01*
X10713544Y-14621574D02*
X10723068Y-14640622D01*
X10723068Y-14640622D02*
X10723068Y-14659669D01*
X10723068Y-14659669D02*
X10627830Y-14678717D01*
X10799258Y-14735860D02*
X10818306Y-14745384D01*
X10818306Y-14745384D02*
X10856401Y-14745384D01*
X10856401Y-14745384D02*
X10875449Y-14735860D01*
X10875449Y-14735860D02*
X10884973Y-14716812D01*
X10884973Y-14716812D02*
X10884973Y-14707288D01*
X10884973Y-14707288D02*
X10875449Y-14688241D01*
X10875449Y-14688241D02*
X10856401Y-14678717D01*
X10856401Y-14678717D02*
X10827830Y-14678717D01*
X10827830Y-14678717D02*
X10808782Y-14669193D01*
X10808782Y-14669193D02*
X10799258Y-14650145D01*
X10799258Y-14650145D02*
X10799258Y-14640622D01*
X10799258Y-14640622D02*
X10808782Y-14621574D01*
X10808782Y-14621574D02*
X10827830Y-14612050D01*
X10827830Y-14612050D02*
X10856401Y-14612050D01*
X10856401Y-14612050D02*
X10875449Y-14621574D01*
X10951639Y-14821574D02*
X10961163Y-14812050D01*
X10961163Y-14812050D02*
X10980211Y-14783479D01*
X10980211Y-14783479D02*
X10989735Y-14764431D01*
X10989735Y-14764431D02*
X10999258Y-14735860D01*
X10999258Y-14735860D02*
X11008782Y-14688241D01*
X11008782Y-14688241D02*
X11008782Y-14650145D01*
X11008782Y-14650145D02*
X10999258Y-14602526D01*
X10999258Y-14602526D02*
X10989735Y-14573955D01*
X10989735Y-14573955D02*
X10980211Y-14554907D01*
X10980211Y-14554907D02*
X10961163Y-14526336D01*
X10961163Y-14526336D02*
X10951639Y-14516812D01*
D12*
X5986100Y-14917900D02*
G75*
G02*
X5906100Y-14917900I-40000J0D01*
G01*
X5906100Y-14917900D02*
G75*
G02*
X5986100Y-14917900I40000J0D01*
G01*
D11*
X6284972Y-14809384D02*
X6304020Y-14809384D01*
X6304020Y-14809384D02*
X6323067Y-14818907D01*
X6323067Y-14818907D02*
X6332591Y-14828431D01*
X6332591Y-14828431D02*
X6342115Y-14847479D01*
X6342115Y-14847479D02*
X6351639Y-14885574D01*
X6351639Y-14885574D02*
X6351639Y-14933193D01*
X6351639Y-14933193D02*
X6342115Y-14971288D01*
X6342115Y-14971288D02*
X6332591Y-14990336D01*
X6332591Y-14990336D02*
X6323067Y-14999860D01*
X6323067Y-14999860D02*
X6304020Y-15009384D01*
X6304020Y-15009384D02*
X6284972Y-15009384D01*
X6284972Y-15009384D02*
X6265925Y-14999860D01*
X6265925Y-14999860D02*
X6256401Y-14990336D01*
X6256401Y-14990336D02*
X6246877Y-14971288D01*
X6246877Y-14971288D02*
X6237353Y-14933193D01*
X6237353Y-14933193D02*
X6237353Y-14885574D01*
X6237353Y-14885574D02*
X6246877Y-14847479D01*
X6246877Y-14847479D02*
X6256401Y-14828431D01*
X6256401Y-14828431D02*
X6265925Y-14818907D01*
X6265925Y-14818907D02*
X6284972Y-14809384D01*
X6437353Y-14990336D02*
X6446877Y-14999860D01*
X6446877Y-14999860D02*
X6437353Y-15009384D01*
X6437353Y-15009384D02*
X6427829Y-14999860D01*
X6427829Y-14999860D02*
X6437353Y-14990336D01*
X6437353Y-14990336D02*
X6437353Y-15009384D01*
X6561163Y-14895098D02*
X6542115Y-14885574D01*
X6542115Y-14885574D02*
X6532591Y-14876050D01*
X6532591Y-14876050D02*
X6523067Y-14857003D01*
X6523067Y-14857003D02*
X6523067Y-14847479D01*
X6523067Y-14847479D02*
X6532591Y-14828431D01*
X6532591Y-14828431D02*
X6542115Y-14818907D01*
X6542115Y-14818907D02*
X6561163Y-14809384D01*
X6561163Y-14809384D02*
X6599258Y-14809384D01*
X6599258Y-14809384D02*
X6618306Y-14818907D01*
X6618306Y-14818907D02*
X6627829Y-14828431D01*
X6627829Y-14828431D02*
X6637353Y-14847479D01*
X6637353Y-14847479D02*
X6637353Y-14857003D01*
X6637353Y-14857003D02*
X6627829Y-14876050D01*
X6627829Y-14876050D02*
X6618306Y-14885574D01*
X6618306Y-14885574D02*
X6599258Y-14895098D01*
X6599258Y-14895098D02*
X6561163Y-14895098D01*
X6561163Y-14895098D02*
X6542115Y-14904622D01*
X6542115Y-14904622D02*
X6532591Y-14914145D01*
X6532591Y-14914145D02*
X6523067Y-14933193D01*
X6523067Y-14933193D02*
X6523067Y-14971288D01*
X6523067Y-14971288D02*
X6532591Y-14990336D01*
X6532591Y-14990336D02*
X6542115Y-14999860D01*
X6542115Y-14999860D02*
X6561163Y-15009384D01*
X6561163Y-15009384D02*
X6599258Y-15009384D01*
X6599258Y-15009384D02*
X6618306Y-14999860D01*
X6618306Y-14999860D02*
X6627829Y-14990336D01*
X6627829Y-14990336D02*
X6637353Y-14971288D01*
X6637353Y-14971288D02*
X6637353Y-14933193D01*
X6637353Y-14933193D02*
X6627829Y-14914145D01*
X6627829Y-14914145D02*
X6618306Y-14904622D01*
X6618306Y-14904622D02*
X6599258Y-14895098D01*
X6761163Y-14809384D02*
X6780210Y-14809384D01*
X6780210Y-14809384D02*
X6799258Y-14818907D01*
X6799258Y-14818907D02*
X6808782Y-14828431D01*
X6808782Y-14828431D02*
X6818306Y-14847479D01*
X6818306Y-14847479D02*
X6827829Y-14885574D01*
X6827829Y-14885574D02*
X6827829Y-14933193D01*
X6827829Y-14933193D02*
X6818306Y-14971288D01*
X6818306Y-14971288D02*
X6808782Y-14990336D01*
X6808782Y-14990336D02*
X6799258Y-14999860D01*
X6799258Y-14999860D02*
X6780210Y-15009384D01*
X6780210Y-15009384D02*
X6761163Y-15009384D01*
X6761163Y-15009384D02*
X6742115Y-14999860D01*
X6742115Y-14999860D02*
X6732591Y-14990336D01*
X6732591Y-14990336D02*
X6723067Y-14971288D01*
X6723067Y-14971288D02*
X6713544Y-14933193D01*
X6713544Y-14933193D02*
X6713544Y-14885574D01*
X6713544Y-14885574D02*
X6723067Y-14847479D01*
X6723067Y-14847479D02*
X6732591Y-14828431D01*
X6732591Y-14828431D02*
X6742115Y-14818907D01*
X6742115Y-14818907D02*
X6761163Y-14809384D01*
X6951639Y-14809384D02*
X6970687Y-14809384D01*
X6970687Y-14809384D02*
X6989734Y-14818907D01*
X6989734Y-14818907D02*
X6999258Y-14828431D01*
X6999258Y-14828431D02*
X7008782Y-14847479D01*
X7008782Y-14847479D02*
X7018306Y-14885574D01*
X7018306Y-14885574D02*
X7018306Y-14933193D01*
X7018306Y-14933193D02*
X7008782Y-14971288D01*
X7008782Y-14971288D02*
X6999258Y-14990336D01*
X6999258Y-14990336D02*
X6989734Y-14999860D01*
X6989734Y-14999860D02*
X6970687Y-15009384D01*
X6970687Y-15009384D02*
X6951639Y-15009384D01*
X6951639Y-15009384D02*
X6932591Y-14999860D01*
X6932591Y-14999860D02*
X6923067Y-14990336D01*
X6923067Y-14990336D02*
X6913544Y-14971288D01*
X6913544Y-14971288D02*
X6904020Y-14933193D01*
X6904020Y-14933193D02*
X6904020Y-14885574D01*
X6904020Y-14885574D02*
X6913544Y-14847479D01*
X6913544Y-14847479D02*
X6923067Y-14828431D01*
X6923067Y-14828431D02*
X6932591Y-14818907D01*
X6932591Y-14818907D02*
X6951639Y-14809384D01*
X7104020Y-15009384D02*
X7104020Y-14876050D01*
X7104020Y-14895098D02*
X7113544Y-14885574D01*
X7113544Y-14885574D02*
X7132591Y-14876050D01*
X7132591Y-14876050D02*
X7161163Y-14876050D01*
X7161163Y-14876050D02*
X7180210Y-14885574D01*
X7180210Y-14885574D02*
X7189734Y-14904622D01*
X7189734Y-14904622D02*
X7189734Y-15009384D01*
X7189734Y-14904622D02*
X7199258Y-14885574D01*
X7199258Y-14885574D02*
X7218306Y-14876050D01*
X7218306Y-14876050D02*
X7246877Y-14876050D01*
X7246877Y-14876050D02*
X7265925Y-14885574D01*
X7265925Y-14885574D02*
X7275448Y-14904622D01*
X7275448Y-14904622D02*
X7275448Y-15009384D01*
X7370687Y-15009384D02*
X7370687Y-14876050D01*
X7370687Y-14895098D02*
X7380210Y-14885574D01*
X7380210Y-14885574D02*
X7399258Y-14876050D01*
X7399258Y-14876050D02*
X7427829Y-14876050D01*
X7427829Y-14876050D02*
X7446877Y-14885574D01*
X7446877Y-14885574D02*
X7456401Y-14904622D01*
X7456401Y-14904622D02*
X7456401Y-15009384D01*
X7456401Y-14904622D02*
X7465925Y-14885574D01*
X7465925Y-14885574D02*
X7484972Y-14876050D01*
X7484972Y-14876050D02*
X7513544Y-14876050D01*
X7513544Y-14876050D02*
X7532591Y-14885574D01*
X7532591Y-14885574D02*
X7542115Y-14904622D01*
X7542115Y-14904622D02*
X7542115Y-15009384D01*
X7932591Y-14799860D02*
X7761163Y-15057003D01*
X8189734Y-14809384D02*
X8208782Y-14809384D01*
X8208782Y-14809384D02*
X8227830Y-14818907D01*
X8227830Y-14818907D02*
X8237353Y-14828431D01*
X8237353Y-14828431D02*
X8246877Y-14847479D01*
X8246877Y-14847479D02*
X8256401Y-14885574D01*
X8256401Y-14885574D02*
X8256401Y-14933193D01*
X8256401Y-14933193D02*
X8246877Y-14971288D01*
X8246877Y-14971288D02*
X8237353Y-14990336D01*
X8237353Y-14990336D02*
X8227830Y-14999860D01*
X8227830Y-14999860D02*
X8208782Y-15009384D01*
X8208782Y-15009384D02*
X8189734Y-15009384D01*
X8189734Y-15009384D02*
X8170687Y-14999860D01*
X8170687Y-14999860D02*
X8161163Y-14990336D01*
X8161163Y-14990336D02*
X8151639Y-14971288D01*
X8151639Y-14971288D02*
X8142115Y-14933193D01*
X8142115Y-14933193D02*
X8142115Y-14885574D01*
X8142115Y-14885574D02*
X8151639Y-14847479D01*
X8151639Y-14847479D02*
X8161163Y-14828431D01*
X8161163Y-14828431D02*
X8170687Y-14818907D01*
X8170687Y-14818907D02*
X8189734Y-14809384D01*
X8342115Y-14990336D02*
X8351639Y-14999860D01*
X8351639Y-14999860D02*
X8342115Y-15009384D01*
X8342115Y-15009384D02*
X8332591Y-14999860D01*
X8332591Y-14999860D02*
X8342115Y-14990336D01*
X8342115Y-14990336D02*
X8342115Y-15009384D01*
X8475449Y-14809384D02*
X8494496Y-14809384D01*
X8494496Y-14809384D02*
X8513544Y-14818907D01*
X8513544Y-14818907D02*
X8523068Y-14828431D01*
X8523068Y-14828431D02*
X8532592Y-14847479D01*
X8532592Y-14847479D02*
X8542115Y-14885574D01*
X8542115Y-14885574D02*
X8542115Y-14933193D01*
X8542115Y-14933193D02*
X8532592Y-14971288D01*
X8532592Y-14971288D02*
X8523068Y-14990336D01*
X8523068Y-14990336D02*
X8513544Y-14999860D01*
X8513544Y-14999860D02*
X8494496Y-15009384D01*
X8494496Y-15009384D02*
X8475449Y-15009384D01*
X8475449Y-15009384D02*
X8456401Y-14999860D01*
X8456401Y-14999860D02*
X8446877Y-14990336D01*
X8446877Y-14990336D02*
X8437353Y-14971288D01*
X8437353Y-14971288D02*
X8427830Y-14933193D01*
X8427830Y-14933193D02*
X8427830Y-14885574D01*
X8427830Y-14885574D02*
X8437353Y-14847479D01*
X8437353Y-14847479D02*
X8446877Y-14828431D01*
X8446877Y-14828431D02*
X8456401Y-14818907D01*
X8456401Y-14818907D02*
X8475449Y-14809384D01*
X8608782Y-14809384D02*
X8732592Y-14809384D01*
X8732592Y-14809384D02*
X8665925Y-14885574D01*
X8665925Y-14885574D02*
X8694496Y-14885574D01*
X8694496Y-14885574D02*
X8713544Y-14895098D01*
X8713544Y-14895098D02*
X8723068Y-14904622D01*
X8723068Y-14904622D02*
X8732592Y-14923669D01*
X8732592Y-14923669D02*
X8732592Y-14971288D01*
X8732592Y-14971288D02*
X8723068Y-14990336D01*
X8723068Y-14990336D02*
X8713544Y-14999860D01*
X8713544Y-14999860D02*
X8694496Y-15009384D01*
X8694496Y-15009384D02*
X8637353Y-15009384D01*
X8637353Y-15009384D02*
X8618306Y-14999860D01*
X8618306Y-14999860D02*
X8608782Y-14990336D01*
X8923068Y-15009384D02*
X8808782Y-15009384D01*
X8865925Y-15009384D02*
X8865925Y-14809384D01*
X8865925Y-14809384D02*
X8846877Y-14837955D01*
X8846877Y-14837955D02*
X8827830Y-14857003D01*
X8827830Y-14857003D02*
X8808782Y-14866526D01*
X9104020Y-14809384D02*
X9008782Y-14809384D01*
X9008782Y-14809384D02*
X8999258Y-14904622D01*
X8999258Y-14904622D02*
X9008782Y-14895098D01*
X9008782Y-14895098D02*
X9027830Y-14885574D01*
X9027830Y-14885574D02*
X9075449Y-14885574D01*
X9075449Y-14885574D02*
X9094496Y-14895098D01*
X9094496Y-14895098D02*
X9104020Y-14904622D01*
X9104020Y-14904622D02*
X9113544Y-14923669D01*
X9113544Y-14923669D02*
X9113544Y-14971288D01*
X9113544Y-14971288D02*
X9104020Y-14990336D01*
X9104020Y-14990336D02*
X9094496Y-14999860D01*
X9094496Y-14999860D02*
X9075449Y-15009384D01*
X9075449Y-15009384D02*
X9027830Y-15009384D01*
X9027830Y-15009384D02*
X9008782Y-14999860D01*
X9008782Y-14999860D02*
X8999258Y-14990336D01*
X9189734Y-14809384D02*
X9189734Y-14847479D01*
X9265925Y-14809384D02*
X9265925Y-14847479D01*
X9561163Y-15085574D02*
X9551639Y-15076050D01*
X9551639Y-15076050D02*
X9532592Y-15047479D01*
X9532592Y-15047479D02*
X9523068Y-15028431D01*
X9523068Y-15028431D02*
X9513544Y-14999860D01*
X9513544Y-14999860D02*
X9504020Y-14952241D01*
X9504020Y-14952241D02*
X9504020Y-14914145D01*
X9504020Y-14914145D02*
X9513544Y-14866526D01*
X9513544Y-14866526D02*
X9523068Y-14837955D01*
X9523068Y-14837955D02*
X9532592Y-14818907D01*
X9532592Y-14818907D02*
X9551639Y-14790336D01*
X9551639Y-14790336D02*
X9561163Y-14780812D01*
X9665925Y-14895098D02*
X9646877Y-14885574D01*
X9646877Y-14885574D02*
X9637354Y-14876050D01*
X9637354Y-14876050D02*
X9627830Y-14857003D01*
X9627830Y-14857003D02*
X9627830Y-14847479D01*
X9627830Y-14847479D02*
X9637354Y-14828431D01*
X9637354Y-14828431D02*
X9646877Y-14818907D01*
X9646877Y-14818907D02*
X9665925Y-14809384D01*
X9665925Y-14809384D02*
X9704020Y-14809384D01*
X9704020Y-14809384D02*
X9723068Y-14818907D01*
X9723068Y-14818907D02*
X9732592Y-14828431D01*
X9732592Y-14828431D02*
X9742115Y-14847479D01*
X9742115Y-14847479D02*
X9742115Y-14857003D01*
X9742115Y-14857003D02*
X9732592Y-14876050D01*
X9732592Y-14876050D02*
X9723068Y-14885574D01*
X9723068Y-14885574D02*
X9704020Y-14895098D01*
X9704020Y-14895098D02*
X9665925Y-14895098D01*
X9665925Y-14895098D02*
X9646877Y-14904622D01*
X9646877Y-14904622D02*
X9637354Y-14914145D01*
X9637354Y-14914145D02*
X9627830Y-14933193D01*
X9627830Y-14933193D02*
X9627830Y-14971288D01*
X9627830Y-14971288D02*
X9637354Y-14990336D01*
X9637354Y-14990336D02*
X9646877Y-14999860D01*
X9646877Y-14999860D02*
X9665925Y-15009384D01*
X9665925Y-15009384D02*
X9704020Y-15009384D01*
X9704020Y-15009384D02*
X9723068Y-14999860D01*
X9723068Y-14999860D02*
X9732592Y-14990336D01*
X9732592Y-14990336D02*
X9742115Y-14971288D01*
X9742115Y-14971288D02*
X9742115Y-14933193D01*
X9742115Y-14933193D02*
X9732592Y-14914145D01*
X9732592Y-14914145D02*
X9723068Y-14904622D01*
X9723068Y-14904622D02*
X9704020Y-14895098D01*
X9980211Y-15009384D02*
X9980211Y-14809384D01*
X10065925Y-15009384D02*
X10065925Y-14904622D01*
X10065925Y-14904622D02*
X10056401Y-14885574D01*
X10056401Y-14885574D02*
X10037354Y-14876050D01*
X10037354Y-14876050D02*
X10008782Y-14876050D01*
X10008782Y-14876050D02*
X9989735Y-14885574D01*
X9989735Y-14885574D02*
X9980211Y-14895098D01*
X10189735Y-15009384D02*
X10170687Y-14999860D01*
X10170687Y-14999860D02*
X10161163Y-14990336D01*
X10161163Y-14990336D02*
X10151639Y-14971288D01*
X10151639Y-14971288D02*
X10151639Y-14914145D01*
X10151639Y-14914145D02*
X10161163Y-14895098D01*
X10161163Y-14895098D02*
X10170687Y-14885574D01*
X10170687Y-14885574D02*
X10189735Y-14876050D01*
X10189735Y-14876050D02*
X10218306Y-14876050D01*
X10218306Y-14876050D02*
X10237354Y-14885574D01*
X10237354Y-14885574D02*
X10246877Y-14895098D01*
X10246877Y-14895098D02*
X10256401Y-14914145D01*
X10256401Y-14914145D02*
X10256401Y-14971288D01*
X10256401Y-14971288D02*
X10246877Y-14990336D01*
X10246877Y-14990336D02*
X10237354Y-14999860D01*
X10237354Y-14999860D02*
X10218306Y-15009384D01*
X10218306Y-15009384D02*
X10189735Y-15009384D01*
X10370687Y-15009384D02*
X10351639Y-14999860D01*
X10351639Y-14999860D02*
X10342116Y-14980812D01*
X10342116Y-14980812D02*
X10342116Y-14809384D01*
X10523068Y-14999860D02*
X10504020Y-15009384D01*
X10504020Y-15009384D02*
X10465925Y-15009384D01*
X10465925Y-15009384D02*
X10446877Y-14999860D01*
X10446877Y-14999860D02*
X10437354Y-14980812D01*
X10437354Y-14980812D02*
X10437354Y-14904622D01*
X10437354Y-14904622D02*
X10446877Y-14885574D01*
X10446877Y-14885574D02*
X10465925Y-14876050D01*
X10465925Y-14876050D02*
X10504020Y-14876050D01*
X10504020Y-14876050D02*
X10523068Y-14885574D01*
X10523068Y-14885574D02*
X10532592Y-14904622D01*
X10532592Y-14904622D02*
X10532592Y-14923669D01*
X10532592Y-14923669D02*
X10437354Y-14942717D01*
X10608782Y-14999860D02*
X10627830Y-15009384D01*
X10627830Y-15009384D02*
X10665925Y-15009384D01*
X10665925Y-15009384D02*
X10684973Y-14999860D01*
X10684973Y-14999860D02*
X10694497Y-14980812D01*
X10694497Y-14980812D02*
X10694497Y-14971288D01*
X10694497Y-14971288D02*
X10684973Y-14952241D01*
X10684973Y-14952241D02*
X10665925Y-14942717D01*
X10665925Y-14942717D02*
X10637354Y-14942717D01*
X10637354Y-14942717D02*
X10618306Y-14933193D01*
X10618306Y-14933193D02*
X10608782Y-14914145D01*
X10608782Y-14914145D02*
X10608782Y-14904622D01*
X10608782Y-14904622D02*
X10618306Y-14885574D01*
X10618306Y-14885574D02*
X10637354Y-14876050D01*
X10637354Y-14876050D02*
X10665925Y-14876050D01*
X10665925Y-14876050D02*
X10684973Y-14885574D01*
X10761163Y-15085574D02*
X10770687Y-15076050D01*
X10770687Y-15076050D02*
X10789735Y-15047479D01*
X10789735Y-15047479D02*
X10799258Y-15028431D01*
X10799258Y-15028431D02*
X10808782Y-14999860D01*
X10808782Y-14999860D02*
X10818306Y-14952241D01*
X10818306Y-14952241D02*
X10818306Y-14914145D01*
X10818306Y-14914145D02*
X10808782Y-14866526D01*
X10808782Y-14866526D02*
X10799258Y-14837955D01*
X10799258Y-14837955D02*
X10789735Y-14818907D01*
X10789735Y-14818907D02*
X10770687Y-14790336D01*
X10770687Y-14790336D02*
X10761163Y-14780812D01*
D12*
X5941100Y-15136900D02*
X5941100Y-15226900D01*
X5896100Y-15181900D02*
X5986100Y-15181900D01*
D11*
X6284972Y-15073384D02*
X6304020Y-15073384D01*
X6304020Y-15073384D02*
X6323067Y-15082907D01*
X6323067Y-15082907D02*
X6332591Y-15092431D01*
X6332591Y-15092431D02*
X6342115Y-15111479D01*
X6342115Y-15111479D02*
X6351639Y-15149574D01*
X6351639Y-15149574D02*
X6351639Y-15197193D01*
X6351639Y-15197193D02*
X6342115Y-15235288D01*
X6342115Y-15235288D02*
X6332591Y-15254336D01*
X6332591Y-15254336D02*
X6323067Y-15263860D01*
X6323067Y-15263860D02*
X6304020Y-15273384D01*
X6304020Y-15273384D02*
X6284972Y-15273384D01*
X6284972Y-15273384D02*
X6265925Y-15263860D01*
X6265925Y-15263860D02*
X6256401Y-15254336D01*
X6256401Y-15254336D02*
X6246877Y-15235288D01*
X6246877Y-15235288D02*
X6237353Y-15197193D01*
X6237353Y-15197193D02*
X6237353Y-15149574D01*
X6237353Y-15149574D02*
X6246877Y-15111479D01*
X6246877Y-15111479D02*
X6256401Y-15092431D01*
X6256401Y-15092431D02*
X6265925Y-15082907D01*
X6265925Y-15082907D02*
X6284972Y-15073384D01*
X6437353Y-15254336D02*
X6446877Y-15263860D01*
X6446877Y-15263860D02*
X6437353Y-15273384D01*
X6437353Y-15273384D02*
X6427829Y-15263860D01*
X6427829Y-15263860D02*
X6437353Y-15254336D01*
X6437353Y-15254336D02*
X6437353Y-15273384D01*
X6542115Y-15273384D02*
X6580210Y-15273384D01*
X6580210Y-15273384D02*
X6599258Y-15263860D01*
X6599258Y-15263860D02*
X6608782Y-15254336D01*
X6608782Y-15254336D02*
X6627829Y-15225764D01*
X6627829Y-15225764D02*
X6637353Y-15187669D01*
X6637353Y-15187669D02*
X6637353Y-15111479D01*
X6637353Y-15111479D02*
X6627829Y-15092431D01*
X6627829Y-15092431D02*
X6618306Y-15082907D01*
X6618306Y-15082907D02*
X6599258Y-15073384D01*
X6599258Y-15073384D02*
X6561163Y-15073384D01*
X6561163Y-15073384D02*
X6542115Y-15082907D01*
X6542115Y-15082907D02*
X6532591Y-15092431D01*
X6532591Y-15092431D02*
X6523067Y-15111479D01*
X6523067Y-15111479D02*
X6523067Y-15159098D01*
X6523067Y-15159098D02*
X6532591Y-15178145D01*
X6532591Y-15178145D02*
X6542115Y-15187669D01*
X6542115Y-15187669D02*
X6561163Y-15197193D01*
X6561163Y-15197193D02*
X6599258Y-15197193D01*
X6599258Y-15197193D02*
X6618306Y-15187669D01*
X6618306Y-15187669D02*
X6627829Y-15178145D01*
X6627829Y-15178145D02*
X6637353Y-15159098D01*
X6761163Y-15073384D02*
X6780210Y-15073384D01*
X6780210Y-15073384D02*
X6799258Y-15082907D01*
X6799258Y-15082907D02*
X6808782Y-15092431D01*
X6808782Y-15092431D02*
X6818306Y-15111479D01*
X6818306Y-15111479D02*
X6827829Y-15149574D01*
X6827829Y-15149574D02*
X6827829Y-15197193D01*
X6827829Y-15197193D02*
X6818306Y-15235288D01*
X6818306Y-15235288D02*
X6808782Y-15254336D01*
X6808782Y-15254336D02*
X6799258Y-15263860D01*
X6799258Y-15263860D02*
X6780210Y-15273384D01*
X6780210Y-15273384D02*
X6761163Y-15273384D01*
X6761163Y-15273384D02*
X6742115Y-15263860D01*
X6742115Y-15263860D02*
X6732591Y-15254336D01*
X6732591Y-15254336D02*
X6723067Y-15235288D01*
X6723067Y-15235288D02*
X6713544Y-15197193D01*
X6713544Y-15197193D02*
X6713544Y-15149574D01*
X6713544Y-15149574D02*
X6723067Y-15111479D01*
X6723067Y-15111479D02*
X6732591Y-15092431D01*
X6732591Y-15092431D02*
X6742115Y-15082907D01*
X6742115Y-15082907D02*
X6761163Y-15073384D01*
X6951639Y-15073384D02*
X6970687Y-15073384D01*
X6970687Y-15073384D02*
X6989734Y-15082907D01*
X6989734Y-15082907D02*
X6999258Y-15092431D01*
X6999258Y-15092431D02*
X7008782Y-15111479D01*
X7008782Y-15111479D02*
X7018306Y-15149574D01*
X7018306Y-15149574D02*
X7018306Y-15197193D01*
X7018306Y-15197193D02*
X7008782Y-15235288D01*
X7008782Y-15235288D02*
X6999258Y-15254336D01*
X6999258Y-15254336D02*
X6989734Y-15263860D01*
X6989734Y-15263860D02*
X6970687Y-15273384D01*
X6970687Y-15273384D02*
X6951639Y-15273384D01*
X6951639Y-15273384D02*
X6932591Y-15263860D01*
X6932591Y-15263860D02*
X6923067Y-15254336D01*
X6923067Y-15254336D02*
X6913544Y-15235288D01*
X6913544Y-15235288D02*
X6904020Y-15197193D01*
X6904020Y-15197193D02*
X6904020Y-15149574D01*
X6904020Y-15149574D02*
X6913544Y-15111479D01*
X6913544Y-15111479D02*
X6923067Y-15092431D01*
X6923067Y-15092431D02*
X6932591Y-15082907D01*
X6932591Y-15082907D02*
X6951639Y-15073384D01*
X7104020Y-15273384D02*
X7104020Y-15140050D01*
X7104020Y-15159098D02*
X7113544Y-15149574D01*
X7113544Y-15149574D02*
X7132591Y-15140050D01*
X7132591Y-15140050D02*
X7161163Y-15140050D01*
X7161163Y-15140050D02*
X7180210Y-15149574D01*
X7180210Y-15149574D02*
X7189734Y-15168622D01*
X7189734Y-15168622D02*
X7189734Y-15273384D01*
X7189734Y-15168622D02*
X7199258Y-15149574D01*
X7199258Y-15149574D02*
X7218306Y-15140050D01*
X7218306Y-15140050D02*
X7246877Y-15140050D01*
X7246877Y-15140050D02*
X7265925Y-15149574D01*
X7265925Y-15149574D02*
X7275448Y-15168622D01*
X7275448Y-15168622D02*
X7275448Y-15273384D01*
X7370687Y-15273384D02*
X7370687Y-15140050D01*
X7370687Y-15159098D02*
X7380210Y-15149574D01*
X7380210Y-15149574D02*
X7399258Y-15140050D01*
X7399258Y-15140050D02*
X7427829Y-15140050D01*
X7427829Y-15140050D02*
X7446877Y-15149574D01*
X7446877Y-15149574D02*
X7456401Y-15168622D01*
X7456401Y-15168622D02*
X7456401Y-15273384D01*
X7456401Y-15168622D02*
X7465925Y-15149574D01*
X7465925Y-15149574D02*
X7484972Y-15140050D01*
X7484972Y-15140050D02*
X7513544Y-15140050D01*
X7513544Y-15140050D02*
X7532591Y-15149574D01*
X7532591Y-15149574D02*
X7542115Y-15168622D01*
X7542115Y-15168622D02*
X7542115Y-15273384D01*
X7932591Y-15063860D02*
X7761163Y-15321003D01*
X8189734Y-15073384D02*
X8208782Y-15073384D01*
X8208782Y-15073384D02*
X8227830Y-15082907D01*
X8227830Y-15082907D02*
X8237353Y-15092431D01*
X8237353Y-15092431D02*
X8246877Y-15111479D01*
X8246877Y-15111479D02*
X8256401Y-15149574D01*
X8256401Y-15149574D02*
X8256401Y-15197193D01*
X8256401Y-15197193D02*
X8246877Y-15235288D01*
X8246877Y-15235288D02*
X8237353Y-15254336D01*
X8237353Y-15254336D02*
X8227830Y-15263860D01*
X8227830Y-15263860D02*
X8208782Y-15273384D01*
X8208782Y-15273384D02*
X8189734Y-15273384D01*
X8189734Y-15273384D02*
X8170687Y-15263860D01*
X8170687Y-15263860D02*
X8161163Y-15254336D01*
X8161163Y-15254336D02*
X8151639Y-15235288D01*
X8151639Y-15235288D02*
X8142115Y-15197193D01*
X8142115Y-15197193D02*
X8142115Y-15149574D01*
X8142115Y-15149574D02*
X8151639Y-15111479D01*
X8151639Y-15111479D02*
X8161163Y-15092431D01*
X8161163Y-15092431D02*
X8170687Y-15082907D01*
X8170687Y-15082907D02*
X8189734Y-15073384D01*
X8342115Y-15254336D02*
X8351639Y-15263860D01*
X8351639Y-15263860D02*
X8342115Y-15273384D01*
X8342115Y-15273384D02*
X8332591Y-15263860D01*
X8332591Y-15263860D02*
X8342115Y-15254336D01*
X8342115Y-15254336D02*
X8342115Y-15273384D01*
X8475449Y-15073384D02*
X8494496Y-15073384D01*
X8494496Y-15073384D02*
X8513544Y-15082907D01*
X8513544Y-15082907D02*
X8523068Y-15092431D01*
X8523068Y-15092431D02*
X8532592Y-15111479D01*
X8532592Y-15111479D02*
X8542115Y-15149574D01*
X8542115Y-15149574D02*
X8542115Y-15197193D01*
X8542115Y-15197193D02*
X8532592Y-15235288D01*
X8532592Y-15235288D02*
X8523068Y-15254336D01*
X8523068Y-15254336D02*
X8513544Y-15263860D01*
X8513544Y-15263860D02*
X8494496Y-15273384D01*
X8494496Y-15273384D02*
X8475449Y-15273384D01*
X8475449Y-15273384D02*
X8456401Y-15263860D01*
X8456401Y-15263860D02*
X8446877Y-15254336D01*
X8446877Y-15254336D02*
X8437353Y-15235288D01*
X8437353Y-15235288D02*
X8427830Y-15197193D01*
X8427830Y-15197193D02*
X8427830Y-15149574D01*
X8427830Y-15149574D02*
X8437353Y-15111479D01*
X8437353Y-15111479D02*
X8446877Y-15092431D01*
X8446877Y-15092431D02*
X8456401Y-15082907D01*
X8456401Y-15082907D02*
X8475449Y-15073384D01*
X8608782Y-15073384D02*
X8732592Y-15073384D01*
X8732592Y-15073384D02*
X8665925Y-15149574D01*
X8665925Y-15149574D02*
X8694496Y-15149574D01*
X8694496Y-15149574D02*
X8713544Y-15159098D01*
X8713544Y-15159098D02*
X8723068Y-15168622D01*
X8723068Y-15168622D02*
X8732592Y-15187669D01*
X8732592Y-15187669D02*
X8732592Y-15235288D01*
X8732592Y-15235288D02*
X8723068Y-15254336D01*
X8723068Y-15254336D02*
X8713544Y-15263860D01*
X8713544Y-15263860D02*
X8694496Y-15273384D01*
X8694496Y-15273384D02*
X8637353Y-15273384D01*
X8637353Y-15273384D02*
X8618306Y-15263860D01*
X8618306Y-15263860D02*
X8608782Y-15254336D01*
X8913544Y-15073384D02*
X8818306Y-15073384D01*
X8818306Y-15073384D02*
X8808782Y-15168622D01*
X8808782Y-15168622D02*
X8818306Y-15159098D01*
X8818306Y-15159098D02*
X8837353Y-15149574D01*
X8837353Y-15149574D02*
X8884973Y-15149574D01*
X8884973Y-15149574D02*
X8904020Y-15159098D01*
X8904020Y-15159098D02*
X8913544Y-15168622D01*
X8913544Y-15168622D02*
X8923068Y-15187669D01*
X8923068Y-15187669D02*
X8923068Y-15235288D01*
X8923068Y-15235288D02*
X8913544Y-15254336D01*
X8913544Y-15254336D02*
X8904020Y-15263860D01*
X8904020Y-15263860D02*
X8884973Y-15273384D01*
X8884973Y-15273384D02*
X8837353Y-15273384D01*
X8837353Y-15273384D02*
X8818306Y-15263860D01*
X8818306Y-15263860D02*
X8808782Y-15254336D01*
X9094496Y-15140050D02*
X9094496Y-15273384D01*
X9046877Y-15063860D02*
X8999258Y-15206717D01*
X8999258Y-15206717D02*
X9123068Y-15206717D01*
X9189734Y-15073384D02*
X9189734Y-15111479D01*
X9265925Y-15073384D02*
X9265925Y-15111479D01*
X9561163Y-15349574D02*
X9551639Y-15340050D01*
X9551639Y-15340050D02*
X9532592Y-15311479D01*
X9532592Y-15311479D02*
X9523068Y-15292431D01*
X9523068Y-15292431D02*
X9513544Y-15263860D01*
X9513544Y-15263860D02*
X9504020Y-15216241D01*
X9504020Y-15216241D02*
X9504020Y-15178145D01*
X9504020Y-15178145D02*
X9513544Y-15130526D01*
X9513544Y-15130526D02*
X9523068Y-15101955D01*
X9523068Y-15101955D02*
X9532592Y-15082907D01*
X9532592Y-15082907D02*
X9551639Y-15054336D01*
X9551639Y-15054336D02*
X9561163Y-15044812D01*
X9618306Y-15073384D02*
X9742115Y-15073384D01*
X9742115Y-15073384D02*
X9675449Y-15149574D01*
X9675449Y-15149574D02*
X9704020Y-15149574D01*
X9704020Y-15149574D02*
X9723068Y-15159098D01*
X9723068Y-15159098D02*
X9732592Y-15168622D01*
X9732592Y-15168622D02*
X9742115Y-15187669D01*
X9742115Y-15187669D02*
X9742115Y-15235288D01*
X9742115Y-15235288D02*
X9732592Y-15254336D01*
X9732592Y-15254336D02*
X9723068Y-15263860D01*
X9723068Y-15263860D02*
X9704020Y-15273384D01*
X9704020Y-15273384D02*
X9646877Y-15273384D01*
X9646877Y-15273384D02*
X9627830Y-15263860D01*
X9627830Y-15263860D02*
X9618306Y-15254336D01*
X9980211Y-15273384D02*
X9980211Y-15073384D01*
X10065925Y-15273384D02*
X10065925Y-15168622D01*
X10065925Y-15168622D02*
X10056401Y-15149574D01*
X10056401Y-15149574D02*
X10037354Y-15140050D01*
X10037354Y-15140050D02*
X10008782Y-15140050D01*
X10008782Y-15140050D02*
X9989735Y-15149574D01*
X9989735Y-15149574D02*
X9980211Y-15159098D01*
X10189735Y-15273384D02*
X10170687Y-15263860D01*
X10170687Y-15263860D02*
X10161163Y-15254336D01*
X10161163Y-15254336D02*
X10151639Y-15235288D01*
X10151639Y-15235288D02*
X10151639Y-15178145D01*
X10151639Y-15178145D02*
X10161163Y-15159098D01*
X10161163Y-15159098D02*
X10170687Y-15149574D01*
X10170687Y-15149574D02*
X10189735Y-15140050D01*
X10189735Y-15140050D02*
X10218306Y-15140050D01*
X10218306Y-15140050D02*
X10237354Y-15149574D01*
X10237354Y-15149574D02*
X10246877Y-15159098D01*
X10246877Y-15159098D02*
X10256401Y-15178145D01*
X10256401Y-15178145D02*
X10256401Y-15235288D01*
X10256401Y-15235288D02*
X10246877Y-15254336D01*
X10246877Y-15254336D02*
X10237354Y-15263860D01*
X10237354Y-15263860D02*
X10218306Y-15273384D01*
X10218306Y-15273384D02*
X10189735Y-15273384D01*
X10370687Y-15273384D02*
X10351639Y-15263860D01*
X10351639Y-15263860D02*
X10342116Y-15244812D01*
X10342116Y-15244812D02*
X10342116Y-15073384D01*
X10523068Y-15263860D02*
X10504020Y-15273384D01*
X10504020Y-15273384D02*
X10465925Y-15273384D01*
X10465925Y-15273384D02*
X10446877Y-15263860D01*
X10446877Y-15263860D02*
X10437354Y-15244812D01*
X10437354Y-15244812D02*
X10437354Y-15168622D01*
X10437354Y-15168622D02*
X10446877Y-15149574D01*
X10446877Y-15149574D02*
X10465925Y-15140050D01*
X10465925Y-15140050D02*
X10504020Y-15140050D01*
X10504020Y-15140050D02*
X10523068Y-15149574D01*
X10523068Y-15149574D02*
X10532592Y-15168622D01*
X10532592Y-15168622D02*
X10532592Y-15187669D01*
X10532592Y-15187669D02*
X10437354Y-15206717D01*
X10608782Y-15263860D02*
X10627830Y-15273384D01*
X10627830Y-15273384D02*
X10665925Y-15273384D01*
X10665925Y-15273384D02*
X10684973Y-15263860D01*
X10684973Y-15263860D02*
X10694497Y-15244812D01*
X10694497Y-15244812D02*
X10694497Y-15235288D01*
X10694497Y-15235288D02*
X10684973Y-15216241D01*
X10684973Y-15216241D02*
X10665925Y-15206717D01*
X10665925Y-15206717D02*
X10637354Y-15206717D01*
X10637354Y-15206717D02*
X10618306Y-15197193D01*
X10618306Y-15197193D02*
X10608782Y-15178145D01*
X10608782Y-15178145D02*
X10608782Y-15168622D01*
X10608782Y-15168622D02*
X10618306Y-15149574D01*
X10618306Y-15149574D02*
X10637354Y-15140050D01*
X10637354Y-15140050D02*
X10665925Y-15140050D01*
X10665925Y-15140050D02*
X10684973Y-15149574D01*
X10761163Y-15349574D02*
X10770687Y-15340050D01*
X10770687Y-15340050D02*
X10789735Y-15311479D01*
X10789735Y-15311479D02*
X10799258Y-15292431D01*
X10799258Y-15292431D02*
X10808782Y-15263860D01*
X10808782Y-15263860D02*
X10818306Y-15216241D01*
X10818306Y-15216241D02*
X10818306Y-15178145D01*
X10818306Y-15178145D02*
X10808782Y-15130526D01*
X10808782Y-15130526D02*
X10799258Y-15101955D01*
X10799258Y-15101955D02*
X10789735Y-15082907D01*
X10789735Y-15082907D02*
X10770687Y-15054336D01*
X10770687Y-15054336D02*
X10761163Y-15044812D01*
D12*
X5971456Y-15481255D02*
X5971456Y-15410544D01*
X5900744Y-15410544D01*
X5900744Y-15481255D01*
X5971456Y-15481255D01*
D11*
X6351639Y-15537384D02*
X6237353Y-15537384D01*
X6294496Y-15537384D02*
X6294496Y-15337384D01*
X6294496Y-15337384D02*
X6275448Y-15365955D01*
X6275448Y-15365955D02*
X6256401Y-15385003D01*
X6256401Y-15385003D02*
X6237353Y-15394526D01*
X6437353Y-15518336D02*
X6446877Y-15527860D01*
X6446877Y-15527860D02*
X6437353Y-15537384D01*
X6437353Y-15537384D02*
X6427829Y-15527860D01*
X6427829Y-15527860D02*
X6437353Y-15518336D01*
X6437353Y-15518336D02*
X6437353Y-15537384D01*
X6570686Y-15337384D02*
X6589734Y-15337384D01*
X6589734Y-15337384D02*
X6608782Y-15346907D01*
X6608782Y-15346907D02*
X6618306Y-15356431D01*
X6618306Y-15356431D02*
X6627829Y-15375479D01*
X6627829Y-15375479D02*
X6637353Y-15413574D01*
X6637353Y-15413574D02*
X6637353Y-15461193D01*
X6637353Y-15461193D02*
X6627829Y-15499288D01*
X6627829Y-15499288D02*
X6618306Y-15518336D01*
X6618306Y-15518336D02*
X6608782Y-15527860D01*
X6608782Y-15527860D02*
X6589734Y-15537384D01*
X6589734Y-15537384D02*
X6570686Y-15537384D01*
X6570686Y-15537384D02*
X6551639Y-15527860D01*
X6551639Y-15527860D02*
X6542115Y-15518336D01*
X6542115Y-15518336D02*
X6532591Y-15499288D01*
X6532591Y-15499288D02*
X6523067Y-15461193D01*
X6523067Y-15461193D02*
X6523067Y-15413574D01*
X6523067Y-15413574D02*
X6532591Y-15375479D01*
X6532591Y-15375479D02*
X6542115Y-15356431D01*
X6542115Y-15356431D02*
X6551639Y-15346907D01*
X6551639Y-15346907D02*
X6570686Y-15337384D01*
X6761163Y-15337384D02*
X6780210Y-15337384D01*
X6780210Y-15337384D02*
X6799258Y-15346907D01*
X6799258Y-15346907D02*
X6808782Y-15356431D01*
X6808782Y-15356431D02*
X6818306Y-15375479D01*
X6818306Y-15375479D02*
X6827829Y-15413574D01*
X6827829Y-15413574D02*
X6827829Y-15461193D01*
X6827829Y-15461193D02*
X6818306Y-15499288D01*
X6818306Y-15499288D02*
X6808782Y-15518336D01*
X6808782Y-15518336D02*
X6799258Y-15527860D01*
X6799258Y-15527860D02*
X6780210Y-15537384D01*
X6780210Y-15537384D02*
X6761163Y-15537384D01*
X6761163Y-15537384D02*
X6742115Y-15527860D01*
X6742115Y-15527860D02*
X6732591Y-15518336D01*
X6732591Y-15518336D02*
X6723067Y-15499288D01*
X6723067Y-15499288D02*
X6713544Y-15461193D01*
X6713544Y-15461193D02*
X6713544Y-15413574D01*
X6713544Y-15413574D02*
X6723067Y-15375479D01*
X6723067Y-15375479D02*
X6732591Y-15356431D01*
X6732591Y-15356431D02*
X6742115Y-15346907D01*
X6742115Y-15346907D02*
X6761163Y-15337384D01*
X6951639Y-15337384D02*
X6970687Y-15337384D01*
X6970687Y-15337384D02*
X6989734Y-15346907D01*
X6989734Y-15346907D02*
X6999258Y-15356431D01*
X6999258Y-15356431D02*
X7008782Y-15375479D01*
X7008782Y-15375479D02*
X7018306Y-15413574D01*
X7018306Y-15413574D02*
X7018306Y-15461193D01*
X7018306Y-15461193D02*
X7008782Y-15499288D01*
X7008782Y-15499288D02*
X6999258Y-15518336D01*
X6999258Y-15518336D02*
X6989734Y-15527860D01*
X6989734Y-15527860D02*
X6970687Y-15537384D01*
X6970687Y-15537384D02*
X6951639Y-15537384D01*
X6951639Y-15537384D02*
X6932591Y-15527860D01*
X6932591Y-15527860D02*
X6923067Y-15518336D01*
X6923067Y-15518336D02*
X6913544Y-15499288D01*
X6913544Y-15499288D02*
X6904020Y-15461193D01*
X6904020Y-15461193D02*
X6904020Y-15413574D01*
X6904020Y-15413574D02*
X6913544Y-15375479D01*
X6913544Y-15375479D02*
X6923067Y-15356431D01*
X6923067Y-15356431D02*
X6932591Y-15346907D01*
X6932591Y-15346907D02*
X6951639Y-15337384D01*
X7104020Y-15537384D02*
X7104020Y-15404050D01*
X7104020Y-15423098D02*
X7113544Y-15413574D01*
X7113544Y-15413574D02*
X7132591Y-15404050D01*
X7132591Y-15404050D02*
X7161163Y-15404050D01*
X7161163Y-15404050D02*
X7180210Y-15413574D01*
X7180210Y-15413574D02*
X7189734Y-15432622D01*
X7189734Y-15432622D02*
X7189734Y-15537384D01*
X7189734Y-15432622D02*
X7199258Y-15413574D01*
X7199258Y-15413574D02*
X7218306Y-15404050D01*
X7218306Y-15404050D02*
X7246877Y-15404050D01*
X7246877Y-15404050D02*
X7265925Y-15413574D01*
X7265925Y-15413574D02*
X7275448Y-15432622D01*
X7275448Y-15432622D02*
X7275448Y-15537384D01*
X7370687Y-15537384D02*
X7370687Y-15404050D01*
X7370687Y-15423098D02*
X7380210Y-15413574D01*
X7380210Y-15413574D02*
X7399258Y-15404050D01*
X7399258Y-15404050D02*
X7427829Y-15404050D01*
X7427829Y-15404050D02*
X7446877Y-15413574D01*
X7446877Y-15413574D02*
X7456401Y-15432622D01*
X7456401Y-15432622D02*
X7456401Y-15537384D01*
X7456401Y-15432622D02*
X7465925Y-15413574D01*
X7465925Y-15413574D02*
X7484972Y-15404050D01*
X7484972Y-15404050D02*
X7513544Y-15404050D01*
X7513544Y-15404050D02*
X7532591Y-15413574D01*
X7532591Y-15413574D02*
X7542115Y-15432622D01*
X7542115Y-15432622D02*
X7542115Y-15537384D01*
X7932591Y-15327860D02*
X7761163Y-15585003D01*
X8189734Y-15337384D02*
X8208782Y-15337384D01*
X8208782Y-15337384D02*
X8227830Y-15346907D01*
X8227830Y-15346907D02*
X8237353Y-15356431D01*
X8237353Y-15356431D02*
X8246877Y-15375479D01*
X8246877Y-15375479D02*
X8256401Y-15413574D01*
X8256401Y-15413574D02*
X8256401Y-15461193D01*
X8256401Y-15461193D02*
X8246877Y-15499288D01*
X8246877Y-15499288D02*
X8237353Y-15518336D01*
X8237353Y-15518336D02*
X8227830Y-15527860D01*
X8227830Y-15527860D02*
X8208782Y-15537384D01*
X8208782Y-15537384D02*
X8189734Y-15537384D01*
X8189734Y-15537384D02*
X8170687Y-15527860D01*
X8170687Y-15527860D02*
X8161163Y-15518336D01*
X8161163Y-15518336D02*
X8151639Y-15499288D01*
X8151639Y-15499288D02*
X8142115Y-15461193D01*
X8142115Y-15461193D02*
X8142115Y-15413574D01*
X8142115Y-15413574D02*
X8151639Y-15375479D01*
X8151639Y-15375479D02*
X8161163Y-15356431D01*
X8161163Y-15356431D02*
X8170687Y-15346907D01*
X8170687Y-15346907D02*
X8189734Y-15337384D01*
X8342115Y-15518336D02*
X8351639Y-15527860D01*
X8351639Y-15527860D02*
X8342115Y-15537384D01*
X8342115Y-15537384D02*
X8332591Y-15527860D01*
X8332591Y-15527860D02*
X8342115Y-15518336D01*
X8342115Y-15518336D02*
X8342115Y-15537384D01*
X8475449Y-15337384D02*
X8494496Y-15337384D01*
X8494496Y-15337384D02*
X8513544Y-15346907D01*
X8513544Y-15346907D02*
X8523068Y-15356431D01*
X8523068Y-15356431D02*
X8532592Y-15375479D01*
X8532592Y-15375479D02*
X8542115Y-15413574D01*
X8542115Y-15413574D02*
X8542115Y-15461193D01*
X8542115Y-15461193D02*
X8532592Y-15499288D01*
X8532592Y-15499288D02*
X8523068Y-15518336D01*
X8523068Y-15518336D02*
X8513544Y-15527860D01*
X8513544Y-15527860D02*
X8494496Y-15537384D01*
X8494496Y-15537384D02*
X8475449Y-15537384D01*
X8475449Y-15537384D02*
X8456401Y-15527860D01*
X8456401Y-15527860D02*
X8446877Y-15518336D01*
X8446877Y-15518336D02*
X8437353Y-15499288D01*
X8437353Y-15499288D02*
X8427830Y-15461193D01*
X8427830Y-15461193D02*
X8427830Y-15413574D01*
X8427830Y-15413574D02*
X8437353Y-15375479D01*
X8437353Y-15375479D02*
X8446877Y-15356431D01*
X8446877Y-15356431D02*
X8456401Y-15346907D01*
X8456401Y-15346907D02*
X8475449Y-15337384D01*
X8608782Y-15337384D02*
X8732592Y-15337384D01*
X8732592Y-15337384D02*
X8665925Y-15413574D01*
X8665925Y-15413574D02*
X8694496Y-15413574D01*
X8694496Y-15413574D02*
X8713544Y-15423098D01*
X8713544Y-15423098D02*
X8723068Y-15432622D01*
X8723068Y-15432622D02*
X8732592Y-15451669D01*
X8732592Y-15451669D02*
X8732592Y-15499288D01*
X8732592Y-15499288D02*
X8723068Y-15518336D01*
X8723068Y-15518336D02*
X8713544Y-15527860D01*
X8713544Y-15527860D02*
X8694496Y-15537384D01*
X8694496Y-15537384D02*
X8637353Y-15537384D01*
X8637353Y-15537384D02*
X8618306Y-15527860D01*
X8618306Y-15527860D02*
X8608782Y-15518336D01*
X8827830Y-15537384D02*
X8865925Y-15537384D01*
X8865925Y-15537384D02*
X8884973Y-15527860D01*
X8884973Y-15527860D02*
X8894496Y-15518336D01*
X8894496Y-15518336D02*
X8913544Y-15489764D01*
X8913544Y-15489764D02*
X8923068Y-15451669D01*
X8923068Y-15451669D02*
X8923068Y-15375479D01*
X8923068Y-15375479D02*
X8913544Y-15356431D01*
X8913544Y-15356431D02*
X8904020Y-15346907D01*
X8904020Y-15346907D02*
X8884973Y-15337384D01*
X8884973Y-15337384D02*
X8846877Y-15337384D01*
X8846877Y-15337384D02*
X8827830Y-15346907D01*
X8827830Y-15346907D02*
X8818306Y-15356431D01*
X8818306Y-15356431D02*
X8808782Y-15375479D01*
X8808782Y-15375479D02*
X8808782Y-15423098D01*
X8808782Y-15423098D02*
X8818306Y-15442145D01*
X8818306Y-15442145D02*
X8827830Y-15451669D01*
X8827830Y-15451669D02*
X8846877Y-15461193D01*
X8846877Y-15461193D02*
X8884973Y-15461193D01*
X8884973Y-15461193D02*
X8904020Y-15451669D01*
X8904020Y-15451669D02*
X8913544Y-15442145D01*
X8913544Y-15442145D02*
X8923068Y-15423098D01*
X9094496Y-15404050D02*
X9094496Y-15537384D01*
X9046877Y-15327860D02*
X8999258Y-15470717D01*
X8999258Y-15470717D02*
X9123068Y-15470717D01*
X9189734Y-15337384D02*
X9189734Y-15375479D01*
X9265925Y-15337384D02*
X9265925Y-15375479D01*
X9561163Y-15613574D02*
X9551639Y-15604050D01*
X9551639Y-15604050D02*
X9532592Y-15575479D01*
X9532592Y-15575479D02*
X9523068Y-15556431D01*
X9523068Y-15556431D02*
X9513544Y-15527860D01*
X9513544Y-15527860D02*
X9504020Y-15480241D01*
X9504020Y-15480241D02*
X9504020Y-15442145D01*
X9504020Y-15442145D02*
X9513544Y-15394526D01*
X9513544Y-15394526D02*
X9523068Y-15365955D01*
X9523068Y-15365955D02*
X9532592Y-15346907D01*
X9532592Y-15346907D02*
X9551639Y-15318336D01*
X9551639Y-15318336D02*
X9561163Y-15308812D01*
X9742115Y-15537384D02*
X9627830Y-15537384D01*
X9684973Y-15537384D02*
X9684973Y-15337384D01*
X9684973Y-15337384D02*
X9665925Y-15365955D01*
X9665925Y-15365955D02*
X9646877Y-15385003D01*
X9646877Y-15385003D02*
X9627830Y-15394526D01*
X9913544Y-15404050D02*
X9913544Y-15537384D01*
X9865925Y-15327860D02*
X9818306Y-15470717D01*
X9818306Y-15470717D02*
X9942115Y-15470717D01*
X10170687Y-15537384D02*
X10170687Y-15337384D01*
X10256401Y-15537384D02*
X10256401Y-15432622D01*
X10256401Y-15432622D02*
X10246877Y-15413574D01*
X10246877Y-15413574D02*
X10227830Y-15404050D01*
X10227830Y-15404050D02*
X10199258Y-15404050D01*
X10199258Y-15404050D02*
X10180211Y-15413574D01*
X10180211Y-15413574D02*
X10170687Y-15423098D01*
X10380211Y-15537384D02*
X10361163Y-15527860D01*
X10361163Y-15527860D02*
X10351639Y-15518336D01*
X10351639Y-15518336D02*
X10342116Y-15499288D01*
X10342116Y-15499288D02*
X10342116Y-15442145D01*
X10342116Y-15442145D02*
X10351639Y-15423098D01*
X10351639Y-15423098D02*
X10361163Y-15413574D01*
X10361163Y-15413574D02*
X10380211Y-15404050D01*
X10380211Y-15404050D02*
X10408782Y-15404050D01*
X10408782Y-15404050D02*
X10427830Y-15413574D01*
X10427830Y-15413574D02*
X10437354Y-15423098D01*
X10437354Y-15423098D02*
X10446877Y-15442145D01*
X10446877Y-15442145D02*
X10446877Y-15499288D01*
X10446877Y-15499288D02*
X10437354Y-15518336D01*
X10437354Y-15518336D02*
X10427830Y-15527860D01*
X10427830Y-15527860D02*
X10408782Y-15537384D01*
X10408782Y-15537384D02*
X10380211Y-15537384D01*
X10561163Y-15537384D02*
X10542116Y-15527860D01*
X10542116Y-15527860D02*
X10532592Y-15508812D01*
X10532592Y-15508812D02*
X10532592Y-15337384D01*
X10713544Y-15527860D02*
X10694497Y-15537384D01*
X10694497Y-15537384D02*
X10656401Y-15537384D01*
X10656401Y-15537384D02*
X10637354Y-15527860D01*
X10637354Y-15527860D02*
X10627830Y-15508812D01*
X10627830Y-15508812D02*
X10627830Y-15432622D01*
X10627830Y-15432622D02*
X10637354Y-15413574D01*
X10637354Y-15413574D02*
X10656401Y-15404050D01*
X10656401Y-15404050D02*
X10694497Y-15404050D01*
X10694497Y-15404050D02*
X10713544Y-15413574D01*
X10713544Y-15413574D02*
X10723068Y-15432622D01*
X10723068Y-15432622D02*
X10723068Y-15451669D01*
X10723068Y-15451669D02*
X10627830Y-15470717D01*
X10799258Y-15527860D02*
X10818306Y-15537384D01*
X10818306Y-15537384D02*
X10856401Y-15537384D01*
X10856401Y-15537384D02*
X10875449Y-15527860D01*
X10875449Y-15527860D02*
X10884973Y-15508812D01*
X10884973Y-15508812D02*
X10884973Y-15499288D01*
X10884973Y-15499288D02*
X10875449Y-15480241D01*
X10875449Y-15480241D02*
X10856401Y-15470717D01*
X10856401Y-15470717D02*
X10827830Y-15470717D01*
X10827830Y-15470717D02*
X10808782Y-15461193D01*
X10808782Y-15461193D02*
X10799258Y-15442145D01*
X10799258Y-15442145D02*
X10799258Y-15432622D01*
X10799258Y-15432622D02*
X10808782Y-15413574D01*
X10808782Y-15413574D02*
X10827830Y-15404050D01*
X10827830Y-15404050D02*
X10856401Y-15404050D01*
X10856401Y-15404050D02*
X10875449Y-15413574D01*
X11123068Y-15461193D02*
X11275449Y-15461193D01*
X11199258Y-15537384D02*
X11199258Y-15385003D01*
X11504020Y-15337384D02*
X11627830Y-15337384D01*
X11627830Y-15337384D02*
X11561163Y-15413574D01*
X11561163Y-15413574D02*
X11589735Y-15413574D01*
X11589735Y-15413574D02*
X11608782Y-15423098D01*
X11608782Y-15423098D02*
X11618306Y-15432622D01*
X11618306Y-15432622D02*
X11627830Y-15451669D01*
X11627830Y-15451669D02*
X11627830Y-15499288D01*
X11627830Y-15499288D02*
X11618306Y-15518336D01*
X11618306Y-15518336D02*
X11608782Y-15527860D01*
X11608782Y-15527860D02*
X11589735Y-15537384D01*
X11589735Y-15537384D02*
X11532592Y-15537384D01*
X11532592Y-15537384D02*
X11513544Y-15527860D01*
X11513544Y-15527860D02*
X11504020Y-15518336D01*
X11856401Y-15527860D02*
X11875449Y-15537384D01*
X11875449Y-15537384D02*
X11913544Y-15537384D01*
X11913544Y-15537384D02*
X11932592Y-15527860D01*
X11932592Y-15527860D02*
X11942116Y-15508812D01*
X11942116Y-15508812D02*
X11942116Y-15499288D01*
X11942116Y-15499288D02*
X11932592Y-15480241D01*
X11932592Y-15480241D02*
X11913544Y-15470717D01*
X11913544Y-15470717D02*
X11884973Y-15470717D01*
X11884973Y-15470717D02*
X11865925Y-15461193D01*
X11865925Y-15461193D02*
X11856401Y-15442145D01*
X11856401Y-15442145D02*
X11856401Y-15432622D01*
X11856401Y-15432622D02*
X11865925Y-15413574D01*
X11865925Y-15413574D02*
X11884973Y-15404050D01*
X11884973Y-15404050D02*
X11913544Y-15404050D01*
X11913544Y-15404050D02*
X11932592Y-15413574D01*
X12056401Y-15537384D02*
X12037354Y-15527860D01*
X12037354Y-15527860D02*
X12027830Y-15508812D01*
X12027830Y-15508812D02*
X12027830Y-15337384D01*
X12161163Y-15537384D02*
X12142116Y-15527860D01*
X12142116Y-15527860D02*
X12132592Y-15518336D01*
X12132592Y-15518336D02*
X12123068Y-15499288D01*
X12123068Y-15499288D02*
X12123068Y-15442145D01*
X12123068Y-15442145D02*
X12132592Y-15423098D01*
X12132592Y-15423098D02*
X12142116Y-15413574D01*
X12142116Y-15413574D02*
X12161163Y-15404050D01*
X12161163Y-15404050D02*
X12189735Y-15404050D01*
X12189735Y-15404050D02*
X12208782Y-15413574D01*
X12208782Y-15413574D02*
X12218306Y-15423098D01*
X12218306Y-15423098D02*
X12227830Y-15442145D01*
X12227830Y-15442145D02*
X12227830Y-15499288D01*
X12227830Y-15499288D02*
X12218306Y-15518336D01*
X12218306Y-15518336D02*
X12208782Y-15527860D01*
X12208782Y-15527860D02*
X12189735Y-15537384D01*
X12189735Y-15537384D02*
X12161163Y-15537384D01*
X12284973Y-15404050D02*
X12361163Y-15404050D01*
X12313544Y-15337384D02*
X12313544Y-15508812D01*
X12313544Y-15508812D02*
X12323068Y-15527860D01*
X12323068Y-15527860D02*
X12342116Y-15537384D01*
X12342116Y-15537384D02*
X12361163Y-15537384D01*
X12418306Y-15527860D02*
X12437354Y-15537384D01*
X12437354Y-15537384D02*
X12475449Y-15537384D01*
X12475449Y-15537384D02*
X12494497Y-15527860D01*
X12494497Y-15527860D02*
X12504020Y-15508812D01*
X12504020Y-15508812D02*
X12504020Y-15499288D01*
X12504020Y-15499288D02*
X12494497Y-15480241D01*
X12494497Y-15480241D02*
X12475449Y-15470717D01*
X12475449Y-15470717D02*
X12446878Y-15470717D01*
X12446878Y-15470717D02*
X12427830Y-15461193D01*
X12427830Y-15461193D02*
X12418306Y-15442145D01*
X12418306Y-15442145D02*
X12418306Y-15432622D01*
X12418306Y-15432622D02*
X12427830Y-15413574D01*
X12427830Y-15413574D02*
X12446878Y-15404050D01*
X12446878Y-15404050D02*
X12475449Y-15404050D01*
X12475449Y-15404050D02*
X12494497Y-15413574D01*
X12570687Y-15613574D02*
X12580211Y-15604050D01*
X12580211Y-15604050D02*
X12599259Y-15575479D01*
X12599259Y-15575479D02*
X12608782Y-15556431D01*
X12608782Y-15556431D02*
X12618306Y-15527860D01*
X12618306Y-15527860D02*
X12627830Y-15480241D01*
X12627830Y-15480241D02*
X12627830Y-15442145D01*
X12627830Y-15442145D02*
X12618306Y-15394526D01*
X12618306Y-15394526D02*
X12608782Y-15365955D01*
X12608782Y-15365955D02*
X12599259Y-15346907D01*
X12599259Y-15346907D02*
X12580211Y-15318336D01*
X12580211Y-15318336D02*
X12570687Y-15308812D01*
M02*
