M48
INCH
T1C0.0118
T2C0.0315
T3C0.0354
T4C0.0394
%
G90
G05
T1
X2.478Y-4.06
X2.478Y-4.105
X2.478Y-4.15
X2.678Y-4.11
X2.78Y-3.34
X2.79Y-3.492
X2.925Y-3.4898
X2.975Y-3.14
X3.0Y-3.0
X3.025Y-3.875
X3.12Y-3.12
X3.14Y-2.98
X3.325Y-2.975
X3.3973Y-3.0473
X3.45Y-3.23
X3.5674Y-2.9863
X3.57Y-3.05
X3.75Y-3.08
X3.9Y-2.58
X4.2992Y-2.6378
X4.5506Y-2.9146
X4.58Y-3.18
X4.6Y-2.775
X4.6082Y-3.13
X4.62Y-4.7915
X4.6791Y-4.73
X4.68Y-2.76
X4.68Y-3.13
X4.6969Y-2.9931
X4.735Y-2.955
X4.78Y-3.14
X4.82Y-2.87
X4.8307Y-2.9685
X4.895Y-3.3231
X4.9203Y-4.7972
X4.97Y-3.62
X4.9703Y-4.9274
X4.995Y-3.5231
X5.0253Y-3.63
X5.06Y-3.08
X5.0903Y-4.6
X5.095Y-3.2754
X5.1403Y-4.73
X5.28Y-3.49
X5.3Y-3.97
X5.3803Y-4.06
X5.4Y-3.9014
T2
X4.9472Y-4.03
X4.9472Y-4.13
X4.9472Y-4.23
X4.9472Y-4.33
X5.2472Y-4.03
X5.2472Y-4.13
X5.2472Y-4.23
X5.2472Y-4.33
T3
X5.1069Y-3.6916
X5.1069Y-3.8884
X5.2053Y-3.79
T4
X3.8748Y-3.0
X3.9748Y-3.0
X4.6003Y-4.74
X4.6003Y-4.84
X4.6003Y-4.94
X4.8003Y-4.6872
X4.8003Y-4.7872
X4.8003Y-4.8872
X4.9703Y-4.49
X4.9703Y-4.59
X4.9703Y-4.69
X5.17Y-3.29
X5.17Y-3.39
X5.17Y-3.49
T4
G00X2.9848Y-3.2465
M15
G01X3.0405Y-3.3022
M16
G05
G00X3.0878Y-3.0322
M15
G01X3.0322Y-3.0878
M16
G05
G00X3.2674Y-3.1978
M15
G01X3.1978Y-3.2674
M16
G05
M30
