%TF.GenerationSoftware,KiCad,Pcbnew,9.0.3*%
%TF.CreationDate,2025-12-10T22:25:10-05:00*%
%TF.ProjectId,Leviosa,4c657669-6f73-4612-9e6b-696361645f70,0*%
%TF.SameCoordinates,Original*%
%TF.FileFunction,Drillmap*%
%TF.FilePolarity,Positive*%
%FSLAX45Y45*%
G04 Gerber Fmt 4.5, Leading zero omitted, Abs format (unit mm)*
G04 Created by KiCad (PCBNEW 9.0.3) date 2025-12-10 22:25:10*
%MOMM*%
%LPD*%
G01*
G04 APERTURE LIST*
%ADD10C,0.300000*%
%ADD11C,0.200000*%
%ADD12C,0.320000*%
G04 APERTURE END LIST*
D10*
X12100000Y-10000000D02*
G75*
G02*
X7900000Y-10000000I-2100000J0D01*
G01*
X7900000Y-10000000D02*
G75*
G02*
X12100000Y-10000000I2100000J0D01*
G01*
X13998900Y-10000000D02*
G75*
G02*
X6001100Y-10000000I-3998900J0D01*
G01*
X6001100Y-10000000D02*
G75*
G02*
X13998900Y-10000000I3998900J0D01*
G01*
D11*
D12*
X7340000Y-11340000D02*
X7660000Y-11660000D01*
X7660000Y-11340000D02*
X7340000Y-11660000D01*
X10840000Y-12340000D02*
X11160000Y-12660000D01*
X11160000Y-12340000D02*
X10840000Y-12660000D01*
D11*
X6246877Y-14325384D02*
X6246877Y-14125384D01*
X6246877Y-14125384D02*
X6294496Y-14125384D01*
X6294496Y-14125384D02*
X6323067Y-14134907D01*
X6323067Y-14134907D02*
X6342115Y-14153955D01*
X6342115Y-14153955D02*
X6351639Y-14173003D01*
X6351639Y-14173003D02*
X6361163Y-14211098D01*
X6361163Y-14211098D02*
X6361163Y-14239669D01*
X6361163Y-14239669D02*
X6351639Y-14277764D01*
X6351639Y-14277764D02*
X6342115Y-14296812D01*
X6342115Y-14296812D02*
X6323067Y-14315860D01*
X6323067Y-14315860D02*
X6294496Y-14325384D01*
X6294496Y-14325384D02*
X6246877Y-14325384D01*
X6446877Y-14325384D02*
X6446877Y-14192050D01*
X6446877Y-14230145D02*
X6456401Y-14211098D01*
X6456401Y-14211098D02*
X6465925Y-14201574D01*
X6465925Y-14201574D02*
X6484972Y-14192050D01*
X6484972Y-14192050D02*
X6504020Y-14192050D01*
X6570686Y-14325384D02*
X6570686Y-14192050D01*
X6570686Y-14125384D02*
X6561163Y-14134907D01*
X6561163Y-14134907D02*
X6570686Y-14144431D01*
X6570686Y-14144431D02*
X6580210Y-14134907D01*
X6580210Y-14134907D02*
X6570686Y-14125384D01*
X6570686Y-14125384D02*
X6570686Y-14144431D01*
X6694496Y-14325384D02*
X6675448Y-14315860D01*
X6675448Y-14315860D02*
X6665925Y-14296812D01*
X6665925Y-14296812D02*
X6665925Y-14125384D01*
X6799258Y-14325384D02*
X6780210Y-14315860D01*
X6780210Y-14315860D02*
X6770686Y-14296812D01*
X6770686Y-14296812D02*
X6770686Y-14125384D01*
X7027829Y-14325384D02*
X7027829Y-14125384D01*
X7027829Y-14125384D02*
X7094496Y-14268241D01*
X7094496Y-14268241D02*
X7161163Y-14125384D01*
X7161163Y-14125384D02*
X7161163Y-14325384D01*
X7342115Y-14325384D02*
X7342115Y-14220622D01*
X7342115Y-14220622D02*
X7332591Y-14201574D01*
X7332591Y-14201574D02*
X7313544Y-14192050D01*
X7313544Y-14192050D02*
X7275448Y-14192050D01*
X7275448Y-14192050D02*
X7256401Y-14201574D01*
X7342115Y-14315860D02*
X7323067Y-14325384D01*
X7323067Y-14325384D02*
X7275448Y-14325384D01*
X7275448Y-14325384D02*
X7256401Y-14315860D01*
X7256401Y-14315860D02*
X7246877Y-14296812D01*
X7246877Y-14296812D02*
X7246877Y-14277764D01*
X7246877Y-14277764D02*
X7256401Y-14258717D01*
X7256401Y-14258717D02*
X7275448Y-14249193D01*
X7275448Y-14249193D02*
X7323067Y-14249193D01*
X7323067Y-14249193D02*
X7342115Y-14239669D01*
X7437353Y-14192050D02*
X7437353Y-14392050D01*
X7437353Y-14201574D02*
X7456401Y-14192050D01*
X7456401Y-14192050D02*
X7494496Y-14192050D01*
X7494496Y-14192050D02*
X7513544Y-14201574D01*
X7513544Y-14201574D02*
X7523067Y-14211098D01*
X7523067Y-14211098D02*
X7532591Y-14230145D01*
X7532591Y-14230145D02*
X7532591Y-14287288D01*
X7532591Y-14287288D02*
X7523067Y-14306336D01*
X7523067Y-14306336D02*
X7513544Y-14315860D01*
X7513544Y-14315860D02*
X7494496Y-14325384D01*
X7494496Y-14325384D02*
X7456401Y-14325384D01*
X7456401Y-14325384D02*
X7437353Y-14315860D01*
X7618306Y-14306336D02*
X7627829Y-14315860D01*
X7627829Y-14315860D02*
X7618306Y-14325384D01*
X7618306Y-14325384D02*
X7608782Y-14315860D01*
X7608782Y-14315860D02*
X7618306Y-14306336D01*
X7618306Y-14306336D02*
X7618306Y-14325384D01*
X7618306Y-14201574D02*
X7627829Y-14211098D01*
X7627829Y-14211098D02*
X7618306Y-14220622D01*
X7618306Y-14220622D02*
X7608782Y-14211098D01*
X7608782Y-14211098D02*
X7618306Y-14201574D01*
X7618306Y-14201574D02*
X7618306Y-14220622D01*
X5786100Y-14553900D02*
X5986100Y-14753900D01*
X5986100Y-14553900D02*
X5786100Y-14753900D01*
X6227829Y-14545384D02*
X6351639Y-14545384D01*
X6351639Y-14545384D02*
X6284972Y-14621574D01*
X6284972Y-14621574D02*
X6313544Y-14621574D01*
X6313544Y-14621574D02*
X6332591Y-14631098D01*
X6332591Y-14631098D02*
X6342115Y-14640622D01*
X6342115Y-14640622D02*
X6351639Y-14659669D01*
X6351639Y-14659669D02*
X6351639Y-14707288D01*
X6351639Y-14707288D02*
X6342115Y-14726336D01*
X6342115Y-14726336D02*
X6332591Y-14735860D01*
X6332591Y-14735860D02*
X6313544Y-14745384D01*
X6313544Y-14745384D02*
X6256401Y-14745384D01*
X6256401Y-14745384D02*
X6237353Y-14735860D01*
X6237353Y-14735860D02*
X6227829Y-14726336D01*
X6437353Y-14726336D02*
X6446877Y-14735860D01*
X6446877Y-14735860D02*
X6437353Y-14745384D01*
X6437353Y-14745384D02*
X6427829Y-14735860D01*
X6427829Y-14735860D02*
X6437353Y-14726336D01*
X6437353Y-14726336D02*
X6437353Y-14745384D01*
X6523067Y-14564431D02*
X6532591Y-14554907D01*
X6532591Y-14554907D02*
X6551639Y-14545384D01*
X6551639Y-14545384D02*
X6599258Y-14545384D01*
X6599258Y-14545384D02*
X6618306Y-14554907D01*
X6618306Y-14554907D02*
X6627829Y-14564431D01*
X6627829Y-14564431D02*
X6637353Y-14583479D01*
X6637353Y-14583479D02*
X6637353Y-14602526D01*
X6637353Y-14602526D02*
X6627829Y-14631098D01*
X6627829Y-14631098D02*
X6513544Y-14745384D01*
X6513544Y-14745384D02*
X6637353Y-14745384D01*
X6761163Y-14545384D02*
X6780210Y-14545384D01*
X6780210Y-14545384D02*
X6799258Y-14554907D01*
X6799258Y-14554907D02*
X6808782Y-14564431D01*
X6808782Y-14564431D02*
X6818306Y-14583479D01*
X6818306Y-14583479D02*
X6827829Y-14621574D01*
X6827829Y-14621574D02*
X6827829Y-14669193D01*
X6827829Y-14669193D02*
X6818306Y-14707288D01*
X6818306Y-14707288D02*
X6808782Y-14726336D01*
X6808782Y-14726336D02*
X6799258Y-14735860D01*
X6799258Y-14735860D02*
X6780210Y-14745384D01*
X6780210Y-14745384D02*
X6761163Y-14745384D01*
X6761163Y-14745384D02*
X6742115Y-14735860D01*
X6742115Y-14735860D02*
X6732591Y-14726336D01*
X6732591Y-14726336D02*
X6723067Y-14707288D01*
X6723067Y-14707288D02*
X6713544Y-14669193D01*
X6713544Y-14669193D02*
X6713544Y-14621574D01*
X6713544Y-14621574D02*
X6723067Y-14583479D01*
X6723067Y-14583479D02*
X6732591Y-14564431D01*
X6732591Y-14564431D02*
X6742115Y-14554907D01*
X6742115Y-14554907D02*
X6761163Y-14545384D01*
X6951639Y-14545384D02*
X6970687Y-14545384D01*
X6970687Y-14545384D02*
X6989734Y-14554907D01*
X6989734Y-14554907D02*
X6999258Y-14564431D01*
X6999258Y-14564431D02*
X7008782Y-14583479D01*
X7008782Y-14583479D02*
X7018306Y-14621574D01*
X7018306Y-14621574D02*
X7018306Y-14669193D01*
X7018306Y-14669193D02*
X7008782Y-14707288D01*
X7008782Y-14707288D02*
X6999258Y-14726336D01*
X6999258Y-14726336D02*
X6989734Y-14735860D01*
X6989734Y-14735860D02*
X6970687Y-14745384D01*
X6970687Y-14745384D02*
X6951639Y-14745384D01*
X6951639Y-14745384D02*
X6932591Y-14735860D01*
X6932591Y-14735860D02*
X6923067Y-14726336D01*
X6923067Y-14726336D02*
X6913544Y-14707288D01*
X6913544Y-14707288D02*
X6904020Y-14669193D01*
X6904020Y-14669193D02*
X6904020Y-14621574D01*
X6904020Y-14621574D02*
X6913544Y-14583479D01*
X6913544Y-14583479D02*
X6923067Y-14564431D01*
X6923067Y-14564431D02*
X6932591Y-14554907D01*
X6932591Y-14554907D02*
X6951639Y-14545384D01*
X7104020Y-14745384D02*
X7104020Y-14612050D01*
X7104020Y-14631098D02*
X7113544Y-14621574D01*
X7113544Y-14621574D02*
X7132591Y-14612050D01*
X7132591Y-14612050D02*
X7161163Y-14612050D01*
X7161163Y-14612050D02*
X7180210Y-14621574D01*
X7180210Y-14621574D02*
X7189734Y-14640622D01*
X7189734Y-14640622D02*
X7189734Y-14745384D01*
X7189734Y-14640622D02*
X7199258Y-14621574D01*
X7199258Y-14621574D02*
X7218306Y-14612050D01*
X7218306Y-14612050D02*
X7246877Y-14612050D01*
X7246877Y-14612050D02*
X7265925Y-14621574D01*
X7265925Y-14621574D02*
X7275448Y-14640622D01*
X7275448Y-14640622D02*
X7275448Y-14745384D01*
X7370687Y-14745384D02*
X7370687Y-14612050D01*
X7370687Y-14631098D02*
X7380210Y-14621574D01*
X7380210Y-14621574D02*
X7399258Y-14612050D01*
X7399258Y-14612050D02*
X7427829Y-14612050D01*
X7427829Y-14612050D02*
X7446877Y-14621574D01*
X7446877Y-14621574D02*
X7456401Y-14640622D01*
X7456401Y-14640622D02*
X7456401Y-14745384D01*
X7456401Y-14640622D02*
X7465925Y-14621574D01*
X7465925Y-14621574D02*
X7484972Y-14612050D01*
X7484972Y-14612050D02*
X7513544Y-14612050D01*
X7513544Y-14612050D02*
X7532591Y-14621574D01*
X7532591Y-14621574D02*
X7542115Y-14640622D01*
X7542115Y-14640622D02*
X7542115Y-14745384D01*
X7932591Y-14535860D02*
X7761163Y-14793003D01*
X8189734Y-14545384D02*
X8208782Y-14545384D01*
X8208782Y-14545384D02*
X8227830Y-14554907D01*
X8227830Y-14554907D02*
X8237353Y-14564431D01*
X8237353Y-14564431D02*
X8246877Y-14583479D01*
X8246877Y-14583479D02*
X8256401Y-14621574D01*
X8256401Y-14621574D02*
X8256401Y-14669193D01*
X8256401Y-14669193D02*
X8246877Y-14707288D01*
X8246877Y-14707288D02*
X8237353Y-14726336D01*
X8237353Y-14726336D02*
X8227830Y-14735860D01*
X8227830Y-14735860D02*
X8208782Y-14745384D01*
X8208782Y-14745384D02*
X8189734Y-14745384D01*
X8189734Y-14745384D02*
X8170687Y-14735860D01*
X8170687Y-14735860D02*
X8161163Y-14726336D01*
X8161163Y-14726336D02*
X8151639Y-14707288D01*
X8151639Y-14707288D02*
X8142115Y-14669193D01*
X8142115Y-14669193D02*
X8142115Y-14621574D01*
X8142115Y-14621574D02*
X8151639Y-14583479D01*
X8151639Y-14583479D02*
X8161163Y-14564431D01*
X8161163Y-14564431D02*
X8170687Y-14554907D01*
X8170687Y-14554907D02*
X8189734Y-14545384D01*
X8342115Y-14726336D02*
X8351639Y-14735860D01*
X8351639Y-14735860D02*
X8342115Y-14745384D01*
X8342115Y-14745384D02*
X8332591Y-14735860D01*
X8332591Y-14735860D02*
X8342115Y-14726336D01*
X8342115Y-14726336D02*
X8342115Y-14745384D01*
X8542115Y-14745384D02*
X8427830Y-14745384D01*
X8484972Y-14745384D02*
X8484972Y-14545384D01*
X8484972Y-14545384D02*
X8465925Y-14573955D01*
X8465925Y-14573955D02*
X8446877Y-14593003D01*
X8446877Y-14593003D02*
X8427830Y-14602526D01*
X8618306Y-14564431D02*
X8627830Y-14554907D01*
X8627830Y-14554907D02*
X8646877Y-14545384D01*
X8646877Y-14545384D02*
X8694496Y-14545384D01*
X8694496Y-14545384D02*
X8713544Y-14554907D01*
X8713544Y-14554907D02*
X8723068Y-14564431D01*
X8723068Y-14564431D02*
X8732592Y-14583479D01*
X8732592Y-14583479D02*
X8732592Y-14602526D01*
X8732592Y-14602526D02*
X8723068Y-14631098D01*
X8723068Y-14631098D02*
X8608782Y-14745384D01*
X8608782Y-14745384D02*
X8732592Y-14745384D01*
X8904020Y-14545384D02*
X8865925Y-14545384D01*
X8865925Y-14545384D02*
X8846877Y-14554907D01*
X8846877Y-14554907D02*
X8837353Y-14564431D01*
X8837353Y-14564431D02*
X8818306Y-14593003D01*
X8818306Y-14593003D02*
X8808782Y-14631098D01*
X8808782Y-14631098D02*
X8808782Y-14707288D01*
X8808782Y-14707288D02*
X8818306Y-14726336D01*
X8818306Y-14726336D02*
X8827830Y-14735860D01*
X8827830Y-14735860D02*
X8846877Y-14745384D01*
X8846877Y-14745384D02*
X8884973Y-14745384D01*
X8884973Y-14745384D02*
X8904020Y-14735860D01*
X8904020Y-14735860D02*
X8913544Y-14726336D01*
X8913544Y-14726336D02*
X8923068Y-14707288D01*
X8923068Y-14707288D02*
X8923068Y-14659669D01*
X8923068Y-14659669D02*
X8913544Y-14640622D01*
X8913544Y-14640622D02*
X8904020Y-14631098D01*
X8904020Y-14631098D02*
X8884973Y-14621574D01*
X8884973Y-14621574D02*
X8846877Y-14621574D01*
X8846877Y-14621574D02*
X8827830Y-14631098D01*
X8827830Y-14631098D02*
X8818306Y-14640622D01*
X8818306Y-14640622D02*
X8808782Y-14659669D01*
X9046877Y-14545384D02*
X9065925Y-14545384D01*
X9065925Y-14545384D02*
X9084973Y-14554907D01*
X9084973Y-14554907D02*
X9094496Y-14564431D01*
X9094496Y-14564431D02*
X9104020Y-14583479D01*
X9104020Y-14583479D02*
X9113544Y-14621574D01*
X9113544Y-14621574D02*
X9113544Y-14669193D01*
X9113544Y-14669193D02*
X9104020Y-14707288D01*
X9104020Y-14707288D02*
X9094496Y-14726336D01*
X9094496Y-14726336D02*
X9084973Y-14735860D01*
X9084973Y-14735860D02*
X9065925Y-14745384D01*
X9065925Y-14745384D02*
X9046877Y-14745384D01*
X9046877Y-14745384D02*
X9027830Y-14735860D01*
X9027830Y-14735860D02*
X9018306Y-14726336D01*
X9018306Y-14726336D02*
X9008782Y-14707288D01*
X9008782Y-14707288D02*
X8999258Y-14669193D01*
X8999258Y-14669193D02*
X8999258Y-14621574D01*
X8999258Y-14621574D02*
X9008782Y-14583479D01*
X9008782Y-14583479D02*
X9018306Y-14564431D01*
X9018306Y-14564431D02*
X9027830Y-14554907D01*
X9027830Y-14554907D02*
X9046877Y-14545384D01*
X9189734Y-14545384D02*
X9189734Y-14583479D01*
X9265925Y-14545384D02*
X9265925Y-14583479D01*
X9561163Y-14821574D02*
X9551639Y-14812050D01*
X9551639Y-14812050D02*
X9532592Y-14783479D01*
X9532592Y-14783479D02*
X9523068Y-14764431D01*
X9523068Y-14764431D02*
X9513544Y-14735860D01*
X9513544Y-14735860D02*
X9504020Y-14688241D01*
X9504020Y-14688241D02*
X9504020Y-14650145D01*
X9504020Y-14650145D02*
X9513544Y-14602526D01*
X9513544Y-14602526D02*
X9523068Y-14573955D01*
X9523068Y-14573955D02*
X9532592Y-14554907D01*
X9532592Y-14554907D02*
X9551639Y-14526336D01*
X9551639Y-14526336D02*
X9561163Y-14516812D01*
X9627830Y-14564431D02*
X9637354Y-14554907D01*
X9637354Y-14554907D02*
X9656401Y-14545384D01*
X9656401Y-14545384D02*
X9704020Y-14545384D01*
X9704020Y-14545384D02*
X9723068Y-14554907D01*
X9723068Y-14554907D02*
X9732592Y-14564431D01*
X9732592Y-14564431D02*
X9742115Y-14583479D01*
X9742115Y-14583479D02*
X9742115Y-14602526D01*
X9742115Y-14602526D02*
X9732592Y-14631098D01*
X9732592Y-14631098D02*
X9618306Y-14745384D01*
X9618306Y-14745384D02*
X9742115Y-14745384D01*
X9980211Y-14745384D02*
X9980211Y-14545384D01*
X10065925Y-14745384D02*
X10065925Y-14640622D01*
X10065925Y-14640622D02*
X10056401Y-14621574D01*
X10056401Y-14621574D02*
X10037354Y-14612050D01*
X10037354Y-14612050D02*
X10008782Y-14612050D01*
X10008782Y-14612050D02*
X9989735Y-14621574D01*
X9989735Y-14621574D02*
X9980211Y-14631098D01*
X10189735Y-14745384D02*
X10170687Y-14735860D01*
X10170687Y-14735860D02*
X10161163Y-14726336D01*
X10161163Y-14726336D02*
X10151639Y-14707288D01*
X10151639Y-14707288D02*
X10151639Y-14650145D01*
X10151639Y-14650145D02*
X10161163Y-14631098D01*
X10161163Y-14631098D02*
X10170687Y-14621574D01*
X10170687Y-14621574D02*
X10189735Y-14612050D01*
X10189735Y-14612050D02*
X10218306Y-14612050D01*
X10218306Y-14612050D02*
X10237354Y-14621574D01*
X10237354Y-14621574D02*
X10246877Y-14631098D01*
X10246877Y-14631098D02*
X10256401Y-14650145D01*
X10256401Y-14650145D02*
X10256401Y-14707288D01*
X10256401Y-14707288D02*
X10246877Y-14726336D01*
X10246877Y-14726336D02*
X10237354Y-14735860D01*
X10237354Y-14735860D02*
X10218306Y-14745384D01*
X10218306Y-14745384D02*
X10189735Y-14745384D01*
X10370687Y-14745384D02*
X10351639Y-14735860D01*
X10351639Y-14735860D02*
X10342116Y-14716812D01*
X10342116Y-14716812D02*
X10342116Y-14545384D01*
X10523068Y-14735860D02*
X10504020Y-14745384D01*
X10504020Y-14745384D02*
X10465925Y-14745384D01*
X10465925Y-14745384D02*
X10446877Y-14735860D01*
X10446877Y-14735860D02*
X10437354Y-14716812D01*
X10437354Y-14716812D02*
X10437354Y-14640622D01*
X10437354Y-14640622D02*
X10446877Y-14621574D01*
X10446877Y-14621574D02*
X10465925Y-14612050D01*
X10465925Y-14612050D02*
X10504020Y-14612050D01*
X10504020Y-14612050D02*
X10523068Y-14621574D01*
X10523068Y-14621574D02*
X10532592Y-14640622D01*
X10532592Y-14640622D02*
X10532592Y-14659669D01*
X10532592Y-14659669D02*
X10437354Y-14678717D01*
X10608782Y-14735860D02*
X10627830Y-14745384D01*
X10627830Y-14745384D02*
X10665925Y-14745384D01*
X10665925Y-14745384D02*
X10684973Y-14735860D01*
X10684973Y-14735860D02*
X10694497Y-14716812D01*
X10694497Y-14716812D02*
X10694497Y-14707288D01*
X10694497Y-14707288D02*
X10684973Y-14688241D01*
X10684973Y-14688241D02*
X10665925Y-14678717D01*
X10665925Y-14678717D02*
X10637354Y-14678717D01*
X10637354Y-14678717D02*
X10618306Y-14669193D01*
X10618306Y-14669193D02*
X10608782Y-14650145D01*
X10608782Y-14650145D02*
X10608782Y-14640622D01*
X10608782Y-14640622D02*
X10618306Y-14621574D01*
X10618306Y-14621574D02*
X10637354Y-14612050D01*
X10637354Y-14612050D02*
X10665925Y-14612050D01*
X10665925Y-14612050D02*
X10684973Y-14621574D01*
X10761163Y-14821574D02*
X10770687Y-14812050D01*
X10770687Y-14812050D02*
X10789735Y-14783479D01*
X10789735Y-14783479D02*
X10799258Y-14764431D01*
X10799258Y-14764431D02*
X10808782Y-14735860D01*
X10808782Y-14735860D02*
X10818306Y-14688241D01*
X10818306Y-14688241D02*
X10818306Y-14650145D01*
X10818306Y-14650145D02*
X10808782Y-14602526D01*
X10808782Y-14602526D02*
X10799258Y-14573955D01*
X10799258Y-14573955D02*
X10789735Y-14554907D01*
X10789735Y-14554907D02*
X10770687Y-14526336D01*
X10770687Y-14526336D02*
X10761163Y-14516812D01*
X11123068Y-14821574D02*
X11113544Y-14812050D01*
X11113544Y-14812050D02*
X11094497Y-14783479D01*
X11094497Y-14783479D02*
X11084973Y-14764431D01*
X11084973Y-14764431D02*
X11075449Y-14735860D01*
X11075449Y-14735860D02*
X11065925Y-14688241D01*
X11065925Y-14688241D02*
X11065925Y-14650145D01*
X11065925Y-14650145D02*
X11075449Y-14602526D01*
X11075449Y-14602526D02*
X11084973Y-14573955D01*
X11084973Y-14573955D02*
X11094497Y-14554907D01*
X11094497Y-14554907D02*
X11113544Y-14526336D01*
X11113544Y-14526336D02*
X11123068Y-14516812D01*
X11199258Y-14612050D02*
X11199258Y-14745384D01*
X11199258Y-14631098D02*
X11208782Y-14621574D01*
X11208782Y-14621574D02*
X11227830Y-14612050D01*
X11227830Y-14612050D02*
X11256401Y-14612050D01*
X11256401Y-14612050D02*
X11275449Y-14621574D01*
X11275449Y-14621574D02*
X11284973Y-14640622D01*
X11284973Y-14640622D02*
X11284973Y-14745384D01*
X11408782Y-14745384D02*
X11389735Y-14735860D01*
X11389735Y-14735860D02*
X11380211Y-14726336D01*
X11380211Y-14726336D02*
X11370687Y-14707288D01*
X11370687Y-14707288D02*
X11370687Y-14650145D01*
X11370687Y-14650145D02*
X11380211Y-14631098D01*
X11380211Y-14631098D02*
X11389735Y-14621574D01*
X11389735Y-14621574D02*
X11408782Y-14612050D01*
X11408782Y-14612050D02*
X11437354Y-14612050D01*
X11437354Y-14612050D02*
X11456401Y-14621574D01*
X11456401Y-14621574D02*
X11465925Y-14631098D01*
X11465925Y-14631098D02*
X11475449Y-14650145D01*
X11475449Y-14650145D02*
X11475449Y-14707288D01*
X11475449Y-14707288D02*
X11465925Y-14726336D01*
X11465925Y-14726336D02*
X11456401Y-14735860D01*
X11456401Y-14735860D02*
X11437354Y-14745384D01*
X11437354Y-14745384D02*
X11408782Y-14745384D01*
X11532592Y-14612050D02*
X11608782Y-14612050D01*
X11561163Y-14545384D02*
X11561163Y-14716812D01*
X11561163Y-14716812D02*
X11570687Y-14735860D01*
X11570687Y-14735860D02*
X11589735Y-14745384D01*
X11589735Y-14745384D02*
X11608782Y-14745384D01*
X11827830Y-14612050D02*
X11827830Y-14812050D01*
X11827830Y-14621574D02*
X11846877Y-14612050D01*
X11846877Y-14612050D02*
X11884973Y-14612050D01*
X11884973Y-14612050D02*
X11904020Y-14621574D01*
X11904020Y-14621574D02*
X11913544Y-14631098D01*
X11913544Y-14631098D02*
X11923068Y-14650145D01*
X11923068Y-14650145D02*
X11923068Y-14707288D01*
X11923068Y-14707288D02*
X11913544Y-14726336D01*
X11913544Y-14726336D02*
X11904020Y-14735860D01*
X11904020Y-14735860D02*
X11884973Y-14745384D01*
X11884973Y-14745384D02*
X11846877Y-14745384D01*
X11846877Y-14745384D02*
X11827830Y-14735860D01*
X12037354Y-14745384D02*
X12018306Y-14735860D01*
X12018306Y-14735860D02*
X12008782Y-14716812D01*
X12008782Y-14716812D02*
X12008782Y-14545384D01*
X12199258Y-14745384D02*
X12199258Y-14640622D01*
X12199258Y-14640622D02*
X12189735Y-14621574D01*
X12189735Y-14621574D02*
X12170687Y-14612050D01*
X12170687Y-14612050D02*
X12132592Y-14612050D01*
X12132592Y-14612050D02*
X12113544Y-14621574D01*
X12199258Y-14735860D02*
X12180211Y-14745384D01*
X12180211Y-14745384D02*
X12132592Y-14745384D01*
X12132592Y-14745384D02*
X12113544Y-14735860D01*
X12113544Y-14735860D02*
X12104020Y-14716812D01*
X12104020Y-14716812D02*
X12104020Y-14697764D01*
X12104020Y-14697764D02*
X12113544Y-14678717D01*
X12113544Y-14678717D02*
X12132592Y-14669193D01*
X12132592Y-14669193D02*
X12180211Y-14669193D01*
X12180211Y-14669193D02*
X12199258Y-14659669D01*
X12265925Y-14612050D02*
X12342116Y-14612050D01*
X12294497Y-14545384D02*
X12294497Y-14716812D01*
X12294497Y-14716812D02*
X12304020Y-14735860D01*
X12304020Y-14735860D02*
X12323068Y-14745384D01*
X12323068Y-14745384D02*
X12342116Y-14745384D01*
X12484973Y-14735860D02*
X12465925Y-14745384D01*
X12465925Y-14745384D02*
X12427830Y-14745384D01*
X12427830Y-14745384D02*
X12408782Y-14735860D01*
X12408782Y-14735860D02*
X12399258Y-14716812D01*
X12399258Y-14716812D02*
X12399258Y-14640622D01*
X12399258Y-14640622D02*
X12408782Y-14621574D01*
X12408782Y-14621574D02*
X12427830Y-14612050D01*
X12427830Y-14612050D02*
X12465925Y-14612050D01*
X12465925Y-14612050D02*
X12484973Y-14621574D01*
X12484973Y-14621574D02*
X12494497Y-14640622D01*
X12494497Y-14640622D02*
X12494497Y-14659669D01*
X12494497Y-14659669D02*
X12399258Y-14678717D01*
X12665925Y-14745384D02*
X12665925Y-14545384D01*
X12665925Y-14735860D02*
X12646878Y-14745384D01*
X12646878Y-14745384D02*
X12608782Y-14745384D01*
X12608782Y-14745384D02*
X12589735Y-14735860D01*
X12589735Y-14735860D02*
X12580211Y-14726336D01*
X12580211Y-14726336D02*
X12570687Y-14707288D01*
X12570687Y-14707288D02*
X12570687Y-14650145D01*
X12570687Y-14650145D02*
X12580211Y-14631098D01*
X12580211Y-14631098D02*
X12589735Y-14621574D01*
X12589735Y-14621574D02*
X12608782Y-14612050D01*
X12608782Y-14612050D02*
X12646878Y-14612050D01*
X12646878Y-14612050D02*
X12665925Y-14621574D01*
X12742116Y-14821574D02*
X12751639Y-14812050D01*
X12751639Y-14812050D02*
X12770687Y-14783479D01*
X12770687Y-14783479D02*
X12780211Y-14764431D01*
X12780211Y-14764431D02*
X12789735Y-14735860D01*
X12789735Y-14735860D02*
X12799258Y-14688241D01*
X12799258Y-14688241D02*
X12799258Y-14650145D01*
X12799258Y-14650145D02*
X12789735Y-14602526D01*
X12789735Y-14602526D02*
X12780211Y-14573955D01*
X12780211Y-14573955D02*
X12770687Y-14554907D01*
X12770687Y-14554907D02*
X12751639Y-14526336D01*
X12751639Y-14526336D02*
X12742116Y-14516812D01*
M02*
