G04 #@! TF.GenerationSoftware,KiCad,Pcbnew,9.0.3*
G04 #@! TF.CreationDate,2025-07-27T23:48:25-04:00*
G04 #@! TF.ProjectId,Leviosa,4c657669-6f73-4612-9e6b-696361645f70,0*
G04 #@! TF.SameCoordinates,Original*
G04 #@! TF.FileFunction,Paste,Top*
G04 #@! TF.FilePolarity,Positive*
%FSLAX46Y46*%
G04 Gerber Fmt 4.6, Leading zero omitted, Abs format (unit mm)*
G04 Created by KiCad (PCBNEW 9.0.3) date 2025-07-27 23:48:25*
%MOMM*%
%LPD*%
G01*
G04 APERTURE LIST*
G04 Aperture macros list*
%AMRoundRect*
0 Rectangle with rounded corners*
0 $1 Rounding radius*
0 $2 $3 $4 $5 $6 $7 $8 $9 X,Y pos of 4 corners*
0 Add a 4 corners polygon primitive as box body*
4,1,4,$2,$3,$4,$5,$6,$7,$8,$9,$2,$3,0*
0 Add four circle primitives for the rounded corners*
1,1,$1+$1,$2,$3*
1,1,$1+$1,$4,$5*
1,1,$1+$1,$6,$7*
1,1,$1+$1,$8,$9*
0 Add four rect primitives between the rounded corners*
20,1,$1+$1,$2,$3,$4,$5,0*
20,1,$1+$1,$4,$5,$6,$7,0*
20,1,$1+$1,$6,$7,$8,$9,0*
20,1,$1+$1,$8,$9,$2,$3,0*%
%AMRotRect*
0 Rectangle, with rotation*
0 The origin of the aperture is its center*
0 $1 length*
0 $2 width*
0 $3 Rotation angle, in degrees counterclockwise*
0 Add horizontal line*
21,1,$1,$2,0,0,$3*%
G04 Aperture macros list end*
%ADD10C,0.010000*%
%ADD11RoundRect,0.250000X0.350000X0.450000X-0.350000X0.450000X-0.350000X-0.450000X0.350000X-0.450000X0*%
%ADD12RoundRect,0.243750X-0.243750X-0.456250X0.243750X-0.456250X0.243750X0.456250X-0.243750X0.456250X0*%
%ADD13RoundRect,0.250000X-0.350000X-0.450000X0.350000X-0.450000X0.350000X0.450000X-0.350000X0.450000X0*%
%ADD14RoundRect,0.225000X0.225000X0.375000X-0.225000X0.375000X-0.225000X-0.375000X0.225000X-0.375000X0*%
%ADD15RoundRect,0.250000X-0.475000X0.337500X-0.475000X-0.337500X0.475000X-0.337500X0.475000X0.337500X0*%
%ADD16RotRect,1.630000X2.180400X150.000000*%
%ADD17RoundRect,0.250000X0.450000X-0.350000X0.450000X0.350000X-0.450000X0.350000X-0.450000X-0.350000X0*%
%ADD18RoundRect,0.250000X0.337500X0.475000X-0.337500X0.475000X-0.337500X-0.475000X0.337500X-0.475000X0*%
%ADD19RoundRect,0.250000X0.242612X-0.529784X0.580112X0.054784X-0.242612X0.529784X-0.580112X-0.054784X0*%
%ADD20RoundRect,0.250000X-0.450000X0.350000X-0.450000X-0.350000X0.450000X-0.350000X0.450000X0.350000X0*%
%ADD21RoundRect,0.055000X-0.680000X-0.165000X0.680000X-0.165000X0.680000X0.165000X-0.680000X0.165000X0*%
G04 APERTURE END LIST*
D10*
X158086000Y-132140000D02*
X157374000Y-132140000D01*
X157374000Y-131260000D01*
X158086000Y-131260000D01*
X158086000Y-132140000D01*
G36*
X158086000Y-132140000D02*
G01*
X157374000Y-132140000D01*
X157374000Y-131260000D01*
X158086000Y-131260000D01*
X158086000Y-132140000D01*
G37*
D11*
X132000000Y-142700000D03*
X130000000Y-142700000D03*
X139700000Y-149800000D03*
X137700000Y-149800000D03*
D12*
X135562500Y-142700000D03*
X137437500Y-142700000D03*
D13*
X127550000Y-122200000D03*
X129550000Y-122200000D03*
D11*
X129550000Y-117200000D03*
X127550000Y-117200000D03*
D14*
X177450000Y-140200000D03*
X174150000Y-140200000D03*
D15*
X169500000Y-131362500D03*
X169500000Y-133437500D03*
D16*
X181771400Y-134928205D03*
X183628600Y-131711441D03*
D11*
X161200000Y-114500000D03*
X159200000Y-114500000D03*
D13*
X138500000Y-90400000D03*
X140500000Y-90400000D03*
D17*
X155600000Y-137900000D03*
X155600000Y-135900000D03*
D14*
X150950000Y-149800000D03*
X147650000Y-149800000D03*
D15*
X141000000Y-142662500D03*
X141000000Y-144737500D03*
D11*
X180100000Y-118540000D03*
X178100000Y-118540000D03*
D12*
X142862500Y-149800000D03*
X144737500Y-149800000D03*
D18*
X148937500Y-144800000D03*
X146862500Y-144800000D03*
D12*
X170072500Y-140200000D03*
X171947500Y-140200000D03*
D17*
X129000000Y-101100000D03*
X129000000Y-99100000D03*
D11*
X167700000Y-140200000D03*
X165700000Y-140200000D03*
D19*
X185831250Y-136293692D03*
X186868750Y-134496690D03*
D20*
X159900000Y-135900000D03*
X159900000Y-137900000D03*
D21*
X155580000Y-130725000D03*
X155580000Y-131375000D03*
X155580000Y-132025000D03*
X155580000Y-132675000D03*
X159880000Y-132675000D03*
X159880000Y-132025000D03*
X159880000Y-131375000D03*
X159880000Y-130725000D03*
M02*
