G04 #@! TF.GenerationSoftware,KiCad,Pcbnew,9.0.3*
G04 #@! TF.CreationDate,2025-07-27T23:48:25-04:00*
G04 #@! TF.ProjectId,Leviosa,4c657669-6f73-4612-9e6b-696361645f70,0*
G04 #@! TF.SameCoordinates,Original*
G04 #@! TF.FileFunction,Soldermask,Top*
G04 #@! TF.FilePolarity,Negative*
%FSLAX46Y46*%
G04 Gerber Fmt 4.6, Leading zero omitted, Abs format (unit mm)*
G04 Created by KiCad (PCBNEW 9.0.3) date 2025-07-27 23:48:25*
%MOMM*%
%LPD*%
G01*
G04 APERTURE LIST*
G04 Aperture macros list*
%AMRoundRect*
0 Rectangle with rounded corners*
0 $1 Rounding radius*
0 $2 $3 $4 $5 $6 $7 $8 $9 X,Y pos of 4 corners*
0 Add a 4 corners polygon primitive as box body*
4,1,4,$2,$3,$4,$5,$6,$7,$8,$9,$2,$3,0*
0 Add four circle primitives for the rounded corners*
1,1,$1+$1,$2,$3*
1,1,$1+$1,$4,$5*
1,1,$1+$1,$6,$7*
1,1,$1+$1,$8,$9*
0 Add four rect primitives between the rounded corners*
20,1,$1+$1,$2,$3,$4,$5,0*
20,1,$1+$1,$4,$5,$6,$7,0*
20,1,$1+$1,$6,$7,$8,$9,0*
20,1,$1+$1,$8,$9,$2,$3,0*%
%AMHorizOval*
0 Thick line with rounded ends*
0 $1 width*
0 $2 $3 position (X,Y) of the first rounded end (center of the circle)*
0 $4 $5 position (X,Y) of the second rounded end (center of the circle)*
0 Add line between two ends*
20,1,$1,$2,$3,$4,$5,0*
0 Add two circle primitives to create the rounded ends*
1,1,$1,$2,$3*
1,1,$1,$4,$5*%
%AMRotRect*
0 Rectangle, with rotation*
0 The origin of the aperture is its center*
0 $1 length*
0 $2 width*
0 $3 Rotation angle, in degrees counterclockwise*
0 Add horizontal line*
21,1,$1,$2,0,0,$3*%
G04 Aperture macros list end*
%ADD10C,3.200000*%
%ADD11R,1.000000X1.500000*%
%ADD12R,1.350000X1.350000*%
%ADD13O,1.350000X1.350000*%
%ADD14RoundRect,0.250000X0.350000X0.450000X-0.350000X0.450000X-0.350000X-0.450000X0.350000X-0.450000X0*%
%ADD15RoundRect,0.243750X-0.243750X-0.456250X0.243750X-0.456250X0.243750X0.456250X-0.243750X0.456250X0*%
%ADD16RoundRect,0.250000X-0.350000X-0.450000X0.350000X-0.450000X0.350000X0.450000X-0.350000X0.450000X0*%
%ADD17RoundRect,0.225000X0.225000X0.375000X-0.225000X0.375000X-0.225000X-0.375000X0.225000X-0.375000X0*%
%ADD18C,3.000000*%
%ADD19R,2.000000X1.905000*%
%ADD20O,2.000000X1.905000*%
%ADD21RoundRect,0.250000X-0.475000X0.337500X-0.475000X-0.337500X0.475000X-0.337500X0.475000X0.337500X0*%
%ADD22RotRect,1.630000X2.180400X150.000000*%
%ADD23R,1.600000X1.600000*%
%ADD24O,1.600000X1.600000*%
%ADD25RoundRect,0.250000X0.450000X-0.350000X0.450000X0.350000X-0.450000X0.350000X-0.450000X-0.350000X0*%
%ADD26R,1.700000X1.700000*%
%ADD27C,1.700000*%
%ADD28RoundRect,0.250000X0.337500X0.475000X-0.337500X0.475000X-0.337500X-0.475000X0.337500X-0.475000X0*%
%ADD29C,1.620000*%
%ADD30R,4.500000X2.000000*%
%ADD31O,4.000000X2.000000*%
%ADD32O,2.000000X4.000000*%
%ADD33RoundRect,0.250000X0.242612X-0.529784X0.580112X0.054784X-0.242612X0.529784X-0.580112X-0.054784X0*%
%ADD34RoundRect,0.250000X-0.450000X0.350000X-0.450000X-0.350000X0.450000X-0.350000X0.450000X0.350000X0*%
%ADD35C,1.600000*%
%ADD36HorizOval,1.600000X0.000000X0.000000X0.000000X0.000000X0*%
%ADD37RoundRect,0.065000X-0.710000X-0.195000X0.710000X-0.195000X0.710000X0.195000X-0.710000X0.195000X0*%
%ADD38RoundRect,0.040000X-0.712500X-0.880000X0.712500X-0.880000X0.712500X0.880000X-0.712500X0.880000X0*%
G04 APERTURE END LIST*
D10*
X178000000Y-150000000D03*
D11*
X145850000Y-103391667D03*
X144550000Y-103391667D03*
D12*
X127700000Y-111700000D03*
D13*
X129700000Y-111700000D03*
X131700000Y-111700000D03*
D11*
X145850000Y-99733333D03*
X144550000Y-99733333D03*
D14*
X132000000Y-142700000D03*
X130000000Y-142700000D03*
X139700000Y-149800000D03*
X137700000Y-149800000D03*
D11*
X144550000Y-121666667D03*
X145850000Y-121666667D03*
D15*
X135562500Y-142700000D03*
X137437500Y-142700000D03*
D16*
X127550000Y-122200000D03*
X129550000Y-122200000D03*
D14*
X129550000Y-117200000D03*
X127550000Y-117200000D03*
D17*
X177450000Y-140200000D03*
X174150000Y-140200000D03*
D12*
X148900000Y-140900000D03*
D13*
X146900000Y-140900000D03*
X144900000Y-140900000D03*
D18*
X180100000Y-113300000D03*
D19*
X164300000Y-119200000D03*
D20*
X164300000Y-121740000D03*
X164300000Y-124280000D03*
D10*
X150000000Y-86000000D03*
D21*
X169500000Y-131362500D03*
X169500000Y-133437500D03*
D22*
X181771400Y-134928205D03*
X183628600Y-131711441D03*
D14*
X161200000Y-114500000D03*
X159200000Y-114500000D03*
D10*
X128000000Y-137000000D03*
D18*
X176000000Y-134100000D03*
D19*
X184755000Y-118560000D03*
D20*
X184755000Y-121100000D03*
X184755000Y-123640000D03*
D11*
X144550000Y-125325000D03*
X145850000Y-125325000D03*
D16*
X138500000Y-90400000D03*
X140500000Y-90400000D03*
D18*
X150900000Y-132000000D03*
D23*
X162900000Y-108700000D03*
D24*
X165440000Y-108700000D03*
X167980000Y-108700000D03*
X170520000Y-108700000D03*
X170520000Y-101080000D03*
X167980000Y-101080000D03*
X165440000Y-101080000D03*
X162900000Y-101080000D03*
D25*
X155600000Y-137900000D03*
X155600000Y-135900000D03*
D17*
X150950000Y-149800000D03*
X147650000Y-149800000D03*
D26*
X169060000Y-95185000D03*
D27*
X171600000Y-95185000D03*
X174140000Y-95185000D03*
D21*
X141000000Y-142662500D03*
X141000000Y-144737500D03*
D18*
X139500000Y-131800000D03*
D14*
X180100000Y-118540000D03*
X178100000Y-118540000D03*
D18*
X134600000Y-131800000D03*
D11*
X144550000Y-118008333D03*
X145850000Y-118008333D03*
D15*
X142862500Y-149800000D03*
X144737500Y-149800000D03*
D18*
X144400000Y-131800000D03*
D28*
X148937500Y-144800000D03*
X146862500Y-144800000D03*
D26*
X157860000Y-95200000D03*
D27*
X160400000Y-95200000D03*
X162940000Y-95200000D03*
D15*
X170072500Y-140200000D03*
X171947500Y-140200000D03*
D29*
X134300000Y-91764466D03*
X134300000Y-95300000D03*
X130764466Y-95300000D03*
D25*
X129000000Y-101100000D03*
X129000000Y-99100000D03*
D18*
X194100000Y-129100000D03*
D26*
X179315000Y-101620000D03*
D27*
X179315000Y-104160000D03*
X179315000Y-106700000D03*
D30*
X159900000Y-144300000D03*
D31*
X159900000Y-150500000D03*
D32*
X164600000Y-147500000D03*
D11*
X145850000Y-96075000D03*
X144550000Y-96075000D03*
D23*
X152825000Y-106900000D03*
D24*
X150285000Y-106900000D03*
X147745000Y-106900000D03*
X145205000Y-106900000D03*
X142665000Y-106900000D03*
X140125000Y-106900000D03*
X137585000Y-106900000D03*
X137585000Y-114520000D03*
X140125000Y-114520000D03*
X142665000Y-114520000D03*
X145205000Y-114520000D03*
X147745000Y-114520000D03*
X150285000Y-114520000D03*
X152825000Y-114520000D03*
D14*
X167700000Y-140200000D03*
X165700000Y-140200000D03*
D29*
X121600000Y-117200000D03*
X124100000Y-119700000D03*
X121600000Y-122200000D03*
D18*
X170900000Y-119200000D03*
D33*
X185831250Y-136293692D03*
X186868750Y-134496690D03*
D34*
X159900000Y-135900000D03*
X159900000Y-137900000D03*
D35*
X189300000Y-143430127D03*
D36*
X194300000Y-134769873D03*
D37*
X155580000Y-130725000D03*
X155580000Y-131375000D03*
X155580000Y-132025000D03*
X155580000Y-132675000D03*
X159880000Y-132675000D03*
X159880000Y-132025000D03*
X159880000Y-131375000D03*
X159880000Y-130725000D03*
D38*
X157730000Y-131700000D03*
M02*
