G04 #@! TF.GenerationSoftware,KiCad,Pcbnew,9.0.3*
G04 #@! TF.CreationDate,2025-07-27T23:48:25-04:00*
G04 #@! TF.ProjectId,Leviosa,4c657669-6f73-4612-9e6b-696361645f70,0*
G04 #@! TF.SameCoordinates,Original*
G04 #@! TF.FileFunction,Copper,L2,Bot*
G04 #@! TF.FilePolarity,Positive*
%FSLAX46Y46*%
G04 Gerber Fmt 4.6, Leading zero omitted, Abs format (unit mm)*
G04 Created by KiCad (PCBNEW 9.0.3) date 2025-07-27 23:48:25*
%MOMM*%
%LPD*%
G01*
G04 APERTURE LIST*
G04 Aperture macros list*
%AMHorizOval*
0 Thick line with rounded ends*
0 $1 width*
0 $2 $3 position (X,Y) of the first rounded end (center of the circle)*
0 $4 $5 position (X,Y) of the second rounded end (center of the circle)*
0 Add line between two ends*
20,1,$1,$2,$3,$4,$5,0*
0 Add two circle primitives to create the rounded ends*
1,1,$1,$2,$3*
1,1,$1,$4,$5*%
G04 Aperture macros list end*
G04 #@! TA.AperFunction,ComponentPad*
%ADD10R,1.350000X1.350000*%
G04 #@! TD*
G04 #@! TA.AperFunction,ComponentPad*
%ADD11O,1.350000X1.350000*%
G04 #@! TD*
G04 #@! TA.AperFunction,ComponentPad*
%ADD12R,2.000000X1.905000*%
G04 #@! TD*
G04 #@! TA.AperFunction,ComponentPad*
%ADD13O,2.000000X1.905000*%
G04 #@! TD*
G04 #@! TA.AperFunction,ComponentPad*
%ADD14R,1.600000X1.600000*%
G04 #@! TD*
G04 #@! TA.AperFunction,ComponentPad*
%ADD15O,1.600000X1.600000*%
G04 #@! TD*
G04 #@! TA.AperFunction,ComponentPad*
%ADD16R,1.700000X1.700000*%
G04 #@! TD*
G04 #@! TA.AperFunction,ComponentPad*
%ADD17C,1.700000*%
G04 #@! TD*
G04 #@! TA.AperFunction,ComponentPad*
%ADD18C,1.620000*%
G04 #@! TD*
G04 #@! TA.AperFunction,ComponentPad*
%ADD19R,4.500000X2.000000*%
G04 #@! TD*
G04 #@! TA.AperFunction,ComponentPad*
%ADD20O,4.000000X2.000000*%
G04 #@! TD*
G04 #@! TA.AperFunction,ComponentPad*
%ADD21O,2.000000X4.000000*%
G04 #@! TD*
G04 #@! TA.AperFunction,ComponentPad*
%ADD22C,1.600000*%
G04 #@! TD*
G04 #@! TA.AperFunction,ComponentPad*
%ADD23HorizOval,1.600000X0.000000X0.000000X0.000000X0.000000X0*%
G04 #@! TD*
G04 #@! TA.AperFunction,ViaPad*
%ADD24C,0.800000*%
G04 #@! TD*
G04 #@! TA.AperFunction,Conductor*
%ADD25C,0.250000*%
G04 #@! TD*
G04 APERTURE END LIST*
D10*
X127700000Y-111700000D03*
D11*
X129700000Y-111700000D03*
X131700000Y-111700000D03*
D10*
X148900000Y-140900000D03*
D11*
X146900000Y-140900000D03*
X144900000Y-140900000D03*
D12*
X164300000Y-119200000D03*
D13*
X164300000Y-121740000D03*
X164300000Y-124280000D03*
D12*
X184755000Y-118560000D03*
D13*
X184755000Y-121100000D03*
X184755000Y-123640000D03*
D14*
X162900000Y-108700000D03*
D15*
X165440000Y-108700000D03*
X167980000Y-108700000D03*
X170520000Y-108700000D03*
X170520000Y-101080000D03*
X167980000Y-101080000D03*
X165440000Y-101080000D03*
X162900000Y-101080000D03*
D16*
X169060000Y-95185000D03*
D17*
X171600000Y-95185000D03*
X174140000Y-95185000D03*
D16*
X157860000Y-95200000D03*
D17*
X160400000Y-95200000D03*
X162940000Y-95200000D03*
D18*
X134300000Y-91764466D03*
X134300000Y-95300000D03*
X130764466Y-95300000D03*
D16*
X179315000Y-101620000D03*
D17*
X179315000Y-104160000D03*
X179315000Y-106700000D03*
D19*
X159900000Y-144300000D03*
D20*
X159900000Y-150500000D03*
D21*
X164600000Y-147500000D03*
D14*
X152825000Y-106900000D03*
D15*
X150285000Y-106900000D03*
X147745000Y-106900000D03*
X145205000Y-106900000D03*
X142665000Y-106900000D03*
X140125000Y-106900000D03*
X137585000Y-106900000D03*
X137585000Y-114520000D03*
X140125000Y-114520000D03*
X142665000Y-114520000D03*
X145205000Y-114520000D03*
X147745000Y-114520000D03*
X150285000Y-114520000D03*
X152825000Y-114520000D03*
D18*
X121600000Y-117200000D03*
X124100000Y-119700000D03*
X121600000Y-122200000D03*
D22*
X189300000Y-143430127D03*
D23*
X194300000Y-134769873D03*
D24*
X129550000Y-122200000D03*
X135890000Y-149860000D03*
X164338000Y-126746000D03*
X131572000Y-101092000D03*
X129540000Y-114300000D03*
X157734000Y-134112000D03*
X139700000Y-134620000D03*
X193294000Y-120904000D03*
X165862000Y-96012000D03*
X139192000Y-144780000D03*
X129550000Y-117200000D03*
X149352000Y-93472000D03*
X159004000Y-99060000D03*
X162306000Y-132334000D03*
X158496000Y-107188000D03*
X155702000Y-139954000D03*
X181864000Y-144780000D03*
X163322000Y-140208000D03*
X129794000Y-140970000D03*
X173736000Y-106680000D03*
X171704000Y-98044000D03*
X136398000Y-123952000D03*
D25*
X155600000Y-101080000D02*
X157200000Y-101080000D01*
X162940000Y-95200000D02*
X160240000Y-92500000D01*
X160240000Y-92500000D02*
X155600000Y-92500000D01*
X174140000Y-95185000D02*
X171455000Y-92500000D01*
X145205000Y-106900000D02*
X151025000Y-101080000D01*
X127700000Y-111700000D02*
X127700000Y-120350000D01*
X151025000Y-101080000D02*
X155600000Y-101080000D01*
X157200000Y-101080000D02*
X162900000Y-101080000D01*
X171455000Y-92500000D02*
X160240000Y-92500000D01*
X127700000Y-120350000D02*
X129550000Y-122200000D01*
X155600000Y-92500000D02*
X155600000Y-101080000D01*
X165440000Y-101080000D02*
X162920000Y-103600000D01*
X162920000Y-103600000D02*
X151045000Y-103600000D01*
X151045000Y-103600000D02*
X147745000Y-106900000D01*
G04 #@! TA.AperFunction,Conductor*
G36*
X160625514Y-80305459D02*
G01*
X161868191Y-80344510D01*
X161872042Y-80344693D01*
X163112855Y-80422758D01*
X163116676Y-80423058D01*
X164354487Y-80540066D01*
X164358332Y-80540491D01*
X165591777Y-80696312D01*
X165595634Y-80696861D01*
X166823554Y-80891344D01*
X166827395Y-80892013D01*
X168048668Y-81124984D01*
X168052424Y-81125762D01*
X169265832Y-81396990D01*
X169269515Y-81397875D01*
X170473747Y-81707070D01*
X170477502Y-81708097D01*
X171671403Y-82054957D01*
X171675067Y-82056084D01*
X172857559Y-82440299D01*
X172861140Y-82441525D01*
X174030976Y-82862692D01*
X174034575Y-82864052D01*
X175190545Y-83321733D01*
X175194073Y-83323193D01*
X176230482Y-83771688D01*
X176335116Y-83816968D01*
X176338667Y-83818571D01*
X177463643Y-84347943D01*
X177467077Y-84349626D01*
X178574867Y-84914073D01*
X178578286Y-84915884D01*
X179667762Y-85514829D01*
X179671121Y-85516745D01*
X180687795Y-86118004D01*
X180741238Y-86149610D01*
X180744552Y-86151640D01*
X181763129Y-86798049D01*
X181794305Y-86817834D01*
X181797560Y-86819973D01*
X182825812Y-87518772D01*
X182828999Y-87521012D01*
X183169406Y-87768332D01*
X183834847Y-88251803D01*
X183837861Y-88254065D01*
X184820290Y-89016115D01*
X184823294Y-89018522D01*
X185781287Y-89811042D01*
X185784207Y-89813536D01*
X186547234Y-90486235D01*
X186716807Y-90635734D01*
X186719688Y-90638356D01*
X187625978Y-91489419D01*
X187628775Y-91492130D01*
X188507869Y-92371224D01*
X188510580Y-92374021D01*
X189361643Y-93280311D01*
X189364265Y-93283192D01*
X190146000Y-94169896D01*
X190186445Y-94215771D01*
X190188962Y-94218718D01*
X190734362Y-94877993D01*
X190981475Y-95176702D01*
X190983890Y-95179717D01*
X191745926Y-96162128D01*
X191748204Y-96165163D01*
X192017269Y-96535499D01*
X192478987Y-97171000D01*
X192481227Y-97174187D01*
X193180026Y-98202439D01*
X193182165Y-98205694D01*
X193848354Y-99255439D01*
X193850389Y-99258761D01*
X194481674Y-100326206D01*
X194483240Y-100328853D01*
X194485170Y-100332237D01*
X195084115Y-101421713D01*
X195085938Y-101425155D01*
X195642710Y-102517883D01*
X195650357Y-102532890D01*
X195652071Y-102536388D01*
X196181428Y-103661332D01*
X196183031Y-103664883D01*
X196676791Y-104805891D01*
X196678281Y-104809490D01*
X197135938Y-105965402D01*
X197137315Y-105969045D01*
X197227084Y-106218386D01*
X197488449Y-106944356D01*
X197558456Y-107138806D01*
X197559713Y-107142477D01*
X197728608Y-107662284D01*
X197943906Y-108324903D01*
X197945051Y-108328626D01*
X198291901Y-109522495D01*
X198292929Y-109526252D01*
X198602111Y-110730431D01*
X198603019Y-110734213D01*
X198652345Y-110954883D01*
X198874231Y-111947546D01*
X198875021Y-111951361D01*
X199107986Y-113172608D01*
X199108655Y-113176445D01*
X199303138Y-114404365D01*
X199303687Y-114408222D01*
X199459506Y-115641653D01*
X199459934Y-115645525D01*
X199576938Y-116883292D01*
X199577243Y-116887175D01*
X199655305Y-118127936D01*
X199655489Y-118131827D01*
X199694541Y-119374485D01*
X199694602Y-119378380D01*
X199694602Y-120621619D01*
X199694541Y-120625514D01*
X199655489Y-121868172D01*
X199655305Y-121872063D01*
X199577243Y-123112824D01*
X199576938Y-123116707D01*
X199459934Y-124354474D01*
X199459506Y-124358346D01*
X199303687Y-125591777D01*
X199303138Y-125595634D01*
X199108655Y-126823554D01*
X199107986Y-126827391D01*
X198875021Y-128048638D01*
X198874231Y-128052453D01*
X198603021Y-129265780D01*
X198602111Y-129269568D01*
X198292929Y-130473747D01*
X198291901Y-130477504D01*
X197945051Y-131671373D01*
X197943906Y-131675096D01*
X197559718Y-132857507D01*
X197558456Y-132861193D01*
X197137315Y-134030954D01*
X197135938Y-134034597D01*
X196678281Y-135190509D01*
X196676791Y-135194108D01*
X196183031Y-136335116D01*
X196181428Y-136338667D01*
X195652071Y-137463611D01*
X195650357Y-137467109D01*
X195085938Y-138574844D01*
X195084115Y-138578286D01*
X194485170Y-139667762D01*
X194483240Y-139671146D01*
X193850389Y-140741238D01*
X193848354Y-140744560D01*
X193182165Y-141794305D01*
X193180026Y-141797560D01*
X192481227Y-142825812D01*
X192478987Y-142828999D01*
X191748223Y-143834811D01*
X191745903Y-143837901D01*
X191405040Y-144277340D01*
X190983910Y-144820257D01*
X190981475Y-144823297D01*
X190188975Y-145781266D01*
X190186445Y-145784228D01*
X189364265Y-146716807D01*
X189361643Y-146719688D01*
X188510580Y-147625978D01*
X188507869Y-147628775D01*
X187628775Y-148507869D01*
X187625978Y-148510580D01*
X186719688Y-149361643D01*
X186716807Y-149364265D01*
X185784228Y-150186445D01*
X185781266Y-150188975D01*
X184823297Y-150981475D01*
X184820257Y-150983910D01*
X184796350Y-151002454D01*
X183837901Y-151745903D01*
X183834811Y-151748223D01*
X182828999Y-152478987D01*
X182825812Y-152481227D01*
X181797560Y-153180026D01*
X181794305Y-153182165D01*
X180744560Y-153848354D01*
X180741238Y-153850389D01*
X179671146Y-154483240D01*
X179667762Y-154485170D01*
X178578286Y-155084115D01*
X178574844Y-155085938D01*
X177467109Y-155650357D01*
X177463611Y-155652071D01*
X176338667Y-156181428D01*
X176335116Y-156183031D01*
X175194108Y-156676791D01*
X175190509Y-156678281D01*
X174034597Y-157135938D01*
X174030954Y-157137315D01*
X172861193Y-157558456D01*
X172857507Y-157559718D01*
X171675096Y-157943906D01*
X171671373Y-157945051D01*
X170477504Y-158291901D01*
X170473747Y-158292929D01*
X169269568Y-158602111D01*
X169265780Y-158603021D01*
X168052453Y-158874231D01*
X168048638Y-158875021D01*
X166827391Y-159107986D01*
X166823554Y-159108655D01*
X165595634Y-159303138D01*
X165591777Y-159303687D01*
X164358346Y-159459506D01*
X164354474Y-159459934D01*
X163116707Y-159576938D01*
X163112824Y-159577243D01*
X161872063Y-159655305D01*
X161868172Y-159655489D01*
X160625514Y-159694541D01*
X160621619Y-159694602D01*
X159378381Y-159694602D01*
X159374486Y-159694541D01*
X158131827Y-159655489D01*
X158127936Y-159655305D01*
X156887175Y-159577243D01*
X156883292Y-159576938D01*
X155645525Y-159459934D01*
X155641653Y-159459506D01*
X154408222Y-159303687D01*
X154404365Y-159303138D01*
X153176445Y-159108655D01*
X153172608Y-159107986D01*
X151951361Y-158875021D01*
X151947546Y-158874231D01*
X150734219Y-158603021D01*
X150730431Y-158602111D01*
X149526252Y-158292929D01*
X149522495Y-158291901D01*
X148328626Y-157945051D01*
X148324903Y-157943906D01*
X147839696Y-157786253D01*
X147142477Y-157559713D01*
X147138821Y-157558461D01*
X146508823Y-157331647D01*
X145969045Y-157137315D01*
X145965402Y-157135938D01*
X144809490Y-156678281D01*
X144805891Y-156676791D01*
X143664883Y-156183031D01*
X143661332Y-156181428D01*
X142536388Y-155652071D01*
X142532890Y-155650357D01*
X141425155Y-155085938D01*
X141421713Y-155084115D01*
X140332237Y-154485170D01*
X140328853Y-154483240D01*
X139258761Y-153850389D01*
X139255439Y-153848354D01*
X138205694Y-153182165D01*
X138202439Y-153180026D01*
X137174187Y-152481227D01*
X137171000Y-152478987D01*
X136360468Y-151890102D01*
X136165163Y-151748204D01*
X136162128Y-151745926D01*
X135179717Y-150983890D01*
X135176702Y-150981475D01*
X134967588Y-150808481D01*
X134452794Y-150382607D01*
X134292500Y-150250000D01*
X157420898Y-150250000D01*
X158466988Y-150250000D01*
X158434075Y-150307007D01*
X158400000Y-150434174D01*
X158400000Y-150565826D01*
X158434075Y-150692993D01*
X158466988Y-150750000D01*
X157420898Y-150750000D01*
X157436934Y-150851247D01*
X157509897Y-151075802D01*
X157617085Y-151286171D01*
X157755866Y-151477186D01*
X157922813Y-151644133D01*
X158113828Y-151782914D01*
X158324197Y-151890102D01*
X158548752Y-151963065D01*
X158548751Y-151963065D01*
X158781948Y-152000000D01*
X159650000Y-152000000D01*
X159650000Y-151000000D01*
X160150000Y-151000000D01*
X160150000Y-152000000D01*
X161018052Y-152000000D01*
X161251247Y-151963065D01*
X161475802Y-151890102D01*
X161686171Y-151782914D01*
X161877186Y-151644133D01*
X162044133Y-151477186D01*
X162182914Y-151286171D01*
X162290102Y-151075802D01*
X162363065Y-150851247D01*
X162379102Y-150750000D01*
X161333012Y-150750000D01*
X161365925Y-150692993D01*
X161400000Y-150565826D01*
X161400000Y-150434174D01*
X161365925Y-150307007D01*
X161333012Y-150250000D01*
X162379102Y-150250000D01*
X162363065Y-150148752D01*
X162290102Y-149924197D01*
X162182914Y-149713828D01*
X162044133Y-149522813D01*
X161877186Y-149355866D01*
X161686171Y-149217085D01*
X161475802Y-149109897D01*
X161251247Y-149036934D01*
X161251248Y-149036934D01*
X161018052Y-149000000D01*
X160150000Y-149000000D01*
X160150000Y-150000000D01*
X159650000Y-150000000D01*
X159650000Y-149000000D01*
X158781948Y-149000000D01*
X158548752Y-149036934D01*
X158324197Y-149109897D01*
X158113828Y-149217085D01*
X157922813Y-149355866D01*
X157755866Y-149522813D01*
X157617085Y-149713828D01*
X157509897Y-149924197D01*
X157436934Y-150148752D01*
X157420898Y-150250000D01*
X134292500Y-150250000D01*
X134218718Y-150188962D01*
X134215787Y-150186459D01*
X133283192Y-149364265D01*
X133280311Y-149361643D01*
X132374021Y-148510580D01*
X132371224Y-148507869D01*
X131492130Y-147628775D01*
X131489419Y-147625978D01*
X130638356Y-146719688D01*
X130635734Y-146716807D01*
X130408481Y-146459039D01*
X130340475Y-146381902D01*
X163099500Y-146381902D01*
X163099500Y-148618097D01*
X163136446Y-148851368D01*
X163209433Y-149075996D01*
X163281322Y-149217085D01*
X163316657Y-149286433D01*
X163455483Y-149477510D01*
X163622490Y-149644517D01*
X163813567Y-149783343D01*
X163912991Y-149834002D01*
X164024003Y-149890566D01*
X164024005Y-149890566D01*
X164024008Y-149890568D01*
X164127507Y-149924197D01*
X164248631Y-149963553D01*
X164481903Y-150000500D01*
X164481908Y-150000500D01*
X164718097Y-150000500D01*
X164951368Y-149963553D01*
X165175992Y-149890568D01*
X165192817Y-149881995D01*
X176199500Y-149881995D01*
X176199500Y-150118004D01*
X176199501Y-150118020D01*
X176230306Y-150352010D01*
X176291394Y-150579993D01*
X176381714Y-150798045D01*
X176381719Y-150798056D01*
X176452677Y-150920957D01*
X176499727Y-151002450D01*
X176499729Y-151002453D01*
X176499730Y-151002454D01*
X176643406Y-151189697D01*
X176643412Y-151189704D01*
X176810295Y-151356587D01*
X176810301Y-151356592D01*
X176997550Y-151500273D01*
X177128918Y-151576118D01*
X177201943Y-151618280D01*
X177201948Y-151618282D01*
X177201951Y-151618284D01*
X177420007Y-151708606D01*
X177647986Y-151769693D01*
X177881989Y-151800500D01*
X177881996Y-151800500D01*
X178118004Y-151800500D01*
X178118011Y-151800500D01*
X178352014Y-151769693D01*
X178579993Y-151708606D01*
X178798049Y-151618284D01*
X179002450Y-151500273D01*
X179189699Y-151356592D01*
X179356592Y-151189699D01*
X179500273Y-151002450D01*
X179618284Y-150798049D01*
X179708606Y-150579993D01*
X179769693Y-150352014D01*
X179800500Y-150118011D01*
X179800500Y-149881989D01*
X179769693Y-149647986D01*
X179708606Y-149420007D01*
X179618284Y-149201951D01*
X179618282Y-149201948D01*
X179618280Y-149201943D01*
X179576118Y-149128918D01*
X179500273Y-148997550D01*
X179356592Y-148810301D01*
X179356587Y-148810295D01*
X179189704Y-148643412D01*
X179189697Y-148643406D01*
X179002454Y-148499730D01*
X179002453Y-148499729D01*
X179002450Y-148499727D01*
X178920957Y-148452677D01*
X178798056Y-148381719D01*
X178798045Y-148381714D01*
X178579993Y-148291394D01*
X178352010Y-148230306D01*
X178118020Y-148199501D01*
X178118017Y-148199500D01*
X178118011Y-148199500D01*
X177881989Y-148199500D01*
X177881983Y-148199500D01*
X177881979Y-148199501D01*
X177647989Y-148230306D01*
X177420006Y-148291394D01*
X177201954Y-148381714D01*
X177201943Y-148381719D01*
X176997545Y-148499730D01*
X176810302Y-148643406D01*
X176810295Y-148643412D01*
X176643412Y-148810295D01*
X176643406Y-148810302D01*
X176499730Y-148997545D01*
X176499727Y-148997549D01*
X176499727Y-148997550D01*
X176492014Y-149010909D01*
X176381719Y-149201943D01*
X176381714Y-149201954D01*
X176291394Y-149420006D01*
X176230306Y-149647989D01*
X176199501Y-149881979D01*
X176199500Y-149881995D01*
X165192817Y-149881995D01*
X165386433Y-149783343D01*
X165577510Y-149644517D01*
X165744517Y-149477510D01*
X165883343Y-149286433D01*
X165990568Y-149075992D01*
X166063553Y-148851368D01*
X166096490Y-148643412D01*
X166100500Y-148618097D01*
X166100500Y-146381902D01*
X166063553Y-146148631D01*
X165990566Y-145924003D01*
X165934002Y-145812991D01*
X165883343Y-145713567D01*
X165744517Y-145522490D01*
X165577510Y-145355483D01*
X165386433Y-145216657D01*
X165355116Y-145200700D01*
X165175996Y-145109433D01*
X164951368Y-145036446D01*
X164718097Y-144999500D01*
X164718092Y-144999500D01*
X164481908Y-144999500D01*
X164481903Y-144999500D01*
X164248631Y-145036446D01*
X164024003Y-145109433D01*
X163813566Y-145216657D01*
X163704550Y-145295862D01*
X163622490Y-145355483D01*
X163622488Y-145355485D01*
X163622487Y-145355485D01*
X163455485Y-145522487D01*
X163455485Y-145522488D01*
X163455483Y-145522490D01*
X163441070Y-145542328D01*
X163316657Y-145713566D01*
X163209433Y-145924003D01*
X163136446Y-146148631D01*
X163099500Y-146381902D01*
X130340475Y-146381902D01*
X130267096Y-146298670D01*
X129813536Y-145784207D01*
X129811042Y-145781287D01*
X129018522Y-144823294D01*
X129016115Y-144820290D01*
X128254065Y-143837861D01*
X128251803Y-143834847D01*
X127828438Y-143252135D01*
X157149500Y-143252135D01*
X157149500Y-145347870D01*
X157149501Y-145347876D01*
X157155908Y-145407483D01*
X157206202Y-145542328D01*
X157206206Y-145542335D01*
X157292452Y-145657544D01*
X157292455Y-145657547D01*
X157407664Y-145743793D01*
X157407671Y-145743797D01*
X157542517Y-145794091D01*
X157542516Y-145794091D01*
X157549444Y-145794835D01*
X157602127Y-145800500D01*
X162197872Y-145800499D01*
X162257483Y-145794091D01*
X162392331Y-145743796D01*
X162507546Y-145657546D01*
X162593796Y-145542331D01*
X162644091Y-145407483D01*
X162650500Y-145347873D01*
X162650499Y-143327775D01*
X187999500Y-143327775D01*
X187999500Y-143532478D01*
X188031522Y-143734661D01*
X188094781Y-143929350D01*
X188187715Y-144111740D01*
X188308028Y-144277340D01*
X188452786Y-144422098D01*
X188607749Y-144534683D01*
X188618390Y-144542414D01*
X188734607Y-144601630D01*
X188800776Y-144635345D01*
X188800778Y-144635345D01*
X188800781Y-144635347D01*
X188905137Y-144669254D01*
X188995465Y-144698604D01*
X189096557Y-144714615D01*
X189197648Y-144730627D01*
X189197649Y-144730627D01*
X189402351Y-144730627D01*
X189402352Y-144730627D01*
X189604534Y-144698604D01*
X189799219Y-144635347D01*
X189981610Y-144542414D01*
X190074590Y-144474859D01*
X190147213Y-144422098D01*
X190147215Y-144422095D01*
X190147219Y-144422093D01*
X190291966Y-144277346D01*
X190291968Y-144277342D01*
X190291971Y-144277340D01*
X190348000Y-144200221D01*
X190412287Y-144111737D01*
X190505220Y-143929346D01*
X190568477Y-143734661D01*
X190600500Y-143532479D01*
X190600500Y-143327775D01*
X190588519Y-143252129D01*
X190568477Y-143125592D01*
X190508972Y-142942455D01*
X190505220Y-142930908D01*
X190505218Y-142930905D01*
X190505218Y-142930903D01*
X190467155Y-142856202D01*
X190412287Y-142748517D01*
X190404556Y-142737876D01*
X190291971Y-142582913D01*
X190147213Y-142438155D01*
X189981613Y-142317842D01*
X189981612Y-142317841D01*
X189981610Y-142317840D01*
X189924653Y-142288818D01*
X189799223Y-142224908D01*
X189604534Y-142161649D01*
X189429995Y-142134005D01*
X189402352Y-142129627D01*
X189197648Y-142129627D01*
X189173329Y-142133478D01*
X188995465Y-142161649D01*
X188800776Y-142224908D01*
X188618386Y-142317842D01*
X188452786Y-142438155D01*
X188308028Y-142582913D01*
X188187715Y-142748513D01*
X188094781Y-142930903D01*
X188031522Y-143125592D01*
X187999500Y-143327775D01*
X162650499Y-143327775D01*
X162650499Y-143252128D01*
X162644091Y-143192517D01*
X162593796Y-143057669D01*
X162593795Y-143057668D01*
X162593793Y-143057664D01*
X162507547Y-142942455D01*
X162507544Y-142942452D01*
X162392335Y-142856206D01*
X162392328Y-142856202D01*
X162257482Y-142805908D01*
X162257483Y-142805908D01*
X162197883Y-142799501D01*
X162197881Y-142799500D01*
X162197873Y-142799500D01*
X162197864Y-142799500D01*
X157602129Y-142799500D01*
X157602123Y-142799501D01*
X157542516Y-142805908D01*
X157407671Y-142856202D01*
X157407664Y-142856206D01*
X157292455Y-142942452D01*
X157292452Y-142942455D01*
X157206206Y-143057664D01*
X157206202Y-143057671D01*
X157155908Y-143192517D01*
X157149501Y-143252116D01*
X157149501Y-143252123D01*
X157149500Y-143252135D01*
X127828438Y-143252135D01*
X127736499Y-143125592D01*
X127521012Y-142828999D01*
X127518772Y-142825812D01*
X126892953Y-141904947D01*
X126819971Y-141797557D01*
X126817834Y-141794305D01*
X126486839Y-141272741D01*
X126216871Y-140847339D01*
X126191580Y-140807486D01*
X143724500Y-140807486D01*
X143724500Y-140992513D01*
X143753445Y-141175265D01*
X143810619Y-141351232D01*
X143810620Y-141351235D01*
X143894622Y-141516096D01*
X144003379Y-141665787D01*
X144134213Y-141796621D01*
X144283904Y-141905378D01*
X144337224Y-141932546D01*
X144448764Y-141989379D01*
X144448767Y-141989380D01*
X144536750Y-142017967D01*
X144624736Y-142046555D01*
X144807486Y-142075500D01*
X144807487Y-142075500D01*
X144992513Y-142075500D01*
X144992514Y-142075500D01*
X145175264Y-142046555D01*
X145351235Y-141989379D01*
X145516096Y-141905378D01*
X145665787Y-141796621D01*
X145796621Y-141665787D01*
X145799982Y-141661159D01*
X145855305Y-141618489D01*
X145924917Y-141612501D01*
X145986716Y-141645098D01*
X146000625Y-141661148D01*
X146003752Y-141665452D01*
X146003758Y-141665459D01*
X146134540Y-141796241D01*
X146134545Y-141796245D01*
X146284162Y-141904947D01*
X146448956Y-141988915D01*
X146448959Y-141988916D01*
X146624845Y-142046064D01*
X146624858Y-142046067D01*
X146650000Y-142050049D01*
X146650000Y-141215686D01*
X146654394Y-141220080D01*
X146745606Y-141272741D01*
X146847339Y-141300000D01*
X146952661Y-141300000D01*
X147054394Y-141272741D01*
X147145606Y-141220080D01*
X147150000Y-141215686D01*
X147150000Y-142050048D01*
X147175141Y-142046067D01*
X147175154Y-142046064D01*
X147351040Y-141988916D01*
X147351043Y-141988915D01*
X147515838Y-141904947D01*
X147631306Y-141821054D01*
X147697112Y-141797573D01*
X147765166Y-141813398D01*
X147803458Y-141847059D01*
X147867455Y-141932547D01*
X147982664Y-142018793D01*
X147982671Y-142018797D01*
X148117517Y-142069091D01*
X148117516Y-142069091D01*
X148124444Y-142069835D01*
X148177127Y-142075500D01*
X149622872Y-142075499D01*
X149682483Y-142069091D01*
X149817331Y-142018796D01*
X149932546Y-141932546D01*
X150018796Y-141817331D01*
X150069091Y-141682483D01*
X150075500Y-141622873D01*
X150075499Y-140177128D01*
X150069091Y-140117517D01*
X150026520Y-140003379D01*
X150018797Y-139982671D01*
X150018793Y-139982664D01*
X149932547Y-139867455D01*
X149932544Y-139867452D01*
X149817335Y-139781206D01*
X149817328Y-139781202D01*
X149682482Y-139730908D01*
X149682483Y-139730908D01*
X149622883Y-139724501D01*
X149622881Y-139724500D01*
X149622873Y-139724500D01*
X149622864Y-139724500D01*
X148177129Y-139724500D01*
X148177123Y-139724501D01*
X148117516Y-139730908D01*
X147982671Y-139781202D01*
X147982664Y-139781206D01*
X147867455Y-139867452D01*
X147803459Y-139952939D01*
X147747525Y-139994809D01*
X147677833Y-139999793D01*
X147631308Y-139978946D01*
X147515833Y-139895049D01*
X147351043Y-139811084D01*
X147351037Y-139811082D01*
X147175144Y-139753932D01*
X147150000Y-139749950D01*
X147150000Y-140584314D01*
X147145606Y-140579920D01*
X147054394Y-140527259D01*
X146952661Y-140500000D01*
X146847339Y-140500000D01*
X146745606Y-140527259D01*
X146654394Y-140579920D01*
X146650000Y-140584314D01*
X146650000Y-139749950D01*
X146649999Y-139749950D01*
X146624855Y-139753932D01*
X146448962Y-139811082D01*
X146448956Y-139811084D01*
X146284162Y-139895052D01*
X146134545Y-140003754D01*
X146134540Y-140003758D01*
X146003762Y-140134536D01*
X146003757Y-140134542D01*
X146000620Y-140138860D01*
X145945286Y-140181521D01*
X145875672Y-140187494D01*
X145813880Y-140154883D01*
X145799992Y-140138853D01*
X145796621Y-140134213D01*
X145665787Y-140003379D01*
X145516096Y-139894622D01*
X145462778Y-139867455D01*
X145351235Y-139810620D01*
X145351232Y-139810619D01*
X145175265Y-139753445D01*
X145032972Y-139730908D01*
X144992514Y-139724500D01*
X144807486Y-139724500D01*
X144767028Y-139730908D01*
X144624734Y-139753445D01*
X144448767Y-139810619D01*
X144448764Y-139810620D01*
X144283903Y-139894622D01*
X144203638Y-139952939D01*
X144134213Y-140003379D01*
X144134211Y-140003381D01*
X144134210Y-140003381D01*
X144003381Y-140134210D01*
X144003381Y-140134211D01*
X144003379Y-140134213D01*
X143972199Y-140177129D01*
X143894622Y-140283903D01*
X143810620Y-140448764D01*
X143810619Y-140448767D01*
X143753445Y-140624734D01*
X143724500Y-140807486D01*
X126191580Y-140807486D01*
X126151645Y-140744559D01*
X126149610Y-140741238D01*
X125976642Y-140448765D01*
X125516745Y-139671121D01*
X125514829Y-139667762D01*
X124915884Y-138578286D01*
X124914061Y-138574844D01*
X124349626Y-137467077D01*
X124347932Y-137463618D01*
X124185299Y-137118004D01*
X124097173Y-136930726D01*
X124074242Y-136881995D01*
X126199500Y-136881995D01*
X126199500Y-137118004D01*
X126199501Y-137118020D01*
X126230306Y-137352010D01*
X126291394Y-137579993D01*
X126381714Y-137798045D01*
X126381719Y-137798056D01*
X126452677Y-137920957D01*
X126499727Y-138002450D01*
X126499729Y-138002453D01*
X126499730Y-138002454D01*
X126643406Y-138189697D01*
X126643412Y-138189704D01*
X126810295Y-138356587D01*
X126810301Y-138356592D01*
X126997550Y-138500273D01*
X127126711Y-138574844D01*
X127201943Y-138618280D01*
X127201948Y-138618282D01*
X127201951Y-138618284D01*
X127420007Y-138708606D01*
X127647986Y-138769693D01*
X127881989Y-138800500D01*
X127881996Y-138800500D01*
X128118004Y-138800500D01*
X128118011Y-138800500D01*
X128352014Y-138769693D01*
X128579993Y-138708606D01*
X128798049Y-138618284D01*
X129002450Y-138500273D01*
X129189699Y-138356592D01*
X129356592Y-138189699D01*
X129500273Y-138002450D01*
X129618284Y-137798049D01*
X129708606Y-137579993D01*
X129769693Y-137352014D01*
X129800500Y-137118011D01*
X129800500Y-136881989D01*
X129769693Y-136647986D01*
X129708606Y-136420007D01*
X129618284Y-136201951D01*
X129618282Y-136201948D01*
X129618280Y-136201943D01*
X129542317Y-136070373D01*
X129500273Y-135997550D01*
X129356592Y-135810301D01*
X129356587Y-135810295D01*
X129189704Y-135643412D01*
X129189697Y-135643406D01*
X129002454Y-135499730D01*
X129002453Y-135499729D01*
X129002450Y-135499727D01*
X128918889Y-135451483D01*
X128798056Y-135381719D01*
X128798045Y-135381714D01*
X128579993Y-135291394D01*
X128352010Y-135230306D01*
X128118020Y-135199501D01*
X128118017Y-135199500D01*
X128118011Y-135199500D01*
X127881989Y-135199500D01*
X127881983Y-135199500D01*
X127881979Y-135199501D01*
X127647989Y-135230306D01*
X127420006Y-135291394D01*
X127201954Y-135381714D01*
X127201943Y-135381719D01*
X126997545Y-135499730D01*
X126810302Y-135643406D01*
X126810295Y-135643412D01*
X126643412Y-135810295D01*
X126643406Y-135810302D01*
X126499730Y-135997545D01*
X126381719Y-136201943D01*
X126381714Y-136201954D01*
X126291394Y-136420006D01*
X126230306Y-136647989D01*
X126199501Y-136881979D01*
X126199500Y-136881995D01*
X124074242Y-136881995D01*
X123818571Y-136338667D01*
X123816968Y-136335116D01*
X123702403Y-136070373D01*
X123323193Y-135194073D01*
X123321733Y-135190545D01*
X123114653Y-134667521D01*
X192999500Y-134667521D01*
X192999500Y-134872224D01*
X193031522Y-135074407D01*
X193094781Y-135269096D01*
X193187715Y-135451486D01*
X193308028Y-135617086D01*
X193452786Y-135761844D01*
X193607749Y-135874429D01*
X193618390Y-135882160D01*
X193734607Y-135941376D01*
X193800776Y-135975091D01*
X193800778Y-135975091D01*
X193800781Y-135975093D01*
X193869897Y-135997550D01*
X193995465Y-136038350D01*
X194096557Y-136054361D01*
X194197648Y-136070373D01*
X194197649Y-136070373D01*
X194402351Y-136070373D01*
X194402352Y-136070373D01*
X194604534Y-136038350D01*
X194799219Y-135975093D01*
X194981610Y-135882160D01*
X195080516Y-135810301D01*
X195147213Y-135761844D01*
X195147215Y-135761841D01*
X195147219Y-135761839D01*
X195291966Y-135617092D01*
X195291968Y-135617088D01*
X195291971Y-135617086D01*
X195344732Y-135544463D01*
X195412287Y-135451483D01*
X195505220Y-135269092D01*
X195568477Y-135074407D01*
X195600500Y-134872225D01*
X195600500Y-134667521D01*
X195568477Y-134465339D01*
X195505220Y-134270654D01*
X195505218Y-134270651D01*
X195505218Y-134270649D01*
X195471503Y-134204480D01*
X195412287Y-134088263D01*
X195370650Y-134030954D01*
X195291971Y-133922659D01*
X195147213Y-133777901D01*
X194981613Y-133657588D01*
X194981612Y-133657587D01*
X194981610Y-133657586D01*
X194924653Y-133628564D01*
X194799223Y-133564654D01*
X194604534Y-133501395D01*
X194429995Y-133473751D01*
X194402352Y-133469373D01*
X194197648Y-133469373D01*
X194173329Y-133473224D01*
X193995465Y-133501395D01*
X193800776Y-133564654D01*
X193618386Y-133657588D01*
X193452786Y-133777901D01*
X193308028Y-133922659D01*
X193187715Y-134088259D01*
X193094781Y-134270649D01*
X193031522Y-134465338D01*
X192999500Y-134667521D01*
X123114653Y-134667521D01*
X122864052Y-134034575D01*
X122862684Y-134030954D01*
X122441525Y-132861140D01*
X122440299Y-132857559D01*
X122056084Y-131675067D01*
X122054957Y-131671403D01*
X121708097Y-130477502D01*
X121707070Y-130473747D01*
X121433721Y-129409126D01*
X121397875Y-129269515D01*
X121396990Y-129265832D01*
X121125762Y-128052424D01*
X121124984Y-128048668D01*
X120892013Y-126827391D01*
X120891344Y-126823554D01*
X120710079Y-125679091D01*
X120696860Y-125595631D01*
X120696312Y-125591777D01*
X120540491Y-124358332D01*
X120540065Y-124354474D01*
X120526180Y-124207591D01*
X120430386Y-123194192D01*
X120443675Y-123125599D01*
X120491938Y-123075078D01*
X120559854Y-123058670D01*
X120625859Y-123081585D01*
X120641517Y-123094843D01*
X120746267Y-123199593D01*
X120913148Y-123320840D01*
X121096943Y-123414488D01*
X121096945Y-123414489D01*
X121293120Y-123478230D01*
X121293121Y-123478230D01*
X121293124Y-123478231D01*
X121496861Y-123510500D01*
X121496862Y-123510500D01*
X121703138Y-123510500D01*
X121703139Y-123510500D01*
X121906876Y-123478231D01*
X121906879Y-123478230D01*
X121906880Y-123478230D01*
X122103054Y-123414489D01*
X122103054Y-123414488D01*
X122103057Y-123414488D01*
X122286852Y-123320840D01*
X122453733Y-123199593D01*
X122599593Y-123053733D01*
X122720840Y-122886852D01*
X122814488Y-122703057D01*
X122870160Y-122531716D01*
X122878230Y-122506880D01*
X122878230Y-122506879D01*
X122878231Y-122506876D01*
X122910500Y-122303139D01*
X122910500Y-122096861D01*
X122878231Y-121893124D01*
X122878230Y-121893120D01*
X122878230Y-121893119D01*
X122814489Y-121696945D01*
X122720839Y-121513147D01*
X122711678Y-121500538D01*
X122599593Y-121346267D01*
X122453733Y-121200407D01*
X122286852Y-121079160D01*
X122103054Y-120985510D01*
X121906879Y-120921769D01*
X121754073Y-120897567D01*
X121703139Y-120889500D01*
X121496861Y-120889500D01*
X121428948Y-120900256D01*
X121293122Y-120921769D01*
X121293119Y-120921769D01*
X121096945Y-120985510D01*
X120913147Y-121079160D01*
X120746265Y-121200408D01*
X120600409Y-121346264D01*
X120600402Y-121346273D01*
X120552278Y-121412509D01*
X120496948Y-121455175D01*
X120427335Y-121461153D01*
X120365540Y-121428546D01*
X120331183Y-121367707D01*
X120328022Y-121343518D01*
X120327726Y-121334106D01*
X120305459Y-120625514D01*
X120305398Y-120621619D01*
X120305398Y-119596861D01*
X122789500Y-119596861D01*
X122789500Y-119803138D01*
X122821769Y-120006877D01*
X122821769Y-120006880D01*
X122885510Y-120203054D01*
X122954504Y-120338462D01*
X122979160Y-120386852D01*
X123100407Y-120553733D01*
X123246267Y-120699593D01*
X123413148Y-120820840D01*
X123547901Y-120889500D01*
X123596945Y-120914489D01*
X123793120Y-120978230D01*
X123793121Y-120978230D01*
X123793124Y-120978231D01*
X123996861Y-121010500D01*
X123996862Y-121010500D01*
X124203138Y-121010500D01*
X124203139Y-121010500D01*
X124406876Y-120978231D01*
X124406879Y-120978230D01*
X124406880Y-120978230D01*
X124603054Y-120914489D01*
X124603054Y-120914488D01*
X124603057Y-120914488D01*
X124786852Y-120820840D01*
X124953733Y-120699593D01*
X125099593Y-120553733D01*
X125220840Y-120386852D01*
X125314488Y-120203057D01*
X125329856Y-120155759D01*
X125378230Y-120006880D01*
X125378230Y-120006879D01*
X125378231Y-120006876D01*
X125410500Y-119803139D01*
X125410500Y-119596861D01*
X125378231Y-119393124D01*
X125378230Y-119393120D01*
X125378230Y-119393119D01*
X125314489Y-119196945D01*
X125220839Y-119013147D01*
X125099593Y-118846267D01*
X124953733Y-118700407D01*
X124786852Y-118579160D01*
X124603054Y-118485510D01*
X124406879Y-118421769D01*
X124254073Y-118397567D01*
X124203139Y-118389500D01*
X123996861Y-118389500D01*
X123928948Y-118400256D01*
X123793122Y-118421769D01*
X123793119Y-118421769D01*
X123596945Y-118485510D01*
X123413147Y-118579160D01*
X123246265Y-118700408D01*
X123100408Y-118846265D01*
X122979160Y-119013147D01*
X122885510Y-119196945D01*
X122821769Y-119393119D01*
X122821769Y-119393122D01*
X122789500Y-119596861D01*
X120305398Y-119596861D01*
X120305398Y-119378380D01*
X120305459Y-119374485D01*
X120316814Y-119013147D01*
X120344511Y-118131805D01*
X120344694Y-118127937D01*
X120344694Y-118127936D01*
X120347743Y-118079478D01*
X120371596Y-118013810D01*
X120427168Y-117971460D01*
X120496815Y-117965878D01*
X120558423Y-117998836D01*
X120571814Y-118014379D01*
X120600407Y-118053733D01*
X120746267Y-118199593D01*
X120913148Y-118320840D01*
X121047901Y-118389500D01*
X121096945Y-118414489D01*
X121293120Y-118478230D01*
X121293121Y-118478230D01*
X121293124Y-118478231D01*
X121496861Y-118510500D01*
X121496862Y-118510500D01*
X121703138Y-118510500D01*
X121703139Y-118510500D01*
X121906876Y-118478231D01*
X121906879Y-118478230D01*
X121906880Y-118478230D01*
X122103054Y-118414489D01*
X122103054Y-118414488D01*
X122103057Y-118414488D01*
X122286852Y-118320840D01*
X122453733Y-118199593D01*
X122599593Y-118053733D01*
X122720840Y-117886852D01*
X122814488Y-117703057D01*
X122861091Y-117559627D01*
X122878230Y-117506880D01*
X122878230Y-117506879D01*
X122878231Y-117506876D01*
X122910500Y-117303139D01*
X122910500Y-117096861D01*
X122878231Y-116893124D01*
X122878230Y-116893120D01*
X122878230Y-116893119D01*
X122814489Y-116696945D01*
X122720839Y-116513147D01*
X122599593Y-116346267D01*
X122453733Y-116200407D01*
X122286852Y-116079160D01*
X122103054Y-115985510D01*
X121906879Y-115921769D01*
X121754073Y-115897567D01*
X121703139Y-115889500D01*
X121496861Y-115889500D01*
X121428948Y-115900256D01*
X121293122Y-115921769D01*
X121293119Y-115921769D01*
X121096945Y-115985510D01*
X120913147Y-116079160D01*
X120746265Y-116200408D01*
X120704153Y-116242520D01*
X120642830Y-116276005D01*
X120573138Y-116271019D01*
X120517205Y-116229147D01*
X120492789Y-116163683D01*
X120493022Y-116143178D01*
X120540069Y-115645477D01*
X120540493Y-115641653D01*
X120696313Y-114408210D01*
X120696861Y-114404365D01*
X120717447Y-114274394D01*
X120891345Y-113176438D01*
X120892013Y-113172608D01*
X120932915Y-112958194D01*
X121124986Y-111951318D01*
X121125759Y-111947588D01*
X121342680Y-110977135D01*
X126524500Y-110977135D01*
X126524500Y-112422870D01*
X126524501Y-112422876D01*
X126530908Y-112482483D01*
X126581202Y-112617328D01*
X126581206Y-112617335D01*
X126667452Y-112732544D01*
X126667455Y-112732547D01*
X126782664Y-112818793D01*
X126782671Y-112818797D01*
X126917516Y-112869091D01*
X126963757Y-112874063D01*
X127028307Y-112900801D01*
X127068155Y-112958194D01*
X127074500Y-112997352D01*
X127074500Y-120411610D01*
X127098535Y-120532444D01*
X127098539Y-120532458D01*
X127105660Y-120549651D01*
X127105666Y-120549664D01*
X127107352Y-120553733D01*
X127145688Y-120646286D01*
X127174564Y-120689500D01*
X127178874Y-120695950D01*
X127214143Y-120748735D01*
X127305586Y-120840178D01*
X127305608Y-120840198D01*
X128613181Y-122147771D01*
X128646666Y-122209094D01*
X128649500Y-122235452D01*
X128649500Y-122288695D01*
X128684103Y-122462658D01*
X128684106Y-122462667D01*
X128751983Y-122626540D01*
X128751990Y-122626553D01*
X128850535Y-122774034D01*
X128850538Y-122774038D01*
X128975961Y-122899461D01*
X128975965Y-122899464D01*
X129123446Y-122998009D01*
X129123459Y-122998016D01*
X129246363Y-123048923D01*
X129287334Y-123065894D01*
X129287336Y-123065894D01*
X129287341Y-123065896D01*
X129461304Y-123100499D01*
X129461307Y-123100500D01*
X129461309Y-123100500D01*
X129638693Y-123100500D01*
X129638694Y-123100499D01*
X129733783Y-123081585D01*
X129812658Y-123065896D01*
X129812661Y-123065894D01*
X129812666Y-123065894D01*
X129976547Y-122998013D01*
X130124035Y-122899464D01*
X130249464Y-122774035D01*
X130348013Y-122626547D01*
X130415894Y-122462666D01*
X130417137Y-122456421D01*
X130450499Y-122288695D01*
X130450500Y-122288693D01*
X130450500Y-122111306D01*
X130450499Y-122111304D01*
X130415896Y-121937341D01*
X130415893Y-121937332D01*
X130348016Y-121773459D01*
X130348009Y-121773446D01*
X130249464Y-121625965D01*
X130249461Y-121625961D01*
X130124038Y-121500538D01*
X130124034Y-121500535D01*
X129976553Y-121401990D01*
X129976540Y-121401983D01*
X129812667Y-121334106D01*
X129812658Y-121334103D01*
X129638694Y-121299500D01*
X129638691Y-121299500D01*
X129585452Y-121299500D01*
X129518413Y-121279815D01*
X129497771Y-121263181D01*
X128361819Y-120127229D01*
X128328334Y-120065906D01*
X128325500Y-120039548D01*
X128325500Y-118199635D01*
X162799500Y-118199635D01*
X162799500Y-120200370D01*
X162799501Y-120200376D01*
X162805908Y-120259983D01*
X162856202Y-120394828D01*
X162856206Y-120394835D01*
X162942452Y-120510044D01*
X162942455Y-120510047D01*
X163057664Y-120596293D01*
X163057669Y-120596296D01*
X163085539Y-120606690D01*
X163141473Y-120648561D01*
X163165891Y-120714024D01*
X163151040Y-120782298D01*
X163142525Y-120795759D01*
X163009783Y-120978461D01*
X162905950Y-121182244D01*
X162835278Y-121399750D01*
X162835278Y-121399753D01*
X162835278Y-121399755D01*
X162799500Y-121625646D01*
X162799500Y-121854354D01*
X162802305Y-121872063D01*
X162835278Y-122080246D01*
X162835278Y-122080249D01*
X162905950Y-122297755D01*
X162986795Y-122456421D01*
X163009783Y-122501538D01*
X163144214Y-122686566D01*
X163305934Y-122848286D01*
X163390864Y-122909991D01*
X163433529Y-122965321D01*
X163439508Y-123034935D01*
X163406902Y-123096730D01*
X163390864Y-123110627D01*
X163306257Y-123172097D01*
X163144597Y-123333757D01*
X163010211Y-123518723D01*
X162906417Y-123722429D01*
X162835765Y-123939871D01*
X162821491Y-124030000D01*
X163809252Y-124030000D01*
X163787482Y-124067708D01*
X163750000Y-124207591D01*
X163750000Y-124352409D01*
X163787482Y-124492292D01*
X163809252Y-124530000D01*
X162821491Y-124530000D01*
X162835765Y-124620128D01*
X162906417Y-124837570D01*
X163010211Y-125041276D01*
X163144597Y-125226242D01*
X163306257Y-125387902D01*
X163491223Y-125522288D01*
X163694929Y-125626082D01*
X163912371Y-125696734D01*
X164050000Y-125718532D01*
X164050000Y-124770747D01*
X164087708Y-124792518D01*
X164227591Y-124830000D01*
X164372409Y-124830000D01*
X164512292Y-124792518D01*
X164550000Y-124770747D01*
X164550000Y-125718531D01*
X164687628Y-125696734D01*
X164905070Y-125626082D01*
X165108776Y-125522288D01*
X165293742Y-125387902D01*
X165455402Y-125226242D01*
X165589788Y-125041276D01*
X165693582Y-124837570D01*
X165764234Y-124620128D01*
X165778509Y-124530000D01*
X164790748Y-124530000D01*
X164812518Y-124492292D01*
X164850000Y-124352409D01*
X164850000Y-124207591D01*
X164812518Y-124067708D01*
X164790748Y-124030000D01*
X165778509Y-124030000D01*
X165764234Y-123939871D01*
X165693582Y-123722429D01*
X165589788Y-123518723D01*
X165455402Y-123333757D01*
X165293742Y-123172097D01*
X165209135Y-123110626D01*
X165166470Y-123055296D01*
X165160491Y-122985682D01*
X165193097Y-122923887D01*
X165209125Y-122909999D01*
X165294066Y-122848286D01*
X165455786Y-122686566D01*
X165590217Y-122501538D01*
X165694048Y-122297758D01*
X165754630Y-122111306D01*
X165764721Y-122080249D01*
X165764721Y-122080248D01*
X165764722Y-122080245D01*
X165800500Y-121854354D01*
X165800500Y-121625646D01*
X165764722Y-121399755D01*
X165764721Y-121399751D01*
X165764721Y-121399750D01*
X165694049Y-121182244D01*
X165590216Y-120978461D01*
X165590048Y-120978230D01*
X165457472Y-120795755D01*
X165433994Y-120729953D01*
X165449819Y-120661899D01*
X165499925Y-120613204D01*
X165514455Y-120606692D01*
X165542331Y-120596296D01*
X165657546Y-120510046D01*
X165743796Y-120394831D01*
X165794091Y-120259983D01*
X165800500Y-120200373D01*
X165800499Y-118199628D01*
X165794091Y-118140017D01*
X165791036Y-118131827D01*
X165743797Y-118005171D01*
X165743793Y-118005164D01*
X165657547Y-117889955D01*
X165657544Y-117889952D01*
X165542335Y-117803706D01*
X165542328Y-117803702D01*
X165407482Y-117753408D01*
X165407483Y-117753408D01*
X165347883Y-117747001D01*
X165347881Y-117747000D01*
X165347873Y-117747000D01*
X165347864Y-117747000D01*
X163252129Y-117747000D01*
X163252123Y-117747001D01*
X163192516Y-117753408D01*
X163057671Y-117803702D01*
X163057664Y-117803706D01*
X162942455Y-117889952D01*
X162942452Y-117889955D01*
X162856206Y-118005164D01*
X162856202Y-118005171D01*
X162805908Y-118140017D01*
X162799501Y-118199616D01*
X162799501Y-118199623D01*
X162799500Y-118199635D01*
X128325500Y-118199635D01*
X128325500Y-117559635D01*
X183254500Y-117559635D01*
X183254500Y-119560370D01*
X183254501Y-119560376D01*
X183260908Y-119619983D01*
X183311202Y-119754828D01*
X183311206Y-119754835D01*
X183397452Y-119870044D01*
X183397455Y-119870047D01*
X183512664Y-119956293D01*
X183512669Y-119956296D01*
X183540539Y-119966690D01*
X183596473Y-120008561D01*
X183620891Y-120074024D01*
X183606040Y-120142298D01*
X183597525Y-120155759D01*
X183464783Y-120338461D01*
X183360950Y-120542244D01*
X183290278Y-120759750D01*
X183290278Y-120759753D01*
X183254500Y-120985646D01*
X183254500Y-121214353D01*
X183290278Y-121440246D01*
X183290278Y-121440249D01*
X183360950Y-121657755D01*
X183461122Y-121854353D01*
X183464783Y-121861538D01*
X183599214Y-122046566D01*
X183760934Y-122208286D01*
X183798325Y-122235452D01*
X183845438Y-122269682D01*
X183888103Y-122325013D01*
X183894082Y-122394626D01*
X183861476Y-122456421D01*
X183845438Y-122470318D01*
X183760932Y-122531715D01*
X183599216Y-122693431D01*
X183599216Y-122693432D01*
X183599214Y-122693434D01*
X183573573Y-122728726D01*
X183464783Y-122878461D01*
X183360950Y-123082244D01*
X183290278Y-123299750D01*
X183290278Y-123299753D01*
X183254500Y-123525646D01*
X183254500Y-123754353D01*
X183290278Y-123980246D01*
X183290278Y-123980249D01*
X183360950Y-124197755D01*
X183464783Y-124401538D01*
X183599214Y-124586566D01*
X183760934Y-124748286D01*
X183945962Y-124882717D01*
X184149742Y-124986548D01*
X184149744Y-124986549D01*
X184367251Y-125057221D01*
X184367252Y-125057221D01*
X184367255Y-125057222D01*
X184593146Y-125093000D01*
X184593147Y-125093000D01*
X184916853Y-125093000D01*
X184916854Y-125093000D01*
X185142745Y-125057222D01*
X185142748Y-125057221D01*
X185142749Y-125057221D01*
X185360255Y-124986549D01*
X185360255Y-124986548D01*
X185360258Y-124986548D01*
X185564038Y-124882717D01*
X185749066Y-124748286D01*
X185910786Y-124586566D01*
X186045217Y-124401538D01*
X186149048Y-124197758D01*
X186219722Y-123980245D01*
X186255500Y-123754354D01*
X186255500Y-123525646D01*
X186219722Y-123299755D01*
X186219721Y-123299751D01*
X186219721Y-123299750D01*
X186149049Y-123082244D01*
X186099848Y-122985682D01*
X186045217Y-122878462D01*
X185910786Y-122693434D01*
X185749066Y-122531714D01*
X185664559Y-122470316D01*
X185621896Y-122414988D01*
X185615917Y-122345375D01*
X185648523Y-122283580D01*
X185664556Y-122269685D01*
X185749066Y-122208286D01*
X185910786Y-122046566D01*
X186045217Y-121861538D01*
X186149048Y-121657758D01*
X186159482Y-121625646D01*
X186219721Y-121440249D01*
X186219721Y-121440248D01*
X186219722Y-121440245D01*
X186255500Y-121214354D01*
X186255500Y-120985646D01*
X186219722Y-120759755D01*
X186219721Y-120759751D01*
X186219721Y-120759750D01*
X186149049Y-120542244D01*
X186132642Y-120510044D01*
X186045217Y-120338462D01*
X185912472Y-120155755D01*
X185888994Y-120089953D01*
X185904819Y-120021899D01*
X185954925Y-119973204D01*
X185969455Y-119966692D01*
X185997331Y-119956296D01*
X186112546Y-119870046D01*
X186198796Y-119754831D01*
X186249091Y-119619983D01*
X186255500Y-119560373D01*
X186255499Y-117559628D01*
X186249091Y-117500017D01*
X186198796Y-117365169D01*
X186198795Y-117365168D01*
X186198793Y-117365164D01*
X186112547Y-117249955D01*
X186112544Y-117249952D01*
X185997335Y-117163706D01*
X185997328Y-117163702D01*
X185862482Y-117113408D01*
X185862483Y-117113408D01*
X185802883Y-117107001D01*
X185802881Y-117107000D01*
X185802873Y-117107000D01*
X185802864Y-117107000D01*
X183707129Y-117107000D01*
X183707123Y-117107001D01*
X183647516Y-117113408D01*
X183512671Y-117163702D01*
X183512664Y-117163706D01*
X183397455Y-117249952D01*
X183397452Y-117249955D01*
X183311206Y-117365164D01*
X183311202Y-117365171D01*
X183260908Y-117500017D01*
X183254501Y-117559616D01*
X183254501Y-117559623D01*
X183254500Y-117559635D01*
X128325500Y-117559635D01*
X128325500Y-114417648D01*
X136284500Y-114417648D01*
X136284500Y-114622351D01*
X136316522Y-114824534D01*
X136379781Y-115019223D01*
X136472715Y-115201613D01*
X136593028Y-115367213D01*
X136737786Y-115511971D01*
X136892749Y-115624556D01*
X136903390Y-115632287D01*
X137019607Y-115691503D01*
X137085776Y-115725218D01*
X137085778Y-115725218D01*
X137085781Y-115725220D01*
X137190137Y-115759127D01*
X137280465Y-115788477D01*
X137381557Y-115804488D01*
X137482648Y-115820500D01*
X137482649Y-115820500D01*
X137687351Y-115820500D01*
X137687352Y-115820500D01*
X137889534Y-115788477D01*
X138084219Y-115725220D01*
X138266610Y-115632287D01*
X138359590Y-115564732D01*
X138432213Y-115511971D01*
X138432215Y-115511968D01*
X138432219Y-115511966D01*
X138576966Y-115367219D01*
X138576968Y-115367215D01*
X138576971Y-115367213D01*
X138697284Y-115201614D01*
X138697286Y-115201611D01*
X138697287Y-115201610D01*
X138744516Y-115108917D01*
X138792489Y-115058123D01*
X138860310Y-115041328D01*
X138926445Y-115063865D01*
X138965485Y-115108919D01*
X139012715Y-115201614D01*
X139133028Y-115367213D01*
X139277786Y-115511971D01*
X139432749Y-115624556D01*
X139443390Y-115632287D01*
X139559607Y-115691503D01*
X139625776Y-115725218D01*
X139625778Y-115725218D01*
X139625781Y-115725220D01*
X139730137Y-115759127D01*
X139820465Y-115788477D01*
X139921557Y-115804488D01*
X140022648Y-115820500D01*
X140022649Y-115820500D01*
X140227351Y-115820500D01*
X140227352Y-115820500D01*
X140429534Y-115788477D01*
X140624219Y-115725220D01*
X140806610Y-115632287D01*
X140899590Y-115564732D01*
X140972213Y-115511971D01*
X140972215Y-115511968D01*
X140972219Y-115511966D01*
X141116966Y-115367219D01*
X141116968Y-115367215D01*
X141116971Y-115367213D01*
X141237284Y-115201614D01*
X141237286Y-115201611D01*
X141237287Y-115201610D01*
X141284516Y-115108917D01*
X141332489Y-115058123D01*
X141400310Y-115041328D01*
X141466445Y-115063865D01*
X141505485Y-115108919D01*
X141552715Y-115201614D01*
X141673028Y-115367213D01*
X141817786Y-115511971D01*
X141972749Y-115624556D01*
X141983390Y-115632287D01*
X142099607Y-115691503D01*
X142165776Y-115725218D01*
X142165778Y-115725218D01*
X142165781Y-115725220D01*
X142270137Y-115759127D01*
X142360465Y-115788477D01*
X142461557Y-115804488D01*
X142562648Y-115820500D01*
X142562649Y-115820500D01*
X142767351Y-115820500D01*
X142767352Y-115820500D01*
X142969534Y-115788477D01*
X143164219Y-115725220D01*
X143346610Y-115632287D01*
X143439590Y-115564732D01*
X143512213Y-115511971D01*
X143512215Y-115511968D01*
X143512219Y-115511966D01*
X143656966Y-115367219D01*
X143656968Y-115367215D01*
X143656971Y-115367213D01*
X143777284Y-115201614D01*
X143777286Y-115201611D01*
X143777287Y-115201610D01*
X143824795Y-115108369D01*
X143872770Y-115057574D01*
X143940591Y-115040779D01*
X144006725Y-115063316D01*
X144045765Y-115108370D01*
X144093140Y-115201349D01*
X144213417Y-115366894D01*
X144213417Y-115366895D01*
X144358104Y-115511582D01*
X144523650Y-115631859D01*
X144705968Y-115724754D01*
X144900578Y-115787988D01*
X144955000Y-115796607D01*
X144955000Y-114835686D01*
X144959394Y-114840080D01*
X145050606Y-114892741D01*
X145152339Y-114920000D01*
X145257661Y-114920000D01*
X145359394Y-114892741D01*
X145450606Y-114840080D01*
X145455000Y-114835686D01*
X145455000Y-115796606D01*
X145509421Y-115787988D01*
X145704031Y-115724754D01*
X145886349Y-115631859D01*
X146051894Y-115511582D01*
X146051895Y-115511582D01*
X146196582Y-115366895D01*
X146196582Y-115366894D01*
X146316861Y-115201347D01*
X146364234Y-115108371D01*
X146412208Y-115057575D01*
X146480028Y-115040779D01*
X146546164Y-115063316D01*
X146585203Y-115108369D01*
X146632713Y-115201611D01*
X146753028Y-115367213D01*
X146897786Y-115511971D01*
X147052749Y-115624556D01*
X147063390Y-115632287D01*
X147179607Y-115691503D01*
X147245776Y-115725218D01*
X147245778Y-115725218D01*
X147245781Y-115725220D01*
X147350137Y-115759127D01*
X147440465Y-115788477D01*
X147541557Y-115804488D01*
X147642648Y-115820500D01*
X147642649Y-115820500D01*
X147847351Y-115820500D01*
X147847352Y-115820500D01*
X148049534Y-115788477D01*
X148244219Y-115725220D01*
X148426610Y-115632287D01*
X148519590Y-115564732D01*
X148592213Y-115511971D01*
X148592215Y-115511968D01*
X148592219Y-115511966D01*
X148736966Y-115367219D01*
X148736968Y-115367215D01*
X148736971Y-115367213D01*
X148857284Y-115201614D01*
X148857286Y-115201611D01*
X148857287Y-115201610D01*
X148904516Y-115108917D01*
X148952489Y-115058123D01*
X149020310Y-115041328D01*
X149086445Y-115063865D01*
X149125485Y-115108919D01*
X149172715Y-115201614D01*
X149293028Y-115367213D01*
X149437786Y-115511971D01*
X149592749Y-115624556D01*
X149603390Y-115632287D01*
X149719607Y-115691503D01*
X149785776Y-115725218D01*
X149785778Y-115725218D01*
X149785781Y-115725220D01*
X149890137Y-115759127D01*
X149980465Y-115788477D01*
X150081557Y-115804488D01*
X150182648Y-115820500D01*
X150182649Y-115820500D01*
X150387351Y-115820500D01*
X150387352Y-115820500D01*
X150589534Y-115788477D01*
X150784219Y-115725220D01*
X150966610Y-115632287D01*
X151059590Y-115564732D01*
X151132213Y-115511971D01*
X151132215Y-115511968D01*
X151132219Y-115511966D01*
X151276966Y-115367219D01*
X151276968Y-115367215D01*
X151276971Y-115367213D01*
X151397284Y-115201614D01*
X151397286Y-115201611D01*
X151397287Y-115201610D01*
X151444516Y-115108917D01*
X151492489Y-115058123D01*
X151560310Y-115041328D01*
X151626445Y-115063865D01*
X151665485Y-115108919D01*
X151712715Y-115201614D01*
X151833028Y-115367213D01*
X151977786Y-115511971D01*
X152132749Y-115624556D01*
X152143390Y-115632287D01*
X152259607Y-115691503D01*
X152325776Y-115725218D01*
X152325778Y-115725218D01*
X152325781Y-115725220D01*
X152430137Y-115759127D01*
X152520465Y-115788477D01*
X152621557Y-115804488D01*
X152722648Y-115820500D01*
X152722649Y-115820500D01*
X152927351Y-115820500D01*
X152927352Y-115820500D01*
X153129534Y-115788477D01*
X153324219Y-115725220D01*
X153506610Y-115632287D01*
X153599590Y-115564732D01*
X153672213Y-115511971D01*
X153672215Y-115511968D01*
X153672219Y-115511966D01*
X153816966Y-115367219D01*
X153816968Y-115367215D01*
X153816971Y-115367213D01*
X153869732Y-115294590D01*
X153937287Y-115201610D01*
X154030220Y-115019219D01*
X154093477Y-114824534D01*
X154125500Y-114622352D01*
X154125500Y-114417648D01*
X154110178Y-114320909D01*
X154093477Y-114215465D01*
X154030218Y-114020776D01*
X153937419Y-113838650D01*
X153937287Y-113838390D01*
X153929556Y-113827749D01*
X153816971Y-113672786D01*
X153672213Y-113528028D01*
X153506613Y-113407715D01*
X153506612Y-113407714D01*
X153506610Y-113407713D01*
X153449653Y-113378691D01*
X153324223Y-113314781D01*
X153129534Y-113251522D01*
X152954995Y-113223878D01*
X152927352Y-113219500D01*
X152722648Y-113219500D01*
X152698329Y-113223351D01*
X152520465Y-113251522D01*
X152325776Y-113314781D01*
X152143386Y-113407715D01*
X151977786Y-113528028D01*
X151833028Y-113672786D01*
X151712715Y-113838386D01*
X151665485Y-113931080D01*
X151617510Y-113981876D01*
X151549689Y-113998671D01*
X151483554Y-113976134D01*
X151444515Y-113931080D01*
X151397419Y-113838650D01*
X151397287Y-113838390D01*
X151389556Y-113827749D01*
X151276971Y-113672786D01*
X151132213Y-113528028D01*
X150966613Y-113407715D01*
X150966612Y-113407714D01*
X150966610Y-113407713D01*
X150909653Y-113378691D01*
X150784223Y-113314781D01*
X150589534Y-113251522D01*
X150414995Y-113223878D01*
X150387352Y-113219500D01*
X150182648Y-113219500D01*
X150158329Y-113223351D01*
X149980465Y-113251522D01*
X149785776Y-113314781D01*
X149603386Y-113407715D01*
X149437786Y-113528028D01*
X149293028Y-113672786D01*
X149172715Y-113838386D01*
X149125485Y-113931080D01*
X149077510Y-113981876D01*
X149009689Y-113998671D01*
X148943554Y-113976134D01*
X148904515Y-113931080D01*
X148857419Y-113838650D01*
X148857287Y-113838390D01*
X148849556Y-113827749D01*
X148736971Y-113672786D01*
X148592213Y-113528028D01*
X148426613Y-113407715D01*
X148426612Y-113407714D01*
X148426610Y-113407713D01*
X148369653Y-113378691D01*
X148244223Y-113314781D01*
X148049534Y-113251522D01*
X147874995Y-113223878D01*
X147847352Y-113219500D01*
X147642648Y-113219500D01*
X147618329Y-113223351D01*
X147440465Y-113251522D01*
X147245776Y-113314781D01*
X147063386Y-113407715D01*
X146897786Y-113528028D01*
X146753028Y-113672786D01*
X146632713Y-113838388D01*
X146585203Y-113931630D01*
X146537228Y-113982426D01*
X146469407Y-113999220D01*
X146403272Y-113976682D01*
X146364234Y-113931628D01*
X146316861Y-113838652D01*
X146196582Y-113673105D01*
X146196582Y-113673104D01*
X146051895Y-113528417D01*
X145886349Y-113408140D01*
X145704029Y-113315244D01*
X145509413Y-113252009D01*
X145455000Y-113243390D01*
X145455000Y-114204314D01*
X145450606Y-114199920D01*
X145359394Y-114147259D01*
X145257661Y-114120000D01*
X145152339Y-114120000D01*
X145050606Y-114147259D01*
X144959394Y-114199920D01*
X144955000Y-114204314D01*
X144955000Y-113243390D01*
X144900586Y-113252009D01*
X144705970Y-113315244D01*
X144523650Y-113408140D01*
X144358105Y-113528417D01*
X144358104Y-113528417D01*
X144213417Y-113673104D01*
X144213417Y-113673105D01*
X144093140Y-113838650D01*
X144045765Y-113931629D01*
X143997790Y-113982425D01*
X143929969Y-113999220D01*
X143863834Y-113976682D01*
X143824795Y-113931629D01*
X143777419Y-113838650D01*
X143777287Y-113838390D01*
X143769556Y-113827749D01*
X143656971Y-113672786D01*
X143512213Y-113528028D01*
X143346613Y-113407715D01*
X143346612Y-113407714D01*
X143346610Y-113407713D01*
X143289653Y-113378691D01*
X143164223Y-113314781D01*
X142969534Y-113251522D01*
X142794995Y-113223878D01*
X142767352Y-113219500D01*
X142562648Y-113219500D01*
X142538329Y-113223351D01*
X142360465Y-113251522D01*
X142165776Y-113314781D01*
X141983386Y-113407715D01*
X141817786Y-113528028D01*
X141673028Y-113672786D01*
X141552715Y-113838386D01*
X141505485Y-113931080D01*
X141457510Y-113981876D01*
X141389689Y-113998671D01*
X141323554Y-113976134D01*
X141284515Y-113931080D01*
X141237419Y-113838650D01*
X141237287Y-113838390D01*
X141229556Y-113827749D01*
X141116971Y-113672786D01*
X140972213Y-113528028D01*
X140806613Y-113407715D01*
X140806612Y-113407714D01*
X140806610Y-113407713D01*
X140749653Y-113378691D01*
X140624223Y-113314781D01*
X140429534Y-113251522D01*
X140254995Y-113223878D01*
X140227352Y-113219500D01*
X140022648Y-113219500D01*
X139998329Y-113223351D01*
X139820465Y-113251522D01*
X139625776Y-113314781D01*
X139443386Y-113407715D01*
X139277786Y-113528028D01*
X139133028Y-113672786D01*
X139012715Y-113838386D01*
X138965485Y-113931080D01*
X138917510Y-113981876D01*
X138849689Y-113998671D01*
X138783554Y-113976134D01*
X138744515Y-113931080D01*
X138697419Y-113838650D01*
X138697287Y-113838390D01*
X138689556Y-113827749D01*
X138576971Y-113672786D01*
X138432213Y-113528028D01*
X138266613Y-113407715D01*
X138266612Y-113407714D01*
X138266610Y-113407713D01*
X138209653Y-113378691D01*
X138084223Y-113314781D01*
X137889534Y-113251522D01*
X137714995Y-113223878D01*
X137687352Y-113219500D01*
X137482648Y-113219500D01*
X137458329Y-113223351D01*
X137280465Y-113251522D01*
X137085776Y-113314781D01*
X136903386Y-113407715D01*
X136737786Y-113528028D01*
X136593028Y-113672786D01*
X136472715Y-113838386D01*
X136379781Y-114020776D01*
X136316522Y-114215465D01*
X136284500Y-114417648D01*
X128325500Y-114417648D01*
X128325500Y-112997351D01*
X128345185Y-112930312D01*
X128397989Y-112884557D01*
X128436247Y-112874061D01*
X128482483Y-112869091D01*
X128617331Y-112818796D01*
X128732546Y-112732546D01*
X128796541Y-112647059D01*
X128852473Y-112605190D01*
X128922165Y-112600206D01*
X128968691Y-112621054D01*
X129084161Y-112704947D01*
X129248956Y-112788915D01*
X129248959Y-112788916D01*
X129424845Y-112846064D01*
X129424858Y-112846067D01*
X129450000Y-112850049D01*
X129450000Y-112015686D01*
X129454394Y-112020080D01*
X129545606Y-112072741D01*
X129647339Y-112100000D01*
X129752661Y-112100000D01*
X129854394Y-112072741D01*
X129945606Y-112020080D01*
X129950000Y-112015686D01*
X129950000Y-112850048D01*
X129975141Y-112846067D01*
X129975154Y-112846064D01*
X130151040Y-112788916D01*
X130151043Y-112788915D01*
X130315837Y-112704947D01*
X130465454Y-112596245D01*
X130465459Y-112596241D01*
X130596238Y-112465462D01*
X130596240Y-112465459D01*
X130599368Y-112461155D01*
X130654695Y-112418485D01*
X130724308Y-112412501D01*
X130786105Y-112445103D01*
X130800004Y-112461142D01*
X130803379Y-112465787D01*
X130934213Y-112596621D01*
X131083904Y-112705378D01*
X131137224Y-112732546D01*
X131248764Y-112789379D01*
X131248767Y-112789380D01*
X131336750Y-112817967D01*
X131424736Y-112846555D01*
X131607486Y-112875500D01*
X131607487Y-112875500D01*
X131792513Y-112875500D01*
X131792514Y-112875500D01*
X131975264Y-112846555D01*
X132151235Y-112789379D01*
X132316096Y-112705378D01*
X132465787Y-112596621D01*
X132596621Y-112465787D01*
X132705378Y-112316096D01*
X132789379Y-112151235D01*
X132846555Y-111975264D01*
X132875500Y-111792514D01*
X132875500Y-111607486D01*
X132846555Y-111424736D01*
X132789379Y-111248765D01*
X132789379Y-111248764D01*
X132705377Y-111083903D01*
X132596621Y-110934213D01*
X132465787Y-110803379D01*
X132316096Y-110694622D01*
X132262778Y-110667455D01*
X132151235Y-110610620D01*
X132151232Y-110610619D01*
X131975265Y-110553445D01*
X131832972Y-110530908D01*
X131792514Y-110524500D01*
X131607486Y-110524500D01*
X131567028Y-110530908D01*
X131424734Y-110553445D01*
X131248767Y-110610619D01*
X131248764Y-110610620D01*
X131083903Y-110694622D01*
X131034617Y-110730431D01*
X130934213Y-110803379D01*
X130934211Y-110803381D01*
X130934210Y-110803381D01*
X130803378Y-110934213D01*
X130800004Y-110938858D01*
X130744670Y-110981520D01*
X130675057Y-110987493D01*
X130613264Y-110954883D01*
X130599372Y-110938849D01*
X130596243Y-110934542D01*
X130465459Y-110803758D01*
X130465454Y-110803754D01*
X130315837Y-110695052D01*
X130151043Y-110611084D01*
X130151037Y-110611082D01*
X129975144Y-110553932D01*
X129950000Y-110549950D01*
X129950000Y-111384314D01*
X129945606Y-111379920D01*
X129854394Y-111327259D01*
X129752661Y-111300000D01*
X129647339Y-111300000D01*
X129545606Y-111327259D01*
X129454394Y-111379920D01*
X129450000Y-111384314D01*
X129450000Y-110549950D01*
X129449999Y-110549950D01*
X129424855Y-110553932D01*
X129248962Y-110611082D01*
X129248956Y-110611084D01*
X129084163Y-110695051D01*
X128968690Y-110778946D01*
X128902884Y-110802425D01*
X128834830Y-110786599D01*
X128796540Y-110752938D01*
X128732547Y-110667455D01*
X128732544Y-110667452D01*
X128617335Y-110581206D01*
X128617328Y-110581202D01*
X128482482Y-110530908D01*
X128482483Y-110530908D01*
X128422883Y-110524501D01*
X128422881Y-110524500D01*
X128422873Y-110524500D01*
X128422864Y-110524500D01*
X126977129Y-110524500D01*
X126977123Y-110524501D01*
X126917516Y-110530908D01*
X126782671Y-110581202D01*
X126782664Y-110581206D01*
X126667455Y-110667452D01*
X126667452Y-110667455D01*
X126581206Y-110782664D01*
X126581202Y-110782671D01*
X126530908Y-110917517D01*
X126524501Y-110977116D01*
X126524500Y-110977135D01*
X121342680Y-110977135D01*
X121396993Y-110734153D01*
X121397871Y-110730498D01*
X121707074Y-109526234D01*
X121708098Y-109522495D01*
X122054962Y-108328578D01*
X122056078Y-108324950D01*
X122440305Y-107142420D01*
X122441518Y-107138878D01*
X122564368Y-106797648D01*
X136284500Y-106797648D01*
X136284500Y-107002351D01*
X136316522Y-107204534D01*
X136379781Y-107399223D01*
X136472715Y-107581613D01*
X136593028Y-107747213D01*
X136737786Y-107891971D01*
X136892749Y-108004556D01*
X136903390Y-108012287D01*
X136992212Y-108057544D01*
X137085776Y-108105218D01*
X137085778Y-108105218D01*
X137085781Y-108105220D01*
X137190137Y-108139127D01*
X137280465Y-108168477D01*
X137381557Y-108184488D01*
X137482648Y-108200500D01*
X137482649Y-108200500D01*
X137687351Y-108200500D01*
X137687352Y-108200500D01*
X137889534Y-108168477D01*
X138084219Y-108105220D01*
X138266610Y-108012287D01*
X138377481Y-107931735D01*
X138432213Y-107891971D01*
X138432215Y-107891968D01*
X138432219Y-107891966D01*
X138576966Y-107747219D01*
X138576968Y-107747215D01*
X138576971Y-107747213D01*
X138697284Y-107581614D01*
X138697285Y-107581613D01*
X138697287Y-107581610D01*
X138744516Y-107488917D01*
X138792489Y-107438123D01*
X138860310Y-107421328D01*
X138926445Y-107443865D01*
X138965483Y-107488917D01*
X138992761Y-107542452D01*
X139012715Y-107581614D01*
X139133028Y-107747213D01*
X139277786Y-107891971D01*
X139432749Y-108004556D01*
X139443390Y-108012287D01*
X139532212Y-108057544D01*
X139625776Y-108105218D01*
X139625778Y-108105218D01*
X139625781Y-108105220D01*
X139730137Y-108139127D01*
X139820465Y-108168477D01*
X139921557Y-108184488D01*
X140022648Y-108200500D01*
X140022649Y-108200500D01*
X140227351Y-108200500D01*
X140227352Y-108200500D01*
X140429534Y-108168477D01*
X140624219Y-108105220D01*
X140806610Y-108012287D01*
X140917481Y-107931735D01*
X140972213Y-107891971D01*
X140972215Y-107891968D01*
X140972219Y-107891966D01*
X141116966Y-107747219D01*
X141116968Y-107747215D01*
X141116971Y-107747213D01*
X141237284Y-107581614D01*
X141237285Y-107581613D01*
X141237287Y-107581610D01*
X141284516Y-107488917D01*
X141332489Y-107438123D01*
X141400310Y-107421328D01*
X141466445Y-107443865D01*
X141505483Y-107488917D01*
X141532761Y-107542452D01*
X141552715Y-107581614D01*
X141673028Y-107747213D01*
X141817786Y-107891971D01*
X141972749Y-108004556D01*
X141983390Y-108012287D01*
X142072212Y-108057544D01*
X142165776Y-108105218D01*
X142165778Y-108105218D01*
X142165781Y-108105220D01*
X142270137Y-108139127D01*
X142360465Y-108168477D01*
X142461557Y-108184488D01*
X142562648Y-108200500D01*
X142562649Y-108200500D01*
X142767351Y-108200500D01*
X142767352Y-108200500D01*
X142969534Y-108168477D01*
X143164219Y-108105220D01*
X143346610Y-108012287D01*
X143457481Y-107931735D01*
X143512213Y-107891971D01*
X143512215Y-107891968D01*
X143512219Y-107891966D01*
X143656966Y-107747219D01*
X143656968Y-107747215D01*
X143656971Y-107747213D01*
X143777284Y-107581614D01*
X143777285Y-107581613D01*
X143777287Y-107581610D01*
X143824516Y-107488917D01*
X143872489Y-107438123D01*
X143940310Y-107421328D01*
X144006445Y-107443865D01*
X144045483Y-107488917D01*
X144072761Y-107542452D01*
X144092715Y-107581614D01*
X144213028Y-107747213D01*
X144357786Y-107891971D01*
X144512749Y-108004556D01*
X144523390Y-108012287D01*
X144612212Y-108057544D01*
X144705776Y-108105218D01*
X144705778Y-108105218D01*
X144705781Y-108105220D01*
X144810137Y-108139127D01*
X144900465Y-108168477D01*
X145001557Y-108184488D01*
X145102648Y-108200500D01*
X145102649Y-108200500D01*
X145307351Y-108200500D01*
X145307352Y-108200500D01*
X145509534Y-108168477D01*
X145704219Y-108105220D01*
X145886610Y-108012287D01*
X145997481Y-107931735D01*
X146052213Y-107891971D01*
X146052215Y-107891968D01*
X146052219Y-107891966D01*
X146196966Y-107747219D01*
X146196968Y-107747215D01*
X146196971Y-107747213D01*
X146317284Y-107581614D01*
X146317285Y-107581613D01*
X146317287Y-107581610D01*
X146364516Y-107488917D01*
X146412489Y-107438123D01*
X146480310Y-107421328D01*
X146546445Y-107443865D01*
X146585483Y-107488917D01*
X146612761Y-107542452D01*
X146632715Y-107581614D01*
X146753028Y-107747213D01*
X146897786Y-107891971D01*
X147052749Y-108004556D01*
X147063390Y-108012287D01*
X147152212Y-108057544D01*
X147245776Y-108105218D01*
X147245778Y-108105218D01*
X147245781Y-108105220D01*
X147350137Y-108139127D01*
X147440465Y-108168477D01*
X147541557Y-108184488D01*
X147642648Y-108200500D01*
X147642649Y-108200500D01*
X147847351Y-108200500D01*
X147847352Y-108200500D01*
X148049534Y-108168477D01*
X148244219Y-108105220D01*
X148426610Y-108012287D01*
X148537481Y-107931735D01*
X148592213Y-107891971D01*
X148592215Y-107891968D01*
X148592219Y-107891966D01*
X148736966Y-107747219D01*
X148736968Y-107747215D01*
X148736971Y-107747213D01*
X148857284Y-107581614D01*
X148857285Y-107581613D01*
X148857287Y-107581610D01*
X148904516Y-107488917D01*
X148952489Y-107438123D01*
X149020310Y-107421328D01*
X149086445Y-107443865D01*
X149125483Y-107488917D01*
X149152761Y-107542452D01*
X149172715Y-107581614D01*
X149293028Y-107747213D01*
X149437786Y-107891971D01*
X149592749Y-108004556D01*
X149603390Y-108012287D01*
X149692212Y-108057544D01*
X149785776Y-108105218D01*
X149785778Y-108105218D01*
X149785781Y-108105220D01*
X149890137Y-108139127D01*
X149980465Y-108168477D01*
X150081557Y-108184488D01*
X150182648Y-108200500D01*
X150182649Y-108200500D01*
X150387351Y-108200500D01*
X150387352Y-108200500D01*
X150589534Y-108168477D01*
X150784219Y-108105220D01*
X150966610Y-108012287D01*
X151077481Y-107931735D01*
X151132213Y-107891971D01*
X151132215Y-107891968D01*
X151132219Y-107891966D01*
X151276966Y-107747219D01*
X151303330Y-107710930D01*
X151358658Y-107668265D01*
X151428271Y-107662284D01*
X151490067Y-107694889D01*
X151524426Y-107755726D01*
X151526938Y-107770559D01*
X151530907Y-107807480D01*
X151581202Y-107942328D01*
X151581206Y-107942335D01*
X151667452Y-108057544D01*
X151667455Y-108057547D01*
X151782664Y-108143793D01*
X151782671Y-108143797D01*
X151917517Y-108194091D01*
X151917516Y-108194091D01*
X151924444Y-108194835D01*
X151977127Y-108200500D01*
X153672872Y-108200499D01*
X153732483Y-108194091D01*
X153867331Y-108143796D01*
X153982546Y-108057546D01*
X154068796Y-107942331D01*
X154102437Y-107852135D01*
X161599500Y-107852135D01*
X161599500Y-109547870D01*
X161599501Y-109547876D01*
X161605908Y-109607483D01*
X161656202Y-109742328D01*
X161656206Y-109742335D01*
X161742452Y-109857544D01*
X161742455Y-109857547D01*
X161857664Y-109943793D01*
X161857671Y-109943797D01*
X161992517Y-109994091D01*
X161992516Y-109994091D01*
X161999444Y-109994835D01*
X162052127Y-110000500D01*
X163747872Y-110000499D01*
X163807483Y-109994091D01*
X163942331Y-109943796D01*
X164057546Y-109857546D01*
X164143796Y-109742331D01*
X164194091Y-109607483D01*
X164198061Y-109570556D01*
X164224796Y-109506011D01*
X164282188Y-109466161D01*
X164352013Y-109463666D01*
X164412102Y-109499317D01*
X164421667Y-109510929D01*
X164448032Y-109547217D01*
X164592786Y-109691971D01*
X164747749Y-109804556D01*
X164758390Y-109812287D01*
X164847212Y-109857544D01*
X164940776Y-109905218D01*
X164940778Y-109905218D01*
X164940781Y-109905220D01*
X165045137Y-109939127D01*
X165135465Y-109968477D01*
X165236557Y-109984488D01*
X165337648Y-110000500D01*
X165337649Y-110000500D01*
X165542351Y-110000500D01*
X165542352Y-110000500D01*
X165744534Y-109968477D01*
X165939219Y-109905220D01*
X166121610Y-109812287D01*
X166217901Y-109742328D01*
X166287213Y-109691971D01*
X166287215Y-109691968D01*
X166287219Y-109691966D01*
X166431966Y-109547219D01*
X166431968Y-109547215D01*
X166431971Y-109547213D01*
X166552284Y-109381614D01*
X166552283Y-109381614D01*
X166552287Y-109381610D01*
X166599516Y-109288917D01*
X166647489Y-109238123D01*
X166715310Y-109221328D01*
X166781445Y-109243865D01*
X166820485Y-109288919D01*
X166867715Y-109381614D01*
X166988028Y-109547213D01*
X167132786Y-109691971D01*
X167287749Y-109804556D01*
X167298390Y-109812287D01*
X167387212Y-109857544D01*
X167480776Y-109905218D01*
X167480778Y-109905218D01*
X167480781Y-109905220D01*
X167585137Y-109939127D01*
X167675465Y-109968477D01*
X167776557Y-109984488D01*
X167877648Y-110000500D01*
X167877649Y-110000500D01*
X168082351Y-110000500D01*
X168082352Y-110000500D01*
X168284534Y-109968477D01*
X168479219Y-109905220D01*
X168661610Y-109812287D01*
X168757901Y-109742328D01*
X168827213Y-109691971D01*
X168827215Y-109691968D01*
X168827219Y-109691966D01*
X168971966Y-109547219D01*
X168971968Y-109547215D01*
X168971971Y-109547213D01*
X169092284Y-109381614D01*
X169092283Y-109381614D01*
X169092287Y-109381610D01*
X169139795Y-109288369D01*
X169187770Y-109237574D01*
X169255591Y-109220779D01*
X169321725Y-109243316D01*
X169360765Y-109288370D01*
X169408140Y-109381349D01*
X169528417Y-109546894D01*
X169528417Y-109546895D01*
X169673104Y-109691582D01*
X169838650Y-109811859D01*
X170020968Y-109904754D01*
X170215578Y-109967988D01*
X170270000Y-109976607D01*
X170270000Y-109015686D01*
X170274394Y-109020080D01*
X170365606Y-109072741D01*
X170467339Y-109100000D01*
X170572661Y-109100000D01*
X170674394Y-109072741D01*
X170765606Y-109020080D01*
X170770000Y-109015686D01*
X170770000Y-109976606D01*
X170824421Y-109967988D01*
X171019031Y-109904754D01*
X171201349Y-109811859D01*
X171366894Y-109691582D01*
X171366895Y-109691582D01*
X171511582Y-109546895D01*
X171511582Y-109546894D01*
X171631859Y-109381349D01*
X171724755Y-109199029D01*
X171787990Y-109004413D01*
X171796609Y-108950000D01*
X170835686Y-108950000D01*
X170840080Y-108945606D01*
X170892741Y-108854394D01*
X170920000Y-108752661D01*
X170920000Y-108647339D01*
X170892741Y-108545606D01*
X170840080Y-108454394D01*
X170835686Y-108450000D01*
X171796609Y-108450000D01*
X171787990Y-108395586D01*
X171724755Y-108200970D01*
X171631859Y-108018650D01*
X171511582Y-107853105D01*
X171511582Y-107853104D01*
X171366895Y-107708417D01*
X171201349Y-107588140D01*
X171019029Y-107495244D01*
X170824413Y-107432009D01*
X170770000Y-107423390D01*
X170770000Y-108384314D01*
X170765606Y-108379920D01*
X170674394Y-108327259D01*
X170572661Y-108300000D01*
X170467339Y-108300000D01*
X170365606Y-108327259D01*
X170274394Y-108379920D01*
X170270000Y-108384314D01*
X170270000Y-107423390D01*
X170215586Y-107432009D01*
X170020970Y-107495244D01*
X169838650Y-107588140D01*
X169673105Y-107708417D01*
X169673104Y-107708417D01*
X169528417Y-107853104D01*
X169528417Y-107853105D01*
X169408140Y-108018650D01*
X169360765Y-108111629D01*
X169312790Y-108162425D01*
X169244969Y-108179220D01*
X169178834Y-108156682D01*
X169139795Y-108111629D01*
X169128990Y-108090424D01*
X169092287Y-108018390D01*
X169084556Y-108007749D01*
X168971971Y-107852786D01*
X168827213Y-107708028D01*
X168661613Y-107587715D01*
X168661612Y-107587714D01*
X168661610Y-107587713D01*
X168604653Y-107558691D01*
X168479223Y-107494781D01*
X168284534Y-107431522D01*
X168109995Y-107403878D01*
X168082352Y-107399500D01*
X167877648Y-107399500D01*
X167853329Y-107403351D01*
X167675465Y-107431522D01*
X167480776Y-107494781D01*
X167298386Y-107587715D01*
X167132786Y-107708028D01*
X166988028Y-107852786D01*
X166867715Y-108018386D01*
X166820485Y-108111080D01*
X166772510Y-108161876D01*
X166704689Y-108178671D01*
X166638554Y-108156134D01*
X166599515Y-108111080D01*
X166596528Y-108105218D01*
X166552287Y-108018390D01*
X166544556Y-108007749D01*
X166431971Y-107852786D01*
X166287213Y-107708028D01*
X166121613Y-107587715D01*
X166121612Y-107587714D01*
X166121610Y-107587713D01*
X166064653Y-107558691D01*
X165939223Y-107494781D01*
X165744534Y-107431522D01*
X165569995Y-107403878D01*
X165542352Y-107399500D01*
X165337648Y-107399500D01*
X165313329Y-107403351D01*
X165135465Y-107431522D01*
X164940776Y-107494781D01*
X164758386Y-107587715D01*
X164592786Y-107708028D01*
X164448032Y-107852782D01*
X164421668Y-107889070D01*
X164366338Y-107931735D01*
X164296724Y-107937714D01*
X164234929Y-107905108D01*
X164200572Y-107844269D01*
X164198060Y-107829438D01*
X164197640Y-107825533D01*
X164194091Y-107792517D01*
X164147748Y-107668265D01*
X164143797Y-107657671D01*
X164143793Y-107657664D01*
X164057547Y-107542455D01*
X164057544Y-107542452D01*
X163942335Y-107456206D01*
X163942328Y-107456202D01*
X163807482Y-107405908D01*
X163807483Y-107405908D01*
X163747883Y-107399501D01*
X163747881Y-107399500D01*
X163747873Y-107399500D01*
X163747864Y-107399500D01*
X162052129Y-107399500D01*
X162052123Y-107399501D01*
X161992516Y-107405908D01*
X161857671Y-107456202D01*
X161857664Y-107456206D01*
X161742455Y-107542452D01*
X161742452Y-107542455D01*
X161656206Y-107657664D01*
X161656202Y-107657671D01*
X161605908Y-107792517D01*
X161599501Y-107852116D01*
X161599500Y-107852135D01*
X154102437Y-107852135D01*
X154119091Y-107807483D01*
X154125500Y-107747873D01*
X154125499Y-106052128D01*
X154119091Y-105992517D01*
X154068796Y-105857669D01*
X154068795Y-105857668D01*
X154068793Y-105857664D01*
X153982547Y-105742455D01*
X153982544Y-105742452D01*
X153867335Y-105656206D01*
X153867328Y-105656202D01*
X153732482Y-105605908D01*
X153732483Y-105605908D01*
X153672883Y-105599501D01*
X153672881Y-105599500D01*
X153672873Y-105599500D01*
X153672864Y-105599500D01*
X151977129Y-105599500D01*
X151977123Y-105599501D01*
X151917516Y-105605908D01*
X151782671Y-105656202D01*
X151782664Y-105656206D01*
X151667455Y-105742452D01*
X151667452Y-105742455D01*
X151581206Y-105857664D01*
X151581202Y-105857671D01*
X151530908Y-105992516D01*
X151526939Y-106029440D01*
X151500201Y-106093991D01*
X151442809Y-106133839D01*
X151372983Y-106136332D01*
X151312895Y-106100679D01*
X151303332Y-106089070D01*
X151276967Y-106052782D01*
X151132213Y-105908028D01*
X150966613Y-105787715D01*
X150966612Y-105787714D01*
X150966610Y-105787713D01*
X150898541Y-105753030D01*
X150784223Y-105694781D01*
X150589534Y-105631522D01*
X150414995Y-105603878D01*
X150387352Y-105599500D01*
X150229451Y-105599500D01*
X150162412Y-105579815D01*
X150116657Y-105527011D01*
X150106713Y-105457853D01*
X150135738Y-105394297D01*
X150141770Y-105387819D01*
X150661770Y-104867820D01*
X151267771Y-104261819D01*
X151329094Y-104228334D01*
X151355452Y-104225500D01*
X162981607Y-104225500D01*
X163042029Y-104213481D01*
X163102452Y-104201463D01*
X163135792Y-104187652D01*
X163216286Y-104154312D01*
X163267509Y-104120084D01*
X163318733Y-104085858D01*
X163405858Y-103998733D01*
X163405859Y-103998731D01*
X163412925Y-103991665D01*
X163412928Y-103991661D01*
X165022373Y-102382215D01*
X165083694Y-102348732D01*
X165130410Y-102349249D01*
X165130654Y-102347715D01*
X165234101Y-102364099D01*
X165337648Y-102380500D01*
X165337649Y-102380500D01*
X165542351Y-102380500D01*
X165542352Y-102380500D01*
X165744534Y-102348477D01*
X165939219Y-102285220D01*
X166121610Y-102192287D01*
X166214590Y-102124732D01*
X166287213Y-102071971D01*
X166287215Y-102071968D01*
X166287219Y-102071966D01*
X166431966Y-101927219D01*
X166431968Y-101927215D01*
X166431971Y-101927213D01*
X166552284Y-101761614D01*
X166552285Y-101761613D01*
X166552287Y-101761610D01*
X166599516Y-101668917D01*
X166647489Y-101618123D01*
X166715310Y-101601328D01*
X166781445Y-101623865D01*
X166820483Y-101668917D01*
X166849154Y-101725185D01*
X166867715Y-101761614D01*
X166988028Y-101927213D01*
X167132786Y-102071971D01*
X167287749Y-102184556D01*
X167298390Y-102192287D01*
X167414607Y-102251503D01*
X167480776Y-102285218D01*
X167480778Y-102285218D01*
X167480781Y-102285220D01*
X167553405Y-102308817D01*
X167675465Y-102348477D01*
X167776557Y-102364488D01*
X167877648Y-102380500D01*
X167877649Y-102380500D01*
X168082351Y-102380500D01*
X168082352Y-102380500D01*
X168284534Y-102348477D01*
X168479219Y-102285220D01*
X168661610Y-102192287D01*
X168754590Y-102124732D01*
X168827213Y-102071971D01*
X168827215Y-102071968D01*
X168827219Y-102071966D01*
X168971966Y-101927219D01*
X168971968Y-101927215D01*
X168971971Y-101927213D01*
X169092284Y-101761614D01*
X169092285Y-101761613D01*
X169092287Y-101761610D01*
X169139516Y-101668917D01*
X169187489Y-101618123D01*
X169255310Y-101601328D01*
X169321445Y-101623865D01*
X169360483Y-101668917D01*
X169389154Y-101725185D01*
X169407715Y-101761614D01*
X169528028Y-101927213D01*
X169672786Y-102071971D01*
X169827749Y-102184556D01*
X169838390Y-102192287D01*
X169954607Y-102251503D01*
X170020776Y-102285218D01*
X170020778Y-102285218D01*
X170020781Y-102285220D01*
X170093405Y-102308817D01*
X170215465Y-102348477D01*
X170316557Y-102364488D01*
X170417648Y-102380500D01*
X170417649Y-102380500D01*
X170622351Y-102380500D01*
X170622352Y-102380500D01*
X170824534Y-102348477D01*
X171019219Y-102285220D01*
X171201610Y-102192287D01*
X171294590Y-102124732D01*
X171367213Y-102071971D01*
X171367215Y-102071968D01*
X171367219Y-102071966D01*
X171511966Y-101927219D01*
X171511968Y-101927215D01*
X171511971Y-101927213D01*
X171564732Y-101854590D01*
X171632287Y-101761610D01*
X171725220Y-101579219D01*
X171788477Y-101384534D01*
X171820500Y-101182352D01*
X171820500Y-100977648D01*
X171788477Y-100775466D01*
X171788476Y-100775462D01*
X171788476Y-100775461D01*
X171782518Y-100757124D01*
X171771149Y-100722135D01*
X177964500Y-100722135D01*
X177964500Y-102517870D01*
X177964501Y-102517876D01*
X177970908Y-102577483D01*
X178021202Y-102712328D01*
X178021206Y-102712335D01*
X178107452Y-102827544D01*
X178107455Y-102827547D01*
X178222664Y-102913793D01*
X178222671Y-102913797D01*
X178354082Y-102962810D01*
X178410016Y-103004681D01*
X178434433Y-103070145D01*
X178419582Y-103138418D01*
X178398431Y-103166673D01*
X178284889Y-103280215D01*
X178159951Y-103452179D01*
X178063444Y-103641585D01*
X177997753Y-103843760D01*
X177973209Y-103998729D01*
X177964500Y-104053713D01*
X177964500Y-104266287D01*
X177997754Y-104476243D01*
X178030090Y-104575764D01*
X178063444Y-104678414D01*
X178159951Y-104867820D01*
X178284890Y-105039786D01*
X178435213Y-105190109D01*
X178607182Y-105315050D01*
X178615946Y-105319516D01*
X178666742Y-105367491D01*
X178683536Y-105435312D01*
X178660998Y-105501447D01*
X178615946Y-105540484D01*
X178607182Y-105544949D01*
X178435213Y-105669890D01*
X178284890Y-105820213D01*
X178159951Y-105992179D01*
X178063444Y-106181585D01*
X177997753Y-106383760D01*
X177964500Y-106593713D01*
X177964500Y-106806286D01*
X177995553Y-107002351D01*
X177997754Y-107016243D01*
X178055809Y-107194918D01*
X178063444Y-107218414D01*
X178159951Y-107407820D01*
X178284890Y-107579786D01*
X178435213Y-107730109D01*
X178607179Y-107855048D01*
X178607181Y-107855049D01*
X178607184Y-107855051D01*
X178796588Y-107951557D01*
X178998757Y-108017246D01*
X179208713Y-108050500D01*
X179208714Y-108050500D01*
X179421286Y-108050500D01*
X179421287Y-108050500D01*
X179631243Y-108017246D01*
X179833412Y-107951557D01*
X180022816Y-107855051D01*
X180088288Y-107807483D01*
X180194786Y-107730109D01*
X180194788Y-107730106D01*
X180194792Y-107730104D01*
X180345104Y-107579792D01*
X180345106Y-107579788D01*
X180345109Y-107579786D01*
X180470048Y-107407820D01*
X180470047Y-107407820D01*
X180470051Y-107407816D01*
X180566557Y-107218412D01*
X180632246Y-107016243D01*
X180665500Y-106806287D01*
X180665500Y-106593713D01*
X180632246Y-106383757D01*
X180566557Y-106181588D01*
X180470051Y-105992184D01*
X180470049Y-105992181D01*
X180470048Y-105992179D01*
X180345109Y-105820213D01*
X180194786Y-105669890D01*
X180022820Y-105544951D01*
X180022115Y-105544591D01*
X180014054Y-105540485D01*
X179963259Y-105492512D01*
X179946463Y-105424692D01*
X179968999Y-105358556D01*
X180014054Y-105319515D01*
X180022816Y-105315051D01*
X180044789Y-105299086D01*
X180194786Y-105190109D01*
X180194788Y-105190106D01*
X180194792Y-105190104D01*
X180345104Y-105039792D01*
X180345106Y-105039788D01*
X180345109Y-105039786D01*
X180470048Y-104867820D01*
X180470047Y-104867820D01*
X180470051Y-104867816D01*
X180566557Y-104678412D01*
X180632246Y-104476243D01*
X180665500Y-104266287D01*
X180665500Y-104053713D01*
X180632246Y-103843757D01*
X180566557Y-103641588D01*
X180470051Y-103452184D01*
X180470049Y-103452181D01*
X180470048Y-103452179D01*
X180345109Y-103280213D01*
X180231569Y-103166673D01*
X180198084Y-103105350D01*
X180203068Y-103035658D01*
X180244940Y-102979725D01*
X180275915Y-102962810D01*
X180407331Y-102913796D01*
X180522546Y-102827546D01*
X180608796Y-102712331D01*
X180659091Y-102577483D01*
X180665500Y-102517873D01*
X180665499Y-100722128D01*
X180659091Y-100662517D01*
X180628605Y-100580781D01*
X180608797Y-100527671D01*
X180608793Y-100527664D01*
X180522547Y-100412455D01*
X180522544Y-100412452D01*
X180407335Y-100326206D01*
X180407328Y-100326202D01*
X180272482Y-100275908D01*
X180272483Y-100275908D01*
X180212883Y-100269501D01*
X180212881Y-100269500D01*
X180212873Y-100269500D01*
X180212864Y-100269500D01*
X178417129Y-100269500D01*
X178417123Y-100269501D01*
X178357516Y-100275908D01*
X178222671Y-100326202D01*
X178222664Y-100326206D01*
X178107455Y-100412452D01*
X178107452Y-100412455D01*
X178021206Y-100527664D01*
X178021202Y-100527671D01*
X177970908Y-100662517D01*
X177964501Y-100722116D01*
X177964501Y-100722123D01*
X177964500Y-100722135D01*
X171771149Y-100722135D01*
X171745639Y-100643626D01*
X171725220Y-100580781D01*
X171725218Y-100580778D01*
X171725218Y-100580776D01*
X171667000Y-100466518D01*
X171632287Y-100398390D01*
X171620387Y-100382011D01*
X171511971Y-100232786D01*
X171367213Y-100088028D01*
X171201613Y-99967715D01*
X171201612Y-99967714D01*
X171201610Y-99967713D01*
X171144653Y-99938691D01*
X171019223Y-99874781D01*
X170824534Y-99811522D01*
X170649995Y-99783878D01*
X170622352Y-99779500D01*
X170417648Y-99779500D01*
X170393329Y-99783351D01*
X170215465Y-99811522D01*
X170020776Y-99874781D01*
X169838386Y-99967715D01*
X169672786Y-100088028D01*
X169528028Y-100232786D01*
X169407715Y-100398386D01*
X169360485Y-100491080D01*
X169312510Y-100541876D01*
X169244689Y-100558671D01*
X169178554Y-100536134D01*
X169139515Y-100491080D01*
X169127000Y-100466518D01*
X169092287Y-100398390D01*
X169080387Y-100382011D01*
X168971971Y-100232786D01*
X168827213Y-100088028D01*
X168661613Y-99967715D01*
X168661612Y-99967714D01*
X168661610Y-99967713D01*
X168604653Y-99938691D01*
X168479223Y-99874781D01*
X168284534Y-99811522D01*
X168109995Y-99783878D01*
X168082352Y-99779500D01*
X167877648Y-99779500D01*
X167853329Y-99783351D01*
X167675465Y-99811522D01*
X167480776Y-99874781D01*
X167298386Y-99967715D01*
X167132786Y-100088028D01*
X166988028Y-100232786D01*
X166867715Y-100398386D01*
X166820485Y-100491080D01*
X166772510Y-100541876D01*
X166704689Y-100558671D01*
X166638554Y-100536134D01*
X166599515Y-100491080D01*
X166587000Y-100466518D01*
X166552287Y-100398390D01*
X166540387Y-100382011D01*
X166431971Y-100232786D01*
X166287213Y-100088028D01*
X166121613Y-99967715D01*
X166121612Y-99967714D01*
X166121610Y-99967713D01*
X166064653Y-99938691D01*
X165939223Y-99874781D01*
X165744534Y-99811522D01*
X165569995Y-99783878D01*
X165542352Y-99779500D01*
X165337648Y-99779500D01*
X165313329Y-99783351D01*
X165135465Y-99811522D01*
X164940776Y-99874781D01*
X164758386Y-99967715D01*
X164592786Y-100088028D01*
X164448028Y-100232786D01*
X164327715Y-100398386D01*
X164280485Y-100491080D01*
X164232510Y-100541876D01*
X164164689Y-100558671D01*
X164098554Y-100536134D01*
X164059515Y-100491080D01*
X164047000Y-100466518D01*
X164012287Y-100398390D01*
X164000387Y-100382011D01*
X163891971Y-100232786D01*
X163747213Y-100088028D01*
X163581613Y-99967715D01*
X163581612Y-99967714D01*
X163581610Y-99967713D01*
X163524653Y-99938691D01*
X163399223Y-99874781D01*
X163204534Y-99811522D01*
X163029995Y-99783878D01*
X163002352Y-99779500D01*
X162797648Y-99779500D01*
X162773329Y-99783351D01*
X162595465Y-99811522D01*
X162400776Y-99874781D01*
X162218386Y-99967715D01*
X162052786Y-100088028D01*
X161908028Y-100232786D01*
X161784849Y-100402331D01*
X161783176Y-100401115D01*
X161737792Y-100442169D01*
X161683885Y-100454500D01*
X156349500Y-100454500D01*
X156282461Y-100434815D01*
X156236706Y-100382011D01*
X156225500Y-100330500D01*
X156225500Y-93249500D01*
X156245185Y-93182461D01*
X156297989Y-93136706D01*
X156349500Y-93125500D01*
X159929548Y-93125500D01*
X159996587Y-93145185D01*
X160017229Y-93161819D01*
X160493729Y-93638319D01*
X160527214Y-93699642D01*
X160522230Y-93769334D01*
X160480358Y-93825267D01*
X160414894Y-93849684D01*
X160406048Y-93850000D01*
X160293754Y-93850000D01*
X160083872Y-93883242D01*
X160083869Y-93883242D01*
X159881782Y-93948904D01*
X159692439Y-94045380D01*
X159638282Y-94084727D01*
X159638282Y-94084728D01*
X160270591Y-94717037D01*
X160207007Y-94734075D01*
X160092993Y-94799901D01*
X159999901Y-94892993D01*
X159934075Y-95007007D01*
X159917037Y-95070591D01*
X159246818Y-94400372D01*
X159213333Y-94339049D01*
X159210499Y-94312691D01*
X159210499Y-94302129D01*
X159210498Y-94302123D01*
X159210497Y-94302116D01*
X159204091Y-94242517D01*
X159198496Y-94227517D01*
X159153797Y-94107671D01*
X159153793Y-94107664D01*
X159067547Y-93992455D01*
X159067544Y-93992452D01*
X158952335Y-93906206D01*
X158952328Y-93906202D01*
X158817482Y-93855908D01*
X158817483Y-93855908D01*
X158757883Y-93849501D01*
X158757881Y-93849500D01*
X158757873Y-93849500D01*
X158757864Y-93849500D01*
X156962129Y-93849500D01*
X156962123Y-93849501D01*
X156902516Y-93855908D01*
X156767671Y-93906202D01*
X156767664Y-93906206D01*
X156652455Y-93992452D01*
X156652452Y-93992455D01*
X156566206Y-94107664D01*
X156566202Y-94107671D01*
X156515908Y-94242517D01*
X156509977Y-94297691D01*
X156509501Y-94302123D01*
X156509500Y-94302135D01*
X156509500Y-96097870D01*
X156509501Y-96097876D01*
X156515908Y-96157483D01*
X156566202Y-96292328D01*
X156566206Y-96292335D01*
X156652452Y-96407544D01*
X156652455Y-96407547D01*
X156767664Y-96493793D01*
X156767671Y-96493797D01*
X156902517Y-96544091D01*
X156902516Y-96544091D01*
X156909444Y-96544835D01*
X156962127Y-96550500D01*
X158757872Y-96550499D01*
X158817483Y-96544091D01*
X158952331Y-96493796D01*
X159067546Y-96407546D01*
X159153796Y-96292331D01*
X159204091Y-96157483D01*
X159210500Y-96097873D01*
X159210499Y-96073979D01*
X159213330Y-96060963D01*
X159223940Y-96041525D01*
X159230179Y-96020275D01*
X159246803Y-95999643D01*
X159246808Y-95999636D01*
X159246811Y-95999634D01*
X159246818Y-95999626D01*
X159917037Y-95329408D01*
X159934075Y-95392993D01*
X159999901Y-95507007D01*
X160092993Y-95600099D01*
X160207007Y-95665925D01*
X160270590Y-95682962D01*
X159638282Y-96315269D01*
X159638282Y-96315270D01*
X159692449Y-96354624D01*
X159881782Y-96451095D01*
X160083870Y-96516757D01*
X160293754Y-96550000D01*
X160506246Y-96550000D01*
X160716127Y-96516757D01*
X160716130Y-96516757D01*
X160918217Y-96451095D01*
X161107554Y-96354622D01*
X161161716Y-96315270D01*
X161161717Y-96315270D01*
X160529408Y-95682962D01*
X160592993Y-95665925D01*
X160707007Y-95600099D01*
X160800099Y-95507007D01*
X160865925Y-95392993D01*
X160882962Y-95329408D01*
X161515270Y-95961717D01*
X161515270Y-95961716D01*
X161554622Y-95907555D01*
X161559232Y-95898507D01*
X161607205Y-95847709D01*
X161675025Y-95830912D01*
X161741161Y-95853447D01*
X161780204Y-95898504D01*
X161784949Y-95907817D01*
X161909890Y-96079786D01*
X162060213Y-96230109D01*
X162232179Y-96355048D01*
X162232181Y-96355049D01*
X162232184Y-96355051D01*
X162421588Y-96451557D01*
X162623757Y-96517246D01*
X162833713Y-96550500D01*
X162833714Y-96550500D01*
X163046286Y-96550500D01*
X163046287Y-96550500D01*
X163256243Y-96517246D01*
X163458412Y-96451557D01*
X163647816Y-96355051D01*
X163723216Y-96300270D01*
X163819786Y-96230109D01*
X163819788Y-96230106D01*
X163819792Y-96230104D01*
X163970104Y-96079792D01*
X163970106Y-96079788D01*
X163970109Y-96079786D01*
X164095048Y-95907820D01*
X164095050Y-95907817D01*
X164095051Y-95907816D01*
X164191557Y-95718412D01*
X164257246Y-95516243D01*
X164290500Y-95306287D01*
X164290500Y-95093713D01*
X164257246Y-94883757D01*
X164191557Y-94681588D01*
X164095051Y-94492184D01*
X164028346Y-94400372D01*
X163996613Y-94356694D01*
X163996610Y-94356691D01*
X163970104Y-94320208D01*
X163819792Y-94169896D01*
X163819786Y-94169890D01*
X163647820Y-94044951D01*
X163458414Y-93948444D01*
X163458413Y-93948443D01*
X163458412Y-93948443D01*
X163256243Y-93882754D01*
X163256241Y-93882753D01*
X163256240Y-93882753D01*
X163094957Y-93857208D01*
X163046287Y-93849500D01*
X162833713Y-93849500D01*
X162793255Y-93855908D01*
X162623753Y-93882754D01*
X162608160Y-93887821D01*
X162538319Y-93889816D01*
X162482162Y-93857571D01*
X161961771Y-93337181D01*
X161928286Y-93275858D01*
X161933270Y-93206167D01*
X161975141Y-93150233D01*
X162040606Y-93125816D01*
X162049452Y-93125500D01*
X171144548Y-93125500D01*
X171211587Y-93145185D01*
X171232229Y-93161819D01*
X171693729Y-93623319D01*
X171727214Y-93684642D01*
X171722230Y-93754334D01*
X171680358Y-93810267D01*
X171614894Y-93834684D01*
X171606048Y-93835000D01*
X171493754Y-93835000D01*
X171283872Y-93868242D01*
X171283869Y-93868242D01*
X171081782Y-93933904D01*
X170892439Y-94030380D01*
X170838282Y-94069727D01*
X170838282Y-94069728D01*
X171470591Y-94702037D01*
X171407007Y-94719075D01*
X171292993Y-94784901D01*
X171199901Y-94877993D01*
X171134075Y-94992007D01*
X171117037Y-95055591D01*
X170446818Y-94385372D01*
X170413333Y-94324049D01*
X170410499Y-94297691D01*
X170410499Y-94287129D01*
X170410498Y-94287123D01*
X170410497Y-94287116D01*
X170404091Y-94227517D01*
X170360768Y-94111363D01*
X170353797Y-94092671D01*
X170353793Y-94092664D01*
X170267547Y-93977455D01*
X170267544Y-93977452D01*
X170152335Y-93891206D01*
X170152328Y-93891202D01*
X170017482Y-93840908D01*
X170017483Y-93840908D01*
X169957883Y-93834501D01*
X169957881Y-93834500D01*
X169957873Y-93834500D01*
X169957864Y-93834500D01*
X168162129Y-93834500D01*
X168162123Y-93834501D01*
X168102516Y-93840908D01*
X167967671Y-93891202D01*
X167967664Y-93891206D01*
X167852455Y-93977452D01*
X167852452Y-93977455D01*
X167766206Y-94092664D01*
X167766202Y-94092671D01*
X167715908Y-94227517D01*
X167709501Y-94287116D01*
X167709501Y-94287123D01*
X167709500Y-94287135D01*
X167709500Y-96082870D01*
X167709501Y-96082876D01*
X167715908Y-96142483D01*
X167766202Y-96277328D01*
X167766206Y-96277335D01*
X167852452Y-96392544D01*
X167852455Y-96392547D01*
X167967664Y-96478793D01*
X167967671Y-96478797D01*
X168102517Y-96529091D01*
X168102516Y-96529091D01*
X168109444Y-96529835D01*
X168162127Y-96535500D01*
X169957872Y-96535499D01*
X170017483Y-96529091D01*
X170152331Y-96478796D01*
X170267546Y-96392546D01*
X170353796Y-96277331D01*
X170404091Y-96142483D01*
X170410500Y-96082873D01*
X170410499Y-96058979D01*
X170413330Y-96045963D01*
X170423940Y-96026525D01*
X170430179Y-96005275D01*
X170446803Y-95984643D01*
X170446808Y-95984636D01*
X170446811Y-95984634D01*
X170446818Y-95984626D01*
X171117037Y-95314408D01*
X171134075Y-95377993D01*
X171199901Y-95492007D01*
X171292993Y-95585099D01*
X171407007Y-95650925D01*
X171470590Y-95667962D01*
X170838282Y-96300269D01*
X170838282Y-96300270D01*
X170892449Y-96339624D01*
X171081782Y-96436095D01*
X171283870Y-96501757D01*
X171493754Y-96535000D01*
X171706246Y-96535000D01*
X171916127Y-96501757D01*
X171916130Y-96501757D01*
X172118217Y-96436095D01*
X172307554Y-96339622D01*
X172361716Y-96300270D01*
X172361717Y-96300270D01*
X171729408Y-95667962D01*
X171792993Y-95650925D01*
X171907007Y-95585099D01*
X172000099Y-95492007D01*
X172065925Y-95377993D01*
X172082962Y-95314408D01*
X172715270Y-95946717D01*
X172715270Y-95946716D01*
X172754622Y-95892555D01*
X172759232Y-95883507D01*
X172807205Y-95832709D01*
X172875025Y-95815912D01*
X172941161Y-95838447D01*
X172980204Y-95883504D01*
X172984949Y-95892817D01*
X173109890Y-96064786D01*
X173260213Y-96215109D01*
X173432179Y-96340048D01*
X173432181Y-96340049D01*
X173432184Y-96340051D01*
X173621588Y-96436557D01*
X173823757Y-96502246D01*
X174033713Y-96535500D01*
X174033714Y-96535500D01*
X174246286Y-96535500D01*
X174246287Y-96535500D01*
X174456243Y-96502246D01*
X174658412Y-96436557D01*
X174847816Y-96340051D01*
X174913492Y-96292335D01*
X175019786Y-96215109D01*
X175019788Y-96215106D01*
X175019792Y-96215104D01*
X175170104Y-96064792D01*
X175170106Y-96064788D01*
X175170109Y-96064786D01*
X175295048Y-95892820D01*
X175295050Y-95892817D01*
X175295051Y-95892816D01*
X175391557Y-95703412D01*
X175457246Y-95501243D01*
X175490500Y-95291287D01*
X175490500Y-95078713D01*
X175457246Y-94868757D01*
X175391557Y-94666588D01*
X175295051Y-94477184D01*
X175295049Y-94477181D01*
X175295048Y-94477179D01*
X175170109Y-94305213D01*
X175019786Y-94154890D01*
X174847820Y-94029951D01*
X174658414Y-93933444D01*
X174658413Y-93933443D01*
X174658412Y-93933443D01*
X174456243Y-93867754D01*
X174456241Y-93867753D01*
X174456240Y-93867753D01*
X174294957Y-93842208D01*
X174246287Y-93834500D01*
X174033713Y-93834500D01*
X173993255Y-93840908D01*
X173823753Y-93867754D01*
X173808160Y-93872821D01*
X173738319Y-93874816D01*
X173682162Y-93842571D01*
X171950822Y-92111232D01*
X171940859Y-92101269D01*
X171940858Y-92101267D01*
X171853733Y-92014142D01*
X171802509Y-91979915D01*
X171751286Y-91945688D01*
X171751283Y-91945686D01*
X171751280Y-91945685D01*
X171677603Y-91915168D01*
X171677601Y-91915167D01*
X171670792Y-91912347D01*
X171637452Y-91898537D01*
X171577029Y-91886518D01*
X171572306Y-91885578D01*
X171572304Y-91885578D01*
X171516610Y-91874500D01*
X171516607Y-91874500D01*
X171516606Y-91874500D01*
X160301607Y-91874500D01*
X160301606Y-91874500D01*
X155661606Y-91874500D01*
X155538394Y-91874500D01*
X155538389Y-91874500D01*
X155417555Y-91898535D01*
X155417545Y-91898538D01*
X155303716Y-91945687D01*
X155303707Y-91945692D01*
X155201267Y-92014141D01*
X155201263Y-92014144D01*
X155114144Y-92101263D01*
X155114141Y-92101267D01*
X155045692Y-92203707D01*
X155045687Y-92203716D01*
X154998538Y-92317545D01*
X154998535Y-92317555D01*
X154974500Y-92438389D01*
X154974500Y-100330500D01*
X154954815Y-100397539D01*
X154902011Y-100443294D01*
X154850500Y-100454500D01*
X150963389Y-100454500D01*
X150908488Y-100465420D01*
X150908481Y-100465422D01*
X150902971Y-100466518D01*
X150842548Y-100478537D01*
X150795397Y-100498067D01*
X150789335Y-100500577D01*
X150789328Y-100500580D01*
X150728718Y-100525685D01*
X150713081Y-100536134D01*
X150703190Y-100542743D01*
X150703189Y-100542744D01*
X150703188Y-100542743D01*
X150626266Y-100594142D01*
X150626265Y-100594143D01*
X150582704Y-100637705D01*
X150539142Y-100681267D01*
X150539139Y-100681270D01*
X145622627Y-105597781D01*
X145561304Y-105631266D01*
X145514584Y-105630776D01*
X145514346Y-105632285D01*
X145347816Y-105605909D01*
X145307352Y-105599500D01*
X145102648Y-105599500D01*
X145078329Y-105603351D01*
X144900465Y-105631522D01*
X144705776Y-105694781D01*
X144523386Y-105787715D01*
X144357786Y-105908028D01*
X144213028Y-106052786D01*
X144092715Y-106218386D01*
X144045485Y-106311080D01*
X143997510Y-106361876D01*
X143929689Y-106378671D01*
X143863554Y-106356134D01*
X143824515Y-106311080D01*
X143823883Y-106309840D01*
X143777287Y-106218390D01*
X143715858Y-106133839D01*
X143656971Y-106052786D01*
X143512213Y-105908028D01*
X143346613Y-105787715D01*
X143346612Y-105787714D01*
X143346610Y-105787713D01*
X143278541Y-105753030D01*
X143164223Y-105694781D01*
X142969534Y-105631522D01*
X142794995Y-105603878D01*
X142767352Y-105599500D01*
X142562648Y-105599500D01*
X142538329Y-105603351D01*
X142360465Y-105631522D01*
X142165776Y-105694781D01*
X141983386Y-105787715D01*
X141817786Y-105908028D01*
X141673028Y-106052786D01*
X141552715Y-106218386D01*
X141505485Y-106311080D01*
X141457510Y-106361876D01*
X141389689Y-106378671D01*
X141323554Y-106356134D01*
X141284515Y-106311080D01*
X141283883Y-106309840D01*
X141237287Y-106218390D01*
X141175858Y-106133839D01*
X141116971Y-106052786D01*
X140972213Y-105908028D01*
X140806613Y-105787715D01*
X140806612Y-105787714D01*
X140806610Y-105787713D01*
X140738541Y-105753030D01*
X140624223Y-105694781D01*
X140429534Y-105631522D01*
X140254995Y-105603878D01*
X140227352Y-105599500D01*
X140022648Y-105599500D01*
X139998329Y-105603351D01*
X139820465Y-105631522D01*
X139625776Y-105694781D01*
X139443386Y-105787715D01*
X139277786Y-105908028D01*
X139133028Y-106052786D01*
X139012715Y-106218386D01*
X138965485Y-106311080D01*
X138917510Y-106361876D01*
X138849689Y-106378671D01*
X138783554Y-106356134D01*
X138744515Y-106311080D01*
X138743883Y-106309840D01*
X138697287Y-106218390D01*
X138635858Y-106133839D01*
X138576971Y-106052786D01*
X138432213Y-105908028D01*
X138266613Y-105787715D01*
X138266612Y-105787714D01*
X138266610Y-105787713D01*
X138198541Y-105753030D01*
X138084223Y-105694781D01*
X137889534Y-105631522D01*
X137714995Y-105603878D01*
X137687352Y-105599500D01*
X137482648Y-105599500D01*
X137458329Y-105603351D01*
X137280465Y-105631522D01*
X137085776Y-105694781D01*
X136903386Y-105787715D01*
X136737786Y-105908028D01*
X136593028Y-106052786D01*
X136472715Y-106218386D01*
X136379781Y-106400776D01*
X136316522Y-106595465D01*
X136284500Y-106797648D01*
X122564368Y-106797648D01*
X122862699Y-105969002D01*
X122864044Y-105965445D01*
X123321742Y-104809431D01*
X123323184Y-104805948D01*
X123816976Y-103664863D01*
X123818571Y-103661332D01*
X123827862Y-103641588D01*
X124347955Y-102536331D01*
X124349613Y-102532947D01*
X124914086Y-101425106D01*
X124915884Y-101421713D01*
X125514843Y-100332211D01*
X125516729Y-100328905D01*
X126149632Y-99258725D01*
X126151622Y-99255475D01*
X126817855Y-98205661D01*
X126819951Y-98202472D01*
X127518778Y-97174178D01*
X127521012Y-97171000D01*
X127773019Y-96824142D01*
X128251825Y-96165121D01*
X128254042Y-96162168D01*
X129016140Y-95179678D01*
X129018497Y-95176735D01*
X129276174Y-94865257D01*
X129334073Y-94826151D01*
X129403925Y-94824555D01*
X129463550Y-94860977D01*
X129494020Y-94923853D01*
X129489649Y-94982615D01*
X129486235Y-94993122D01*
X129453966Y-95196861D01*
X129453966Y-95403138D01*
X129486235Y-95606877D01*
X129486235Y-95606880D01*
X129549976Y-95803054D01*
X129598612Y-95898507D01*
X129643626Y-95986852D01*
X129764873Y-96153733D01*
X129910733Y-96299593D01*
X130077614Y-96420840D01*
X130220793Y-96493793D01*
X130261411Y-96514489D01*
X130457586Y-96578230D01*
X130457587Y-96578230D01*
X130457590Y-96578231D01*
X130661327Y-96610500D01*
X130661328Y-96610500D01*
X130867604Y-96610500D01*
X130867605Y-96610500D01*
X131071342Y-96578231D01*
X131071345Y-96578230D01*
X131071346Y-96578230D01*
X131267520Y-96514489D01*
X131267520Y-96514488D01*
X131267523Y-96514488D01*
X131451318Y-96420840D01*
X131618199Y-96299593D01*
X131764059Y-96153733D01*
X131885306Y-95986852D01*
X131978954Y-95803057D01*
X132042697Y-95606876D01*
X132074966Y-95403139D01*
X132074966Y-95196861D01*
X132989500Y-95196861D01*
X132989500Y-95403138D01*
X133021769Y-95606877D01*
X133021769Y-95606880D01*
X133085510Y-95803054D01*
X133134146Y-95898507D01*
X133179160Y-95986852D01*
X133300407Y-96153733D01*
X133446267Y-96299593D01*
X133613148Y-96420840D01*
X133756327Y-96493793D01*
X133796945Y-96514489D01*
X133993120Y-96578230D01*
X133993121Y-96578230D01*
X133993124Y-96578231D01*
X134196861Y-96610500D01*
X134196862Y-96610500D01*
X134403138Y-96610500D01*
X134403139Y-96610500D01*
X134606876Y-96578231D01*
X134606879Y-96578230D01*
X134606880Y-96578230D01*
X134803054Y-96514489D01*
X134803054Y-96514488D01*
X134803057Y-96514488D01*
X134986852Y-96420840D01*
X135153733Y-96299593D01*
X135299593Y-96153733D01*
X135420840Y-95986852D01*
X135514488Y-95803057D01*
X135578231Y-95606876D01*
X135610500Y-95403139D01*
X135610500Y-95196861D01*
X135578231Y-94993124D01*
X135578230Y-94993120D01*
X135578230Y-94993119D01*
X135514489Y-94796945D01*
X135420839Y-94613147D01*
X135299593Y-94446267D01*
X135153733Y-94300407D01*
X134986852Y-94179160D01*
X134939231Y-94154896D01*
X134803054Y-94085510D01*
X134606879Y-94021769D01*
X134454073Y-93997567D01*
X134403139Y-93989500D01*
X134196861Y-93989500D01*
X134128948Y-94000256D01*
X133993122Y-94021769D01*
X133993119Y-94021769D01*
X133796945Y-94085510D01*
X133613147Y-94179160D01*
X133446265Y-94300408D01*
X133300408Y-94446265D01*
X133179160Y-94613147D01*
X133085510Y-94796945D01*
X133021769Y-94993119D01*
X133021769Y-94993122D01*
X132989500Y-95196861D01*
X132074966Y-95196861D01*
X132042697Y-94993124D01*
X132042696Y-94993120D01*
X132042696Y-94993119D01*
X131978955Y-94796945D01*
X131885305Y-94613147D01*
X131764059Y-94446267D01*
X131618199Y-94300407D01*
X131451318Y-94179160D01*
X131403697Y-94154896D01*
X131267520Y-94085510D01*
X131071345Y-94021769D01*
X130918539Y-93997567D01*
X130867605Y-93989500D01*
X130661327Y-93989500D01*
X130593414Y-94000256D01*
X130457588Y-94021769D01*
X130457585Y-94021769D01*
X130261411Y-94085510D01*
X130235980Y-94098468D01*
X130167311Y-94111363D01*
X130102571Y-94085085D01*
X130062315Y-94027978D01*
X130059323Y-93958173D01*
X130086671Y-93905981D01*
X130635762Y-93283160D01*
X130638327Y-93280342D01*
X131489450Y-92373988D01*
X131492098Y-92371256D01*
X132371256Y-91492098D01*
X132373988Y-91489450D01*
X133010140Y-90892063D01*
X133072483Y-90860523D01*
X133141983Y-90867694D01*
X133196574Y-90911301D01*
X133218923Y-90977500D01*
X133201934Y-91045273D01*
X133195342Y-91055340D01*
X133179161Y-91077612D01*
X133085510Y-91261411D01*
X133021769Y-91457585D01*
X133021769Y-91457588D01*
X133016298Y-91492130D01*
X132989500Y-91661327D01*
X132989500Y-91867605D01*
X132997033Y-91915168D01*
X133021769Y-92071343D01*
X133021769Y-92071346D01*
X133085510Y-92267520D01*
X133138350Y-92371224D01*
X133179160Y-92451318D01*
X133300407Y-92618199D01*
X133446267Y-92764059D01*
X133613148Y-92885306D01*
X133796943Y-92978954D01*
X133796945Y-92978955D01*
X133993120Y-93042696D01*
X133993121Y-93042696D01*
X133993124Y-93042697D01*
X134196861Y-93074966D01*
X134196862Y-93074966D01*
X134403138Y-93074966D01*
X134403139Y-93074966D01*
X134606876Y-93042697D01*
X134606879Y-93042696D01*
X134606880Y-93042696D01*
X134803054Y-92978955D01*
X134803054Y-92978954D01*
X134803057Y-92978954D01*
X134986852Y-92885306D01*
X135153733Y-92764059D01*
X135299593Y-92618199D01*
X135420840Y-92451318D01*
X135514488Y-92267523D01*
X135578231Y-92071342D01*
X135610500Y-91867605D01*
X135610500Y-91661327D01*
X135578231Y-91457590D01*
X135578230Y-91457586D01*
X135578230Y-91457585D01*
X135514489Y-91261411D01*
X135420839Y-91077613D01*
X135299593Y-90910733D01*
X135153733Y-90764873D01*
X134986852Y-90643626D01*
X134888998Y-90593767D01*
X134803054Y-90549976D01*
X134606879Y-90486235D01*
X134454073Y-90462033D01*
X134403139Y-90453966D01*
X134196861Y-90453966D01*
X134128948Y-90464722D01*
X133993122Y-90486235D01*
X133993119Y-90486235D01*
X133796943Y-90549977D01*
X133796942Y-90549977D01*
X133684737Y-90607148D01*
X133616068Y-90620044D01*
X133551327Y-90593767D01*
X133511071Y-90536660D01*
X133508079Y-90466855D01*
X133543302Y-90406513D01*
X133546393Y-90403691D01*
X134215823Y-89813508D01*
X134218680Y-89811068D01*
X135176735Y-89018497D01*
X135179678Y-89016140D01*
X136162168Y-88254042D01*
X136165121Y-88251825D01*
X137171008Y-87521005D01*
X137174187Y-87518772D01*
X138202472Y-86819951D01*
X138205661Y-86817855D01*
X139255475Y-86151622D01*
X139258725Y-86149632D01*
X139711274Y-85881995D01*
X148199500Y-85881995D01*
X148199500Y-86118004D01*
X148199501Y-86118020D01*
X148230306Y-86352010D01*
X148291394Y-86579993D01*
X148381714Y-86798045D01*
X148381719Y-86798056D01*
X148452677Y-86920957D01*
X148499727Y-87002450D01*
X148499729Y-87002453D01*
X148499730Y-87002454D01*
X148643406Y-87189697D01*
X148643412Y-87189704D01*
X148810295Y-87356587D01*
X148810301Y-87356592D01*
X148997550Y-87500273D01*
X149128918Y-87576118D01*
X149201943Y-87618280D01*
X149201948Y-87618282D01*
X149201951Y-87618284D01*
X149420007Y-87708606D01*
X149647986Y-87769693D01*
X149881989Y-87800500D01*
X149881996Y-87800500D01*
X150118004Y-87800500D01*
X150118011Y-87800500D01*
X150352014Y-87769693D01*
X150579993Y-87708606D01*
X150798049Y-87618284D01*
X151002450Y-87500273D01*
X151189699Y-87356592D01*
X151356592Y-87189699D01*
X151500273Y-87002450D01*
X151618284Y-86798049D01*
X151708606Y-86579993D01*
X151769693Y-86352014D01*
X151800500Y-86118011D01*
X151800500Y-85881989D01*
X151769693Y-85647986D01*
X151708606Y-85420007D01*
X151618284Y-85201951D01*
X151618282Y-85201948D01*
X151618280Y-85201943D01*
X151576118Y-85128918D01*
X151500273Y-84997550D01*
X151356592Y-84810301D01*
X151356587Y-84810295D01*
X151189704Y-84643412D01*
X151189697Y-84643406D01*
X151002454Y-84499730D01*
X151002453Y-84499729D01*
X151002450Y-84499727D01*
X150920957Y-84452677D01*
X150798056Y-84381719D01*
X150798045Y-84381714D01*
X150579993Y-84291394D01*
X150352010Y-84230306D01*
X150118020Y-84199501D01*
X150118017Y-84199500D01*
X150118011Y-84199500D01*
X149881989Y-84199500D01*
X149881983Y-84199500D01*
X149881979Y-84199501D01*
X149647989Y-84230306D01*
X149420006Y-84291394D01*
X149201954Y-84381714D01*
X149201943Y-84381719D01*
X148997545Y-84499730D01*
X148810302Y-84643406D01*
X148810295Y-84643412D01*
X148643412Y-84810295D01*
X148643406Y-84810302D01*
X148499730Y-84997545D01*
X148381719Y-85201943D01*
X148381714Y-85201954D01*
X148291394Y-85420006D01*
X148230306Y-85647989D01*
X148199501Y-85881979D01*
X148199500Y-85881995D01*
X139711274Y-85881995D01*
X140328905Y-85516729D01*
X140332211Y-85514843D01*
X141421734Y-84915872D01*
X141425106Y-84914086D01*
X142532947Y-84349613D01*
X142536331Y-84347955D01*
X143661351Y-83818562D01*
X143664863Y-83816976D01*
X144805948Y-83323184D01*
X144809431Y-83321742D01*
X145965445Y-82864044D01*
X145969002Y-82862699D01*
X147138878Y-82441518D01*
X147142420Y-82440305D01*
X148324950Y-82056078D01*
X148328578Y-82054962D01*
X149522513Y-81708092D01*
X149526234Y-81707074D01*
X150730498Y-81397871D01*
X150734153Y-81396993D01*
X151947588Y-81125759D01*
X151951318Y-81124986D01*
X153172614Y-80892011D01*
X153176438Y-80891345D01*
X154404377Y-80696859D01*
X154408210Y-80696313D01*
X155641674Y-80540490D01*
X155645505Y-80540067D01*
X156883328Y-80423058D01*
X156887139Y-80422758D01*
X158127960Y-80344692D01*
X158131805Y-80344511D01*
X159374486Y-80305459D01*
X159378381Y-80305398D01*
X160621619Y-80305398D01*
X160625514Y-80305459D01*
G37*
G04 #@! TD.AperFunction*
M02*
