G04 #@! TF.GenerationSoftware,KiCad,Pcbnew,9.0.3*
G04 #@! TF.CreationDate,2025-07-27T23:48:25-04:00*
G04 #@! TF.ProjectId,Leviosa,4c657669-6f73-4612-9e6b-696361645f70,0*
G04 #@! TF.SameCoordinates,Original*
G04 #@! TF.FileFunction,Copper,L1,Top*
G04 #@! TF.FilePolarity,Positive*
%FSLAX46Y46*%
G04 Gerber Fmt 4.6, Leading zero omitted, Abs format (unit mm)*
G04 Created by KiCad (PCBNEW 9.0.3) date 2025-07-27 23:48:25*
%MOMM*%
%LPD*%
G01*
G04 APERTURE LIST*
G04 Aperture macros list*
%AMRoundRect*
0 Rectangle with rounded corners*
0 $1 Rounding radius*
0 $2 $3 $4 $5 $6 $7 $8 $9 X,Y pos of 4 corners*
0 Add a 4 corners polygon primitive as box body*
4,1,4,$2,$3,$4,$5,$6,$7,$8,$9,$2,$3,0*
0 Add four circle primitives for the rounded corners*
1,1,$1+$1,$2,$3*
1,1,$1+$1,$4,$5*
1,1,$1+$1,$6,$7*
1,1,$1+$1,$8,$9*
0 Add four rect primitives between the rounded corners*
20,1,$1+$1,$2,$3,$4,$5,0*
20,1,$1+$1,$4,$5,$6,$7,0*
20,1,$1+$1,$6,$7,$8,$9,0*
20,1,$1+$1,$8,$9,$2,$3,0*%
%AMHorizOval*
0 Thick line with rounded ends*
0 $1 width*
0 $2 $3 position (X,Y) of the first rounded end (center of the circle)*
0 $4 $5 position (X,Y) of the second rounded end (center of the circle)*
0 Add line between two ends*
20,1,$1,$2,$3,$4,$5,0*
0 Add two circle primitives to create the rounded ends*
1,1,$1,$2,$3*
1,1,$1,$4,$5*%
%AMRotRect*
0 Rectangle, with rotation*
0 The origin of the aperture is its center*
0 $1 length*
0 $2 width*
0 $3 Rotation angle, in degrees counterclockwise*
0 Add horizontal line*
21,1,$1,$2,0,0,$3*%
G04 Aperture macros list end*
G04 #@! TA.AperFunction,SMDPad,CuDef*
%ADD10R,1.000000X1.500000*%
G04 #@! TD*
G04 #@! TA.AperFunction,ComponentPad*
%ADD11R,1.350000X1.350000*%
G04 #@! TD*
G04 #@! TA.AperFunction,ComponentPad*
%ADD12O,1.350000X1.350000*%
G04 #@! TD*
G04 #@! TA.AperFunction,SMDPad,CuDef*
%ADD13RoundRect,0.250000X0.350000X0.450000X-0.350000X0.450000X-0.350000X-0.450000X0.350000X-0.450000X0*%
G04 #@! TD*
G04 #@! TA.AperFunction,SMDPad,CuDef*
%ADD14RoundRect,0.243750X-0.243750X-0.456250X0.243750X-0.456250X0.243750X0.456250X-0.243750X0.456250X0*%
G04 #@! TD*
G04 #@! TA.AperFunction,SMDPad,CuDef*
%ADD15RoundRect,0.250000X-0.350000X-0.450000X0.350000X-0.450000X0.350000X0.450000X-0.350000X0.450000X0*%
G04 #@! TD*
G04 #@! TA.AperFunction,SMDPad,CuDef*
%ADD16RoundRect,0.225000X0.225000X0.375000X-0.225000X0.375000X-0.225000X-0.375000X0.225000X-0.375000X0*%
G04 #@! TD*
G04 #@! TA.AperFunction,SMDPad,CuDef*
%ADD17C,3.000000*%
G04 #@! TD*
G04 #@! TA.AperFunction,ComponentPad*
%ADD18R,2.000000X1.905000*%
G04 #@! TD*
G04 #@! TA.AperFunction,ComponentPad*
%ADD19O,2.000000X1.905000*%
G04 #@! TD*
G04 #@! TA.AperFunction,SMDPad,CuDef*
%ADD20RoundRect,0.250000X-0.475000X0.337500X-0.475000X-0.337500X0.475000X-0.337500X0.475000X0.337500X0*%
G04 #@! TD*
G04 #@! TA.AperFunction,SMDPad,CuDef*
%ADD21RotRect,1.630000X2.180400X150.000000*%
G04 #@! TD*
G04 #@! TA.AperFunction,ComponentPad*
%ADD22R,1.600000X1.600000*%
G04 #@! TD*
G04 #@! TA.AperFunction,ComponentPad*
%ADD23O,1.600000X1.600000*%
G04 #@! TD*
G04 #@! TA.AperFunction,SMDPad,CuDef*
%ADD24RoundRect,0.250000X0.450000X-0.350000X0.450000X0.350000X-0.450000X0.350000X-0.450000X-0.350000X0*%
G04 #@! TD*
G04 #@! TA.AperFunction,ComponentPad*
%ADD25R,1.700000X1.700000*%
G04 #@! TD*
G04 #@! TA.AperFunction,ComponentPad*
%ADD26C,1.700000*%
G04 #@! TD*
G04 #@! TA.AperFunction,SMDPad,CuDef*
%ADD27RoundRect,0.250000X0.337500X0.475000X-0.337500X0.475000X-0.337500X-0.475000X0.337500X-0.475000X0*%
G04 #@! TD*
G04 #@! TA.AperFunction,ComponentPad*
%ADD28C,1.620000*%
G04 #@! TD*
G04 #@! TA.AperFunction,ComponentPad*
%ADD29R,4.500000X2.000000*%
G04 #@! TD*
G04 #@! TA.AperFunction,ComponentPad*
%ADD30O,4.000000X2.000000*%
G04 #@! TD*
G04 #@! TA.AperFunction,ComponentPad*
%ADD31O,2.000000X4.000000*%
G04 #@! TD*
G04 #@! TA.AperFunction,SMDPad,CuDef*
%ADD32RoundRect,0.250000X0.242612X-0.529784X0.580112X0.054784X-0.242612X0.529784X-0.580112X-0.054784X0*%
G04 #@! TD*
G04 #@! TA.AperFunction,SMDPad,CuDef*
%ADD33RoundRect,0.250000X-0.450000X0.350000X-0.450000X-0.350000X0.450000X-0.350000X0.450000X0.350000X0*%
G04 #@! TD*
G04 #@! TA.AperFunction,ComponentPad*
%ADD34C,1.600000*%
G04 #@! TD*
G04 #@! TA.AperFunction,ComponentPad*
%ADD35HorizOval,1.600000X0.000000X0.000000X0.000000X0.000000X0*%
G04 #@! TD*
G04 #@! TA.AperFunction,SMDPad,CuDef*
%ADD36RoundRect,0.055000X-0.680000X-0.165000X0.680000X-0.165000X0.680000X0.165000X-0.680000X0.165000X0*%
G04 #@! TD*
G04 #@! TA.AperFunction,SMDPad,CuDef*
%ADD37R,1.425000X1.760000*%
G04 #@! TD*
G04 #@! TA.AperFunction,ViaPad*
%ADD38C,0.800000*%
G04 #@! TD*
G04 #@! TA.AperFunction,Conductor*
%ADD39C,0.400000*%
G04 #@! TD*
G04 #@! TA.AperFunction,Conductor*
%ADD40C,0.250000*%
G04 #@! TD*
G04 #@! TA.AperFunction,Conductor*
%ADD41C,0.500000*%
G04 #@! TD*
G04 APERTURE END LIST*
D10*
X145850000Y-103391667D03*
X144550000Y-103391667D03*
D11*
X127700000Y-111700000D03*
D12*
X129700000Y-111700000D03*
X131700000Y-111700000D03*
D10*
X145850000Y-99733333D03*
X144550000Y-99733333D03*
D13*
X132000000Y-142700000D03*
X130000000Y-142700000D03*
X139700000Y-149800000D03*
X137700000Y-149800000D03*
D10*
X144550000Y-121666667D03*
X145850000Y-121666667D03*
D14*
X135562500Y-142700000D03*
X137437500Y-142700000D03*
D15*
X127550000Y-122200000D03*
X129550000Y-122200000D03*
D13*
X129550000Y-117200000D03*
X127550000Y-117200000D03*
D16*
X177450000Y-140200000D03*
X174150000Y-140200000D03*
D11*
X148900000Y-140900000D03*
D12*
X146900000Y-140900000D03*
X144900000Y-140900000D03*
D17*
X180100000Y-113300000D03*
D18*
X164300000Y-119200000D03*
D19*
X164300000Y-121740000D03*
X164300000Y-124280000D03*
D20*
X169500000Y-131362500D03*
X169500000Y-133437500D03*
D21*
X181771400Y-134928205D03*
X183628600Y-131711441D03*
D13*
X161200000Y-114500000D03*
X159200000Y-114500000D03*
D17*
X176000000Y-134100000D03*
D18*
X184755000Y-118560000D03*
D19*
X184755000Y-121100000D03*
X184755000Y-123640000D03*
D10*
X144550000Y-125325000D03*
X145850000Y-125325000D03*
D15*
X138500000Y-90400000D03*
X140500000Y-90400000D03*
D17*
X150900000Y-132000000D03*
D22*
X162900000Y-108700000D03*
D23*
X165440000Y-108700000D03*
X167980000Y-108700000D03*
X170520000Y-108700000D03*
X170520000Y-101080000D03*
X167980000Y-101080000D03*
X165440000Y-101080000D03*
X162900000Y-101080000D03*
D24*
X155600000Y-137900000D03*
X155600000Y-135900000D03*
D16*
X150950000Y-149800000D03*
X147650000Y-149800000D03*
D25*
X169060000Y-95185000D03*
D26*
X171600000Y-95185000D03*
X174140000Y-95185000D03*
D20*
X141000000Y-142662500D03*
X141000000Y-144737500D03*
D17*
X139500000Y-131800000D03*
D13*
X180100000Y-118540000D03*
X178100000Y-118540000D03*
D17*
X134600000Y-131800000D03*
D10*
X144550000Y-118008333D03*
X145850000Y-118008333D03*
D14*
X142862500Y-149800000D03*
X144737500Y-149800000D03*
D17*
X144400000Y-131800000D03*
D27*
X148937500Y-144800000D03*
X146862500Y-144800000D03*
D25*
X157860000Y-95200000D03*
D26*
X160400000Y-95200000D03*
X162940000Y-95200000D03*
D14*
X170072500Y-140200000D03*
X171947500Y-140200000D03*
D28*
X134300000Y-91764466D03*
X134300000Y-95300000D03*
X130764466Y-95300000D03*
D24*
X129000000Y-101100000D03*
X129000000Y-99100000D03*
D17*
X194100000Y-129100000D03*
D25*
X179315000Y-101620000D03*
D26*
X179315000Y-104160000D03*
X179315000Y-106700000D03*
D29*
X159900000Y-144300000D03*
D30*
X159900000Y-150500000D03*
D31*
X164600000Y-147500000D03*
D10*
X145850000Y-96075000D03*
X144550000Y-96075000D03*
D22*
X152825000Y-106900000D03*
D23*
X150285000Y-106900000D03*
X147745000Y-106900000D03*
X145205000Y-106900000D03*
X142665000Y-106900000D03*
X140125000Y-106900000D03*
X137585000Y-106900000D03*
X137585000Y-114520000D03*
X140125000Y-114520000D03*
X142665000Y-114520000D03*
X145205000Y-114520000D03*
X147745000Y-114520000D03*
X150285000Y-114520000D03*
X152825000Y-114520000D03*
D13*
X167700000Y-140200000D03*
X165700000Y-140200000D03*
D28*
X121600000Y-117200000D03*
X124100000Y-119700000D03*
X121600000Y-122200000D03*
D17*
X170900000Y-119200000D03*
D32*
X185831250Y-136293692D03*
X186868750Y-134496690D03*
D33*
X159900000Y-135900000D03*
X159900000Y-137900000D03*
D34*
X189300000Y-143430127D03*
D35*
X194300000Y-134769873D03*
D36*
X155580000Y-130725000D03*
X155580000Y-131375000D03*
X155580000Y-132025000D03*
X155580000Y-132675000D03*
X159880000Y-132675000D03*
X159880000Y-132025000D03*
X159880000Y-131375000D03*
X159880000Y-130725000D03*
D37*
X157730000Y-131700000D03*
D38*
X129550000Y-122200000D03*
X135890000Y-149860000D03*
X164338000Y-126746000D03*
X131572000Y-101092000D03*
X129540000Y-114300000D03*
X157734000Y-134112000D03*
X139700000Y-134620000D03*
X193294000Y-120904000D03*
X165862000Y-96012000D03*
X139192000Y-144780000D03*
X129550000Y-117200000D03*
X149352000Y-93472000D03*
X159004000Y-99060000D03*
X162306000Y-132334000D03*
X158496000Y-107188000D03*
X155702000Y-139954000D03*
X181864000Y-144780000D03*
X163322000Y-140208000D03*
X129794000Y-140970000D03*
X173736000Y-106680000D03*
X171704000Y-98044000D03*
X136398000Y-123952000D03*
D39*
X159900000Y-137900000D02*
X159900000Y-144300000D01*
X147900000Y-139900000D02*
X147900000Y-131700000D01*
D40*
X144400000Y-131800000D02*
X147800000Y-131800000D01*
D39*
X152300000Y-144300000D02*
X150850000Y-142850000D01*
D40*
X155580000Y-131375000D02*
X155580000Y-130725000D01*
D39*
X147900000Y-130600000D02*
X149400000Y-129100000D01*
X159900000Y-144300000D02*
X152300000Y-144300000D01*
X156305000Y-130000000D02*
X155580000Y-130725000D01*
X148900000Y-140900000D02*
X147900000Y-139900000D01*
D40*
X147800000Y-131800000D02*
X147900000Y-131700000D01*
D39*
X159155000Y-130000000D02*
X156305000Y-130000000D01*
X149400000Y-129100000D02*
X152700000Y-129100000D01*
X155580000Y-130725000D02*
X154325000Y-130725000D01*
X159880000Y-130725000D02*
X159155000Y-130000000D01*
D40*
X148937500Y-144762500D02*
X150850000Y-142850000D01*
D39*
X154325000Y-130725000D02*
X152700000Y-129100000D01*
D40*
X148937500Y-144800000D02*
X148937500Y-144762500D01*
D39*
X147900000Y-131700000D02*
X147900000Y-130600000D01*
D40*
X150950000Y-149800000D02*
X150950000Y-148850000D01*
D39*
X150850000Y-142850000D02*
X148900000Y-140900000D01*
D40*
X152300000Y-147500000D02*
X152300000Y-144300000D01*
X150950000Y-148850000D02*
X152300000Y-147500000D01*
X144900000Y-140900000D02*
X142762500Y-140900000D01*
X129550000Y-131800000D02*
X129550000Y-132150000D01*
X142762500Y-140900000D02*
X141000000Y-142662500D01*
X129550000Y-122200000D02*
X129550000Y-131800000D01*
X158140000Y-90400000D02*
X140500000Y-90400000D01*
X134600000Y-131800000D02*
X129550000Y-131800000D01*
X129700000Y-109700000D02*
X142405000Y-109700000D01*
X142405000Y-109700000D02*
X145205000Y-106900000D01*
X127700000Y-111700000D02*
X129700000Y-109700000D01*
X129550000Y-132150000D02*
X138300000Y-140900000D01*
X140962500Y-142700000D02*
X141000000Y-142662500D01*
X162940000Y-95200000D02*
X158140000Y-90400000D01*
X137437500Y-142700000D02*
X140962500Y-142700000D01*
X138300000Y-140900000D02*
X144900000Y-140900000D01*
X141000000Y-144737500D02*
X143062500Y-144737500D01*
X146862500Y-140937500D02*
X146900000Y-140900000D01*
X146862500Y-144800000D02*
X146862500Y-140937500D01*
X161997000Y-132025000D02*
X159880000Y-132025000D01*
X143062500Y-144737500D02*
X146900000Y-140900000D01*
X162306000Y-132334000D02*
X161997000Y-132025000D01*
X186944000Y-128396041D02*
X183628600Y-131711441D01*
D41*
X194026817Y-134496690D02*
X194300000Y-134769873D01*
X194300000Y-134769873D02*
X194300000Y-129300000D01*
X186868750Y-134496690D02*
X186868750Y-132869156D01*
D40*
X186944000Y-123289000D02*
X186944000Y-128396041D01*
D41*
X186868750Y-132869156D02*
X184912953Y-130913359D01*
D40*
X184755000Y-121100000D02*
X186944000Y-123289000D01*
D41*
X186868750Y-134496690D02*
X194026817Y-134496690D01*
X184426682Y-130913359D02*
X183628600Y-131711441D01*
X184912953Y-130913359D02*
X184426682Y-130913359D01*
X194300000Y-129300000D02*
X194100000Y-129100000D01*
D39*
X184800000Y-118515000D02*
X184755000Y-118560000D01*
X184735000Y-118540000D02*
X184755000Y-118560000D01*
X180100000Y-118540000D02*
X184735000Y-118540000D01*
D40*
X180100000Y-113300000D02*
X180100000Y-118540000D01*
D39*
X168440000Y-123640000D02*
X166540000Y-121740000D01*
X166540000Y-121740000D02*
X164300000Y-121740000D01*
X184755000Y-123640000D02*
X168440000Y-123640000D01*
D40*
X161200000Y-116100000D02*
X164300000Y-119200000D01*
X164300000Y-119200000D02*
X170900000Y-119200000D01*
X161200000Y-114500000D02*
X161200000Y-116100000D01*
X152825000Y-106900000D02*
X152825000Y-103050000D01*
X158225000Y-112300000D02*
X171860000Y-112300000D01*
X152825000Y-106900000D02*
X158225000Y-112300000D01*
X152825000Y-103050000D02*
X145850000Y-96075000D01*
X171860000Y-112300000D02*
X178100000Y-118540000D01*
X152825000Y-114520000D02*
X152825000Y-118350000D01*
X152845000Y-114500000D02*
X152825000Y-114520000D01*
X152825000Y-118350000D02*
X145850000Y-125325000D01*
X159180000Y-114520000D02*
X159200000Y-114500000D01*
X152825000Y-114520000D02*
X159180000Y-114520000D01*
X141400000Y-104000000D02*
X144000000Y-101400000D01*
X140400000Y-109000000D02*
X141400000Y-108000000D01*
X145666667Y-99733333D02*
X145850000Y-99733333D01*
X145850000Y-101400000D02*
X145850000Y-99916666D01*
X144000000Y-101400000D02*
X145850000Y-101400000D01*
X150285000Y-106900000D02*
X150285000Y-104168333D01*
X135100000Y-96100000D02*
X135100000Y-107800000D01*
X141400000Y-108000000D02*
X141400000Y-104000000D01*
X135100000Y-107800000D02*
X136300000Y-109000000D01*
X150285000Y-104168333D02*
X147650834Y-101534166D01*
X134300000Y-95300000D02*
X135100000Y-96100000D01*
X147650834Y-101534166D02*
X145850000Y-99733333D01*
X136300000Y-109000000D02*
X140400000Y-109000000D01*
X145850000Y-99916666D02*
X145666667Y-99733333D01*
X147745000Y-116113333D02*
X145850000Y-118008333D01*
X137300000Y-112700000D02*
X145925000Y-112700000D01*
X124100000Y-119700000D02*
X130300000Y-119700000D01*
X147745000Y-114520000D02*
X147745000Y-116113333D01*
X130300000Y-119700000D02*
X137300000Y-112700000D01*
X145925000Y-112700000D02*
X147745000Y-114520000D01*
X137585000Y-106900000D02*
X137585000Y-103040000D01*
X137585000Y-103040000D02*
X144550000Y-96075000D01*
X137585000Y-118360000D02*
X144550000Y-125325000D01*
X137585000Y-114520000D02*
X137585000Y-118360000D01*
X177450000Y-140200000D02*
X177626287Y-140023713D01*
D41*
X185800000Y-139930127D02*
X185800000Y-139600000D01*
X177626287Y-135726287D02*
X176000000Y-134100000D01*
X189300000Y-143430127D02*
X185800000Y-139930127D01*
X185800000Y-139600000D02*
X185831250Y-139568750D01*
D39*
X169662500Y-131375000D02*
X169700000Y-131337500D01*
D41*
X181771400Y-136177934D02*
X182793466Y-137200000D01*
X185831250Y-139568750D02*
X185831250Y-137200000D01*
X180973318Y-135726287D02*
X177626287Y-135726287D01*
X181771400Y-134928205D02*
X180973318Y-135726287D01*
X181771400Y-134928205D02*
X181771400Y-136177934D01*
D39*
X173262500Y-131362500D02*
X176000000Y-134100000D01*
X169500000Y-131362500D02*
X173262500Y-131362500D01*
D41*
X182793466Y-137200000D02*
X185831250Y-137200000D01*
D40*
X177626287Y-140023713D02*
X177626287Y-135726287D01*
D41*
X185831250Y-137200000D02*
X185831250Y-136293692D01*
D39*
X159880000Y-131375000D02*
X169487500Y-131375000D01*
X169487500Y-131375000D02*
X169500000Y-131362500D01*
D40*
X147650000Y-149800000D02*
X144737500Y-149800000D01*
X169060000Y-99620000D02*
X170520000Y-101080000D01*
X169060000Y-95185000D02*
X169060000Y-99620000D01*
X171020000Y-100580000D02*
X170520000Y-101080000D01*
X160660000Y-98000000D02*
X157860000Y-95200000D01*
X164900000Y-98000000D02*
X160660000Y-98000000D01*
X167980000Y-101080000D02*
X164900000Y-98000000D01*
X172520000Y-101620000D02*
X179315000Y-101620000D01*
X165440000Y-108700000D02*
X172520000Y-101620000D01*
X142665000Y-106900000D02*
X142665000Y-105276667D01*
X142665000Y-105276667D02*
X144550000Y-103391667D01*
X140125000Y-104158333D02*
X144550000Y-99733333D01*
X140125000Y-106900000D02*
X140125000Y-104158333D01*
X140125000Y-117241667D02*
X144550000Y-121666667D01*
X140125000Y-114520000D02*
X140125000Y-117241667D01*
X142665000Y-116123333D02*
X144550000Y-118008333D01*
X142665000Y-114520000D02*
X142665000Y-116123333D01*
D39*
X155580000Y-132675000D02*
X155580000Y-135880000D01*
X155580000Y-135880000D02*
X155600000Y-135900000D01*
X159900000Y-132695000D02*
X159880000Y-132675000D01*
X159900000Y-135900000D02*
X159900000Y-132695000D01*
D40*
X164500000Y-110300000D02*
X162900000Y-108700000D01*
X177372611Y-106700000D02*
X173772611Y-110300000D01*
X177372611Y-106700000D02*
X179315000Y-106700000D01*
X173772611Y-110300000D02*
X164500000Y-110300000D01*
X172520000Y-104160000D02*
X167980000Y-108700000D01*
X172520000Y-104160000D02*
X179315000Y-104160000D01*
X150925000Y-132025000D02*
X150900000Y-132000000D01*
X155580000Y-132025000D02*
X150925000Y-132025000D01*
X142945000Y-111700000D02*
X147465000Y-111700000D01*
X142945000Y-111700000D02*
X147745000Y-106900000D01*
X131700000Y-111700000D02*
X142945000Y-111700000D01*
X150285000Y-117231667D02*
X145850000Y-121666667D01*
X147465000Y-111700000D02*
X150285000Y-114520000D01*
X147745000Y-106900000D02*
X147745000Y-105286667D01*
X147745000Y-105286667D02*
X145850000Y-103391667D01*
X150285000Y-114520000D02*
X150285000Y-117231667D01*
X135562500Y-142700000D02*
X132000000Y-142700000D01*
X139700000Y-149800000D02*
X142862500Y-149800000D01*
X130764466Y-95300000D02*
X129000000Y-97064466D01*
X129000000Y-97064466D02*
X129000000Y-99100000D01*
X138500000Y-90400000D02*
X135664466Y-90400000D01*
X135664466Y-90400000D02*
X134300000Y-91764466D01*
X121600000Y-122200000D02*
X127550000Y-122200000D01*
X121600000Y-117200000D02*
X127550000Y-117200000D01*
X174150000Y-140200000D02*
X171947500Y-140200000D01*
X170150000Y-140200000D02*
X170000000Y-140200000D01*
X170072500Y-140200000D02*
X167700000Y-140200000D01*
X170000000Y-140200000D02*
X169800000Y-140400000D01*
G04 #@! TA.AperFunction,Conductor*
G36*
X160625514Y-80305459D02*
G01*
X161868191Y-80344510D01*
X161872042Y-80344693D01*
X163112855Y-80422758D01*
X163116676Y-80423058D01*
X164354487Y-80540066D01*
X164358332Y-80540491D01*
X165591777Y-80696312D01*
X165595634Y-80696861D01*
X166823554Y-80891344D01*
X166827395Y-80892013D01*
X168048668Y-81124984D01*
X168052424Y-81125762D01*
X169265832Y-81396990D01*
X169269515Y-81397875D01*
X170473747Y-81707070D01*
X170477502Y-81708097D01*
X171671403Y-82054957D01*
X171675067Y-82056084D01*
X172857559Y-82440299D01*
X172861140Y-82441525D01*
X174030976Y-82862692D01*
X174034575Y-82864052D01*
X175190545Y-83321733D01*
X175194073Y-83323193D01*
X176230482Y-83771688D01*
X176335116Y-83816968D01*
X176338667Y-83818571D01*
X177463643Y-84347943D01*
X177467077Y-84349626D01*
X178574867Y-84914073D01*
X178578286Y-84915884D01*
X179667762Y-85514829D01*
X179671121Y-85516745D01*
X180687795Y-86118004D01*
X180741238Y-86149610D01*
X180744552Y-86151640D01*
X181763129Y-86798049D01*
X181794305Y-86817834D01*
X181797560Y-86819973D01*
X182825812Y-87518772D01*
X182828999Y-87521012D01*
X183169406Y-87768332D01*
X183834847Y-88251803D01*
X183837861Y-88254065D01*
X184820290Y-89016115D01*
X184823294Y-89018522D01*
X185781287Y-89811042D01*
X185784207Y-89813536D01*
X186547233Y-90486234D01*
X186716807Y-90635734D01*
X186719688Y-90638356D01*
X187625978Y-91489419D01*
X187628775Y-91492130D01*
X188507869Y-92371224D01*
X188510580Y-92374021D01*
X189361643Y-93280311D01*
X189364265Y-93283192D01*
X190146000Y-94169896D01*
X190186445Y-94215771D01*
X190188962Y-94218718D01*
X190734362Y-94877993D01*
X190981475Y-95176702D01*
X190983890Y-95179717D01*
X191745926Y-96162128D01*
X191748204Y-96165163D01*
X192017269Y-96535499D01*
X192478987Y-97171000D01*
X192481227Y-97174187D01*
X193180026Y-98202439D01*
X193182165Y-98205694D01*
X193848354Y-99255439D01*
X193850389Y-99258761D01*
X194158353Y-99779500D01*
X194481674Y-100326206D01*
X194483240Y-100328853D01*
X194485170Y-100332237D01*
X195084115Y-101421713D01*
X195085938Y-101425155D01*
X195642710Y-102517883D01*
X195650357Y-102532890D01*
X195652068Y-102536382D01*
X195706127Y-102651263D01*
X196181428Y-103661332D01*
X196183031Y-103664883D01*
X196534137Y-104476239D01*
X196670263Y-104790807D01*
X196676791Y-104805891D01*
X196678279Y-104809486D01*
X196709339Y-104887934D01*
X197135938Y-105965402D01*
X197137315Y-105969045D01*
X197225555Y-106214140D01*
X197488449Y-106944356D01*
X197558456Y-107138806D01*
X197559713Y-107142477D01*
X197728608Y-107662284D01*
X197943906Y-108324903D01*
X197945051Y-108328626D01*
X198291901Y-109522495D01*
X198292929Y-109526252D01*
X198548509Y-110521666D01*
X198592157Y-110691665D01*
X198602111Y-110730431D01*
X198603021Y-110734219D01*
X198874231Y-111947546D01*
X198875021Y-111951361D01*
X199107986Y-113172608D01*
X199108655Y-113176445D01*
X199303138Y-114404365D01*
X199303687Y-114408222D01*
X199459506Y-115641653D01*
X199459934Y-115645525D01*
X199576938Y-116883292D01*
X199577243Y-116887175D01*
X199655305Y-118127936D01*
X199655489Y-118131827D01*
X199694541Y-119374485D01*
X199694602Y-119378380D01*
X199694602Y-120621619D01*
X199694541Y-120625514D01*
X199655489Y-121868172D01*
X199655305Y-121872063D01*
X199577243Y-123112824D01*
X199576938Y-123116707D01*
X199459934Y-124354474D01*
X199459506Y-124358346D01*
X199303687Y-125591777D01*
X199303138Y-125595634D01*
X199108655Y-126823554D01*
X199107986Y-126827391D01*
X198875021Y-128048638D01*
X198874231Y-128052453D01*
X198603021Y-129265780D01*
X198602111Y-129269568D01*
X198292929Y-130473747D01*
X198291901Y-130477504D01*
X197945051Y-131671373D01*
X197943906Y-131675096D01*
X197559718Y-132857507D01*
X197558456Y-132861193D01*
X197137315Y-134030954D01*
X197135938Y-134034597D01*
X196678281Y-135190509D01*
X196676791Y-135194108D01*
X196183031Y-136335116D01*
X196181428Y-136338667D01*
X195652071Y-137463611D01*
X195650357Y-137467109D01*
X195085938Y-138574844D01*
X195084115Y-138578286D01*
X194485170Y-139667762D01*
X194483240Y-139671146D01*
X193850389Y-140741238D01*
X193848354Y-140744560D01*
X193182165Y-141794305D01*
X193180026Y-141797560D01*
X192481227Y-142825812D01*
X192478987Y-142828999D01*
X191748223Y-143834811D01*
X191745903Y-143837901D01*
X191348669Y-144350013D01*
X190983910Y-144820257D01*
X190981475Y-144823297D01*
X190188975Y-145781266D01*
X190186445Y-145784228D01*
X189364265Y-146716807D01*
X189361643Y-146719688D01*
X188510580Y-147625978D01*
X188507869Y-147628775D01*
X187628775Y-148507869D01*
X187625978Y-148510580D01*
X186719688Y-149361643D01*
X186716807Y-149364265D01*
X185784228Y-150186445D01*
X185781266Y-150188975D01*
X184823297Y-150981475D01*
X184820257Y-150983910D01*
X184796350Y-151002454D01*
X183837901Y-151745903D01*
X183834811Y-151748223D01*
X182828999Y-152478987D01*
X182825812Y-152481227D01*
X181797560Y-153180026D01*
X181794305Y-153182165D01*
X180744560Y-153848354D01*
X180741238Y-153850389D01*
X179671146Y-154483240D01*
X179667762Y-154485170D01*
X178578286Y-155084115D01*
X178574844Y-155085938D01*
X177467109Y-155650357D01*
X177463611Y-155652071D01*
X176338667Y-156181428D01*
X176335116Y-156183031D01*
X175194108Y-156676791D01*
X175190509Y-156678281D01*
X174034597Y-157135938D01*
X174030954Y-157137315D01*
X172861193Y-157558456D01*
X172857507Y-157559718D01*
X171675096Y-157943906D01*
X171671373Y-157945051D01*
X170477504Y-158291901D01*
X170473747Y-158292929D01*
X169269568Y-158602111D01*
X169265780Y-158603021D01*
X168052453Y-158874231D01*
X168048638Y-158875021D01*
X166827391Y-159107986D01*
X166823554Y-159108655D01*
X165595634Y-159303138D01*
X165591777Y-159303687D01*
X164358346Y-159459506D01*
X164354474Y-159459934D01*
X163116707Y-159576938D01*
X163112824Y-159577243D01*
X161872063Y-159655305D01*
X161868172Y-159655489D01*
X160625514Y-159694541D01*
X160621619Y-159694602D01*
X159378381Y-159694602D01*
X159374486Y-159694541D01*
X158131827Y-159655489D01*
X158127936Y-159655305D01*
X156887175Y-159577243D01*
X156883292Y-159576938D01*
X155645525Y-159459934D01*
X155641653Y-159459506D01*
X154408222Y-159303687D01*
X154404365Y-159303138D01*
X153176445Y-159108655D01*
X153172608Y-159107986D01*
X151951361Y-158875021D01*
X151947546Y-158874231D01*
X150734219Y-158603021D01*
X150730431Y-158602111D01*
X149526252Y-158292929D01*
X149522495Y-158291901D01*
X148328626Y-157945051D01*
X148324903Y-157943906D01*
X147839696Y-157786253D01*
X147142477Y-157559713D01*
X147138821Y-157558461D01*
X146508823Y-157331647D01*
X145969045Y-157137315D01*
X145965402Y-157135938D01*
X144809490Y-156678281D01*
X144805891Y-156676791D01*
X143664883Y-156183031D01*
X143661332Y-156181428D01*
X142536388Y-155652071D01*
X142532890Y-155650357D01*
X141425155Y-155085938D01*
X141421713Y-155084115D01*
X140332237Y-154485170D01*
X140328853Y-154483240D01*
X139258761Y-153850389D01*
X139255439Y-153848354D01*
X138205694Y-153182165D01*
X138202439Y-153180026D01*
X137174187Y-152481227D01*
X137171000Y-152478987D01*
X136360468Y-151890102D01*
X136165163Y-151748204D01*
X136162128Y-151745926D01*
X135179717Y-150983890D01*
X135176702Y-150981475D01*
X134954973Y-150798045D01*
X134352923Y-150299986D01*
X136600001Y-150299986D01*
X136610494Y-150402697D01*
X136665641Y-150569119D01*
X136665643Y-150569124D01*
X136757684Y-150718345D01*
X136881654Y-150842315D01*
X137030875Y-150934356D01*
X137030880Y-150934358D01*
X137197302Y-150989505D01*
X137197309Y-150989506D01*
X137300019Y-150999999D01*
X137449999Y-150999999D01*
X137450000Y-150999998D01*
X137450000Y-150050000D01*
X136600001Y-150050000D01*
X136600001Y-150299986D01*
X134352923Y-150299986D01*
X134218718Y-150188962D01*
X134215787Y-150186459D01*
X133312243Y-149389877D01*
X133312242Y-149389875D01*
X133283192Y-149364264D01*
X133280311Y-149361643D01*
X133214682Y-149300013D01*
X136600000Y-149300013D01*
X136600000Y-149550000D01*
X137450000Y-149550000D01*
X137450000Y-148600000D01*
X137950000Y-148600000D01*
X137950000Y-150999999D01*
X138099972Y-150999999D01*
X138099986Y-150999998D01*
X138202697Y-150989505D01*
X138369119Y-150934358D01*
X138369124Y-150934356D01*
X138518342Y-150842317D01*
X138611964Y-150748695D01*
X138673287Y-150715210D01*
X138742979Y-150720194D01*
X138787327Y-150748695D01*
X138881344Y-150842712D01*
X139030666Y-150934814D01*
X139197203Y-150989999D01*
X139299991Y-151000500D01*
X140100008Y-151000499D01*
X140100016Y-151000498D01*
X140100019Y-151000498D01*
X140156302Y-150994748D01*
X140202797Y-150989999D01*
X140369334Y-150934814D01*
X140518656Y-150842712D01*
X140642712Y-150718656D01*
X140734814Y-150569334D01*
X140754311Y-150510493D01*
X140794084Y-150453051D01*
X140858600Y-150426228D01*
X140872017Y-150425500D01*
X141801245Y-150425500D01*
X141868284Y-150445185D01*
X141914039Y-150497989D01*
X141918951Y-150510496D01*
X141939638Y-150572925D01*
X141939639Y-150572928D01*
X142030971Y-150720999D01*
X142030974Y-150721003D01*
X142153996Y-150844025D01*
X142154000Y-150844028D01*
X142302066Y-150935357D01*
X142302069Y-150935358D01*
X142302075Y-150935362D01*
X142467225Y-150990087D01*
X142569152Y-151000500D01*
X142569157Y-151000500D01*
X143155843Y-151000500D01*
X143155848Y-151000500D01*
X143257775Y-150990087D01*
X143422925Y-150935362D01*
X143571003Y-150844026D01*
X143694026Y-150721003D01*
X143694458Y-150720301D01*
X143694881Y-150719921D01*
X143698507Y-150715336D01*
X143699290Y-150715955D01*
X143746402Y-150673575D01*
X143815364Y-150662349D01*
X143879448Y-150690188D01*
X143901342Y-150715455D01*
X143901493Y-150715336D01*
X143904143Y-150718687D01*
X143905540Y-150720299D01*
X143905972Y-150720999D01*
X143905975Y-150721004D01*
X144028996Y-150844025D01*
X144029000Y-150844028D01*
X144177066Y-150935357D01*
X144177069Y-150935358D01*
X144177075Y-150935362D01*
X144342225Y-150990087D01*
X144444152Y-151000500D01*
X144444157Y-151000500D01*
X145030843Y-151000500D01*
X145030848Y-151000500D01*
X145132775Y-150990087D01*
X145297925Y-150935362D01*
X145446003Y-150844026D01*
X145569026Y-150721003D01*
X145660362Y-150572925D01*
X145681049Y-150510495D01*
X145720822Y-150453051D01*
X145785338Y-150426228D01*
X145798755Y-150425500D01*
X146657894Y-150425500D01*
X146724933Y-150445185D01*
X146763432Y-150484403D01*
X146852029Y-150628040D01*
X146852032Y-150628044D01*
X146971955Y-150747967D01*
X146971959Y-150747970D01*
X147116294Y-150836998D01*
X147116297Y-150836999D01*
X147116303Y-150837003D01*
X147277292Y-150890349D01*
X147376655Y-150900500D01*
X147923344Y-150900499D01*
X147923352Y-150900498D01*
X147923355Y-150900498D01*
X147977760Y-150894940D01*
X148022708Y-150890349D01*
X148183697Y-150837003D01*
X148328044Y-150747968D01*
X148447968Y-150628044D01*
X148537003Y-150483697D01*
X148590349Y-150322708D01*
X148600500Y-150223345D01*
X148600499Y-149376656D01*
X148598965Y-149361643D01*
X148590349Y-149277292D01*
X148590348Y-149277289D01*
X148537003Y-149116303D01*
X148536999Y-149116297D01*
X148536998Y-149116294D01*
X148447970Y-148971959D01*
X148447967Y-148971955D01*
X148328044Y-148852032D01*
X148328040Y-148852029D01*
X148183705Y-148763001D01*
X148183699Y-148762998D01*
X148183697Y-148762997D01*
X148077980Y-148727966D01*
X148022709Y-148709651D01*
X147923346Y-148699500D01*
X147376662Y-148699500D01*
X147376644Y-148699501D01*
X147277292Y-148709650D01*
X147277289Y-148709651D01*
X147116305Y-148762996D01*
X147116294Y-148763001D01*
X146971959Y-148852029D01*
X146971955Y-148852032D01*
X146852032Y-148971955D01*
X146852029Y-148971959D01*
X146763432Y-149115597D01*
X146711484Y-149162322D01*
X146657894Y-149174500D01*
X145798755Y-149174500D01*
X145731716Y-149154815D01*
X145685961Y-149102011D01*
X145681049Y-149089504D01*
X145676573Y-149075996D01*
X145660362Y-149027075D01*
X145626363Y-148971955D01*
X145569028Y-148879000D01*
X145569025Y-148878996D01*
X145446003Y-148755974D01*
X145445999Y-148755971D01*
X145297933Y-148664642D01*
X145297927Y-148664639D01*
X145297925Y-148664638D01*
X145206087Y-148634206D01*
X145132776Y-148609913D01*
X145030855Y-148599500D01*
X145030848Y-148599500D01*
X144444152Y-148599500D01*
X144444144Y-148599500D01*
X144342223Y-148609913D01*
X144177077Y-148664637D01*
X144177066Y-148664642D01*
X144029000Y-148755971D01*
X144028996Y-148755974D01*
X143905974Y-148878996D01*
X143905971Y-148879000D01*
X143905538Y-148879703D01*
X143905114Y-148880083D01*
X143901493Y-148884664D01*
X143900710Y-148884045D01*
X143853590Y-148926428D01*
X143784628Y-148937649D01*
X143720546Y-148909806D01*
X143698657Y-148884544D01*
X143698507Y-148884664D01*
X143695859Y-148881315D01*
X143694462Y-148879703D01*
X143694028Y-148879000D01*
X143694025Y-148878996D01*
X143571003Y-148755974D01*
X143570999Y-148755971D01*
X143422933Y-148664642D01*
X143422927Y-148664639D01*
X143422925Y-148664638D01*
X143331087Y-148634206D01*
X143257776Y-148609913D01*
X143155855Y-148599500D01*
X143155848Y-148599500D01*
X142569152Y-148599500D01*
X142569144Y-148599500D01*
X142467223Y-148609913D01*
X142302077Y-148664637D01*
X142302066Y-148664642D01*
X142154000Y-148755971D01*
X142153996Y-148755974D01*
X142030974Y-148878996D01*
X142030971Y-148879000D01*
X141939639Y-149027071D01*
X141939638Y-149027074D01*
X141918951Y-149089504D01*
X141879178Y-149146949D01*
X141814662Y-149173772D01*
X141801245Y-149174500D01*
X140872017Y-149174500D01*
X140804978Y-149154815D01*
X140759223Y-149102011D01*
X140754311Y-149089505D01*
X140754311Y-149089504D01*
X140734814Y-149030666D01*
X140642712Y-148881344D01*
X140518656Y-148757288D01*
X140424966Y-148699500D01*
X140369336Y-148665187D01*
X140369331Y-148665185D01*
X140367677Y-148664637D01*
X140202797Y-148610001D01*
X140202795Y-148610000D01*
X140100010Y-148599500D01*
X139299998Y-148599500D01*
X139299980Y-148599501D01*
X139197203Y-148610000D01*
X139197200Y-148610001D01*
X139030668Y-148665185D01*
X139030663Y-148665187D01*
X138881345Y-148757287D01*
X138787327Y-148851305D01*
X138726003Y-148884789D01*
X138656312Y-148879805D01*
X138611965Y-148851304D01*
X138518345Y-148757684D01*
X138369124Y-148665643D01*
X138369119Y-148665641D01*
X138202697Y-148610494D01*
X138202690Y-148610493D01*
X138099986Y-148600000D01*
X137950000Y-148600000D01*
X137450000Y-148600000D01*
X137300027Y-148600000D01*
X137300012Y-148600001D01*
X137197302Y-148610494D01*
X137030880Y-148665641D01*
X137030875Y-148665643D01*
X136881654Y-148757684D01*
X136757684Y-148881654D01*
X136665643Y-149030875D01*
X136665641Y-149030880D01*
X136610494Y-149197302D01*
X136610493Y-149197309D01*
X136600000Y-149300013D01*
X133214682Y-149300013D01*
X132374021Y-148510580D01*
X132371224Y-148507869D01*
X131492130Y-147628775D01*
X131489419Y-147625978D01*
X130638356Y-146719688D01*
X130635734Y-146716807D01*
X129813536Y-145784207D01*
X129811042Y-145781287D01*
X129268103Y-145124986D01*
X139775001Y-145124986D01*
X139785494Y-145227697D01*
X139840641Y-145394119D01*
X139840643Y-145394124D01*
X139932684Y-145543345D01*
X140056654Y-145667315D01*
X140205875Y-145759356D01*
X140205880Y-145759358D01*
X140372302Y-145814505D01*
X140372309Y-145814506D01*
X140475019Y-145824999D01*
X140749999Y-145824999D01*
X141250000Y-145824999D01*
X141524972Y-145824999D01*
X141524986Y-145824998D01*
X141627697Y-145814505D01*
X141794119Y-145759358D01*
X141794124Y-145759356D01*
X141943345Y-145667315D01*
X142067315Y-145543345D01*
X142159356Y-145394124D01*
X142159358Y-145394119D01*
X142182266Y-145324986D01*
X145775001Y-145324986D01*
X145785494Y-145427697D01*
X145840641Y-145594119D01*
X145840643Y-145594124D01*
X145932684Y-145743345D01*
X146056654Y-145867315D01*
X146205875Y-145959356D01*
X146205880Y-145959358D01*
X146372302Y-146014505D01*
X146372309Y-146014506D01*
X146475019Y-146024999D01*
X146612499Y-146024999D01*
X146612500Y-146024998D01*
X146612500Y-145050000D01*
X145775001Y-145050000D01*
X145775001Y-145324986D01*
X142182266Y-145324986D01*
X142214505Y-145227697D01*
X142214506Y-145227690D01*
X142224999Y-145124986D01*
X142225000Y-145124973D01*
X142225000Y-144987500D01*
X141250000Y-144987500D01*
X141250000Y-145824999D01*
X140749999Y-145824999D01*
X140750000Y-145824998D01*
X140750000Y-144987500D01*
X139775001Y-144987500D01*
X139775001Y-145124986D01*
X129268103Y-145124986D01*
X129177262Y-145015178D01*
X129018524Y-144823296D01*
X129016115Y-144820289D01*
X128254065Y-143837861D01*
X128251803Y-143834847D01*
X127797604Y-143209696D01*
X127790549Y-143199986D01*
X128900001Y-143199986D01*
X128910494Y-143302697D01*
X128965641Y-143469119D01*
X128965643Y-143469124D01*
X129057684Y-143618345D01*
X129181654Y-143742315D01*
X129330875Y-143834356D01*
X129330880Y-143834358D01*
X129497302Y-143889505D01*
X129497309Y-143889506D01*
X129600019Y-143899999D01*
X129749999Y-143899999D01*
X129750000Y-143899998D01*
X129750000Y-142950000D01*
X128900001Y-142950000D01*
X128900001Y-143199986D01*
X127790549Y-143199986D01*
X127624562Y-142971523D01*
X127521012Y-142828999D01*
X127518772Y-142825812D01*
X127138706Y-142266562D01*
X127093479Y-142200013D01*
X128900000Y-142200013D01*
X128900000Y-142450000D01*
X129750000Y-142450000D01*
X129750000Y-141500000D01*
X129600027Y-141500000D01*
X129600012Y-141500001D01*
X129497302Y-141510494D01*
X129330880Y-141565641D01*
X129330875Y-141565643D01*
X129181654Y-141657684D01*
X129057684Y-141781654D01*
X128965643Y-141930875D01*
X128965641Y-141930880D01*
X128910494Y-142097302D01*
X128910493Y-142097309D01*
X128900000Y-142200013D01*
X127093479Y-142200013D01*
X127093464Y-142199991D01*
X126819971Y-141797557D01*
X126817834Y-141794305D01*
X126811716Y-141784664D01*
X126151640Y-140744552D01*
X126149610Y-140741238D01*
X126138652Y-140722709D01*
X125516745Y-139671121D01*
X125514829Y-139667762D01*
X124915884Y-138578286D01*
X124914061Y-138574844D01*
X124911144Y-138569119D01*
X124349626Y-137467077D01*
X124347932Y-137463618D01*
X124283078Y-137325796D01*
X124097173Y-136930726D01*
X124074242Y-136881995D01*
X126199500Y-136881995D01*
X126199500Y-137118004D01*
X126199501Y-137118020D01*
X126230306Y-137352010D01*
X126291394Y-137579993D01*
X126381714Y-137798045D01*
X126381719Y-137798056D01*
X126420419Y-137865085D01*
X126499727Y-138002450D01*
X126499729Y-138002453D01*
X126499730Y-138002454D01*
X126643406Y-138189697D01*
X126643412Y-138189704D01*
X126810295Y-138356587D01*
X126810302Y-138356593D01*
X126870519Y-138402799D01*
X126997550Y-138500273D01*
X127117162Y-138569331D01*
X127201943Y-138618280D01*
X127201948Y-138618282D01*
X127201951Y-138618284D01*
X127420007Y-138708606D01*
X127647986Y-138769693D01*
X127881989Y-138800500D01*
X127881996Y-138800500D01*
X128118004Y-138800500D01*
X128118011Y-138800500D01*
X128352014Y-138769693D01*
X128579993Y-138708606D01*
X128798049Y-138618284D01*
X129002450Y-138500273D01*
X129189699Y-138356592D01*
X129356592Y-138189699D01*
X129500273Y-138002450D01*
X129618284Y-137798049D01*
X129708606Y-137579993D01*
X129769693Y-137352014D01*
X129800500Y-137118011D01*
X129800500Y-136881989D01*
X129769693Y-136647986D01*
X129708606Y-136420007D01*
X129618284Y-136201951D01*
X129618282Y-136201948D01*
X129618280Y-136201943D01*
X129565659Y-136110802D01*
X129500273Y-135997550D01*
X129356592Y-135810301D01*
X129356587Y-135810295D01*
X129189704Y-135643412D01*
X129189697Y-135643406D01*
X129002454Y-135499730D01*
X129002453Y-135499729D01*
X129002450Y-135499727D01*
X128907688Y-135445016D01*
X128798056Y-135381719D01*
X128798045Y-135381714D01*
X128579993Y-135291394D01*
X128353354Y-135230666D01*
X128352014Y-135230307D01*
X128352013Y-135230306D01*
X128352010Y-135230306D01*
X128118020Y-135199501D01*
X128118017Y-135199500D01*
X128118011Y-135199500D01*
X127881989Y-135199500D01*
X127881983Y-135199500D01*
X127881979Y-135199501D01*
X127647989Y-135230306D01*
X127420006Y-135291394D01*
X127201954Y-135381714D01*
X127201943Y-135381719D01*
X126997545Y-135499730D01*
X126810302Y-135643406D01*
X126810295Y-135643412D01*
X126643412Y-135810295D01*
X126643406Y-135810302D01*
X126499730Y-135997545D01*
X126499727Y-135997549D01*
X126499727Y-135997550D01*
X126497984Y-136000569D01*
X126381719Y-136201943D01*
X126381714Y-136201954D01*
X126291394Y-136420006D01*
X126230306Y-136647989D01*
X126199501Y-136881979D01*
X126199500Y-136881995D01*
X124074242Y-136881995D01*
X123818571Y-136338667D01*
X123816968Y-136335116D01*
X123700627Y-136066269D01*
X123323193Y-135194073D01*
X123321733Y-135190545D01*
X122864052Y-134034575D01*
X122862684Y-134030954D01*
X122851720Y-134000500D01*
X122441525Y-132861140D01*
X122440299Y-132857559D01*
X122056084Y-131675067D01*
X122054957Y-131671403D01*
X121708097Y-130477502D01*
X121707070Y-130473747D01*
X121696425Y-130432288D01*
X121397875Y-129269515D01*
X121396990Y-129265832D01*
X121125762Y-128052424D01*
X121124984Y-128048668D01*
X120892013Y-126827391D01*
X120891344Y-126823554D01*
X120710079Y-125679091D01*
X120696860Y-125595631D01*
X120696312Y-125591777D01*
X120540491Y-124358332D01*
X120540065Y-124354474D01*
X120536199Y-124313581D01*
X120430386Y-123194192D01*
X120443675Y-123125599D01*
X120491938Y-123075078D01*
X120559854Y-123058670D01*
X120625859Y-123081585D01*
X120641517Y-123094843D01*
X120746267Y-123199593D01*
X120913148Y-123320840D01*
X120940570Y-123334812D01*
X121096945Y-123414489D01*
X121293120Y-123478230D01*
X121293121Y-123478230D01*
X121293124Y-123478231D01*
X121496861Y-123510500D01*
X121496862Y-123510500D01*
X121703138Y-123510500D01*
X121703139Y-123510500D01*
X121906876Y-123478231D01*
X121906879Y-123478230D01*
X121906880Y-123478230D01*
X122103054Y-123414489D01*
X122103054Y-123414488D01*
X122103057Y-123414488D01*
X122286852Y-123320840D01*
X122453733Y-123199593D01*
X122599593Y-123053733D01*
X122720840Y-122886852D01*
X122720842Y-122886847D01*
X122722151Y-122884713D01*
X122722860Y-122884071D01*
X122723704Y-122882910D01*
X122723947Y-122883087D01*
X122773962Y-122837836D01*
X122827880Y-122825500D01*
X126377983Y-122825500D01*
X126445022Y-122845185D01*
X126490777Y-122897989D01*
X126495686Y-122910489D01*
X126515185Y-122969331D01*
X126515186Y-122969333D01*
X126515187Y-122969336D01*
X126525269Y-122985682D01*
X126607288Y-123118656D01*
X126731344Y-123242712D01*
X126880666Y-123334814D01*
X127047203Y-123389999D01*
X127149991Y-123400500D01*
X127950008Y-123400499D01*
X127950016Y-123400498D01*
X127950019Y-123400498D01*
X128006302Y-123394748D01*
X128052797Y-123389999D01*
X128219334Y-123334814D01*
X128368656Y-123242712D01*
X128462319Y-123149049D01*
X128523642Y-123115564D01*
X128593334Y-123120548D01*
X128637681Y-123149049D01*
X128731344Y-123242712D01*
X128865597Y-123325519D01*
X128912321Y-123377465D01*
X128924500Y-123431057D01*
X128924500Y-131738393D01*
X128924500Y-131738394D01*
X128924500Y-132211606D01*
X128942472Y-132301958D01*
X128948538Y-132332455D01*
X128954438Y-132346699D01*
X128957592Y-132354312D01*
X128995688Y-132446286D01*
X129011983Y-132470672D01*
X129016925Y-132478068D01*
X129064140Y-132548731D01*
X129064141Y-132548732D01*
X129064142Y-132548733D01*
X129151267Y-132635858D01*
X129151268Y-132635858D01*
X129158335Y-132642925D01*
X129158334Y-132642925D01*
X129158338Y-132642928D01*
X137803227Y-141287819D01*
X137836712Y-141349142D01*
X137831728Y-141418834D01*
X137789856Y-141474767D01*
X137724392Y-141499184D01*
X137715546Y-141499500D01*
X137144144Y-141499500D01*
X137042223Y-141509913D01*
X136877077Y-141564637D01*
X136877066Y-141564642D01*
X136729000Y-141655971D01*
X136728996Y-141655974D01*
X136605974Y-141778996D01*
X136605971Y-141779000D01*
X136605538Y-141779703D01*
X136605114Y-141780083D01*
X136601493Y-141784664D01*
X136600710Y-141784045D01*
X136553590Y-141826428D01*
X136484628Y-141837649D01*
X136420546Y-141809806D01*
X136398657Y-141784544D01*
X136398507Y-141784664D01*
X136395859Y-141781315D01*
X136394462Y-141779703D01*
X136394028Y-141779000D01*
X136394025Y-141778996D01*
X136271003Y-141655974D01*
X136270999Y-141655971D01*
X136122933Y-141564642D01*
X136122927Y-141564639D01*
X136122925Y-141564638D01*
X136114418Y-141561819D01*
X135957776Y-141509913D01*
X135855855Y-141499500D01*
X135855848Y-141499500D01*
X135269152Y-141499500D01*
X135269144Y-141499500D01*
X135167223Y-141509913D01*
X135002077Y-141564637D01*
X135002066Y-141564642D01*
X134854000Y-141655971D01*
X134853996Y-141655974D01*
X134730974Y-141778996D01*
X134730971Y-141779000D01*
X134639639Y-141927071D01*
X134639638Y-141927074D01*
X134618951Y-141989504D01*
X134579178Y-142046949D01*
X134514662Y-142073772D01*
X134501245Y-142074500D01*
X133172017Y-142074500D01*
X133104978Y-142054815D01*
X133059223Y-142002011D01*
X133054311Y-141989505D01*
X133054270Y-141989380D01*
X133034814Y-141930666D01*
X132942712Y-141781344D01*
X132818656Y-141657288D01*
X132707033Y-141588439D01*
X132669336Y-141565187D01*
X132669331Y-141565185D01*
X132656753Y-141561017D01*
X132502797Y-141510001D01*
X132502795Y-141510000D01*
X132400010Y-141499500D01*
X131599998Y-141499500D01*
X131599980Y-141499501D01*
X131497203Y-141510000D01*
X131497200Y-141510001D01*
X131330668Y-141565185D01*
X131330663Y-141565187D01*
X131181345Y-141657287D01*
X131087327Y-141751305D01*
X131026003Y-141784789D01*
X130956312Y-141779805D01*
X130911965Y-141751304D01*
X130818345Y-141657684D01*
X130669124Y-141565643D01*
X130669119Y-141565641D01*
X130502697Y-141510494D01*
X130502690Y-141510493D01*
X130399986Y-141500000D01*
X130250000Y-141500000D01*
X130250000Y-143899999D01*
X130399972Y-143899999D01*
X130399986Y-143899998D01*
X130502697Y-143889505D01*
X130669119Y-143834358D01*
X130669124Y-143834356D01*
X130818342Y-143742317D01*
X130911964Y-143648695D01*
X130973287Y-143615210D01*
X131042979Y-143620194D01*
X131087327Y-143648695D01*
X131181344Y-143742712D01*
X131330666Y-143834814D01*
X131497203Y-143889999D01*
X131599991Y-143900500D01*
X132400008Y-143900499D01*
X132400016Y-143900498D01*
X132400019Y-143900498D01*
X132456302Y-143894748D01*
X132502797Y-143889999D01*
X132669334Y-143834814D01*
X132818656Y-143742712D01*
X132942712Y-143618656D01*
X133034814Y-143469334D01*
X133054311Y-143410493D01*
X133094084Y-143353051D01*
X133158600Y-143326228D01*
X133172017Y-143325500D01*
X134501245Y-143325500D01*
X134568284Y-143345185D01*
X134614039Y-143397989D01*
X134618951Y-143410496D01*
X134639638Y-143472925D01*
X134639639Y-143472928D01*
X134730971Y-143620999D01*
X134730974Y-143621003D01*
X134853996Y-143744025D01*
X134854000Y-143744028D01*
X135002066Y-143835357D01*
X135002069Y-143835358D01*
X135002075Y-143835362D01*
X135167225Y-143890087D01*
X135269152Y-143900500D01*
X135269157Y-143900500D01*
X135855843Y-143900500D01*
X135855848Y-143900500D01*
X135957775Y-143890087D01*
X136122925Y-143835362D01*
X136271003Y-143744026D01*
X136394026Y-143621003D01*
X136394458Y-143620301D01*
X136394881Y-143619921D01*
X136398507Y-143615336D01*
X136399290Y-143615955D01*
X136446402Y-143573575D01*
X136515364Y-143562349D01*
X136579448Y-143590188D01*
X136601342Y-143615455D01*
X136601493Y-143615336D01*
X136604143Y-143618687D01*
X136605540Y-143620299D01*
X136605871Y-143620836D01*
X136605975Y-143621004D01*
X136728996Y-143744025D01*
X136729000Y-143744028D01*
X136877066Y-143835357D01*
X136877069Y-143835358D01*
X136877075Y-143835362D01*
X137042225Y-143890087D01*
X137144152Y-143900500D01*
X137144157Y-143900500D01*
X137730843Y-143900500D01*
X137730848Y-143900500D01*
X137832775Y-143890087D01*
X137997925Y-143835362D01*
X138146003Y-143744026D01*
X138269026Y-143621003D01*
X138360362Y-143472925D01*
X138381049Y-143410495D01*
X138420822Y-143353051D01*
X138485338Y-143326228D01*
X138498755Y-143325500D01*
X139774782Y-143325500D01*
X139841821Y-143345185D01*
X139880319Y-143384401D01*
X139932288Y-143468656D01*
X140056344Y-143592712D01*
X140059628Y-143594737D01*
X140059653Y-143594753D01*
X140061445Y-143596746D01*
X140062011Y-143597193D01*
X140061934Y-143597289D01*
X140106379Y-143646699D01*
X140117603Y-143715661D01*
X140089761Y-143779744D01*
X140059665Y-143805826D01*
X140056660Y-143807679D01*
X140056655Y-143807683D01*
X139932684Y-143931654D01*
X139840643Y-144080875D01*
X139840641Y-144080880D01*
X139785494Y-144247302D01*
X139785493Y-144247309D01*
X139775000Y-144350013D01*
X139775000Y-144487500D01*
X142224999Y-144487500D01*
X142224999Y-144350028D01*
X142224998Y-144350013D01*
X142218302Y-144284466D01*
X142218302Y-144284465D01*
X142217336Y-144275013D01*
X145775000Y-144275013D01*
X145775000Y-144550000D01*
X146612500Y-144550000D01*
X146612500Y-143575000D01*
X146475027Y-143575000D01*
X146475012Y-143575001D01*
X146372302Y-143585494D01*
X146205880Y-143640641D01*
X146205875Y-143640643D01*
X146056654Y-143732684D01*
X145932684Y-143856654D01*
X145840643Y-144005875D01*
X145840641Y-144005880D01*
X145785494Y-144172302D01*
X145785493Y-144172309D01*
X145775000Y-144275013D01*
X142217336Y-144275013D01*
X142214505Y-144247303D01*
X142159358Y-144080880D01*
X142159356Y-144080875D01*
X142067315Y-143931654D01*
X141943344Y-143807683D01*
X141943341Y-143807681D01*
X141940339Y-143805829D01*
X141938713Y-143804021D01*
X141937677Y-143803202D01*
X141937817Y-143803024D01*
X141893617Y-143753880D01*
X141882397Y-143684917D01*
X141910243Y-143620836D01*
X141940344Y-143594754D01*
X141943656Y-143592712D01*
X142067712Y-143468656D01*
X142159814Y-143319334D01*
X142214999Y-143152797D01*
X142225500Y-143050009D01*
X142225499Y-142372951D01*
X142245183Y-142305913D01*
X142261813Y-142285276D01*
X142985272Y-141561819D01*
X143046595Y-141528334D01*
X143072953Y-141525500D01*
X143838273Y-141525500D01*
X143905312Y-141545185D01*
X143938590Y-141576613D01*
X144003379Y-141665787D01*
X144134213Y-141796621D01*
X144283904Y-141905378D01*
X144337224Y-141932546D01*
X144448764Y-141989379D01*
X144448767Y-141989380D01*
X144514403Y-142010706D01*
X144624736Y-142046555D01*
X144807486Y-142075500D01*
X144807487Y-142075500D01*
X144992513Y-142075500D01*
X144992514Y-142075500D01*
X145175264Y-142046555D01*
X145351235Y-141989379D01*
X145516096Y-141905378D01*
X145665787Y-141796621D01*
X145796621Y-141665787D01*
X145799982Y-141661159D01*
X145855305Y-141618489D01*
X145924917Y-141612501D01*
X145986716Y-141645098D01*
X146000625Y-141661148D01*
X146003752Y-141665452D01*
X146003758Y-141665459D01*
X146134540Y-141796241D01*
X146134545Y-141796245D01*
X146284162Y-141904947D01*
X146448956Y-141988915D01*
X146448959Y-141988916D01*
X146624845Y-142046064D01*
X146624858Y-142046067D01*
X146650000Y-142050049D01*
X146650000Y-141215686D01*
X146654394Y-141220080D01*
X146745606Y-141272741D01*
X146847339Y-141300000D01*
X146952661Y-141300000D01*
X147054394Y-141272741D01*
X147145606Y-141220080D01*
X147150000Y-141215686D01*
X147150000Y-142050048D01*
X147175141Y-142046067D01*
X147175154Y-142046064D01*
X147351040Y-141988916D01*
X147351043Y-141988915D01*
X147515838Y-141904947D01*
X147631306Y-141821054D01*
X147697112Y-141797573D01*
X147765166Y-141813398D01*
X147803458Y-141847059D01*
X147810409Y-141856344D01*
X147866044Y-141930663D01*
X147867455Y-141932547D01*
X147982664Y-142018793D01*
X147982671Y-142018797D01*
X148117517Y-142069091D01*
X148117516Y-142069091D01*
X148124444Y-142069835D01*
X148177127Y-142075500D01*
X149033480Y-142075499D01*
X149100519Y-142095183D01*
X149121161Y-142111818D01*
X149824695Y-142815351D01*
X149858180Y-142876674D01*
X149853196Y-142946365D01*
X149824695Y-142990713D01*
X149277227Y-143538181D01*
X149215904Y-143571666D01*
X149189546Y-143574500D01*
X148549998Y-143574500D01*
X148549980Y-143574501D01*
X148447203Y-143585000D01*
X148447200Y-143585001D01*
X148280668Y-143640185D01*
X148280663Y-143640187D01*
X148131342Y-143732289D01*
X148007288Y-143856343D01*
X148007283Y-143856349D01*
X148005241Y-143859661D01*
X148003247Y-143861453D01*
X148002807Y-143862011D01*
X148002711Y-143861935D01*
X147953291Y-143906383D01*
X147884328Y-143917602D01*
X147820247Y-143889755D01*
X147794168Y-143859656D01*
X147792319Y-143856659D01*
X147792316Y-143856655D01*
X147668345Y-143732684D01*
X147519124Y-143640643D01*
X147519119Y-143640641D01*
X147352697Y-143585494D01*
X147352690Y-143585493D01*
X147249986Y-143575000D01*
X147112500Y-143575000D01*
X147112500Y-146024999D01*
X147249972Y-146024999D01*
X147249986Y-146024998D01*
X147352697Y-146014505D01*
X147519119Y-145959358D01*
X147519124Y-145959356D01*
X147668345Y-145867315D01*
X147792318Y-145743342D01*
X147794165Y-145740348D01*
X147795969Y-145738724D01*
X147796798Y-145737677D01*
X147796976Y-145737818D01*
X147846110Y-145693621D01*
X147915073Y-145682396D01*
X147979156Y-145710236D01*
X148005243Y-145740341D01*
X148007288Y-145743656D01*
X148131344Y-145867712D01*
X148280666Y-145959814D01*
X148447203Y-146014999D01*
X148549991Y-146025500D01*
X149325008Y-146025499D01*
X149325016Y-146025498D01*
X149325019Y-146025498D01*
X149381302Y-146019748D01*
X149427797Y-146014999D01*
X149594334Y-145959814D01*
X149743656Y-145867712D01*
X149867712Y-145743656D01*
X149959814Y-145594334D01*
X150014999Y-145427797D01*
X150025500Y-145325009D01*
X150025499Y-144610451D01*
X150045183Y-144543413D01*
X150061814Y-144522775D01*
X150709285Y-143875303D01*
X150770608Y-143841819D01*
X150840300Y-143846803D01*
X150884647Y-143875304D01*
X151638181Y-144628838D01*
X151671666Y-144690161D01*
X151674500Y-144716519D01*
X151674500Y-147189547D01*
X151654815Y-147256586D01*
X151638181Y-147277228D01*
X150554210Y-148361198D01*
X150554203Y-148361205D01*
X150551270Y-148364139D01*
X150551267Y-148364142D01*
X150464142Y-148451267D01*
X150431762Y-148499727D01*
X150427310Y-148506389D01*
X150427307Y-148506393D01*
X150395687Y-148553715D01*
X150395685Y-148553718D01*
X150362347Y-148634206D01*
X150362347Y-148634207D01*
X150348537Y-148667548D01*
X150348535Y-148667554D01*
X150336518Y-148727966D01*
X150336518Y-148727971D01*
X150330950Y-148755971D01*
X150330947Y-148755984D01*
X150327956Y-148771014D01*
X150295566Y-148832922D01*
X150277532Y-148847444D01*
X150277619Y-148847554D01*
X150271958Y-148852029D01*
X150152029Y-148971959D01*
X150063001Y-149116294D01*
X150062996Y-149116305D01*
X150009651Y-149277290D01*
X149999500Y-149376647D01*
X149999500Y-150223337D01*
X149999501Y-150223355D01*
X150009650Y-150322707D01*
X150009651Y-150322710D01*
X150062996Y-150483694D01*
X150063001Y-150483705D01*
X150152029Y-150628040D01*
X150152032Y-150628044D01*
X150271955Y-150747967D01*
X150271959Y-150747970D01*
X150416294Y-150836998D01*
X150416297Y-150836999D01*
X150416303Y-150837003D01*
X150577292Y-150890349D01*
X150676655Y-150900500D01*
X151223344Y-150900499D01*
X151223352Y-150900498D01*
X151223355Y-150900498D01*
X151277760Y-150894940D01*
X151322708Y-150890349D01*
X151483697Y-150837003D01*
X151628044Y-150747968D01*
X151747968Y-150628044D01*
X151837003Y-150483697D01*
X151890349Y-150322708D01*
X151897777Y-150250000D01*
X157420898Y-150250000D01*
X158466988Y-150250000D01*
X158434075Y-150307007D01*
X158400000Y-150434174D01*
X158400000Y-150565826D01*
X158434075Y-150692993D01*
X158466988Y-150750000D01*
X157420898Y-150750000D01*
X157436934Y-150851247D01*
X157509897Y-151075802D01*
X157617085Y-151286171D01*
X157755866Y-151477186D01*
X157922813Y-151644133D01*
X158113828Y-151782914D01*
X158324197Y-151890102D01*
X158548752Y-151963065D01*
X158548751Y-151963065D01*
X158781948Y-152000000D01*
X159650000Y-152000000D01*
X159650000Y-151000000D01*
X160150000Y-151000000D01*
X160150000Y-152000000D01*
X161018052Y-152000000D01*
X161251247Y-151963065D01*
X161475802Y-151890102D01*
X161686171Y-151782914D01*
X161877186Y-151644133D01*
X162044133Y-151477186D01*
X162182914Y-151286171D01*
X162290102Y-151075802D01*
X162363065Y-150851247D01*
X162379102Y-150750000D01*
X161333012Y-150750000D01*
X161365925Y-150692993D01*
X161400000Y-150565826D01*
X161400000Y-150434174D01*
X161365925Y-150307007D01*
X161333012Y-150250000D01*
X162379102Y-150250000D01*
X162363065Y-150148752D01*
X162290102Y-149924197D01*
X162182914Y-149713828D01*
X162044133Y-149522813D01*
X161877186Y-149355866D01*
X161686171Y-149217085D01*
X161475802Y-149109897D01*
X161251247Y-149036934D01*
X161251248Y-149036934D01*
X161018052Y-149000000D01*
X160150000Y-149000000D01*
X160150000Y-150000000D01*
X159650000Y-150000000D01*
X159650000Y-149000000D01*
X158781948Y-149000000D01*
X158548752Y-149036934D01*
X158324197Y-149109897D01*
X158113828Y-149217085D01*
X157922813Y-149355866D01*
X157755866Y-149522813D01*
X157617085Y-149713828D01*
X157509897Y-149924197D01*
X157436934Y-150148752D01*
X157420898Y-150250000D01*
X151897777Y-150250000D01*
X151900500Y-150223345D01*
X151900499Y-149376656D01*
X151898965Y-149361643D01*
X151890349Y-149277292D01*
X151890348Y-149277289D01*
X151837003Y-149116303D01*
X151836997Y-149116294D01*
X151830248Y-149105352D01*
X151785959Y-149033549D01*
X151767519Y-148966158D01*
X151788441Y-148899495D01*
X151803812Y-148880777D01*
X152698729Y-147985860D01*
X152698733Y-147985858D01*
X152785858Y-147898733D01*
X152854311Y-147796286D01*
X152901463Y-147682452D01*
X152925500Y-147561606D01*
X152925500Y-146381902D01*
X163099500Y-146381902D01*
X163099500Y-148618097D01*
X163136446Y-148851368D01*
X163209433Y-149075996D01*
X163281322Y-149217085D01*
X163316657Y-149286433D01*
X163455483Y-149477510D01*
X163622490Y-149644517D01*
X163813567Y-149783343D01*
X163912991Y-149834002D01*
X164024003Y-149890566D01*
X164024005Y-149890566D01*
X164024008Y-149890568D01*
X164127507Y-149924197D01*
X164248631Y-149963553D01*
X164481903Y-150000500D01*
X164481908Y-150000500D01*
X164718097Y-150000500D01*
X164951368Y-149963553D01*
X165175992Y-149890568D01*
X165192817Y-149881995D01*
X176199500Y-149881995D01*
X176199500Y-150118004D01*
X176199501Y-150118020D01*
X176226448Y-150322709D01*
X176230307Y-150352014D01*
X176265594Y-150483705D01*
X176291394Y-150579993D01*
X176381714Y-150798045D01*
X176381719Y-150798056D01*
X176440866Y-150900500D01*
X176499727Y-151002450D01*
X176499729Y-151002453D01*
X176499730Y-151002454D01*
X176643406Y-151189697D01*
X176643412Y-151189704D01*
X176810295Y-151356587D01*
X176810301Y-151356592D01*
X176997550Y-151500273D01*
X177128918Y-151576118D01*
X177201943Y-151618280D01*
X177201948Y-151618282D01*
X177201951Y-151618284D01*
X177420007Y-151708606D01*
X177647986Y-151769693D01*
X177881989Y-151800500D01*
X177881996Y-151800500D01*
X178118004Y-151800500D01*
X178118011Y-151800500D01*
X178352014Y-151769693D01*
X178579993Y-151708606D01*
X178798049Y-151618284D01*
X179002450Y-151500273D01*
X179189699Y-151356592D01*
X179356592Y-151189699D01*
X179500273Y-151002450D01*
X179618284Y-150798049D01*
X179708606Y-150579993D01*
X179769693Y-150352014D01*
X179800500Y-150118011D01*
X179800500Y-149881989D01*
X179769693Y-149647986D01*
X179708606Y-149420007D01*
X179618284Y-149201951D01*
X179618282Y-149201948D01*
X179618280Y-149201943D01*
X179568427Y-149115597D01*
X179500273Y-148997550D01*
X179409304Y-148878997D01*
X179356593Y-148810302D01*
X179356587Y-148810295D01*
X179189704Y-148643412D01*
X179189697Y-148643406D01*
X179002454Y-148499730D01*
X179002453Y-148499729D01*
X179002450Y-148499727D01*
X178918515Y-148451267D01*
X178798056Y-148381719D01*
X178798045Y-148381714D01*
X178579993Y-148291394D01*
X178352010Y-148230306D01*
X178118020Y-148199501D01*
X178118017Y-148199500D01*
X178118011Y-148199500D01*
X177881989Y-148199500D01*
X177881983Y-148199500D01*
X177881979Y-148199501D01*
X177647989Y-148230306D01*
X177420006Y-148291394D01*
X177201954Y-148381714D01*
X177201943Y-148381719D01*
X176997545Y-148499730D01*
X176810302Y-148643406D01*
X176810295Y-148643412D01*
X176643412Y-148810295D01*
X176643406Y-148810302D01*
X176499730Y-148997545D01*
X176499727Y-148997549D01*
X176499727Y-148997550D01*
X176492014Y-149010909D01*
X176381719Y-149201943D01*
X176381714Y-149201954D01*
X176291394Y-149420006D01*
X176230306Y-149647989D01*
X176199501Y-149881979D01*
X176199500Y-149881995D01*
X165192817Y-149881995D01*
X165386433Y-149783343D01*
X165577510Y-149644517D01*
X165744517Y-149477510D01*
X165883343Y-149286433D01*
X165990568Y-149075992D01*
X166063553Y-148851368D01*
X166064157Y-148847554D01*
X166100500Y-148618097D01*
X166100500Y-146381902D01*
X166063553Y-146148631D01*
X166023545Y-146025500D01*
X165990568Y-145924008D01*
X165990566Y-145924005D01*
X165990566Y-145924003D01*
X165934002Y-145812991D01*
X165883343Y-145713567D01*
X165744517Y-145522490D01*
X165577510Y-145355483D01*
X165386433Y-145216657D01*
X165355116Y-145200700D01*
X165175996Y-145109433D01*
X164951368Y-145036446D01*
X164718097Y-144999500D01*
X164718092Y-144999500D01*
X164481908Y-144999500D01*
X164481903Y-144999500D01*
X164248631Y-145036446D01*
X164024003Y-145109433D01*
X163813566Y-145216657D01*
X163704550Y-145295862D01*
X163622490Y-145355483D01*
X163622488Y-145355485D01*
X163622487Y-145355485D01*
X163455485Y-145522487D01*
X163455485Y-145522488D01*
X163455483Y-145522490D01*
X163441070Y-145542328D01*
X163316657Y-145713566D01*
X163209433Y-145924003D01*
X163136446Y-146148631D01*
X163099500Y-146381902D01*
X152925500Y-146381902D01*
X152925500Y-145124500D01*
X152945185Y-145057461D01*
X152997989Y-145011706D01*
X153049500Y-145000500D01*
X157025501Y-145000500D01*
X157092540Y-145020185D01*
X157138295Y-145072989D01*
X157149501Y-145124500D01*
X157149501Y-145347876D01*
X157155908Y-145407483D01*
X157206202Y-145542328D01*
X157206206Y-145542335D01*
X157292452Y-145657544D01*
X157292455Y-145657547D01*
X157407664Y-145743793D01*
X157407671Y-145743797D01*
X157542517Y-145794091D01*
X157542516Y-145794091D01*
X157549444Y-145794835D01*
X157602127Y-145800500D01*
X162197872Y-145800499D01*
X162257483Y-145794091D01*
X162392331Y-145743796D01*
X162507546Y-145657546D01*
X162593796Y-145542331D01*
X162644091Y-145407483D01*
X162650500Y-145347873D01*
X162650499Y-143252128D01*
X162644091Y-143192517D01*
X162633835Y-143165020D01*
X162593797Y-143057671D01*
X162593793Y-143057664D01*
X162507547Y-142942455D01*
X162507544Y-142942452D01*
X162392335Y-142856206D01*
X162392328Y-142856202D01*
X162257482Y-142805908D01*
X162257483Y-142805908D01*
X162197883Y-142799501D01*
X162197881Y-142799500D01*
X162197873Y-142799500D01*
X162197865Y-142799500D01*
X160724500Y-142799500D01*
X160657461Y-142779815D01*
X160611706Y-142727011D01*
X160600500Y-142675500D01*
X160600500Y-140699986D01*
X164600001Y-140699986D01*
X164610494Y-140802697D01*
X164665641Y-140969119D01*
X164665643Y-140969124D01*
X164757684Y-141118345D01*
X164881654Y-141242315D01*
X165030875Y-141334356D01*
X165030880Y-141334358D01*
X165197302Y-141389505D01*
X165197309Y-141389506D01*
X165300019Y-141399999D01*
X165449999Y-141399999D01*
X165450000Y-141399998D01*
X165450000Y-140450000D01*
X164600001Y-140450000D01*
X164600001Y-140699986D01*
X160600500Y-140699986D01*
X160600500Y-139700013D01*
X164600000Y-139700013D01*
X164600000Y-139950000D01*
X165450000Y-139950000D01*
X165450000Y-139000000D01*
X165950000Y-139000000D01*
X165950000Y-141399999D01*
X166099972Y-141399999D01*
X166099986Y-141399998D01*
X166202697Y-141389505D01*
X166369119Y-141334358D01*
X166369124Y-141334356D01*
X166518342Y-141242317D01*
X166611964Y-141148695D01*
X166673287Y-141115210D01*
X166742979Y-141120194D01*
X166787327Y-141148695D01*
X166881344Y-141242712D01*
X167030666Y-141334814D01*
X167197203Y-141389999D01*
X167299991Y-141400500D01*
X168100008Y-141400499D01*
X168100016Y-141400498D01*
X168100019Y-141400498D01*
X168156302Y-141394748D01*
X168202797Y-141389999D01*
X168369334Y-141334814D01*
X168518656Y-141242712D01*
X168642712Y-141118656D01*
X168734814Y-140969334D01*
X168754311Y-140910493D01*
X168768181Y-140890461D01*
X168778304Y-140868297D01*
X168787715Y-140862248D01*
X168794084Y-140853051D01*
X168816582Y-140843697D01*
X168837082Y-140830523D01*
X168854183Y-140828064D01*
X168858600Y-140826228D01*
X168872017Y-140825500D01*
X169011245Y-140825500D01*
X169078284Y-140845185D01*
X169124039Y-140897989D01*
X169128951Y-140910496D01*
X169149638Y-140972925D01*
X169149639Y-140972928D01*
X169240971Y-141120999D01*
X169240974Y-141121003D01*
X169363996Y-141244025D01*
X169364000Y-141244028D01*
X169512066Y-141335357D01*
X169512069Y-141335358D01*
X169512075Y-141335362D01*
X169677225Y-141390087D01*
X169779152Y-141400500D01*
X169779157Y-141400500D01*
X170365843Y-141400500D01*
X170365848Y-141400500D01*
X170467775Y-141390087D01*
X170632925Y-141335362D01*
X170781003Y-141244026D01*
X170904026Y-141121003D01*
X170904458Y-141120301D01*
X170904881Y-141119921D01*
X170908507Y-141115336D01*
X170909290Y-141115955D01*
X170956402Y-141073575D01*
X171025364Y-141062349D01*
X171089448Y-141090188D01*
X171111342Y-141115455D01*
X171111493Y-141115336D01*
X171114143Y-141118687D01*
X171115540Y-141120299D01*
X171115972Y-141120999D01*
X171115975Y-141121004D01*
X171238996Y-141244025D01*
X171239000Y-141244028D01*
X171387066Y-141335357D01*
X171387069Y-141335358D01*
X171387075Y-141335362D01*
X171552225Y-141390087D01*
X171654152Y-141400500D01*
X171654157Y-141400500D01*
X172240843Y-141400500D01*
X172240848Y-141400500D01*
X172342775Y-141390087D01*
X172507925Y-141335362D01*
X172656003Y-141244026D01*
X172779026Y-141121003D01*
X172870362Y-140972925D01*
X172891049Y-140910495D01*
X172904919Y-140890463D01*
X172915042Y-140868297D01*
X172924454Y-140862248D01*
X172930822Y-140853051D01*
X172953320Y-140843697D01*
X172973820Y-140830523D01*
X172990921Y-140828064D01*
X172995338Y-140826228D01*
X173008755Y-140825500D01*
X173157894Y-140825500D01*
X173224933Y-140845185D01*
X173263432Y-140884403D01*
X173352029Y-141028040D01*
X173352032Y-141028044D01*
X173471955Y-141147967D01*
X173471959Y-141147970D01*
X173616294Y-141236998D01*
X173616297Y-141236999D01*
X173616303Y-141237003D01*
X173777292Y-141290349D01*
X173876655Y-141300500D01*
X174423344Y-141300499D01*
X174423352Y-141300498D01*
X174423355Y-141300498D01*
X174477760Y-141294940D01*
X174522708Y-141290349D01*
X174683697Y-141237003D01*
X174828044Y-141147968D01*
X174947968Y-141028044D01*
X175037003Y-140883697D01*
X175090349Y-140722708D01*
X175100500Y-140623345D01*
X175100499Y-139776656D01*
X175093160Y-139704815D01*
X175090349Y-139677292D01*
X175090348Y-139677289D01*
X175081043Y-139649208D01*
X175037003Y-139516303D01*
X175036999Y-139516297D01*
X175036998Y-139516294D01*
X174947970Y-139371959D01*
X174947967Y-139371955D01*
X174828044Y-139252032D01*
X174828040Y-139252029D01*
X174683705Y-139163001D01*
X174683699Y-139162998D01*
X174683697Y-139162997D01*
X174683084Y-139162794D01*
X174522709Y-139109651D01*
X174423346Y-139099500D01*
X173876662Y-139099500D01*
X173876644Y-139099501D01*
X173777292Y-139109650D01*
X173777289Y-139109651D01*
X173616305Y-139162996D01*
X173616294Y-139163001D01*
X173471959Y-139252029D01*
X173471955Y-139252032D01*
X173352032Y-139371955D01*
X173352029Y-139371959D01*
X173263432Y-139515597D01*
X173255846Y-139522419D01*
X173251607Y-139531703D01*
X173230306Y-139545391D01*
X173211484Y-139562322D01*
X173199847Y-139564966D01*
X173192829Y-139569477D01*
X173157894Y-139574500D01*
X173008755Y-139574500D01*
X172941716Y-139554815D01*
X172895961Y-139502011D01*
X172891049Y-139489504D01*
X172885000Y-139471249D01*
X172870362Y-139427075D01*
X172858644Y-139408078D01*
X172779028Y-139279000D01*
X172779025Y-139278996D01*
X172656003Y-139155974D01*
X172655999Y-139155971D01*
X172507933Y-139064642D01*
X172507927Y-139064639D01*
X172507925Y-139064638D01*
X172507922Y-139064637D01*
X172342776Y-139009913D01*
X172240855Y-138999500D01*
X172240848Y-138999500D01*
X171654152Y-138999500D01*
X171654144Y-138999500D01*
X171552223Y-139009913D01*
X171387077Y-139064637D01*
X171387066Y-139064642D01*
X171239000Y-139155971D01*
X171238996Y-139155974D01*
X171115974Y-139278996D01*
X171115971Y-139279000D01*
X171115538Y-139279703D01*
X171115114Y-139280083D01*
X171111493Y-139284664D01*
X171110710Y-139284045D01*
X171063590Y-139326428D01*
X170994628Y-139337649D01*
X170930546Y-139309806D01*
X170908657Y-139284544D01*
X170908507Y-139284664D01*
X170905859Y-139281315D01*
X170904462Y-139279703D01*
X170904028Y-139279000D01*
X170904025Y-139278996D01*
X170781003Y-139155974D01*
X170780999Y-139155971D01*
X170632933Y-139064642D01*
X170632927Y-139064639D01*
X170632925Y-139064638D01*
X170632922Y-139064637D01*
X170467776Y-139009913D01*
X170365855Y-138999500D01*
X170365848Y-138999500D01*
X169779152Y-138999500D01*
X169779144Y-138999500D01*
X169677223Y-139009913D01*
X169512077Y-139064637D01*
X169512066Y-139064642D01*
X169364000Y-139155971D01*
X169363996Y-139155974D01*
X169240974Y-139278996D01*
X169240971Y-139279000D01*
X169149639Y-139427071D01*
X169149638Y-139427074D01*
X169128951Y-139489504D01*
X169115080Y-139509536D01*
X169104958Y-139531703D01*
X169095545Y-139537751D01*
X169089178Y-139546949D01*
X169066679Y-139556302D01*
X169046180Y-139569477D01*
X169029078Y-139571935D01*
X169024662Y-139573772D01*
X169011245Y-139574500D01*
X168872017Y-139574500D01*
X168804978Y-139554815D01*
X168759223Y-139502011D01*
X168754311Y-139489505D01*
X168754311Y-139489504D01*
X168734814Y-139430666D01*
X168642712Y-139281344D01*
X168518656Y-139157288D01*
X168369334Y-139065186D01*
X168202797Y-139010001D01*
X168202795Y-139010000D01*
X168100010Y-138999500D01*
X167299998Y-138999500D01*
X167299980Y-138999501D01*
X167197203Y-139010000D01*
X167197200Y-139010001D01*
X167030668Y-139065185D01*
X167030663Y-139065187D01*
X166881345Y-139157287D01*
X166787327Y-139251305D01*
X166726003Y-139284789D01*
X166656312Y-139279805D01*
X166611965Y-139251304D01*
X166518345Y-139157684D01*
X166369124Y-139065643D01*
X166369119Y-139065641D01*
X166202697Y-139010494D01*
X166202690Y-139010493D01*
X166099986Y-139000000D01*
X165950000Y-139000000D01*
X165450000Y-139000000D01*
X165300027Y-139000000D01*
X165300012Y-139000001D01*
X165197302Y-139010494D01*
X165030880Y-139065641D01*
X165030875Y-139065643D01*
X164881654Y-139157684D01*
X164757684Y-139281654D01*
X164665643Y-139430875D01*
X164665641Y-139430880D01*
X164610494Y-139597302D01*
X164610493Y-139597309D01*
X164600000Y-139700013D01*
X160600500Y-139700013D01*
X160600500Y-139045908D01*
X160620185Y-138978869D01*
X160664271Y-138940363D01*
X160663187Y-138938605D01*
X160669332Y-138934814D01*
X160669334Y-138934814D01*
X160818656Y-138842712D01*
X160942712Y-138718656D01*
X161034814Y-138569334D01*
X161089999Y-138402797D01*
X161100500Y-138300009D01*
X161100499Y-137499992D01*
X161089999Y-137397203D01*
X161034814Y-137230666D01*
X160942712Y-137081344D01*
X160849049Y-136987681D01*
X160815564Y-136926358D01*
X160820548Y-136856666D01*
X160849049Y-136812319D01*
X160942712Y-136718656D01*
X161034814Y-136569334D01*
X161089999Y-136402797D01*
X161100500Y-136300009D01*
X161100499Y-135499992D01*
X161092760Y-135424236D01*
X161089999Y-135397203D01*
X161089998Y-135397200D01*
X161084866Y-135381714D01*
X161034814Y-135230666D01*
X160942712Y-135081344D01*
X160818656Y-134957288D01*
X160669334Y-134865186D01*
X160669332Y-134865185D01*
X160663187Y-134861395D01*
X160664290Y-134859605D01*
X160619649Y-134820290D01*
X160600500Y-134754091D01*
X160600500Y-133824986D01*
X168275001Y-133824986D01*
X168285494Y-133927697D01*
X168340641Y-134094119D01*
X168340643Y-134094124D01*
X168432684Y-134243345D01*
X168556654Y-134367315D01*
X168705875Y-134459356D01*
X168705880Y-134459358D01*
X168872302Y-134514505D01*
X168872309Y-134514506D01*
X168975019Y-134524999D01*
X169249999Y-134524999D01*
X169750000Y-134524999D01*
X170024972Y-134524999D01*
X170024986Y-134524998D01*
X170127697Y-134514505D01*
X170294119Y-134459358D01*
X170294124Y-134459356D01*
X170443345Y-134367315D01*
X170567315Y-134243345D01*
X170659356Y-134094124D01*
X170659358Y-134094119D01*
X170714505Y-133927697D01*
X170714506Y-133927690D01*
X170724999Y-133824986D01*
X170725000Y-133824973D01*
X170725000Y-133687500D01*
X169750000Y-133687500D01*
X169750000Y-134524999D01*
X169249999Y-134524999D01*
X169250000Y-134524998D01*
X169250000Y-133687500D01*
X168275001Y-133687500D01*
X168275001Y-133824986D01*
X160600500Y-133824986D01*
X160600500Y-133504656D01*
X160620185Y-133437617D01*
X160672989Y-133391862D01*
X160689626Y-133386014D01*
X160692753Y-133384780D01*
X160692759Y-133384780D01*
X160834816Y-133328760D01*
X160956491Y-133236491D01*
X161048760Y-133114816D01*
X161104780Y-132972759D01*
X161115500Y-132883492D01*
X161115500Y-132466508D01*
X161113577Y-132450499D01*
X161103832Y-132369347D01*
X161104516Y-132369264D01*
X161102033Y-132337842D01*
X161115500Y-132188373D01*
X161126351Y-132160842D01*
X161134685Y-132132461D01*
X161139017Y-132128706D01*
X161141121Y-132123370D01*
X161165136Y-132106074D01*
X161187489Y-132086706D01*
X161193996Y-132085290D01*
X161197818Y-132082538D01*
X161209491Y-132081919D01*
X161239000Y-132075500D01*
X168305622Y-132075500D01*
X168372661Y-132095185D01*
X168411159Y-132134401D01*
X168432288Y-132168656D01*
X168556344Y-132292712D01*
X168559628Y-132294737D01*
X168559653Y-132294753D01*
X168561445Y-132296746D01*
X168562011Y-132297193D01*
X168561934Y-132297289D01*
X168606379Y-132346699D01*
X168617603Y-132415661D01*
X168589761Y-132479744D01*
X168559665Y-132505826D01*
X168556660Y-132507679D01*
X168556655Y-132507683D01*
X168432684Y-132631654D01*
X168340643Y-132780875D01*
X168340641Y-132780880D01*
X168285494Y-132947302D01*
X168285493Y-132947309D01*
X168275000Y-133050013D01*
X168275000Y-133187500D01*
X170724999Y-133187500D01*
X170724999Y-133050028D01*
X170724998Y-133050013D01*
X170714505Y-132947302D01*
X170659358Y-132780880D01*
X170659356Y-132780875D01*
X170567315Y-132631654D01*
X170443344Y-132507683D01*
X170443341Y-132507681D01*
X170440339Y-132505829D01*
X170438713Y-132504021D01*
X170437677Y-132503202D01*
X170437817Y-132503024D01*
X170393617Y-132453880D01*
X170382397Y-132384917D01*
X170410243Y-132320836D01*
X170440344Y-132294754D01*
X170443656Y-132292712D01*
X170567712Y-132168656D01*
X170596549Y-132121902D01*
X170648497Y-132075179D01*
X170702088Y-132063000D01*
X172920981Y-132063000D01*
X172988020Y-132082685D01*
X173008662Y-132099319D01*
X174120140Y-133210797D01*
X174153625Y-133272120D01*
X174148641Y-133341812D01*
X174147020Y-133345931D01*
X174101605Y-133455571D01*
X174101602Y-133455581D01*
X174033730Y-133708884D01*
X174031006Y-133729577D01*
X173999500Y-133968872D01*
X173999500Y-134231127D01*
X174010385Y-134313799D01*
X174033730Y-134491116D01*
X174101602Y-134744418D01*
X174101605Y-134744428D01*
X174201953Y-134986690D01*
X174201958Y-134986700D01*
X174333075Y-135213803D01*
X174492718Y-135421851D01*
X174492726Y-135421860D01*
X174678140Y-135607274D01*
X174678148Y-135607281D01*
X174886196Y-135766924D01*
X175113299Y-135898041D01*
X175113309Y-135898046D01*
X175355571Y-135998394D01*
X175355581Y-135998398D01*
X175608884Y-136066270D01*
X175868880Y-136100500D01*
X175868887Y-136100500D01*
X176131113Y-136100500D01*
X176131120Y-136100500D01*
X176391116Y-136066270D01*
X176644419Y-135998398D01*
X176704070Y-135973689D01*
X176723943Y-135971552D01*
X176742675Y-135964566D01*
X176757971Y-135967893D01*
X176773536Y-135966220D01*
X176791413Y-135975168D01*
X176810948Y-135979418D01*
X176833236Y-135996103D01*
X176836015Y-135997494D01*
X176839202Y-136000569D01*
X176964468Y-136125835D01*
X176997953Y-136187158D01*
X177000787Y-136213516D01*
X177000787Y-139045461D01*
X176981102Y-139112500D01*
X176928298Y-139158255D01*
X176916739Y-139162794D01*
X176916294Y-139163001D01*
X176771959Y-139252029D01*
X176771955Y-139252032D01*
X176652032Y-139371955D01*
X176652029Y-139371959D01*
X176563001Y-139516294D01*
X176562996Y-139516305D01*
X176509651Y-139677290D01*
X176499500Y-139776647D01*
X176499500Y-140623337D01*
X176499501Y-140623355D01*
X176509650Y-140722707D01*
X176509651Y-140722710D01*
X176562996Y-140883694D01*
X176563001Y-140883705D01*
X176652029Y-141028040D01*
X176652032Y-141028044D01*
X176771955Y-141147967D01*
X176771959Y-141147970D01*
X176916294Y-141236998D01*
X176916297Y-141236999D01*
X176916303Y-141237003D01*
X177077292Y-141290349D01*
X177176655Y-141300500D01*
X177723344Y-141300499D01*
X177723352Y-141300498D01*
X177723355Y-141300498D01*
X177777760Y-141294940D01*
X177822708Y-141290349D01*
X177983697Y-141237003D01*
X178128044Y-141147968D01*
X178247968Y-141028044D01*
X178337003Y-140883697D01*
X178390349Y-140722708D01*
X178400500Y-140623345D01*
X178400499Y-139776656D01*
X178393160Y-139704815D01*
X178390349Y-139677292D01*
X178390348Y-139677289D01*
X178381043Y-139649208D01*
X178337003Y-139516303D01*
X178336999Y-139516297D01*
X178336998Y-139516294D01*
X178270249Y-139408078D01*
X178251787Y-139342981D01*
X178251787Y-136600787D01*
X178271472Y-136533748D01*
X178324276Y-136487993D01*
X178375787Y-136476787D01*
X181002190Y-136476787D01*
X181009807Y-136479023D01*
X181017643Y-136477754D01*
X181042852Y-136488727D01*
X181069229Y-136496472D01*
X181076058Y-136503180D01*
X181081707Y-136505639D01*
X181105292Y-136531896D01*
X181106315Y-136533427D01*
X181106316Y-136533429D01*
X181130307Y-136569334D01*
X181182861Y-136647989D01*
X181188451Y-136656354D01*
X181188452Y-136656355D01*
X182210515Y-137678416D01*
X182315050Y-137782951D01*
X182315053Y-137782953D01*
X182315054Y-137782954D01*
X182437969Y-137865083D01*
X182437972Y-137865085D01*
X182488131Y-137885861D01*
X182494546Y-137888518D01*
X182574554Y-137921659D01*
X182690707Y-137944763D01*
X182713846Y-137949365D01*
X182719547Y-137950500D01*
X182719548Y-137950500D01*
X182719549Y-137950500D01*
X182867384Y-137950500D01*
X184956750Y-137950500D01*
X185023789Y-137970185D01*
X185069544Y-138022989D01*
X185080750Y-138074500D01*
X185080750Y-139356768D01*
X185078367Y-139380960D01*
X185049500Y-139526079D01*
X185049500Y-139526082D01*
X185049500Y-140004045D01*
X185049500Y-140004047D01*
X185049499Y-140004047D01*
X185078340Y-140149034D01*
X185078343Y-140149044D01*
X185115265Y-140238181D01*
X185134916Y-140285622D01*
X185152966Y-140312636D01*
X185161871Y-140325964D01*
X185217049Y-140408545D01*
X185217052Y-140408548D01*
X187973526Y-143165020D01*
X188007011Y-143226343D01*
X188008318Y-143272098D01*
X187999500Y-143327774D01*
X187999500Y-143532478D01*
X188031522Y-143734661D01*
X188094781Y-143929350D01*
X188187715Y-144111740D01*
X188308028Y-144277340D01*
X188452786Y-144422098D01*
X188607749Y-144534683D01*
X188618390Y-144542414D01*
X188734607Y-144601630D01*
X188800776Y-144635345D01*
X188800778Y-144635345D01*
X188800781Y-144635347D01*
X188892527Y-144665157D01*
X188995465Y-144698604D01*
X189096557Y-144714615D01*
X189197648Y-144730627D01*
X189197649Y-144730627D01*
X189402351Y-144730627D01*
X189402352Y-144730627D01*
X189604534Y-144698604D01*
X189799219Y-144635347D01*
X189981610Y-144542414D01*
X190074590Y-144474859D01*
X190147213Y-144422098D01*
X190147215Y-144422095D01*
X190147219Y-144422093D01*
X190291966Y-144277346D01*
X190291968Y-144277342D01*
X190291971Y-144277340D01*
X190368356Y-144172203D01*
X190412287Y-144111737D01*
X190505220Y-143929346D01*
X190568477Y-143734661D01*
X190600500Y-143532479D01*
X190600500Y-143327775D01*
X190596528Y-143302697D01*
X190568477Y-143125592D01*
X190524652Y-142990713D01*
X190505220Y-142930908D01*
X190505218Y-142930905D01*
X190505218Y-142930903D01*
X190467155Y-142856202D01*
X190412287Y-142748517D01*
X190396662Y-142727011D01*
X190291971Y-142582913D01*
X190147213Y-142438155D01*
X189981613Y-142317842D01*
X189981612Y-142317841D01*
X189981610Y-142317840D01*
X189917690Y-142285271D01*
X189799223Y-142224908D01*
X189604534Y-142161649D01*
X189429995Y-142134005D01*
X189402352Y-142129627D01*
X189197648Y-142129627D01*
X189141971Y-142138445D01*
X189072678Y-142129490D01*
X189034893Y-142103653D01*
X187829229Y-140897989D01*
X186618069Y-139686828D01*
X186584584Y-139625505D01*
X186581750Y-139599147D01*
X186581750Y-137431785D01*
X186601435Y-137364746D01*
X186623312Y-137339156D01*
X186638321Y-137325801D01*
X186698810Y-137242035D01*
X187086317Y-136570850D01*
X187128618Y-136476582D01*
X187164095Y-136304764D01*
X187158994Y-136129396D01*
X187113586Y-135959933D01*
X187112002Y-135956996D01*
X187111526Y-135954748D01*
X187110919Y-135953220D01*
X187111180Y-135953116D01*
X187097514Y-135888648D01*
X187122277Y-135823314D01*
X187178432Y-135781739D01*
X187217550Y-135774201D01*
X187220874Y-135774105D01*
X187390338Y-135728698D01*
X187544761Y-135645432D01*
X187544762Y-135645431D01*
X187544764Y-135645430D01*
X187675816Y-135528804D01*
X187675820Y-135528800D01*
X187675821Y-135528799D01*
X187736310Y-135445033D01*
X187763924Y-135397204D01*
X187814739Y-135309190D01*
X187865306Y-135260975D01*
X187922126Y-135247190D01*
X193007633Y-135247190D01*
X193074672Y-135266875D01*
X193118118Y-135314895D01*
X193187715Y-135451487D01*
X193308028Y-135617086D01*
X193452786Y-135761844D01*
X193607749Y-135874429D01*
X193618390Y-135882160D01*
X193734607Y-135941376D01*
X193800776Y-135975091D01*
X193800778Y-135975091D01*
X193800781Y-135975093D01*
X193879188Y-136000569D01*
X193995465Y-136038350D01*
X194096557Y-136054361D01*
X194197648Y-136070373D01*
X194197649Y-136070373D01*
X194402351Y-136070373D01*
X194402352Y-136070373D01*
X194604534Y-136038350D01*
X194799219Y-135975093D01*
X194981610Y-135882160D01*
X195080516Y-135810301D01*
X195147213Y-135761844D01*
X195147215Y-135761841D01*
X195147219Y-135761839D01*
X195291966Y-135617092D01*
X195291968Y-135617088D01*
X195291971Y-135617086D01*
X195377052Y-135499980D01*
X195412287Y-135451483D01*
X195505220Y-135269092D01*
X195568477Y-135074407D01*
X195600500Y-134872225D01*
X195600500Y-134667521D01*
X195577926Y-134524998D01*
X195568477Y-134465338D01*
X195519239Y-134313800D01*
X195505220Y-134270654D01*
X195505218Y-134270651D01*
X195505218Y-134270649D01*
X195471503Y-134204480D01*
X195412287Y-134088263D01*
X195370650Y-134030954D01*
X195291971Y-133922659D01*
X195147217Y-133777905D01*
X195147212Y-133777901D01*
X195101615Y-133744773D01*
X195058949Y-133689444D01*
X195050500Y-133644455D01*
X195050500Y-130932797D01*
X195070185Y-130865758D01*
X195112498Y-130825411D01*
X195213803Y-130766924D01*
X195421851Y-130607282D01*
X195421855Y-130607277D01*
X195421860Y-130607274D01*
X195607274Y-130421860D01*
X195607277Y-130421855D01*
X195607282Y-130421851D01*
X195766924Y-130213803D01*
X195898043Y-129986697D01*
X195998398Y-129744419D01*
X196066270Y-129491116D01*
X196100500Y-129231120D01*
X196100500Y-128968880D01*
X196066270Y-128708884D01*
X195998398Y-128455581D01*
X195986318Y-128426418D01*
X195898046Y-128213309D01*
X195898041Y-128213299D01*
X195766924Y-127986196D01*
X195607281Y-127778148D01*
X195607274Y-127778140D01*
X195421860Y-127592726D01*
X195421851Y-127592718D01*
X195213803Y-127433075D01*
X194986700Y-127301958D01*
X194986690Y-127301953D01*
X194744428Y-127201605D01*
X194744421Y-127201603D01*
X194744419Y-127201602D01*
X194491116Y-127133730D01*
X194433339Y-127126123D01*
X194231127Y-127099500D01*
X194231120Y-127099500D01*
X193968880Y-127099500D01*
X193968872Y-127099500D01*
X193737772Y-127129926D01*
X193708884Y-127133730D01*
X193455581Y-127201602D01*
X193455571Y-127201605D01*
X193213309Y-127301953D01*
X193213299Y-127301958D01*
X192986196Y-127433075D01*
X192778148Y-127592718D01*
X192592718Y-127778148D01*
X192433075Y-127986196D01*
X192301958Y-128213299D01*
X192301953Y-128213309D01*
X192201605Y-128455571D01*
X192201602Y-128455581D01*
X192174726Y-128555886D01*
X192133730Y-128708885D01*
X192099500Y-128968872D01*
X192099500Y-129231127D01*
X192126123Y-129433339D01*
X192133730Y-129491116D01*
X192201602Y-129744418D01*
X192201605Y-129744428D01*
X192301953Y-129986690D01*
X192301958Y-129986700D01*
X192433075Y-130213803D01*
X192592718Y-130421851D01*
X192592726Y-130421860D01*
X192778140Y-130607274D01*
X192778148Y-130607281D01*
X192986196Y-130766924D01*
X193213299Y-130898041D01*
X193213309Y-130898046D01*
X193442466Y-130992965D01*
X193455581Y-130998398D01*
X193457584Y-130998934D01*
X193458113Y-130999256D01*
X193459416Y-130999699D01*
X193459330Y-130999951D01*
X193459332Y-130999952D01*
X193459321Y-130999976D01*
X193459317Y-130999990D01*
X193517244Y-131035290D01*
X193547781Y-131098134D01*
X193549500Y-131118711D01*
X193549500Y-133622190D01*
X193529815Y-133689229D01*
X193477011Y-133734984D01*
X193425500Y-133746190D01*
X187778071Y-133746190D01*
X187762583Y-133742040D01*
X187748837Y-133742695D01*
X187716071Y-133729577D01*
X187681250Y-133709473D01*
X187633034Y-133658906D01*
X187619250Y-133602086D01*
X187619250Y-132795237D01*
X187613035Y-132763995D01*
X187613035Y-132763993D01*
X187597615Y-132686471D01*
X187590409Y-132650244D01*
X187533834Y-132513662D01*
X187533834Y-132513661D01*
X187458866Y-132401463D01*
X187451702Y-132390741D01*
X185730477Y-130669515D01*
X185696992Y-130608192D01*
X185701976Y-130538500D01*
X185730477Y-130494153D01*
X186091135Y-130133496D01*
X187429858Y-128794774D01*
X187498312Y-128692326D01*
X187545463Y-128578492D01*
X187565209Y-128479223D01*
X187569501Y-128457649D01*
X187569501Y-128329324D01*
X187569500Y-128329298D01*
X187569500Y-123227393D01*
X187569499Y-123227389D01*
X187558501Y-123172097D01*
X187545463Y-123106548D01*
X187498311Y-122992714D01*
X187498310Y-122992713D01*
X187498307Y-122992707D01*
X187429859Y-122890268D01*
X187387874Y-122848283D01*
X187342733Y-122803142D01*
X187342732Y-122803141D01*
X186214624Y-121675033D01*
X186181139Y-121613710D01*
X186184373Y-121549035D01*
X186219722Y-121440245D01*
X186255500Y-121214354D01*
X186255500Y-120985646D01*
X186219722Y-120759755D01*
X186219721Y-120759751D01*
X186219721Y-120759750D01*
X186149049Y-120542244D01*
X186132642Y-120510044D01*
X186045217Y-120338462D01*
X185912472Y-120155755D01*
X185888994Y-120089953D01*
X185904819Y-120021899D01*
X185954925Y-119973204D01*
X185969455Y-119966692D01*
X185997331Y-119956296D01*
X186112546Y-119870046D01*
X186198796Y-119754831D01*
X186249091Y-119619983D01*
X186255500Y-119560373D01*
X186255499Y-117559628D01*
X186249091Y-117500017D01*
X186248073Y-117497288D01*
X186198797Y-117365171D01*
X186198793Y-117365164D01*
X186112547Y-117249955D01*
X186112544Y-117249952D01*
X185997335Y-117163706D01*
X185997328Y-117163702D01*
X185862482Y-117113408D01*
X185862483Y-117113408D01*
X185802883Y-117107001D01*
X185802881Y-117107000D01*
X185802873Y-117107000D01*
X185802864Y-117107000D01*
X183707129Y-117107000D01*
X183707123Y-117107001D01*
X183647516Y-117113408D01*
X183512671Y-117163702D01*
X183512664Y-117163706D01*
X183397455Y-117249952D01*
X183397452Y-117249955D01*
X183311206Y-117365164D01*
X183311202Y-117365171D01*
X183260908Y-117500017D01*
X183254501Y-117559616D01*
X183254501Y-117559623D01*
X183254500Y-117559635D01*
X183254500Y-117715500D01*
X183234815Y-117782539D01*
X183182011Y-117828294D01*
X183130500Y-117839500D01*
X181245908Y-117839500D01*
X181178869Y-117819815D01*
X181140363Y-117775728D01*
X181138605Y-117776813D01*
X181134814Y-117770666D01*
X181042712Y-117621344D01*
X180918656Y-117497288D01*
X180784402Y-117414480D01*
X180737679Y-117362533D01*
X180725500Y-117308942D01*
X180725500Y-115289088D01*
X180745185Y-115222049D01*
X180797989Y-115176294D01*
X180802036Y-115174532D01*
X180986697Y-115098043D01*
X181213803Y-114966924D01*
X181421851Y-114807282D01*
X181421855Y-114807277D01*
X181421860Y-114807274D01*
X181607274Y-114621860D01*
X181607277Y-114621855D01*
X181607282Y-114621851D01*
X181766924Y-114413803D01*
X181898043Y-114186697D01*
X181998398Y-113944419D01*
X182066270Y-113691116D01*
X182100500Y-113431120D01*
X182100500Y-113168880D01*
X182087523Y-113070316D01*
X182066270Y-112908884D01*
X182057325Y-112875500D01*
X181998398Y-112655581D01*
X181994869Y-112647061D01*
X181898046Y-112413309D01*
X181898041Y-112413299D01*
X181766924Y-112186196D01*
X181607281Y-111978148D01*
X181607274Y-111978140D01*
X181421860Y-111792726D01*
X181421851Y-111792718D01*
X181213803Y-111633075D01*
X180986700Y-111501958D01*
X180986690Y-111501953D01*
X180744428Y-111401605D01*
X180744421Y-111401603D01*
X180744419Y-111401602D01*
X180491116Y-111333730D01*
X180433339Y-111326123D01*
X180231127Y-111299500D01*
X180231120Y-111299500D01*
X179968880Y-111299500D01*
X179968872Y-111299500D01*
X179737772Y-111329926D01*
X179708884Y-111333730D01*
X179536500Y-111379920D01*
X179455581Y-111401602D01*
X179455571Y-111401605D01*
X179213309Y-111501953D01*
X179213299Y-111501958D01*
X178986196Y-111633075D01*
X178778148Y-111792718D01*
X178592718Y-111978148D01*
X178433075Y-112186196D01*
X178301958Y-112413299D01*
X178301953Y-112413309D01*
X178201605Y-112655571D01*
X178201602Y-112655581D01*
X178133730Y-112908884D01*
X178099500Y-113168872D01*
X178099500Y-113431127D01*
X178119278Y-113581344D01*
X178133730Y-113691116D01*
X178188950Y-113897200D01*
X178201602Y-113944418D01*
X178201605Y-113944428D01*
X178301953Y-114186690D01*
X178301958Y-114186700D01*
X178433075Y-114413803D01*
X178592718Y-114621851D01*
X178592726Y-114621860D01*
X178778140Y-114807274D01*
X178778148Y-114807281D01*
X178778149Y-114807282D01*
X178800632Y-114824534D01*
X178986196Y-114966924D01*
X179213299Y-115098041D01*
X179213314Y-115098048D01*
X179327874Y-115145500D01*
X179397952Y-115174527D01*
X179452356Y-115218368D01*
X179474421Y-115284662D01*
X179474500Y-115289088D01*
X179474500Y-117308942D01*
X179454815Y-117375981D01*
X179415598Y-117414479D01*
X179358011Y-117450000D01*
X179281342Y-117497289D01*
X179187681Y-117590951D01*
X179126358Y-117624436D01*
X179056666Y-117619452D01*
X179012319Y-117590951D01*
X178918657Y-117497289D01*
X178918656Y-117497288D01*
X178800028Y-117424118D01*
X178769336Y-117405187D01*
X178769331Y-117405185D01*
X178767862Y-117404698D01*
X178602797Y-117350001D01*
X178602795Y-117350000D01*
X178500016Y-117339500D01*
X178500009Y-117339500D01*
X177835453Y-117339500D01*
X177768414Y-117319815D01*
X177747772Y-117303181D01*
X172355822Y-111911232D01*
X172345859Y-111901269D01*
X172345858Y-111901267D01*
X172258733Y-111814142D01*
X172207509Y-111779915D01*
X172196395Y-111772489D01*
X172173157Y-111756961D01*
X172156286Y-111745688D01*
X172156283Y-111745686D01*
X172156280Y-111745685D01*
X172082603Y-111715168D01*
X172082601Y-111715167D01*
X172075792Y-111712347D01*
X172042452Y-111698537D01*
X171982029Y-111686518D01*
X171977306Y-111685578D01*
X171977304Y-111685578D01*
X171921610Y-111674500D01*
X171921607Y-111674500D01*
X171921606Y-111674500D01*
X158535452Y-111674500D01*
X158468413Y-111654815D01*
X158447771Y-111638181D01*
X154161818Y-107352228D01*
X154128333Y-107290905D01*
X154125499Y-107264547D01*
X154125499Y-106052129D01*
X154125498Y-106052123D01*
X154119091Y-105992516D01*
X154068797Y-105857671D01*
X154068793Y-105857664D01*
X153982547Y-105742455D01*
X153982544Y-105742452D01*
X153867335Y-105656206D01*
X153867328Y-105656202D01*
X153732482Y-105605908D01*
X153732483Y-105605908D01*
X153672883Y-105599501D01*
X153672881Y-105599500D01*
X153672873Y-105599500D01*
X153672865Y-105599500D01*
X153574500Y-105599500D01*
X153507461Y-105579815D01*
X153461706Y-105527011D01*
X153450500Y-105475500D01*
X153450500Y-103117741D01*
X153450501Y-103117720D01*
X153450501Y-102988391D01*
X153426464Y-102867554D01*
X153426463Y-102867553D01*
X153426463Y-102867549D01*
X153422323Y-102857555D01*
X153413956Y-102837354D01*
X153404191Y-102813779D01*
X153394426Y-102790204D01*
X153379312Y-102753715D01*
X153310858Y-102651267D01*
X153310855Y-102651263D01*
X146886818Y-96227227D01*
X146853333Y-96165904D01*
X146850499Y-96139546D01*
X146850499Y-95277129D01*
X146850498Y-95277123D01*
X146850497Y-95277116D01*
X146844091Y-95217517D01*
X146807411Y-95119174D01*
X146793797Y-95082671D01*
X146793793Y-95082664D01*
X146707547Y-94967455D01*
X146707544Y-94967452D01*
X146592335Y-94881206D01*
X146592328Y-94881202D01*
X146457482Y-94830908D01*
X146457483Y-94830908D01*
X146397883Y-94824501D01*
X146397881Y-94824500D01*
X146397873Y-94824500D01*
X146397864Y-94824500D01*
X145302129Y-94824500D01*
X145302123Y-94824501D01*
X145242520Y-94830908D01*
X145234974Y-94832692D01*
X145234628Y-94831230D01*
X145173622Y-94835584D01*
X145158600Y-94831172D01*
X145157482Y-94830908D01*
X145097883Y-94824501D01*
X145097881Y-94824500D01*
X145097873Y-94824500D01*
X145097864Y-94824500D01*
X144002129Y-94824500D01*
X144002123Y-94824501D01*
X143942516Y-94830908D01*
X143807671Y-94881202D01*
X143807664Y-94881206D01*
X143692455Y-94967452D01*
X143692452Y-94967455D01*
X143606206Y-95082664D01*
X143606202Y-95082671D01*
X143555908Y-95217517D01*
X143550715Y-95265826D01*
X143549501Y-95277123D01*
X143549500Y-95277135D01*
X143549500Y-96139546D01*
X143529815Y-96206585D01*
X143513181Y-96227227D01*
X137186269Y-102554140D01*
X137099144Y-102641264D01*
X137099138Y-102641272D01*
X137064914Y-102692489D01*
X137064915Y-102692490D01*
X137030691Y-102743708D01*
X137030684Y-102743721D01*
X137011431Y-102790205D01*
X137011431Y-102790206D01*
X136983538Y-102857545D01*
X136983535Y-102857555D01*
X136959500Y-102978389D01*
X136959500Y-105683885D01*
X136939815Y-105750924D01*
X136906428Y-105783606D01*
X136907331Y-105784849D01*
X136737786Y-105908028D01*
X136593028Y-106052786D01*
X136472715Y-106218386D01*
X136379781Y-106400776D01*
X136316522Y-106595465D01*
X136284500Y-106797648D01*
X136284500Y-107002351D01*
X136316522Y-107204534D01*
X136379781Y-107399223D01*
X136472715Y-107581613D01*
X136593028Y-107747213D01*
X136737786Y-107891971D01*
X136892749Y-108004556D01*
X136903390Y-108012287D01*
X136992212Y-108057544D01*
X137085776Y-108105218D01*
X137085778Y-108105218D01*
X137085781Y-108105220D01*
X137169953Y-108132569D01*
X137227628Y-108172007D01*
X137254826Y-108236366D01*
X137242911Y-108305212D01*
X137195667Y-108356688D01*
X137131634Y-108374500D01*
X136610452Y-108374500D01*
X136543413Y-108354815D01*
X136522771Y-108338181D01*
X135761819Y-107577229D01*
X135728334Y-107515906D01*
X135725500Y-107489548D01*
X135725500Y-96038393D01*
X135725499Y-96038389D01*
X135715248Y-95986852D01*
X135701463Y-95917548D01*
X135672535Y-95847709D01*
X135668423Y-95837781D01*
X135654314Y-95803719D01*
X135654309Y-95803710D01*
X135637259Y-95778194D01*
X135637256Y-95778190D01*
X135593503Y-95712709D01*
X135572627Y-95646033D01*
X135577744Y-95611767D01*
X135577094Y-95611611D01*
X135578228Y-95606884D01*
X135578231Y-95606876D01*
X135610500Y-95403139D01*
X135610500Y-95196861D01*
X135578231Y-94993124D01*
X135578230Y-94993120D01*
X135578230Y-94993119D01*
X135514489Y-94796945D01*
X135420839Y-94613147D01*
X135377929Y-94554087D01*
X135299593Y-94446267D01*
X135153733Y-94300407D01*
X134986852Y-94179160D01*
X134939231Y-94154896D01*
X134803054Y-94085510D01*
X134606879Y-94021769D01*
X134454073Y-93997567D01*
X134403139Y-93989500D01*
X134196861Y-93989500D01*
X134128948Y-94000256D01*
X133993122Y-94021769D01*
X133993119Y-94021769D01*
X133796945Y-94085510D01*
X133613147Y-94179160D01*
X133446265Y-94300408D01*
X133300408Y-94446265D01*
X133179160Y-94613147D01*
X133085510Y-94796945D01*
X133021769Y-94993119D01*
X133021769Y-94993122D01*
X132989500Y-95196861D01*
X132989500Y-95403138D01*
X133021769Y-95606877D01*
X133021769Y-95606880D01*
X133085510Y-95803054D01*
X133134146Y-95898507D01*
X133179160Y-95986852D01*
X133300407Y-96153733D01*
X133446267Y-96299593D01*
X133613148Y-96420840D01*
X133756327Y-96493793D01*
X133796945Y-96514489D01*
X133993120Y-96578230D01*
X133993121Y-96578230D01*
X133993124Y-96578231D01*
X134196861Y-96610500D01*
X134196862Y-96610500D01*
X134350500Y-96610500D01*
X134417539Y-96630185D01*
X134463294Y-96682989D01*
X134474500Y-96734500D01*
X134474500Y-107861611D01*
X134498535Y-107982444D01*
X134498540Y-107982461D01*
X134545685Y-108096280D01*
X134545687Y-108096283D01*
X134545688Y-108096286D01*
X134577434Y-108143796D01*
X134614142Y-108198733D01*
X134701267Y-108285858D01*
X134701270Y-108285860D01*
X134708673Y-108293263D01*
X135278229Y-108862819D01*
X135311714Y-108924142D01*
X135306730Y-108993834D01*
X135264858Y-109049767D01*
X135199394Y-109074184D01*
X135190548Y-109074500D01*
X129638389Y-109074500D01*
X129577971Y-109086518D01*
X129541790Y-109093715D01*
X129517550Y-109098536D01*
X129517548Y-109098537D01*
X129484207Y-109112347D01*
X129403719Y-109145684D01*
X129403705Y-109145692D01*
X129301272Y-109214138D01*
X129301264Y-109214144D01*
X129214139Y-109301270D01*
X128027227Y-110488181D01*
X127965904Y-110521666D01*
X127939546Y-110524500D01*
X126977129Y-110524500D01*
X126977123Y-110524501D01*
X126917516Y-110530908D01*
X126782671Y-110581202D01*
X126782664Y-110581206D01*
X126667455Y-110667452D01*
X126667452Y-110667455D01*
X126581206Y-110782664D01*
X126581202Y-110782671D01*
X126530908Y-110917517D01*
X126524501Y-110977116D01*
X126524500Y-110977135D01*
X126524500Y-112422870D01*
X126524501Y-112422876D01*
X126530908Y-112482483D01*
X126581202Y-112617328D01*
X126581206Y-112617335D01*
X126667452Y-112732544D01*
X126667455Y-112732547D01*
X126782664Y-112818793D01*
X126782671Y-112818797D01*
X126917517Y-112869091D01*
X126917516Y-112869091D01*
X126924444Y-112869835D01*
X126977127Y-112875500D01*
X128422872Y-112875499D01*
X128482483Y-112869091D01*
X128617331Y-112818796D01*
X128732546Y-112732546D01*
X128796541Y-112647059D01*
X128852473Y-112605190D01*
X128922165Y-112600206D01*
X128968691Y-112621054D01*
X129084161Y-112704947D01*
X129248956Y-112788915D01*
X129248959Y-112788916D01*
X129424845Y-112846064D01*
X129424858Y-112846067D01*
X129450000Y-112850049D01*
X129450000Y-112015686D01*
X129454394Y-112020080D01*
X129545606Y-112072741D01*
X129647339Y-112100000D01*
X129752661Y-112100000D01*
X129854394Y-112072741D01*
X129945606Y-112020080D01*
X129950000Y-112015686D01*
X129950000Y-112850048D01*
X129975141Y-112846067D01*
X129975154Y-112846064D01*
X130151040Y-112788916D01*
X130151043Y-112788915D01*
X130315837Y-112704947D01*
X130465454Y-112596245D01*
X130465459Y-112596241D01*
X130596238Y-112465462D01*
X130596240Y-112465459D01*
X130599368Y-112461155D01*
X130654695Y-112418485D01*
X130724308Y-112412501D01*
X130786105Y-112445103D01*
X130800004Y-112461142D01*
X130803379Y-112465787D01*
X130934213Y-112596621D01*
X131083904Y-112705378D01*
X131137224Y-112732546D01*
X131248764Y-112789379D01*
X131248767Y-112789380D01*
X131336750Y-112817967D01*
X131424736Y-112846555D01*
X131607486Y-112875500D01*
X131607487Y-112875500D01*
X131792513Y-112875500D01*
X131792514Y-112875500D01*
X131975264Y-112846555D01*
X132151235Y-112789379D01*
X132316096Y-112705378D01*
X132465787Y-112596621D01*
X132596621Y-112465787D01*
X132661409Y-112376613D01*
X132716739Y-112333949D01*
X132761727Y-112325500D01*
X136490548Y-112325500D01*
X136557587Y-112345185D01*
X136603342Y-112397989D01*
X136613286Y-112467147D01*
X136584261Y-112530703D01*
X136578229Y-112537181D01*
X130077229Y-119038181D01*
X130015906Y-119071666D01*
X129989548Y-119074500D01*
X125327880Y-119074500D01*
X125260841Y-119054815D01*
X125223827Y-119017000D01*
X125223704Y-119017090D01*
X125223094Y-119016250D01*
X125222151Y-119015287D01*
X125220842Y-119013151D01*
X125220839Y-119013147D01*
X125099593Y-118846267D01*
X124953733Y-118700407D01*
X124786852Y-118579160D01*
X124777551Y-118574421D01*
X124603054Y-118485510D01*
X124406879Y-118421769D01*
X124254073Y-118397567D01*
X124203139Y-118389500D01*
X123996861Y-118389500D01*
X123930580Y-118399998D01*
X123793122Y-118421769D01*
X123793119Y-118421769D01*
X123596945Y-118485510D01*
X123413147Y-118579160D01*
X123246264Y-118700409D01*
X123100408Y-118846265D01*
X122979160Y-119013147D01*
X122885510Y-119196945D01*
X122821769Y-119393119D01*
X122821769Y-119393122D01*
X122811090Y-119460548D01*
X122789500Y-119596861D01*
X122789500Y-119803139D01*
X122800097Y-119870044D01*
X122821769Y-120006877D01*
X122821769Y-120006880D01*
X122885510Y-120203054D01*
X122954504Y-120338462D01*
X122979160Y-120386852D01*
X123100407Y-120553733D01*
X123246267Y-120699593D01*
X123413148Y-120820840D01*
X123547901Y-120889500D01*
X123596945Y-120914489D01*
X123793120Y-120978230D01*
X123793121Y-120978230D01*
X123793124Y-120978231D01*
X123996861Y-121010500D01*
X123996862Y-121010500D01*
X124203138Y-121010500D01*
X124203139Y-121010500D01*
X124406876Y-120978231D01*
X124406879Y-120978230D01*
X124406880Y-120978230D01*
X124603054Y-120914489D01*
X124603054Y-120914488D01*
X124603057Y-120914488D01*
X124786852Y-120820840D01*
X124953733Y-120699593D01*
X125099593Y-120553733D01*
X125220840Y-120386852D01*
X125220842Y-120386847D01*
X125222151Y-120384713D01*
X125222860Y-120384071D01*
X125223704Y-120382910D01*
X125223947Y-120383087D01*
X125273962Y-120337836D01*
X125327880Y-120325500D01*
X130361607Y-120325500D01*
X130422029Y-120313481D01*
X130482452Y-120301463D01*
X130515792Y-120287652D01*
X130596286Y-120254312D01*
X130662407Y-120210130D01*
X130698733Y-120185858D01*
X130785858Y-120098733D01*
X130785859Y-120098731D01*
X130792925Y-120091665D01*
X130792927Y-120091661D01*
X136110546Y-114774043D01*
X136171867Y-114740560D01*
X136241559Y-114745544D01*
X136297492Y-114787416D01*
X136316156Y-114823407D01*
X136379781Y-115019223D01*
X136443691Y-115144653D01*
X136471076Y-115198398D01*
X136472715Y-115201613D01*
X136593028Y-115367213D01*
X136593034Y-115367219D01*
X136737781Y-115511966D01*
X136903390Y-115632287D01*
X136903394Y-115632289D01*
X136907332Y-115635150D01*
X136906111Y-115636829D01*
X136947155Y-115682177D01*
X136959500Y-115736114D01*
X136959500Y-118421610D01*
X136983535Y-118542446D01*
X136983537Y-118542452D01*
X136991901Y-118562645D01*
X137030688Y-118656286D01*
X137060170Y-118700407D01*
X137099142Y-118758733D01*
X137186267Y-118845858D01*
X137186268Y-118845858D01*
X137193335Y-118852925D01*
X137193334Y-118852925D01*
X137193338Y-118852928D01*
X143513181Y-125172772D01*
X143546666Y-125234095D01*
X143549500Y-125260453D01*
X143549500Y-126122870D01*
X143549501Y-126122876D01*
X143555908Y-126182483D01*
X143606202Y-126317328D01*
X143606206Y-126317335D01*
X143692452Y-126432544D01*
X143692455Y-126432547D01*
X143807664Y-126518793D01*
X143807671Y-126518797D01*
X143942517Y-126569091D01*
X143942516Y-126569091D01*
X143949444Y-126569835D01*
X144002127Y-126575500D01*
X145097872Y-126575499D01*
X145157483Y-126569091D01*
X145157485Y-126569090D01*
X145157487Y-126569090D01*
X145165031Y-126567308D01*
X145165377Y-126568775D01*
X145226342Y-126564408D01*
X145241378Y-126568822D01*
X145242513Y-126569089D01*
X145242517Y-126569091D01*
X145302127Y-126575500D01*
X146397872Y-126575499D01*
X146457483Y-126569091D01*
X146592331Y-126518796D01*
X146707546Y-126432546D01*
X146793796Y-126317331D01*
X146844091Y-126182483D01*
X146850500Y-126122873D01*
X146850499Y-125260450D01*
X146870183Y-125193412D01*
X146886813Y-125172775D01*
X153310858Y-118748733D01*
X153379312Y-118646285D01*
X153409046Y-118574500D01*
X153426463Y-118532452D01*
X153430829Y-118510500D01*
X153450501Y-118411606D01*
X153450501Y-118288393D01*
X153450501Y-118283283D01*
X153450500Y-118283257D01*
X153450500Y-115736114D01*
X153470185Y-115669075D01*
X153503575Y-115636398D01*
X153502668Y-115635150D01*
X153506605Y-115632289D01*
X153506610Y-115632287D01*
X153672219Y-115511966D01*
X153816966Y-115367219D01*
X153816968Y-115367215D01*
X153816971Y-115367213D01*
X153940151Y-115197669D01*
X153941823Y-115198884D01*
X153987208Y-115157831D01*
X154041115Y-115145500D01*
X158034610Y-115145500D01*
X158101649Y-115165185D01*
X158147404Y-115217989D01*
X158152315Y-115230493D01*
X158165186Y-115269334D01*
X158257288Y-115418656D01*
X158381344Y-115542712D01*
X158530666Y-115634814D01*
X158697203Y-115689999D01*
X158799991Y-115700500D01*
X159600008Y-115700499D01*
X159600016Y-115700498D01*
X159600019Y-115700498D01*
X159663688Y-115693994D01*
X159702797Y-115689999D01*
X159869334Y-115634814D01*
X160018656Y-115542712D01*
X160112319Y-115449049D01*
X160173642Y-115415564D01*
X160243334Y-115420548D01*
X160287681Y-115449049D01*
X160381344Y-115542712D01*
X160515597Y-115625519D01*
X160562321Y-115677465D01*
X160574500Y-115731057D01*
X160574500Y-116161606D01*
X160582218Y-116200407D01*
X160598316Y-116281344D01*
X160598537Y-116282452D01*
X160604060Y-116295785D01*
X160645688Y-116396286D01*
X160668661Y-116430666D01*
X160673361Y-116437700D01*
X160673362Y-116437702D01*
X160714141Y-116498732D01*
X160714144Y-116498736D01*
X160805586Y-116590178D01*
X160805608Y-116590198D01*
X162763181Y-118547771D01*
X162796666Y-118609094D01*
X162799500Y-118635452D01*
X162799500Y-120200370D01*
X162799501Y-120200376D01*
X162805908Y-120259983D01*
X162856202Y-120394828D01*
X162856206Y-120394835D01*
X162942452Y-120510044D01*
X162942455Y-120510047D01*
X163057664Y-120596293D01*
X163057669Y-120596296D01*
X163085539Y-120606690D01*
X163141473Y-120648561D01*
X163165891Y-120714024D01*
X163151040Y-120782298D01*
X163142525Y-120795759D01*
X163009783Y-120978461D01*
X162905950Y-121182244D01*
X162835278Y-121399750D01*
X162835278Y-121399753D01*
X162803226Y-121602119D01*
X162799500Y-121625646D01*
X162799500Y-121854354D01*
X162802305Y-121872063D01*
X162835278Y-122080246D01*
X162835278Y-122080249D01*
X162905950Y-122297755D01*
X162984970Y-122452840D01*
X163009783Y-122501538D01*
X163144214Y-122686566D01*
X163305934Y-122848286D01*
X163390864Y-122909991D01*
X163433529Y-122965321D01*
X163439508Y-123034935D01*
X163406902Y-123096730D01*
X163390864Y-123110627D01*
X163306257Y-123172097D01*
X163144597Y-123333757D01*
X163010211Y-123518723D01*
X162906417Y-123722429D01*
X162835765Y-123939871D01*
X162821491Y-124030000D01*
X163809252Y-124030000D01*
X163787482Y-124067708D01*
X163750000Y-124207591D01*
X163750000Y-124352409D01*
X163787482Y-124492292D01*
X163809252Y-124530000D01*
X162821491Y-124530000D01*
X162835765Y-124620128D01*
X162906417Y-124837570D01*
X163010211Y-125041276D01*
X163144597Y-125226242D01*
X163306257Y-125387902D01*
X163491223Y-125522288D01*
X163694929Y-125626082D01*
X163912371Y-125696734D01*
X164050000Y-125718532D01*
X164050000Y-124770747D01*
X164087708Y-124792518D01*
X164227591Y-124830000D01*
X164372409Y-124830000D01*
X164512292Y-124792518D01*
X164550000Y-124770747D01*
X164550000Y-125718531D01*
X164687628Y-125696734D01*
X164905070Y-125626082D01*
X165108776Y-125522288D01*
X165293742Y-125387902D01*
X165455402Y-125226242D01*
X165589788Y-125041276D01*
X165693582Y-124837570D01*
X165764234Y-124620128D01*
X165778509Y-124530000D01*
X164790748Y-124530000D01*
X164812518Y-124492292D01*
X164850000Y-124352409D01*
X164850000Y-124207591D01*
X164812518Y-124067708D01*
X164790748Y-124030000D01*
X165778509Y-124030000D01*
X165764234Y-123939871D01*
X165693582Y-123722429D01*
X165589788Y-123518723D01*
X165455402Y-123333757D01*
X165293742Y-123172097D01*
X165209135Y-123110626D01*
X165166470Y-123055296D01*
X165160491Y-122985682D01*
X165193097Y-122923887D01*
X165209125Y-122909999D01*
X165294066Y-122848286D01*
X165455786Y-122686566D01*
X165590217Y-122501538D01*
X165590218Y-122501535D01*
X165591331Y-122499720D01*
X165591934Y-122499173D01*
X165593081Y-122497596D01*
X165593412Y-122497836D01*
X165643138Y-122452840D01*
X165697064Y-122440500D01*
X166198481Y-122440500D01*
X166265520Y-122460185D01*
X166286162Y-122476819D01*
X167993453Y-124184111D01*
X167993454Y-124184112D01*
X168108192Y-124260777D01*
X168235667Y-124313578D01*
X168235672Y-124313580D01*
X168235676Y-124313580D01*
X168235677Y-124313581D01*
X168371003Y-124340500D01*
X168371006Y-124340500D01*
X168371007Y-124340500D01*
X183357936Y-124340500D01*
X183424975Y-124360185D01*
X183461726Y-124397735D01*
X183461919Y-124397596D01*
X183462866Y-124398899D01*
X183463669Y-124399720D01*
X183464781Y-124401536D01*
X183467484Y-124405256D01*
X183599214Y-124586566D01*
X183760934Y-124748286D01*
X183945962Y-124882717D01*
X184149742Y-124986548D01*
X184149744Y-124986549D01*
X184367251Y-125057221D01*
X184367252Y-125057221D01*
X184367255Y-125057222D01*
X184593146Y-125093000D01*
X184593147Y-125093000D01*
X184916853Y-125093000D01*
X184916854Y-125093000D01*
X185142745Y-125057222D01*
X185142748Y-125057221D01*
X185142749Y-125057221D01*
X185360255Y-124986549D01*
X185360255Y-124986548D01*
X185360258Y-124986548D01*
X185564038Y-124882717D01*
X185749066Y-124748286D01*
X185910786Y-124586566D01*
X186045217Y-124401538D01*
X186084015Y-124325391D01*
X186131989Y-124274596D01*
X186199810Y-124257801D01*
X186265945Y-124280338D01*
X186309397Y-124335053D01*
X186318500Y-124381687D01*
X186318500Y-128085588D01*
X186298815Y-128152627D01*
X186282181Y-128173269D01*
X184304247Y-130151202D01*
X184287650Y-130160264D01*
X184274043Y-130173395D01*
X184244541Y-130183803D01*
X184242924Y-130184687D01*
X184240760Y-130185138D01*
X184231204Y-130187039D01*
X184161612Y-130180813D01*
X184145010Y-130172809D01*
X183676675Y-129902416D01*
X183621852Y-129878163D01*
X183621849Y-129878162D01*
X183479923Y-129854296D01*
X183479921Y-129854295D01*
X183337015Y-129871383D01*
X183337012Y-129871384D01*
X183204718Y-129928035D01*
X183093733Y-130019672D01*
X183093733Y-130019673D01*
X183058385Y-130068082D01*
X183058380Y-130068089D01*
X182994842Y-130178140D01*
X182944274Y-130226355D01*
X182875667Y-130239577D01*
X182863206Y-130235593D01*
X182851697Y-130238677D01*
X180815042Y-133766269D01*
X180181317Y-134863913D01*
X180152522Y-134913787D01*
X180101955Y-134962003D01*
X180045135Y-134975787D01*
X177988516Y-134975787D01*
X177959075Y-134967142D01*
X177929089Y-134960619D01*
X177924073Y-134956864D01*
X177921477Y-134956102D01*
X177900835Y-134939468D01*
X177900569Y-134939202D01*
X177867084Y-134877879D01*
X177872068Y-134808187D01*
X177873666Y-134804126D01*
X177898398Y-134744419D01*
X177966270Y-134491116D01*
X178000500Y-134231120D01*
X178000500Y-133968880D01*
X177966270Y-133708884D01*
X177898398Y-133455581D01*
X177885994Y-133425634D01*
X177798046Y-133213309D01*
X177798041Y-133213299D01*
X177666924Y-132986196D01*
X177520394Y-132795237D01*
X177507282Y-132778149D01*
X177507281Y-132778148D01*
X177507274Y-132778140D01*
X177321860Y-132592726D01*
X177321851Y-132592718D01*
X177113803Y-132433075D01*
X176886700Y-132301958D01*
X176886690Y-132301953D01*
X176644428Y-132201605D01*
X176644421Y-132201603D01*
X176644419Y-132201602D01*
X176391116Y-132133730D01*
X176333339Y-132126123D01*
X176131127Y-132099500D01*
X176131120Y-132099500D01*
X175868880Y-132099500D01*
X175868872Y-132099500D01*
X175647044Y-132128706D01*
X175608884Y-132133730D01*
X175355581Y-132201602D01*
X175355571Y-132201605D01*
X175245931Y-132247020D01*
X175176461Y-132254489D01*
X175113982Y-132223214D01*
X175110797Y-132220140D01*
X173709046Y-130818388D01*
X173709045Y-130818387D01*
X173594307Y-130741722D01*
X173466832Y-130688921D01*
X173466822Y-130688918D01*
X173331496Y-130662000D01*
X173331494Y-130662000D01*
X173331493Y-130662000D01*
X170702088Y-130662000D01*
X170635049Y-130642315D01*
X170596549Y-130603097D01*
X170567712Y-130556344D01*
X170443656Y-130432288D01*
X170294334Y-130340186D01*
X170127797Y-130285001D01*
X170127795Y-130285000D01*
X170025010Y-130274500D01*
X168974998Y-130274500D01*
X168974980Y-130274501D01*
X168872203Y-130285000D01*
X168872200Y-130285001D01*
X168705668Y-130340185D01*
X168705663Y-130340187D01*
X168556342Y-130432289D01*
X168432289Y-130556342D01*
X168432288Y-130556344D01*
X168400870Y-130607282D01*
X168395741Y-130615597D01*
X168343793Y-130662321D01*
X168290202Y-130674500D01*
X161239500Y-130674500D01*
X161172461Y-130654815D01*
X161126706Y-130602011D01*
X161115500Y-130550500D01*
X161115500Y-130516514D01*
X161115500Y-130516508D01*
X161104780Y-130427241D01*
X161048760Y-130285184D01*
X161048758Y-130285181D01*
X160956491Y-130163508D01*
X160834818Y-130071241D01*
X160834816Y-130071240D01*
X160739697Y-130033730D01*
X160692757Y-130015219D01*
X160646936Y-130009717D01*
X160603492Y-130004500D01*
X160603486Y-130004500D01*
X160201519Y-130004500D01*
X160134480Y-129984815D01*
X160113838Y-129968181D01*
X159601546Y-129455888D01*
X159601545Y-129455887D01*
X159486807Y-129379222D01*
X159359332Y-129326421D01*
X159359322Y-129326418D01*
X159223996Y-129299500D01*
X159223994Y-129299500D01*
X159223993Y-129299500D01*
X156373994Y-129299500D01*
X156236006Y-129299500D01*
X156236004Y-129299500D01*
X156100677Y-129326418D01*
X156100667Y-129326421D01*
X155973192Y-129379222D01*
X155858454Y-129455887D01*
X155858453Y-129455888D01*
X155346162Y-129968181D01*
X155284839Y-130001666D01*
X155258481Y-130004500D01*
X154856507Y-130004500D01*
X154767240Y-130015220D01*
X154767238Y-130015220D01*
X154765635Y-130015853D01*
X154762009Y-130016542D01*
X154759529Y-130017169D01*
X154759491Y-130017020D01*
X154758650Y-130017180D01*
X154755077Y-130019477D01*
X154720142Y-130024500D01*
X154666519Y-130024500D01*
X154599480Y-130004815D01*
X154578838Y-129988181D01*
X153146546Y-128555888D01*
X153146545Y-128555887D01*
X153031807Y-128479222D01*
X152904332Y-128426421D01*
X152904322Y-128426418D01*
X152768996Y-128399500D01*
X152768994Y-128399500D01*
X152768993Y-128399500D01*
X149331007Y-128399500D01*
X149331003Y-128399500D01*
X149222590Y-128421065D01*
X149222589Y-128421065D01*
X149209131Y-128423742D01*
X149195673Y-128426419D01*
X149169268Y-128437356D01*
X149142866Y-128448292D01*
X149142864Y-128448293D01*
X149142863Y-128448292D01*
X149068191Y-128479223D01*
X148963017Y-128549499D01*
X148963016Y-128549498D01*
X148953460Y-128555884D01*
X148953451Y-128555891D01*
X147355888Y-130153453D01*
X147355887Y-130153454D01*
X147333447Y-130187039D01*
X147292531Y-130248275D01*
X147292530Y-130248277D01*
X147279223Y-130268190D01*
X147226421Y-130395667D01*
X147226418Y-130395677D01*
X147199500Y-130531004D01*
X147199500Y-131050500D01*
X147179815Y-131117539D01*
X147127011Y-131163294D01*
X147075500Y-131174500D01*
X146389089Y-131174500D01*
X146322050Y-131154815D01*
X146276295Y-131102011D01*
X146274528Y-131097953D01*
X146198046Y-130913309D01*
X146198041Y-130913299D01*
X146066924Y-130686196D01*
X145907281Y-130478148D01*
X145907274Y-130478140D01*
X145721860Y-130292726D01*
X145721851Y-130292718D01*
X145513803Y-130133075D01*
X145286700Y-130001958D01*
X145286690Y-130001953D01*
X145044428Y-129901605D01*
X145044421Y-129901603D01*
X145044419Y-129901602D01*
X144791116Y-129833730D01*
X144733339Y-129826123D01*
X144531127Y-129799500D01*
X144531120Y-129799500D01*
X144268880Y-129799500D01*
X144268872Y-129799500D01*
X144037772Y-129829926D01*
X144008884Y-129833730D01*
X143868357Y-129871384D01*
X143755581Y-129901602D01*
X143755571Y-129901605D01*
X143513309Y-130001953D01*
X143513299Y-130001958D01*
X143286196Y-130133075D01*
X143078148Y-130292718D01*
X142892718Y-130478148D01*
X142733075Y-130686196D01*
X142601958Y-130913299D01*
X142601953Y-130913309D01*
X142501605Y-131155571D01*
X142501602Y-131155581D01*
X142433730Y-131408884D01*
X142433716Y-131408990D01*
X142399500Y-131668872D01*
X142399500Y-131931127D01*
X142424618Y-132121903D01*
X142433730Y-132191116D01*
X142498563Y-132433076D01*
X142501602Y-132444418D01*
X142501605Y-132444428D01*
X142601953Y-132686690D01*
X142601958Y-132686700D01*
X142733075Y-132913803D01*
X142892718Y-133121851D01*
X142892726Y-133121860D01*
X143078140Y-133307274D01*
X143078148Y-133307281D01*
X143078149Y-133307282D01*
X143123149Y-133341812D01*
X143286196Y-133466924D01*
X143513299Y-133598041D01*
X143513309Y-133598046D01*
X143755571Y-133698394D01*
X143755581Y-133698398D01*
X144008884Y-133766270D01*
X144257188Y-133798960D01*
X144265074Y-133799999D01*
X144268880Y-133800500D01*
X144268887Y-133800500D01*
X144531113Y-133800500D01*
X144531120Y-133800500D01*
X144791116Y-133766270D01*
X145044419Y-133698398D01*
X145228401Y-133622190D01*
X145286690Y-133598046D01*
X145286691Y-133598045D01*
X145286697Y-133598043D01*
X145513803Y-133466924D01*
X145721851Y-133307282D01*
X145721855Y-133307277D01*
X145721860Y-133307274D01*
X145907274Y-133121860D01*
X145907277Y-133121855D01*
X145907282Y-133121851D01*
X146066924Y-132913803D01*
X146198043Y-132686697D01*
X146213142Y-132650244D01*
X146274528Y-132502047D01*
X146318369Y-132447644D01*
X146384663Y-132425579D01*
X146389089Y-132425500D01*
X147075500Y-132425500D01*
X147142539Y-132445185D01*
X147188294Y-132497989D01*
X147199500Y-132549500D01*
X147199500Y-139650508D01*
X147179815Y-139717547D01*
X147156032Y-139744798D01*
X147150000Y-139749949D01*
X147150000Y-140584314D01*
X147145606Y-140579920D01*
X147054394Y-140527259D01*
X146952661Y-140500000D01*
X146847339Y-140500000D01*
X146745606Y-140527259D01*
X146654394Y-140579920D01*
X146650000Y-140584314D01*
X146650000Y-139749950D01*
X146649999Y-139749950D01*
X146624855Y-139753932D01*
X146448962Y-139811082D01*
X146448956Y-139811084D01*
X146284162Y-139895052D01*
X146134545Y-140003754D01*
X146134540Y-140003758D01*
X146003762Y-140134536D01*
X146003757Y-140134542D01*
X146000620Y-140138860D01*
X145945286Y-140181521D01*
X145875672Y-140187494D01*
X145813880Y-140154883D01*
X145799992Y-140138853D01*
X145796621Y-140134213D01*
X145665787Y-140003379D01*
X145516096Y-139894622D01*
X145462778Y-139867455D01*
X145351235Y-139810620D01*
X145351232Y-139810619D01*
X145175265Y-139753445D01*
X145032972Y-139730908D01*
X144992514Y-139724500D01*
X144807486Y-139724500D01*
X144767028Y-139730908D01*
X144624734Y-139753445D01*
X144448767Y-139810619D01*
X144448764Y-139810620D01*
X144283903Y-139894622D01*
X144207683Y-139950000D01*
X144134213Y-140003379D01*
X144134211Y-140003381D01*
X144134210Y-140003381D01*
X144003381Y-140134210D01*
X144003381Y-140134211D01*
X144003379Y-140134213D01*
X143972199Y-140177129D01*
X143938591Y-140223386D01*
X143883261Y-140266051D01*
X143838273Y-140274500D01*
X138610453Y-140274500D01*
X138543414Y-140254815D01*
X138522772Y-140238181D01*
X134734091Y-136449500D01*
X130921770Y-132637180D01*
X130888286Y-132575858D01*
X130893270Y-132506166D01*
X130935142Y-132450233D01*
X131000606Y-132425816D01*
X131009452Y-132425500D01*
X132610911Y-132425500D01*
X132677950Y-132445185D01*
X132723705Y-132497989D01*
X132725472Y-132502047D01*
X132801953Y-132686690D01*
X132801958Y-132686700D01*
X132933075Y-132913803D01*
X133092718Y-133121851D01*
X133092726Y-133121860D01*
X133278140Y-133307274D01*
X133278148Y-133307281D01*
X133278149Y-133307282D01*
X133323149Y-133341812D01*
X133486196Y-133466924D01*
X133713299Y-133598041D01*
X133713309Y-133598046D01*
X133955571Y-133698394D01*
X133955581Y-133698398D01*
X134208884Y-133766270D01*
X134457188Y-133798960D01*
X134465074Y-133799999D01*
X134468880Y-133800500D01*
X134468887Y-133800500D01*
X134731113Y-133800500D01*
X134731120Y-133800500D01*
X134991116Y-133766270D01*
X135244419Y-133698398D01*
X135428401Y-133622190D01*
X135486690Y-133598046D01*
X135486691Y-133598045D01*
X135486697Y-133598043D01*
X135713803Y-133466924D01*
X135827192Y-133379917D01*
X138273633Y-133379917D01*
X138273633Y-133379918D01*
X138386475Y-133466505D01*
X138386483Y-133466511D01*
X138613517Y-133597590D01*
X138613528Y-133597595D01*
X138855744Y-133697924D01*
X139108979Y-133765777D01*
X139108990Y-133765779D01*
X139368905Y-133799999D01*
X139368920Y-133800000D01*
X139631080Y-133800000D01*
X139631094Y-133799999D01*
X139891009Y-133765779D01*
X139891020Y-133765777D01*
X140144255Y-133697924D01*
X140386471Y-133597595D01*
X140386482Y-133597590D01*
X140613516Y-133466511D01*
X140613534Y-133466499D01*
X140726365Y-133379919D01*
X140726365Y-133379917D01*
X139500000Y-132153553D01*
X138273633Y-133379917D01*
X135827192Y-133379917D01*
X135921851Y-133307282D01*
X135921855Y-133307277D01*
X135921860Y-133307274D01*
X136107274Y-133121860D01*
X136107277Y-133121855D01*
X136107282Y-133121851D01*
X136266924Y-132913803D01*
X136398043Y-132686697D01*
X136498398Y-132444419D01*
X136566270Y-132191116D01*
X136600500Y-131931120D01*
X136600500Y-131668905D01*
X137500000Y-131668905D01*
X137500000Y-131931094D01*
X137534220Y-132191009D01*
X137534222Y-132191020D01*
X137602075Y-132444255D01*
X137702404Y-132686471D01*
X137702409Y-132686482D01*
X137833488Y-132913516D01*
X137833494Y-132913524D01*
X137920080Y-133026365D01*
X139146446Y-131800000D01*
X139146446Y-131799999D01*
X139853553Y-131799999D01*
X139853553Y-131800000D01*
X141079917Y-133026365D01*
X141079919Y-133026365D01*
X141166499Y-132913534D01*
X141166511Y-132913516D01*
X141297590Y-132686482D01*
X141297595Y-132686471D01*
X141397924Y-132444255D01*
X141465777Y-132191020D01*
X141465779Y-132191009D01*
X141499999Y-131931094D01*
X141500000Y-131931080D01*
X141500000Y-131668919D01*
X141499999Y-131668905D01*
X141465779Y-131408990D01*
X141465777Y-131408979D01*
X141397924Y-131155744D01*
X141297595Y-130913528D01*
X141297590Y-130913517D01*
X141166511Y-130686483D01*
X141166505Y-130686475D01*
X141079918Y-130573633D01*
X141079917Y-130573633D01*
X139853553Y-131799999D01*
X139146446Y-131799999D01*
X137920080Y-130573633D01*
X137920079Y-130573633D01*
X137833496Y-130686471D01*
X137702409Y-130913517D01*
X137702404Y-130913528D01*
X137602075Y-131155744D01*
X137534222Y-131408979D01*
X137534220Y-131408990D01*
X137500000Y-131668905D01*
X136600500Y-131668905D01*
X136600500Y-131668880D01*
X136566270Y-131408884D01*
X136498398Y-131155581D01*
X136483126Y-131118711D01*
X136398046Y-130913309D01*
X136398041Y-130913299D01*
X136266924Y-130686196D01*
X136107281Y-130478148D01*
X136107274Y-130478140D01*
X135921860Y-130292726D01*
X135921851Y-130292718D01*
X135827187Y-130220079D01*
X138273633Y-130220079D01*
X138273633Y-130220080D01*
X139499999Y-131446446D01*
X140726365Y-130220080D01*
X140613524Y-130133494D01*
X140613516Y-130133488D01*
X140386482Y-130002409D01*
X140386471Y-130002404D01*
X140144255Y-129902075D01*
X139891020Y-129834222D01*
X139891009Y-129834220D01*
X139631094Y-129800000D01*
X139368905Y-129800000D01*
X139108990Y-129834220D01*
X139108979Y-129834222D01*
X138855744Y-129902075D01*
X138613528Y-130002404D01*
X138613517Y-130002409D01*
X138386471Y-130133496D01*
X138273633Y-130220079D01*
X135827187Y-130220079D01*
X135713803Y-130133075D01*
X135486700Y-130001958D01*
X135486690Y-130001953D01*
X135244428Y-129901605D01*
X135244421Y-129901603D01*
X135244419Y-129901602D01*
X134991116Y-129833730D01*
X134933339Y-129826123D01*
X134731127Y-129799500D01*
X134731120Y-129799500D01*
X134468880Y-129799500D01*
X134468872Y-129799500D01*
X134237772Y-129829926D01*
X134208884Y-129833730D01*
X134068357Y-129871384D01*
X133955581Y-129901602D01*
X133955571Y-129901605D01*
X133713309Y-130001953D01*
X133713299Y-130001958D01*
X133486196Y-130133075D01*
X133278148Y-130292718D01*
X133092718Y-130478148D01*
X132933075Y-130686196D01*
X132801958Y-130913299D01*
X132801953Y-130913309D01*
X132725472Y-131097953D01*
X132681631Y-131152356D01*
X132615337Y-131174421D01*
X132610911Y-131174500D01*
X130299500Y-131174500D01*
X130232461Y-131154815D01*
X130186706Y-131102011D01*
X130175500Y-131050500D01*
X130175500Y-123431057D01*
X130195185Y-123364018D01*
X130234401Y-123325520D01*
X130368656Y-123242712D01*
X130492712Y-123118656D01*
X130584814Y-122969334D01*
X130639999Y-122802797D01*
X130650500Y-122700009D01*
X130650499Y-121699992D01*
X130647949Y-121675033D01*
X130639999Y-121597203D01*
X130639998Y-121597200D01*
X130613422Y-121517000D01*
X130584814Y-121430666D01*
X130492712Y-121281344D01*
X130368656Y-121157288D01*
X130241990Y-121079160D01*
X130219336Y-121065187D01*
X130219331Y-121065185D01*
X130217862Y-121064698D01*
X130052797Y-121010001D01*
X130052795Y-121010000D01*
X129950010Y-120999500D01*
X129149998Y-120999500D01*
X129149980Y-120999501D01*
X129047203Y-121010000D01*
X129047200Y-121010001D01*
X128880668Y-121065185D01*
X128880663Y-121065187D01*
X128731342Y-121157289D01*
X128637681Y-121250951D01*
X128576358Y-121284436D01*
X128506666Y-121279452D01*
X128462319Y-121250951D01*
X128368657Y-121157289D01*
X128368656Y-121157288D01*
X128241990Y-121079160D01*
X128219336Y-121065187D01*
X128219331Y-121065185D01*
X128217862Y-121064698D01*
X128052797Y-121010001D01*
X128052795Y-121010000D01*
X127950010Y-120999500D01*
X127149998Y-120999500D01*
X127149980Y-120999501D01*
X127047203Y-121010000D01*
X127047200Y-121010001D01*
X126880668Y-121065185D01*
X126880663Y-121065187D01*
X126731342Y-121157289D01*
X126607289Y-121281342D01*
X126515187Y-121430663D01*
X126515186Y-121430666D01*
X126507065Y-121455175D01*
X126495689Y-121489505D01*
X126455916Y-121546949D01*
X126391400Y-121573772D01*
X126377983Y-121574500D01*
X122827880Y-121574500D01*
X122760841Y-121554815D01*
X122723827Y-121517000D01*
X122723704Y-121517090D01*
X122723094Y-121516250D01*
X122722151Y-121515287D01*
X122720842Y-121513151D01*
X122660913Y-121430666D01*
X122599593Y-121346267D01*
X122453733Y-121200407D01*
X122286852Y-121079160D01*
X122261844Y-121066418D01*
X122103054Y-120985510D01*
X121906879Y-120921769D01*
X121754073Y-120897567D01*
X121703139Y-120889500D01*
X121496861Y-120889500D01*
X121428948Y-120900256D01*
X121293122Y-120921769D01*
X121293119Y-120921769D01*
X121096945Y-120985510D01*
X120913147Y-121079160D01*
X120746265Y-121200408D01*
X120600409Y-121346264D01*
X120600402Y-121346273D01*
X120552278Y-121412509D01*
X120496948Y-121455175D01*
X120427335Y-121461153D01*
X120365540Y-121428546D01*
X120331183Y-121367707D01*
X120328022Y-121343518D01*
X120326165Y-121284436D01*
X120305459Y-120625514D01*
X120305398Y-120621619D01*
X120305398Y-119378380D01*
X120305459Y-119374485D01*
X120307506Y-119309334D01*
X120344511Y-118131805D01*
X120344694Y-118127937D01*
X120345278Y-118118656D01*
X120347743Y-118079478D01*
X120371596Y-118013810D01*
X120427168Y-117971460D01*
X120496815Y-117965878D01*
X120558423Y-117998836D01*
X120571814Y-118014379D01*
X120600406Y-118053732D01*
X120600407Y-118053733D01*
X120746267Y-118199593D01*
X120913148Y-118320840D01*
X121047901Y-118389500D01*
X121096945Y-118414489D01*
X121293120Y-118478230D01*
X121293121Y-118478230D01*
X121293124Y-118478231D01*
X121496861Y-118510500D01*
X121496862Y-118510500D01*
X121703138Y-118510500D01*
X121703139Y-118510500D01*
X121906876Y-118478231D01*
X121906879Y-118478230D01*
X121906880Y-118478230D01*
X122103054Y-118414489D01*
X122103054Y-118414488D01*
X122103057Y-118414488D01*
X122286852Y-118320840D01*
X122453733Y-118199593D01*
X122599593Y-118053733D01*
X122720840Y-117886852D01*
X122720842Y-117886847D01*
X122722151Y-117884713D01*
X122722860Y-117884071D01*
X122723704Y-117882910D01*
X122723947Y-117883087D01*
X122773962Y-117837836D01*
X122827880Y-117825500D01*
X126377983Y-117825500D01*
X126445022Y-117845185D01*
X126490777Y-117897989D01*
X126495686Y-117910489D01*
X126515186Y-117969334D01*
X126607288Y-118118656D01*
X126731344Y-118242712D01*
X126880666Y-118334814D01*
X127047203Y-118389999D01*
X127149991Y-118400500D01*
X127950008Y-118400499D01*
X127950016Y-118400498D01*
X127950019Y-118400498D01*
X128006302Y-118394748D01*
X128052797Y-118389999D01*
X128219334Y-118334814D01*
X128368656Y-118242712D01*
X128462675Y-118148692D01*
X128523994Y-118115210D01*
X128593686Y-118120194D01*
X128638034Y-118148695D01*
X128731654Y-118242315D01*
X128880875Y-118334356D01*
X128880880Y-118334358D01*
X129047302Y-118389505D01*
X129047309Y-118389506D01*
X129150019Y-118399999D01*
X129299999Y-118399999D01*
X129800000Y-118399999D01*
X129949972Y-118399999D01*
X129949986Y-118399998D01*
X130052697Y-118389505D01*
X130219119Y-118334358D01*
X130219124Y-118334356D01*
X130368345Y-118242315D01*
X130492315Y-118118345D01*
X130584356Y-117969124D01*
X130584358Y-117969119D01*
X130639505Y-117802697D01*
X130639506Y-117802690D01*
X130649999Y-117699986D01*
X130650000Y-117699973D01*
X130650000Y-117450000D01*
X129800000Y-117450000D01*
X129800000Y-118399999D01*
X129299999Y-118399999D01*
X129300000Y-118399998D01*
X129300000Y-116950000D01*
X129800000Y-116950000D01*
X130649999Y-116950000D01*
X130649999Y-116700028D01*
X130649998Y-116700013D01*
X130639505Y-116597302D01*
X130584358Y-116430880D01*
X130584356Y-116430875D01*
X130492315Y-116281654D01*
X130368345Y-116157684D01*
X130219124Y-116065643D01*
X130219119Y-116065641D01*
X130052697Y-116010494D01*
X130052690Y-116010493D01*
X129949986Y-116000000D01*
X129800000Y-116000000D01*
X129800000Y-116950000D01*
X129300000Y-116950000D01*
X129300000Y-116000000D01*
X129150027Y-116000000D01*
X129150012Y-116000001D01*
X129047302Y-116010494D01*
X128880880Y-116065641D01*
X128880875Y-116065643D01*
X128731657Y-116157682D01*
X128638034Y-116251305D01*
X128576710Y-116284789D01*
X128507019Y-116279805D01*
X128462672Y-116251304D01*
X128368657Y-116157289D01*
X128368656Y-116157288D01*
X128219334Y-116065186D01*
X128052797Y-116010001D01*
X128052795Y-116010000D01*
X127950010Y-115999500D01*
X127149998Y-115999500D01*
X127149980Y-115999501D01*
X127047203Y-116010000D01*
X127047200Y-116010001D01*
X126880668Y-116065185D01*
X126880663Y-116065187D01*
X126731342Y-116157289D01*
X126607289Y-116281342D01*
X126515187Y-116430663D01*
X126515186Y-116430666D01*
X126512855Y-116437702D01*
X126495689Y-116489505D01*
X126455916Y-116546949D01*
X126391400Y-116573772D01*
X126377983Y-116574500D01*
X122827880Y-116574500D01*
X122760841Y-116554815D01*
X122723827Y-116517000D01*
X122723704Y-116517090D01*
X122723094Y-116516250D01*
X122722151Y-116515287D01*
X122720842Y-116513151D01*
X122661068Y-116430880D01*
X122599593Y-116346267D01*
X122453733Y-116200407D01*
X122286852Y-116079160D01*
X122260323Y-116065643D01*
X122103054Y-115985510D01*
X121906879Y-115921769D01*
X121754073Y-115897567D01*
X121703139Y-115889500D01*
X121496861Y-115889500D01*
X121428948Y-115900256D01*
X121293122Y-115921769D01*
X121293119Y-115921769D01*
X121096945Y-115985510D01*
X120913147Y-116079160D01*
X120746265Y-116200408D01*
X120704153Y-116242520D01*
X120642830Y-116276005D01*
X120573138Y-116271019D01*
X120517205Y-116229147D01*
X120492789Y-116163683D01*
X120493022Y-116143178D01*
X120540069Y-115645477D01*
X120540493Y-115641653D01*
X120696313Y-114408210D01*
X120696861Y-114404365D01*
X120717447Y-114274394D01*
X120891345Y-113176438D01*
X120892013Y-113172608D01*
X120935396Y-112945185D01*
X121124986Y-111951318D01*
X121125759Y-111947588D01*
X121396993Y-110734153D01*
X121397871Y-110730498D01*
X121707074Y-109526234D01*
X121708098Y-109522495D01*
X121772370Y-109301270D01*
X122054962Y-108328578D01*
X122056078Y-108324950D01*
X122440305Y-107142420D01*
X122441518Y-107138878D01*
X122862699Y-105969002D01*
X122864044Y-105965445D01*
X123321742Y-104809431D01*
X123323184Y-104805948D01*
X123816976Y-103664863D01*
X123818571Y-103661332D01*
X123827862Y-103641588D01*
X124347955Y-102536331D01*
X124349613Y-102532947D01*
X124875933Y-101499986D01*
X127800001Y-101499986D01*
X127810494Y-101602697D01*
X127865641Y-101769119D01*
X127865643Y-101769124D01*
X127957684Y-101918345D01*
X128081654Y-102042315D01*
X128230875Y-102134356D01*
X128230880Y-102134358D01*
X128397302Y-102189505D01*
X128397309Y-102189506D01*
X128500019Y-102199999D01*
X128749999Y-102199999D01*
X129250000Y-102199999D01*
X129499972Y-102199999D01*
X129499986Y-102199998D01*
X129602697Y-102189505D01*
X129769119Y-102134358D01*
X129769124Y-102134356D01*
X129918345Y-102042315D01*
X130042315Y-101918345D01*
X130134356Y-101769124D01*
X130134358Y-101769119D01*
X130189505Y-101602697D01*
X130189506Y-101602690D01*
X130199999Y-101499986D01*
X130200000Y-101499973D01*
X130200000Y-101350000D01*
X129250000Y-101350000D01*
X129250000Y-102199999D01*
X128749999Y-102199999D01*
X128750000Y-102199998D01*
X128750000Y-101350000D01*
X127800001Y-101350000D01*
X127800001Y-101499986D01*
X124875933Y-101499986D01*
X124914086Y-101425106D01*
X124915858Y-101421760D01*
X125514843Y-100332211D01*
X125516729Y-100328905D01*
X126149632Y-99258725D01*
X126151622Y-99255475D01*
X126817855Y-98205661D01*
X126819951Y-98202472D01*
X127518778Y-97174178D01*
X127521012Y-97171000D01*
X127643173Y-97002860D01*
X128251825Y-96165121D01*
X128254042Y-96162168D01*
X129016140Y-95179678D01*
X129018497Y-95176735D01*
X129276174Y-94865257D01*
X129334073Y-94826151D01*
X129403925Y-94824555D01*
X129463550Y-94860977D01*
X129494020Y-94923853D01*
X129489649Y-94982615D01*
X129486235Y-94993122D01*
X129453966Y-95196861D01*
X129453966Y-95403138D01*
X129486234Y-95606874D01*
X129486823Y-95609326D01*
X129486774Y-95610285D01*
X129486997Y-95611688D01*
X129486702Y-95611734D01*
X129483327Y-95679108D01*
X129453928Y-95725946D01*
X129026142Y-96153733D01*
X128601270Y-96578605D01*
X128601267Y-96578608D01*
X128571888Y-96607987D01*
X128514142Y-96665732D01*
X128502612Y-96682989D01*
X128490268Y-96701463D01*
X128445687Y-96768180D01*
X128445685Y-96768184D01*
X128422508Y-96824142D01*
X128412347Y-96848673D01*
X128406823Y-96862009D01*
X128398537Y-96882011D01*
X128398535Y-96882019D01*
X128374500Y-97002855D01*
X128374500Y-97927983D01*
X128354815Y-97995022D01*
X128302011Y-98040777D01*
X128289510Y-98045686D01*
X128230666Y-98065186D01*
X128230663Y-98065187D01*
X128081342Y-98157289D01*
X127957289Y-98281342D01*
X127865187Y-98430663D01*
X127865185Y-98430668D01*
X127847899Y-98482834D01*
X127810001Y-98597203D01*
X127810001Y-98597204D01*
X127810000Y-98597204D01*
X127799500Y-98699983D01*
X127799500Y-99500001D01*
X127799501Y-99500019D01*
X127810000Y-99602796D01*
X127810001Y-99602799D01*
X127857724Y-99746815D01*
X127865186Y-99769334D01*
X127933920Y-99880771D01*
X127957289Y-99918657D01*
X128051304Y-100012672D01*
X128084789Y-100073995D01*
X128079805Y-100143687D01*
X128051305Y-100188034D01*
X127957682Y-100281657D01*
X127865643Y-100430875D01*
X127865641Y-100430880D01*
X127810494Y-100597302D01*
X127810493Y-100597309D01*
X127800000Y-100700013D01*
X127800000Y-100850000D01*
X130199999Y-100850000D01*
X130199999Y-100700028D01*
X130199998Y-100700013D01*
X130189505Y-100597302D01*
X130134358Y-100430880D01*
X130134356Y-100430875D01*
X130042315Y-100281654D01*
X129948695Y-100188034D01*
X129915210Y-100126711D01*
X129920194Y-100057019D01*
X129948691Y-100012676D01*
X130042712Y-99918656D01*
X130134814Y-99769334D01*
X130189999Y-99602797D01*
X130200500Y-99500009D01*
X130200499Y-98699992D01*
X130194900Y-98645185D01*
X130189999Y-98597203D01*
X130189998Y-98597200D01*
X130185899Y-98584829D01*
X130134814Y-98430666D01*
X130042712Y-98281344D01*
X129918656Y-98157288D01*
X129769334Y-98065186D01*
X129710493Y-98045688D01*
X129653051Y-98005916D01*
X129626228Y-97941400D01*
X129625500Y-97927983D01*
X129625500Y-97374917D01*
X129645185Y-97307878D01*
X129661815Y-97287240D01*
X130338519Y-96610535D01*
X130399840Y-96577052D01*
X130452754Y-96577617D01*
X130452778Y-96577469D01*
X130453785Y-96577628D01*
X130455141Y-96577643D01*
X130457581Y-96578228D01*
X130457590Y-96578231D01*
X130661327Y-96610500D01*
X130661328Y-96610500D01*
X130867604Y-96610500D01*
X130867605Y-96610500D01*
X131071342Y-96578231D01*
X131071345Y-96578230D01*
X131071346Y-96578230D01*
X131267520Y-96514489D01*
X131267520Y-96514488D01*
X131267523Y-96514488D01*
X131451318Y-96420840D01*
X131618199Y-96299593D01*
X131764059Y-96153733D01*
X131885306Y-95986852D01*
X131978954Y-95803057D01*
X131980019Y-95799779D01*
X132042696Y-95606880D01*
X132042696Y-95606879D01*
X132042697Y-95606876D01*
X132074966Y-95403139D01*
X132074966Y-95196861D01*
X132042697Y-94993124D01*
X132042696Y-94993120D01*
X132042696Y-94993119D01*
X131978955Y-94796945D01*
X131885305Y-94613147D01*
X131842395Y-94554087D01*
X131764059Y-94446267D01*
X131618199Y-94300407D01*
X131451318Y-94179160D01*
X131403697Y-94154896D01*
X131267520Y-94085510D01*
X131071345Y-94021769D01*
X130918539Y-93997567D01*
X130867605Y-93989500D01*
X130661327Y-93989500D01*
X130593414Y-94000256D01*
X130457588Y-94021769D01*
X130457585Y-94021769D01*
X130261411Y-94085510D01*
X130235980Y-94098468D01*
X130167311Y-94111363D01*
X130102571Y-94085085D01*
X130062315Y-94027978D01*
X130059323Y-93958173D01*
X130086671Y-93905981D01*
X130635762Y-93283160D01*
X130638327Y-93280342D01*
X131489450Y-92373988D01*
X131492098Y-92371256D01*
X132371256Y-91492098D01*
X132373988Y-91489450D01*
X133010140Y-90892063D01*
X133072483Y-90860523D01*
X133141983Y-90867694D01*
X133196574Y-90911301D01*
X133218923Y-90977500D01*
X133201934Y-91045273D01*
X133195342Y-91055340D01*
X133179161Y-91077612D01*
X133085510Y-91261411D01*
X133021769Y-91457585D01*
X133021769Y-91457588D01*
X132989500Y-91661327D01*
X132989500Y-91867604D01*
X133021769Y-92071343D01*
X133021769Y-92071346D01*
X133085510Y-92267520D01*
X133085512Y-92267523D01*
X133179160Y-92451318D01*
X133300407Y-92618199D01*
X133446267Y-92764059D01*
X133613148Y-92885306D01*
X133796943Y-92978954D01*
X133796945Y-92978955D01*
X133993120Y-93042696D01*
X133993121Y-93042696D01*
X133993124Y-93042697D01*
X134196861Y-93074966D01*
X134196862Y-93074966D01*
X134403138Y-93074966D01*
X134403139Y-93074966D01*
X134606876Y-93042697D01*
X134606879Y-93042696D01*
X134606880Y-93042696D01*
X134803054Y-92978955D01*
X134803054Y-92978954D01*
X134803057Y-92978954D01*
X134986852Y-92885306D01*
X135153733Y-92764059D01*
X135299593Y-92618199D01*
X135420840Y-92451318D01*
X135514488Y-92267523D01*
X135578231Y-92071342D01*
X135610500Y-91867605D01*
X135610500Y-91661327D01*
X135578231Y-91457590D01*
X135578228Y-91457581D01*
X135577643Y-91455141D01*
X135577691Y-91454180D01*
X135577469Y-91452778D01*
X135577763Y-91452731D01*
X135581136Y-91385359D01*
X135610533Y-91338521D01*
X135887238Y-91061816D01*
X135948560Y-91028334D01*
X135974918Y-91025500D01*
X137327983Y-91025500D01*
X137395022Y-91045185D01*
X137440777Y-91097989D01*
X137445686Y-91110489D01*
X137465186Y-91169334D01*
X137557288Y-91318656D01*
X137681344Y-91442712D01*
X137830666Y-91534814D01*
X137997203Y-91589999D01*
X138099991Y-91600500D01*
X138900008Y-91600499D01*
X138900016Y-91600498D01*
X138900019Y-91600498D01*
X138956302Y-91594748D01*
X139002797Y-91589999D01*
X139169334Y-91534814D01*
X139318656Y-91442712D01*
X139412319Y-91349049D01*
X139473642Y-91315564D01*
X139543334Y-91320548D01*
X139587681Y-91349049D01*
X139681344Y-91442712D01*
X139830666Y-91534814D01*
X139997203Y-91589999D01*
X140099991Y-91600500D01*
X140900008Y-91600499D01*
X140900016Y-91600498D01*
X140900019Y-91600498D01*
X140956302Y-91594748D01*
X141002797Y-91589999D01*
X141169334Y-91534814D01*
X141318656Y-91442712D01*
X141442712Y-91318656D01*
X141534814Y-91169334D01*
X141554311Y-91110493D01*
X141594084Y-91053051D01*
X141658600Y-91026228D01*
X141672017Y-91025500D01*
X157829548Y-91025500D01*
X157896587Y-91045185D01*
X157917229Y-91061819D01*
X160493729Y-93638319D01*
X160527214Y-93699642D01*
X160522230Y-93769334D01*
X160480358Y-93825267D01*
X160414894Y-93849684D01*
X160406048Y-93850000D01*
X160293754Y-93850000D01*
X160083872Y-93883242D01*
X160083869Y-93883242D01*
X159881782Y-93948904D01*
X159692439Y-94045380D01*
X159638282Y-94084727D01*
X159638282Y-94084728D01*
X160270591Y-94717037D01*
X160207007Y-94734075D01*
X160092993Y-94799901D01*
X159999901Y-94892993D01*
X159934075Y-95007007D01*
X159917037Y-95070591D01*
X159246818Y-94400372D01*
X159213333Y-94339049D01*
X159210499Y-94312691D01*
X159210499Y-94302129D01*
X159210498Y-94302123D01*
X159210497Y-94302116D01*
X159204091Y-94242517D01*
X159198496Y-94227517D01*
X159153797Y-94107671D01*
X159153793Y-94107664D01*
X159067547Y-93992455D01*
X159067544Y-93992452D01*
X158952335Y-93906206D01*
X158952328Y-93906202D01*
X158817482Y-93855908D01*
X158817483Y-93855908D01*
X158757883Y-93849501D01*
X158757881Y-93849500D01*
X158757873Y-93849500D01*
X158757864Y-93849500D01*
X156962129Y-93849500D01*
X156962123Y-93849501D01*
X156902516Y-93855908D01*
X156767671Y-93906202D01*
X156767664Y-93906206D01*
X156652455Y-93992452D01*
X156652452Y-93992455D01*
X156566206Y-94107664D01*
X156566202Y-94107671D01*
X156515908Y-94242517D01*
X156509685Y-94300407D01*
X156509501Y-94302123D01*
X156509500Y-94302135D01*
X156509500Y-96097870D01*
X156509501Y-96097876D01*
X156515908Y-96157483D01*
X156566202Y-96292328D01*
X156566206Y-96292335D01*
X156652452Y-96407544D01*
X156652455Y-96407547D01*
X156767664Y-96493793D01*
X156767671Y-96493797D01*
X156902517Y-96544091D01*
X156902516Y-96544091D01*
X156909444Y-96544835D01*
X156962127Y-96550500D01*
X158274547Y-96550499D01*
X158341586Y-96570184D01*
X158362228Y-96586818D01*
X160174139Y-98398729D01*
X160174142Y-98398733D01*
X160261267Y-98485858D01*
X160312490Y-98520084D01*
X160363714Y-98554312D01*
X160363715Y-98554312D01*
X160363716Y-98554313D01*
X160437390Y-98584829D01*
X160437394Y-98584830D01*
X160444207Y-98587652D01*
X160477548Y-98601463D01*
X160537971Y-98613481D01*
X160598393Y-98625500D01*
X160598394Y-98625500D01*
X164589548Y-98625500D01*
X164656587Y-98645185D01*
X164677229Y-98661819D01*
X165583229Y-99567819D01*
X165616714Y-99629142D01*
X165611730Y-99698834D01*
X165569858Y-99754767D01*
X165504394Y-99779184D01*
X165495548Y-99779500D01*
X165337648Y-99779500D01*
X165313329Y-99783351D01*
X165135465Y-99811522D01*
X164940776Y-99874781D01*
X164758386Y-99967715D01*
X164592786Y-100088028D01*
X164448028Y-100232786D01*
X164327715Y-100398386D01*
X164280485Y-100491080D01*
X164232510Y-100541876D01*
X164164689Y-100558671D01*
X164098554Y-100536134D01*
X164059515Y-100491080D01*
X164058883Y-100489840D01*
X164012287Y-100398390D01*
X163987918Y-100364849D01*
X163891971Y-100232786D01*
X163747213Y-100088028D01*
X163581613Y-99967715D01*
X163581612Y-99967714D01*
X163581610Y-99967713D01*
X163524653Y-99938691D01*
X163399223Y-99874781D01*
X163204534Y-99811522D01*
X163029995Y-99783878D01*
X163002352Y-99779500D01*
X162797648Y-99779500D01*
X162773329Y-99783351D01*
X162595465Y-99811522D01*
X162400776Y-99874781D01*
X162218386Y-99967715D01*
X162052786Y-100088028D01*
X161908028Y-100232786D01*
X161787715Y-100398386D01*
X161694781Y-100580776D01*
X161631522Y-100775465D01*
X161599500Y-100977648D01*
X161599500Y-101182351D01*
X161631522Y-101384534D01*
X161694781Y-101579223D01*
X161787715Y-101761613D01*
X161908028Y-101927213D01*
X162052786Y-102071971D01*
X162207749Y-102184556D01*
X162218390Y-102192287D01*
X162322826Y-102245500D01*
X162400776Y-102285218D01*
X162400778Y-102285218D01*
X162400781Y-102285220D01*
X162473405Y-102308817D01*
X162595465Y-102348477D01*
X162696557Y-102364488D01*
X162797648Y-102380500D01*
X162797649Y-102380500D01*
X163002351Y-102380500D01*
X163002352Y-102380500D01*
X163204534Y-102348477D01*
X163399219Y-102285220D01*
X163581610Y-102192287D01*
X163679066Y-102121482D01*
X163747213Y-102071971D01*
X163747215Y-102071968D01*
X163747219Y-102071966D01*
X163891966Y-101927219D01*
X163891968Y-101927215D01*
X163891971Y-101927213D01*
X164012284Y-101761614D01*
X164012285Y-101761613D01*
X164012287Y-101761610D01*
X164059516Y-101668917D01*
X164107489Y-101618123D01*
X164175310Y-101601328D01*
X164241445Y-101623865D01*
X164280483Y-101668917D01*
X164294429Y-101696286D01*
X164327715Y-101761614D01*
X164448028Y-101927213D01*
X164592786Y-102071971D01*
X164747749Y-102184556D01*
X164758390Y-102192287D01*
X164862826Y-102245500D01*
X164940776Y-102285218D01*
X164940778Y-102285218D01*
X164940781Y-102285220D01*
X165013405Y-102308817D01*
X165135465Y-102348477D01*
X165236557Y-102364488D01*
X165337648Y-102380500D01*
X165337649Y-102380500D01*
X165542351Y-102380500D01*
X165542352Y-102380500D01*
X165744534Y-102348477D01*
X165939219Y-102285220D01*
X166121610Y-102192287D01*
X166219066Y-102121482D01*
X166287213Y-102071971D01*
X166287215Y-102071968D01*
X166287219Y-102071966D01*
X166431966Y-101927219D01*
X166431968Y-101927215D01*
X166431971Y-101927213D01*
X166552284Y-101761614D01*
X166552285Y-101761613D01*
X166552287Y-101761610D01*
X166599516Y-101668917D01*
X166647489Y-101618123D01*
X166715310Y-101601328D01*
X166781445Y-101623865D01*
X166820483Y-101668917D01*
X166834429Y-101696286D01*
X166867715Y-101761614D01*
X166988028Y-101927213D01*
X167132786Y-102071971D01*
X167287749Y-102184556D01*
X167298390Y-102192287D01*
X167402826Y-102245500D01*
X167480776Y-102285218D01*
X167480778Y-102285218D01*
X167480781Y-102285220D01*
X167553405Y-102308817D01*
X167675465Y-102348477D01*
X167776557Y-102364488D01*
X167877648Y-102380500D01*
X167877649Y-102380500D01*
X168082351Y-102380500D01*
X168082352Y-102380500D01*
X168284534Y-102348477D01*
X168479219Y-102285220D01*
X168661610Y-102192287D01*
X168759066Y-102121482D01*
X168827213Y-102071971D01*
X168827215Y-102071968D01*
X168827219Y-102071966D01*
X168971966Y-101927219D01*
X168971968Y-101927215D01*
X168971971Y-101927213D01*
X169092284Y-101761614D01*
X169092285Y-101761613D01*
X169092287Y-101761610D01*
X169139516Y-101668917D01*
X169187489Y-101618123D01*
X169255310Y-101601328D01*
X169321445Y-101623865D01*
X169360483Y-101668917D01*
X169374429Y-101696286D01*
X169407715Y-101761614D01*
X169528028Y-101927213D01*
X169672786Y-102071971D01*
X169827749Y-102184556D01*
X169838390Y-102192287D01*
X169942826Y-102245500D01*
X170020776Y-102285218D01*
X170020778Y-102285218D01*
X170020781Y-102285220D01*
X170093405Y-102308817D01*
X170215465Y-102348477D01*
X170316557Y-102364488D01*
X170417648Y-102380500D01*
X170417649Y-102380500D01*
X170575547Y-102380500D01*
X170642586Y-102400185D01*
X170688341Y-102452989D01*
X170698285Y-102522147D01*
X170669260Y-102585703D01*
X170663228Y-102592181D01*
X165857627Y-107397781D01*
X165796304Y-107431266D01*
X165749584Y-107430776D01*
X165749346Y-107432285D01*
X165645898Y-107415900D01*
X165542352Y-107399500D01*
X165337648Y-107399500D01*
X165326025Y-107401341D01*
X165135465Y-107431522D01*
X164940776Y-107494781D01*
X164758386Y-107587715D01*
X164592786Y-107708028D01*
X164448032Y-107852782D01*
X164421668Y-107889070D01*
X164366338Y-107931735D01*
X164296724Y-107937714D01*
X164234929Y-107905108D01*
X164200572Y-107844269D01*
X164198060Y-107829438D01*
X164197640Y-107825533D01*
X164194091Y-107792517D01*
X164147748Y-107668265D01*
X164143797Y-107657671D01*
X164143793Y-107657664D01*
X164057547Y-107542455D01*
X164057544Y-107542452D01*
X163942335Y-107456206D01*
X163942328Y-107456202D01*
X163807482Y-107405908D01*
X163807483Y-107405908D01*
X163747883Y-107399501D01*
X163747881Y-107399500D01*
X163747873Y-107399500D01*
X163747864Y-107399500D01*
X162052129Y-107399500D01*
X162052123Y-107399501D01*
X161992516Y-107405908D01*
X161857671Y-107456202D01*
X161857664Y-107456206D01*
X161742455Y-107542452D01*
X161742452Y-107542455D01*
X161656206Y-107657664D01*
X161656202Y-107657671D01*
X161605908Y-107792517D01*
X161599501Y-107852116D01*
X161599500Y-107852135D01*
X161599500Y-109547870D01*
X161599501Y-109547876D01*
X161605908Y-109607483D01*
X161656202Y-109742328D01*
X161656206Y-109742335D01*
X161742452Y-109857544D01*
X161742455Y-109857547D01*
X161857664Y-109943793D01*
X161857671Y-109943797D01*
X161992517Y-109994091D01*
X161992516Y-109994091D01*
X161999444Y-109994835D01*
X162052127Y-110000500D01*
X163264545Y-110000499D01*
X163331584Y-110020184D01*
X163352226Y-110036818D01*
X164101263Y-110785855D01*
X164101267Y-110785858D01*
X164203710Y-110854309D01*
X164203711Y-110854309D01*
X164203715Y-110854312D01*
X164270397Y-110881932D01*
X164317548Y-110901463D01*
X164337597Y-110905451D01*
X164398256Y-110917517D01*
X164438392Y-110925501D01*
X164438394Y-110925501D01*
X164567721Y-110925501D01*
X164567741Y-110925500D01*
X173834218Y-110925500D01*
X173894640Y-110913481D01*
X173955063Y-110901463D01*
X173988403Y-110887652D01*
X174068897Y-110854312D01*
X174120120Y-110820084D01*
X174171344Y-110785858D01*
X174258469Y-110698733D01*
X174258470Y-110698731D01*
X174265536Y-110691665D01*
X174265538Y-110691661D01*
X177595382Y-107361819D01*
X177656705Y-107328334D01*
X177683063Y-107325500D01*
X178042019Y-107325500D01*
X178109058Y-107345185D01*
X178152503Y-107393203D01*
X178159950Y-107407819D01*
X178284890Y-107579786D01*
X178435213Y-107730109D01*
X178607179Y-107855048D01*
X178607181Y-107855049D01*
X178607184Y-107855051D01*
X178796588Y-107951557D01*
X178998757Y-108017246D01*
X179208713Y-108050500D01*
X179208714Y-108050500D01*
X179421286Y-108050500D01*
X179421287Y-108050500D01*
X179631243Y-108017246D01*
X179833412Y-107951557D01*
X180022816Y-107855051D01*
X180088288Y-107807483D01*
X180194786Y-107730109D01*
X180194788Y-107730106D01*
X180194792Y-107730104D01*
X180345104Y-107579792D01*
X180345106Y-107579788D01*
X180345109Y-107579786D01*
X180470048Y-107407820D01*
X180470049Y-107407819D01*
X180470051Y-107407816D01*
X180566557Y-107218412D01*
X180632246Y-107016243D01*
X180665500Y-106806287D01*
X180665500Y-106593713D01*
X180632246Y-106383757D01*
X180566557Y-106181588D01*
X180470051Y-105992184D01*
X180470049Y-105992181D01*
X180470048Y-105992179D01*
X180345109Y-105820213D01*
X180194786Y-105669890D01*
X180022820Y-105544951D01*
X180018086Y-105542539D01*
X180014054Y-105540485D01*
X179963259Y-105492512D01*
X179946463Y-105424692D01*
X179968999Y-105358556D01*
X180014054Y-105319515D01*
X180022816Y-105315051D01*
X180044789Y-105299086D01*
X180194786Y-105190109D01*
X180194788Y-105190106D01*
X180194792Y-105190104D01*
X180345104Y-105039792D01*
X180345106Y-105039788D01*
X180345109Y-105039786D01*
X180470048Y-104867820D01*
X180470049Y-104867819D01*
X180470051Y-104867816D01*
X180566557Y-104678412D01*
X180632246Y-104476243D01*
X180665500Y-104266287D01*
X180665500Y-104053713D01*
X180632246Y-103843757D01*
X180566557Y-103641588D01*
X180470051Y-103452184D01*
X180470049Y-103452181D01*
X180470048Y-103452179D01*
X180345109Y-103280213D01*
X180231569Y-103166673D01*
X180198084Y-103105350D01*
X180203068Y-103035658D01*
X180244940Y-102979725D01*
X180275915Y-102962810D01*
X180407331Y-102913796D01*
X180522546Y-102827546D01*
X180608796Y-102712331D01*
X180659091Y-102577483D01*
X180665500Y-102517873D01*
X180665499Y-100722128D01*
X180659091Y-100662517D01*
X180655693Y-100653407D01*
X180608797Y-100527671D01*
X180608793Y-100527664D01*
X180522547Y-100412455D01*
X180522544Y-100412452D01*
X180407335Y-100326206D01*
X180407328Y-100326202D01*
X180272482Y-100275908D01*
X180272483Y-100275908D01*
X180212883Y-100269501D01*
X180212881Y-100269500D01*
X180212873Y-100269500D01*
X180212864Y-100269500D01*
X178417129Y-100269500D01*
X178417123Y-100269501D01*
X178357516Y-100275908D01*
X178222671Y-100326202D01*
X178222664Y-100326206D01*
X178107455Y-100412452D01*
X178107452Y-100412455D01*
X178021206Y-100527664D01*
X178021202Y-100527671D01*
X177970908Y-100662517D01*
X177964501Y-100722116D01*
X177964501Y-100722123D01*
X177964500Y-100722135D01*
X177964500Y-100870500D01*
X177944815Y-100937539D01*
X177892011Y-100983294D01*
X177840500Y-100994500D01*
X172458389Y-100994500D01*
X172397971Y-101006518D01*
X172360259Y-101014019D01*
X172337550Y-101018536D01*
X172337548Y-101018537D01*
X172304207Y-101032347D01*
X172223719Y-101065684D01*
X172223705Y-101065692D01*
X172121272Y-101134138D01*
X172121264Y-101134144D01*
X172032181Y-101223228D01*
X171970858Y-101256713D01*
X171901166Y-101251729D01*
X171845233Y-101209857D01*
X171820816Y-101144393D01*
X171820500Y-101135547D01*
X171820500Y-100977648D01*
X171788477Y-100775465D01*
X171725218Y-100580776D01*
X171632286Y-100398388D01*
X171616546Y-100376725D01*
X171602301Y-100351289D01*
X171594410Y-100332237D01*
X171574312Y-100283714D01*
X171505857Y-100181267D01*
X171418733Y-100094143D01*
X171409582Y-100088028D01*
X171316290Y-100025690D01*
X171316287Y-100025688D01*
X171316286Y-100025688D01*
X171248703Y-99997694D01*
X171223275Y-99983453D01*
X171201614Y-99967715D01*
X171019223Y-99874781D01*
X170824534Y-99811522D01*
X170649995Y-99783878D01*
X170622352Y-99779500D01*
X170417648Y-99779500D01*
X170314101Y-99795900D01*
X170210654Y-99812285D01*
X170210333Y-99810262D01*
X170149120Y-99807149D01*
X170102371Y-99777781D01*
X169721819Y-99397229D01*
X169688334Y-99335906D01*
X169685500Y-99309548D01*
X169685500Y-96659499D01*
X169705185Y-96592460D01*
X169757989Y-96546705D01*
X169809500Y-96535499D01*
X169957871Y-96535499D01*
X169957872Y-96535499D01*
X170017483Y-96529091D01*
X170152331Y-96478796D01*
X170267546Y-96392546D01*
X170353796Y-96277331D01*
X170404091Y-96142483D01*
X170410500Y-96082873D01*
X170410499Y-96058979D01*
X170413330Y-96045963D01*
X170423940Y-96026525D01*
X170430179Y-96005275D01*
X170446803Y-95984643D01*
X170446808Y-95984636D01*
X170446811Y-95984634D01*
X170446818Y-95984626D01*
X171117037Y-95314408D01*
X171134075Y-95377993D01*
X171199901Y-95492007D01*
X171292993Y-95585099D01*
X171407007Y-95650925D01*
X171470590Y-95667962D01*
X170838282Y-96300269D01*
X170838282Y-96300270D01*
X170892449Y-96339624D01*
X171081782Y-96436095D01*
X171283870Y-96501757D01*
X171493754Y-96535000D01*
X171706246Y-96535000D01*
X171916127Y-96501757D01*
X171916130Y-96501757D01*
X172118217Y-96436095D01*
X172307554Y-96339622D01*
X172361716Y-96300270D01*
X172361717Y-96300270D01*
X171729408Y-95667962D01*
X171792993Y-95650925D01*
X171907007Y-95585099D01*
X172000099Y-95492007D01*
X172065925Y-95377993D01*
X172082962Y-95314408D01*
X172715270Y-95946717D01*
X172715270Y-95946716D01*
X172754622Y-95892555D01*
X172759232Y-95883507D01*
X172807205Y-95832709D01*
X172875025Y-95815912D01*
X172941161Y-95838447D01*
X172980204Y-95883504D01*
X172984949Y-95892817D01*
X173109890Y-96064786D01*
X173260213Y-96215109D01*
X173432179Y-96340048D01*
X173432181Y-96340049D01*
X173432184Y-96340051D01*
X173621588Y-96436557D01*
X173823757Y-96502246D01*
X174033713Y-96535500D01*
X174033714Y-96535500D01*
X174246286Y-96535500D01*
X174246287Y-96535500D01*
X174456243Y-96502246D01*
X174658412Y-96436557D01*
X174847816Y-96340051D01*
X174913492Y-96292335D01*
X175019786Y-96215109D01*
X175019788Y-96215106D01*
X175019792Y-96215104D01*
X175170104Y-96064792D01*
X175170106Y-96064788D01*
X175170109Y-96064786D01*
X175295048Y-95892820D01*
X175295050Y-95892817D01*
X175295051Y-95892816D01*
X175391557Y-95703412D01*
X175457246Y-95501243D01*
X175490500Y-95291287D01*
X175490500Y-95078713D01*
X175457246Y-94868757D01*
X175391557Y-94666588D01*
X175295051Y-94477184D01*
X175295049Y-94477181D01*
X175295048Y-94477179D01*
X175170109Y-94305213D01*
X175019786Y-94154890D01*
X174847820Y-94029951D01*
X174658414Y-93933444D01*
X174658413Y-93933443D01*
X174658412Y-93933443D01*
X174456243Y-93867754D01*
X174456241Y-93867753D01*
X174456240Y-93867753D01*
X174294957Y-93842208D01*
X174246287Y-93834500D01*
X174033713Y-93834500D01*
X173985042Y-93842208D01*
X173823760Y-93867753D01*
X173621585Y-93933444D01*
X173432179Y-94029951D01*
X173260213Y-94154890D01*
X173109890Y-94305213D01*
X172984949Y-94477182D01*
X172980202Y-94486499D01*
X172932227Y-94537293D01*
X172864405Y-94554087D01*
X172798271Y-94531548D01*
X172759234Y-94486495D01*
X172754626Y-94477452D01*
X172715270Y-94423282D01*
X172715269Y-94423282D01*
X172082962Y-95055590D01*
X172065925Y-94992007D01*
X172000099Y-94877993D01*
X171907007Y-94784901D01*
X171792993Y-94719075D01*
X171729409Y-94702037D01*
X172361716Y-94069728D01*
X172307550Y-94030375D01*
X172118217Y-93933904D01*
X171916129Y-93868242D01*
X171706246Y-93835000D01*
X171493754Y-93835000D01*
X171283872Y-93868242D01*
X171283869Y-93868242D01*
X171081782Y-93933904D01*
X170892439Y-94030380D01*
X170838282Y-94069727D01*
X170838282Y-94069728D01*
X171470591Y-94702037D01*
X171407007Y-94719075D01*
X171292993Y-94784901D01*
X171199901Y-94877993D01*
X171134075Y-94992007D01*
X171117037Y-95055591D01*
X170446818Y-94385372D01*
X170413333Y-94324049D01*
X170413330Y-94324036D01*
X170410499Y-94311015D01*
X170410499Y-94287128D01*
X170404091Y-94227517D01*
X170375926Y-94152002D01*
X170353798Y-94092673D01*
X170353793Y-94092664D01*
X170267547Y-93977455D01*
X170267544Y-93977452D01*
X170152335Y-93891206D01*
X170152328Y-93891202D01*
X170017482Y-93840908D01*
X170017483Y-93840908D01*
X169957883Y-93834501D01*
X169957881Y-93834500D01*
X169957873Y-93834500D01*
X169957864Y-93834500D01*
X168162129Y-93834500D01*
X168162123Y-93834501D01*
X168102516Y-93840908D01*
X167967671Y-93891202D01*
X167967664Y-93891206D01*
X167852455Y-93977452D01*
X167852452Y-93977455D01*
X167766206Y-94092664D01*
X167766202Y-94092671D01*
X167715908Y-94227517D01*
X167709501Y-94287116D01*
X167709500Y-94287135D01*
X167709500Y-96082870D01*
X167709501Y-96082876D01*
X167715908Y-96142483D01*
X167766202Y-96277328D01*
X167766206Y-96277335D01*
X167852452Y-96392544D01*
X167852455Y-96392547D01*
X167967664Y-96478793D01*
X167967671Y-96478797D01*
X168007878Y-96493793D01*
X168102517Y-96529091D01*
X168162127Y-96535500D01*
X168310500Y-96535499D01*
X168377539Y-96555183D01*
X168423294Y-96607987D01*
X168434500Y-96659499D01*
X168434500Y-99687698D01*
X168432352Y-99687698D01*
X168421124Y-99746815D01*
X168373046Y-99797512D01*
X168305191Y-99814169D01*
X168289400Y-99811942D01*
X168289346Y-99812285D01*
X168185898Y-99795900D01*
X168082352Y-99779500D01*
X167877648Y-99779500D01*
X167774101Y-99795900D01*
X167670654Y-99812285D01*
X167670333Y-99810262D01*
X167609120Y-99807149D01*
X167562371Y-99777781D01*
X165393845Y-97609255D01*
X165385860Y-97601270D01*
X165385858Y-97601267D01*
X165298733Y-97514142D01*
X165222492Y-97463199D01*
X165216644Y-97459291D01*
X165216639Y-97459287D01*
X165196290Y-97445690D01*
X165196286Y-97445688D01*
X165115792Y-97412347D01*
X165082452Y-97398537D01*
X165022029Y-97386518D01*
X165017306Y-97385578D01*
X165017304Y-97385578D01*
X164961610Y-97374500D01*
X164961607Y-97374500D01*
X164961606Y-97374500D01*
X160970452Y-97374500D01*
X160903413Y-97354815D01*
X160882771Y-97338181D01*
X160306271Y-96761681D01*
X160272786Y-96700358D01*
X160277770Y-96630666D01*
X160319642Y-96574733D01*
X160385106Y-96550316D01*
X160393952Y-96550000D01*
X160506246Y-96550000D01*
X160716127Y-96516757D01*
X160716130Y-96516757D01*
X160918217Y-96451095D01*
X161107554Y-96354622D01*
X161161716Y-96315270D01*
X161161717Y-96315270D01*
X160529408Y-95682962D01*
X160592993Y-95665925D01*
X160707007Y-95600099D01*
X160800099Y-95507007D01*
X160865925Y-95392993D01*
X160882962Y-95329408D01*
X161515270Y-95961717D01*
X161515270Y-95961716D01*
X161554622Y-95907555D01*
X161559232Y-95898507D01*
X161607205Y-95847709D01*
X161675025Y-95830912D01*
X161741161Y-95853447D01*
X161780204Y-95898504D01*
X161784949Y-95907817D01*
X161909890Y-96079786D01*
X162060213Y-96230109D01*
X162232179Y-96355048D01*
X162232181Y-96355049D01*
X162232184Y-96355051D01*
X162421588Y-96451557D01*
X162623757Y-96517246D01*
X162833713Y-96550500D01*
X162833714Y-96550500D01*
X163046286Y-96550500D01*
X163046287Y-96550500D01*
X163256243Y-96517246D01*
X163458412Y-96451557D01*
X163647816Y-96355051D01*
X163723216Y-96300270D01*
X163819786Y-96230109D01*
X163819788Y-96230106D01*
X163819792Y-96230104D01*
X163970104Y-96079792D01*
X163970106Y-96079788D01*
X163970109Y-96079786D01*
X164079086Y-95929789D01*
X164095051Y-95907816D01*
X164191557Y-95718412D01*
X164257246Y-95516243D01*
X164290500Y-95306287D01*
X164290500Y-95093713D01*
X164257246Y-94883757D01*
X164191557Y-94681588D01*
X164095051Y-94492184D01*
X164095049Y-94492181D01*
X164095048Y-94492179D01*
X163970109Y-94320213D01*
X163819786Y-94169890D01*
X163647820Y-94044951D01*
X163458414Y-93948444D01*
X163458413Y-93948443D01*
X163458412Y-93948443D01*
X163256243Y-93882754D01*
X163256241Y-93882753D01*
X163256240Y-93882753D01*
X163094957Y-93857208D01*
X163046287Y-93849500D01*
X162833713Y-93849500D01*
X162805006Y-93854046D01*
X162623757Y-93882753D01*
X162608158Y-93887822D01*
X162538317Y-93889816D01*
X162482161Y-93857571D01*
X158633150Y-90008560D01*
X158625860Y-90001270D01*
X158625858Y-90001267D01*
X158538733Y-89914142D01*
X158487509Y-89879915D01*
X158436286Y-89845688D01*
X158355589Y-89812263D01*
X158322452Y-89798537D01*
X158262029Y-89786518D01*
X158257328Y-89785582D01*
X158257321Y-89785581D01*
X158201610Y-89774500D01*
X158201607Y-89774500D01*
X158201606Y-89774500D01*
X141672017Y-89774500D01*
X141604978Y-89754815D01*
X141559223Y-89702011D01*
X141554311Y-89689505D01*
X141534814Y-89630666D01*
X141442712Y-89481344D01*
X141318656Y-89357288D01*
X141169334Y-89265186D01*
X141002797Y-89210001D01*
X141002795Y-89210000D01*
X140900010Y-89199500D01*
X140099998Y-89199500D01*
X140099980Y-89199501D01*
X139997203Y-89210000D01*
X139997200Y-89210001D01*
X139830668Y-89265185D01*
X139830663Y-89265187D01*
X139681342Y-89357289D01*
X139587681Y-89450951D01*
X139526358Y-89484436D01*
X139456666Y-89479452D01*
X139412319Y-89450951D01*
X139318657Y-89357289D01*
X139318656Y-89357288D01*
X139169334Y-89265186D01*
X139002797Y-89210001D01*
X139002795Y-89210000D01*
X138900010Y-89199500D01*
X138099998Y-89199500D01*
X138099980Y-89199501D01*
X137997203Y-89210000D01*
X137997200Y-89210001D01*
X137830668Y-89265185D01*
X137830663Y-89265187D01*
X137681342Y-89357289D01*
X137557289Y-89481342D01*
X137465187Y-89630663D01*
X137465186Y-89630666D01*
X137445689Y-89689505D01*
X137405916Y-89746949D01*
X137341400Y-89773772D01*
X137327983Y-89774500D01*
X135602855Y-89774500D01*
X135547148Y-89785581D01*
X135542437Y-89786518D01*
X135499209Y-89795116D01*
X135482012Y-89798537D01*
X135368182Y-89845687D01*
X135368173Y-89845692D01*
X135265734Y-89914140D01*
X135222171Y-89957703D01*
X135178608Y-90001267D01*
X135178605Y-90001270D01*
X134725946Y-90453928D01*
X134664623Y-90487413D01*
X134611711Y-90486848D01*
X134611688Y-90486997D01*
X134610680Y-90486837D01*
X134609326Y-90486823D01*
X134606874Y-90486234D01*
X134441479Y-90460038D01*
X134403139Y-90453966D01*
X134196861Y-90453966D01*
X134128948Y-90464722D01*
X133993122Y-90486235D01*
X133993119Y-90486235D01*
X133796943Y-90549977D01*
X133796942Y-90549977D01*
X133684737Y-90607148D01*
X133616068Y-90620044D01*
X133551327Y-90593767D01*
X133511071Y-90536660D01*
X133508079Y-90466855D01*
X133543302Y-90406513D01*
X133546393Y-90403691D01*
X134215823Y-89813508D01*
X134218680Y-89811068D01*
X135176735Y-89018497D01*
X135179678Y-89016140D01*
X136162168Y-88254042D01*
X136165121Y-88251825D01*
X137171008Y-87521005D01*
X137174187Y-87518772D01*
X138202472Y-86819951D01*
X138205661Y-86817855D01*
X139255475Y-86151622D01*
X139258725Y-86149632D01*
X139711274Y-85881995D01*
X148199500Y-85881995D01*
X148199500Y-86118004D01*
X148199501Y-86118020D01*
X148230306Y-86352010D01*
X148291394Y-86579993D01*
X148381714Y-86798045D01*
X148381719Y-86798056D01*
X148452677Y-86920957D01*
X148499727Y-87002450D01*
X148499729Y-87002453D01*
X148499730Y-87002454D01*
X148643406Y-87189697D01*
X148643412Y-87189704D01*
X148810295Y-87356587D01*
X148810301Y-87356592D01*
X148997550Y-87500273D01*
X149128918Y-87576118D01*
X149201943Y-87618280D01*
X149201948Y-87618282D01*
X149201951Y-87618284D01*
X149420007Y-87708606D01*
X149647986Y-87769693D01*
X149881989Y-87800500D01*
X149881996Y-87800500D01*
X150118004Y-87800500D01*
X150118011Y-87800500D01*
X150352014Y-87769693D01*
X150579993Y-87708606D01*
X150798049Y-87618284D01*
X151002450Y-87500273D01*
X151189699Y-87356592D01*
X151356592Y-87189699D01*
X151500273Y-87002450D01*
X151618284Y-86798049D01*
X151708606Y-86579993D01*
X151769693Y-86352014D01*
X151800500Y-86118011D01*
X151800500Y-85881989D01*
X151769693Y-85647986D01*
X151708606Y-85420007D01*
X151618284Y-85201951D01*
X151618282Y-85201948D01*
X151618280Y-85201943D01*
X151576118Y-85128918D01*
X151500273Y-84997550D01*
X151356592Y-84810301D01*
X151356587Y-84810295D01*
X151189704Y-84643412D01*
X151189697Y-84643406D01*
X151002454Y-84499730D01*
X151002453Y-84499729D01*
X151002450Y-84499727D01*
X150920957Y-84452677D01*
X150798056Y-84381719D01*
X150798045Y-84381714D01*
X150579993Y-84291394D01*
X150352010Y-84230306D01*
X150118020Y-84199501D01*
X150118017Y-84199500D01*
X150118011Y-84199500D01*
X149881989Y-84199500D01*
X149881983Y-84199500D01*
X149881979Y-84199501D01*
X149647989Y-84230306D01*
X149420006Y-84291394D01*
X149201954Y-84381714D01*
X149201943Y-84381719D01*
X148997545Y-84499730D01*
X148810302Y-84643406D01*
X148810295Y-84643412D01*
X148643412Y-84810295D01*
X148643406Y-84810302D01*
X148499730Y-84997545D01*
X148381719Y-85201943D01*
X148381714Y-85201954D01*
X148291394Y-85420006D01*
X148230306Y-85647989D01*
X148199501Y-85881979D01*
X148199500Y-85881995D01*
X139711274Y-85881995D01*
X140328905Y-85516729D01*
X140332211Y-85514843D01*
X141421734Y-84915872D01*
X141425106Y-84914086D01*
X142532947Y-84349613D01*
X142536331Y-84347955D01*
X143661351Y-83818562D01*
X143664863Y-83816976D01*
X144805948Y-83323184D01*
X144809431Y-83321742D01*
X145965445Y-82864044D01*
X145969002Y-82862699D01*
X147138878Y-82441518D01*
X147142420Y-82440305D01*
X148324950Y-82056078D01*
X148328578Y-82054962D01*
X149522513Y-81708092D01*
X149526234Y-81707074D01*
X150730498Y-81397871D01*
X150734153Y-81396993D01*
X151947588Y-81125759D01*
X151951318Y-81124986D01*
X153172614Y-80892011D01*
X153176438Y-80891345D01*
X154404377Y-80696859D01*
X154408210Y-80696313D01*
X155641674Y-80540490D01*
X155645505Y-80540067D01*
X156883328Y-80423058D01*
X156887139Y-80422758D01*
X158127960Y-80344692D01*
X158131805Y-80344511D01*
X159374486Y-80305459D01*
X159378381Y-80305398D01*
X160621619Y-80305398D01*
X160625514Y-80305459D01*
G37*
G04 #@! TD.AperFunction*
G04 #@! TA.AperFunction,Conductor*
G36*
X150504477Y-129820185D02*
G01*
X150550232Y-129872989D01*
X150560176Y-129942147D01*
X150531151Y-130005703D01*
X150472373Y-130043477D01*
X150469565Y-130044265D01*
X150255581Y-130101602D01*
X150255571Y-130101605D01*
X150013309Y-130201953D01*
X150013299Y-130201958D01*
X149786196Y-130333075D01*
X149578148Y-130492718D01*
X149392718Y-130678148D01*
X149233075Y-130886196D01*
X149101958Y-131113299D01*
X149101953Y-131113309D01*
X149001605Y-131355571D01*
X149001602Y-131355581D01*
X148933730Y-131608885D01*
X148899500Y-131868872D01*
X148899500Y-132131127D01*
X148921364Y-132297193D01*
X148933730Y-132391116D01*
X149001602Y-132644419D01*
X149001603Y-132644422D01*
X149001605Y-132644428D01*
X149101953Y-132886690D01*
X149101958Y-132886700D01*
X149233075Y-133113803D01*
X149392718Y-133321851D01*
X149392726Y-133321860D01*
X149578140Y-133507274D01*
X149578148Y-133507281D01*
X149786196Y-133666924D01*
X150013299Y-133798041D01*
X150013309Y-133798046D01*
X150255571Y-133898394D01*
X150255581Y-133898398D01*
X150508884Y-133966270D01*
X150768880Y-134000500D01*
X150768887Y-134000500D01*
X151031113Y-134000500D01*
X151031120Y-134000500D01*
X151291116Y-133966270D01*
X151544419Y-133898398D01*
X151721682Y-133824973D01*
X151786690Y-133798046D01*
X151786691Y-133798045D01*
X151786697Y-133798043D01*
X152013803Y-133666924D01*
X152221851Y-133507282D01*
X152221855Y-133507277D01*
X152221860Y-133507274D01*
X152407274Y-133321860D01*
X152407277Y-133321855D01*
X152407282Y-133321851D01*
X152566924Y-133113803D01*
X152698043Y-132886697D01*
X152743005Y-132778149D01*
X152764172Y-132727048D01*
X152808013Y-132672644D01*
X152874307Y-132650579D01*
X152878733Y-132650500D01*
X154220500Y-132650500D01*
X154287539Y-132670185D01*
X154333294Y-132722989D01*
X154344500Y-132774500D01*
X154344500Y-132883492D01*
X154348106Y-132913516D01*
X154355219Y-132972757D01*
X154355220Y-132972759D01*
X154409047Y-133109256D01*
X154411241Y-133114818D01*
X154503508Y-133236491D01*
X154616073Y-133321851D01*
X154625184Y-133328760D01*
X154767241Y-133384780D01*
X154769765Y-133385083D01*
X154770280Y-133385145D01*
X154772573Y-133386128D01*
X154774953Y-133386730D01*
X154774857Y-133387107D01*
X154834495Y-133412680D01*
X154873630Y-133470561D01*
X154879500Y-133508261D01*
X154879500Y-134765858D01*
X154859815Y-134832897D01*
X154820598Y-134871395D01*
X154751871Y-134913787D01*
X154681342Y-134957289D01*
X154557289Y-135081342D01*
X154465187Y-135230663D01*
X154465185Y-135230668D01*
X154445063Y-135291394D01*
X154410001Y-135397203D01*
X154410001Y-135397204D01*
X154410000Y-135397204D01*
X154399500Y-135499983D01*
X154399500Y-136300001D01*
X154399501Y-136300019D01*
X154410000Y-136402796D01*
X154410001Y-136402799D01*
X154465185Y-136569331D01*
X154465187Y-136569336D01*
X154557289Y-136718657D01*
X154651304Y-136812672D01*
X154684789Y-136873995D01*
X154679805Y-136943687D01*
X154651305Y-136988034D01*
X154557682Y-137081657D01*
X154465643Y-137230875D01*
X154465641Y-137230880D01*
X154410494Y-137397302D01*
X154410493Y-137397309D01*
X154400000Y-137500013D01*
X154400000Y-137650000D01*
X156799999Y-137650000D01*
X156799999Y-137500028D01*
X156799998Y-137500013D01*
X156789505Y-137397302D01*
X156734358Y-137230880D01*
X156734356Y-137230875D01*
X156642315Y-137081654D01*
X156548695Y-136988034D01*
X156515210Y-136926711D01*
X156520194Y-136857019D01*
X156548691Y-136812676D01*
X156642712Y-136718656D01*
X156734814Y-136569334D01*
X156789999Y-136402797D01*
X156800500Y-136300009D01*
X156800499Y-135499992D01*
X156792760Y-135424236D01*
X156789999Y-135397203D01*
X156789998Y-135397200D01*
X156784866Y-135381714D01*
X156734814Y-135230666D01*
X156642712Y-135081344D01*
X156518656Y-134957288D01*
X156369334Y-134865186D01*
X156369333Y-134865185D01*
X156369332Y-134865185D01*
X156365493Y-134863913D01*
X156363201Y-134862326D01*
X156362789Y-134862134D01*
X156362821Y-134862063D01*
X156308049Y-134824139D01*
X156281228Y-134759622D01*
X156280500Y-134746208D01*
X156280500Y-133508261D01*
X156300185Y-133441222D01*
X156352989Y-133395467D01*
X156389720Y-133385145D01*
X156390083Y-133385101D01*
X156392759Y-133384780D01*
X156534816Y-133328760D01*
X156656491Y-133236491D01*
X156748760Y-133114816D01*
X156748760Y-133114815D01*
X156752976Y-133109256D01*
X156809168Y-133067733D01*
X156878889Y-133063181D01*
X156895115Y-133068000D01*
X156910119Y-133073596D01*
X156910127Y-133073598D01*
X156969655Y-133079999D01*
X156969672Y-133080000D01*
X157480000Y-133080000D01*
X157480000Y-131824000D01*
X157499685Y-131756961D01*
X157552489Y-131711206D01*
X157604000Y-131700000D01*
X157856000Y-131700000D01*
X157923039Y-131719685D01*
X157968794Y-131772489D01*
X157980000Y-131824000D01*
X157980000Y-133080000D01*
X158490328Y-133080000D01*
X158490344Y-133079999D01*
X158549875Y-133073598D01*
X158564880Y-133068001D01*
X158634572Y-133063014D01*
X158695896Y-133096496D01*
X158707023Y-133109256D01*
X158803508Y-133236491D01*
X158916073Y-133321851D01*
X158925184Y-133328760D01*
X159067241Y-133384780D01*
X159090282Y-133387547D01*
X159154495Y-133415081D01*
X159193630Y-133472962D01*
X159199500Y-133510662D01*
X159199500Y-134754091D01*
X159179815Y-134821130D01*
X159135731Y-134859641D01*
X159136813Y-134861395D01*
X159130667Y-134865185D01*
X159130666Y-134865186D01*
X159051871Y-134913787D01*
X158981342Y-134957289D01*
X158857289Y-135081342D01*
X158765187Y-135230663D01*
X158765185Y-135230668D01*
X158745063Y-135291394D01*
X158710001Y-135397203D01*
X158710001Y-135397204D01*
X158710000Y-135397204D01*
X158699500Y-135499983D01*
X158699500Y-136300001D01*
X158699501Y-136300019D01*
X158710000Y-136402796D01*
X158710001Y-136402799D01*
X158765185Y-136569331D01*
X158765187Y-136569336D01*
X158857289Y-136718657D01*
X158950951Y-136812319D01*
X158984436Y-136873642D01*
X158979452Y-136943334D01*
X158950951Y-136987681D01*
X158857289Y-137081342D01*
X158765187Y-137230663D01*
X158765185Y-137230668D01*
X158761418Y-137242036D01*
X158710001Y-137397203D01*
X158710001Y-137397204D01*
X158710000Y-137397204D01*
X158699500Y-137499983D01*
X158699500Y-138300001D01*
X158699501Y-138300019D01*
X158710000Y-138402796D01*
X158710001Y-138402799D01*
X158765185Y-138569331D01*
X158765187Y-138569336D01*
X158795376Y-138618280D01*
X158857288Y-138718656D01*
X158981344Y-138842712D01*
X159130666Y-138934814D01*
X159130667Y-138934814D01*
X159136813Y-138938605D01*
X159135706Y-138940399D01*
X159180337Y-138979687D01*
X159199500Y-139045908D01*
X159199500Y-142675500D01*
X159179815Y-142742539D01*
X159127011Y-142788294D01*
X159075500Y-142799500D01*
X157602129Y-142799500D01*
X157602123Y-142799501D01*
X157542516Y-142805908D01*
X157407671Y-142856202D01*
X157407664Y-142856206D01*
X157292455Y-142942452D01*
X157292452Y-142942455D01*
X157206206Y-143057664D01*
X157206202Y-143057671D01*
X157155908Y-143192517D01*
X157152272Y-143226343D01*
X157149501Y-143252123D01*
X157149500Y-143252135D01*
X157149500Y-143475500D01*
X157129815Y-143542539D01*
X157077011Y-143588294D01*
X157025500Y-143599500D01*
X152641519Y-143599500D01*
X152574480Y-143579815D01*
X152553838Y-143563181D01*
X151292224Y-142301566D01*
X151292201Y-142301545D01*
X150111818Y-141121161D01*
X150078333Y-141059838D01*
X150075499Y-141033480D01*
X150075499Y-140177129D01*
X150075498Y-140177123D01*
X150073107Y-140154883D01*
X150069091Y-140117517D01*
X150026769Y-140004047D01*
X150018797Y-139982671D01*
X150018793Y-139982664D01*
X149932547Y-139867455D01*
X149932544Y-139867452D01*
X149817335Y-139781206D01*
X149817328Y-139781202D01*
X149682482Y-139730908D01*
X149682483Y-139730908D01*
X149622883Y-139724501D01*
X149622881Y-139724500D01*
X149622873Y-139724500D01*
X149622865Y-139724500D01*
X148766519Y-139724500D01*
X148737078Y-139715855D01*
X148707092Y-139709332D01*
X148702076Y-139705577D01*
X148699480Y-139704815D01*
X148678838Y-139688181D01*
X148636819Y-139646162D01*
X148603334Y-139584839D01*
X148600500Y-139558481D01*
X148600500Y-138299986D01*
X154400001Y-138299986D01*
X154410494Y-138402697D01*
X154465641Y-138569119D01*
X154465643Y-138569124D01*
X154557684Y-138718345D01*
X154681654Y-138842315D01*
X154830875Y-138934356D01*
X154830880Y-138934358D01*
X154997302Y-138989505D01*
X154997309Y-138989506D01*
X155100019Y-138999999D01*
X155349999Y-138999999D01*
X155850000Y-138999999D01*
X156099972Y-138999999D01*
X156099986Y-138999998D01*
X156202697Y-138989505D01*
X156369119Y-138934358D01*
X156369124Y-138934356D01*
X156518345Y-138842315D01*
X156642315Y-138718345D01*
X156734356Y-138569124D01*
X156734358Y-138569119D01*
X156789505Y-138402697D01*
X156789506Y-138402690D01*
X156799999Y-138299986D01*
X156800000Y-138299973D01*
X156800000Y-138150000D01*
X155850000Y-138150000D01*
X155850000Y-138999999D01*
X155349999Y-138999999D01*
X155350000Y-138999998D01*
X155350000Y-138150000D01*
X154400001Y-138150000D01*
X154400001Y-138299986D01*
X148600500Y-138299986D01*
X148600500Y-130941518D01*
X148620185Y-130874479D01*
X148636819Y-130853837D01*
X149653837Y-129836819D01*
X149715160Y-129803334D01*
X149741518Y-129800500D01*
X150437438Y-129800500D01*
X150504477Y-129820185D01*
G37*
G04 #@! TD.AperFunction*
G04 #@! TA.AperFunction,Conductor*
G36*
X145455000Y-115796606D02*
G01*
X145509421Y-115787988D01*
X145704031Y-115724754D01*
X145886349Y-115631859D01*
X146051894Y-115511582D01*
X146051895Y-115511582D01*
X146196582Y-115366895D01*
X146196582Y-115366894D01*
X146316861Y-115201347D01*
X146364234Y-115108371D01*
X146412208Y-115057575D01*
X146480028Y-115040779D01*
X146546164Y-115063316D01*
X146585203Y-115108369D01*
X146632713Y-115201611D01*
X146753028Y-115367213D01*
X146753034Y-115367219D01*
X146897781Y-115511966D01*
X147063390Y-115632287D01*
X147063394Y-115632289D01*
X147067332Y-115635150D01*
X147066111Y-115636829D01*
X147067245Y-115638081D01*
X147076703Y-115642401D01*
X147090290Y-115663544D01*
X147107155Y-115682177D01*
X147109859Y-115693994D01*
X147114477Y-115701179D01*
X147119500Y-115736114D01*
X147119500Y-115802880D01*
X147099815Y-115869919D01*
X147083181Y-115890561D01*
X146252227Y-116721514D01*
X146190904Y-116754999D01*
X146164546Y-116757833D01*
X145302129Y-116757833D01*
X145302123Y-116757834D01*
X145242520Y-116764241D01*
X145234974Y-116766025D01*
X145234628Y-116764563D01*
X145173622Y-116768917D01*
X145158600Y-116764505D01*
X145157482Y-116764241D01*
X145097883Y-116757834D01*
X145097881Y-116757833D01*
X145097873Y-116757833D01*
X145097865Y-116757833D01*
X144235453Y-116757833D01*
X144168414Y-116738148D01*
X144147772Y-116721514D01*
X143326819Y-115900561D01*
X143312115Y-115873633D01*
X143295523Y-115847815D01*
X143294631Y-115841614D01*
X143293334Y-115839238D01*
X143290500Y-115812880D01*
X143290500Y-115736114D01*
X143310185Y-115669075D01*
X143343575Y-115636398D01*
X143342668Y-115635150D01*
X143346605Y-115632289D01*
X143346610Y-115632287D01*
X143512219Y-115511966D01*
X143656966Y-115367219D01*
X143656968Y-115367215D01*
X143656971Y-115367213D01*
X143777284Y-115201614D01*
X143777286Y-115201611D01*
X143777287Y-115201610D01*
X143824795Y-115108369D01*
X143872770Y-115057574D01*
X143940591Y-115040779D01*
X144006725Y-115063316D01*
X144045765Y-115108370D01*
X144093140Y-115201349D01*
X144213417Y-115366894D01*
X144213417Y-115366895D01*
X144358104Y-115511582D01*
X144523650Y-115631859D01*
X144705968Y-115724754D01*
X144900578Y-115787988D01*
X144955000Y-115796607D01*
X144955000Y-114835686D01*
X144959394Y-114840080D01*
X145050606Y-114892741D01*
X145152339Y-114920000D01*
X145257661Y-114920000D01*
X145359394Y-114892741D01*
X145450606Y-114840080D01*
X145455000Y-114835686D01*
X145455000Y-115796606D01*
G37*
G04 #@! TD.AperFunction*
G04 #@! TA.AperFunction,Conductor*
G36*
X178109058Y-104805185D02*
G01*
X178152503Y-104853203D01*
X178159950Y-104867819D01*
X178284890Y-105039786D01*
X178435213Y-105190109D01*
X178607182Y-105315050D01*
X178615946Y-105319516D01*
X178666742Y-105367491D01*
X178683536Y-105435312D01*
X178660998Y-105501447D01*
X178615946Y-105540484D01*
X178607182Y-105544949D01*
X178435213Y-105669890D01*
X178284890Y-105820213D01*
X178159950Y-105992180D01*
X178152503Y-106006797D01*
X178104527Y-106057592D01*
X178042019Y-106074500D01*
X177311000Y-106074500D01*
X177260146Y-106084615D01*
X177260141Y-106084616D01*
X177250582Y-106086518D01*
X177190159Y-106098537D01*
X177143008Y-106118067D01*
X177076326Y-106145688D01*
X177076325Y-106145689D01*
X177053958Y-106160633D01*
X177053955Y-106160635D01*
X176973879Y-106214140D01*
X176930316Y-106257703D01*
X176886753Y-106301267D01*
X176886750Y-106301270D01*
X175205560Y-107982461D01*
X173549840Y-109638181D01*
X173488517Y-109671666D01*
X173462159Y-109674500D01*
X171662237Y-109674500D01*
X171595198Y-109654815D01*
X171549443Y-109602011D01*
X171539499Y-109532853D01*
X171561919Y-109477614D01*
X171631859Y-109381349D01*
X171724755Y-109199029D01*
X171787990Y-109004413D01*
X171796609Y-108950000D01*
X170835686Y-108950000D01*
X170840080Y-108945606D01*
X170892741Y-108854394D01*
X170920000Y-108752661D01*
X170920000Y-108647339D01*
X170892741Y-108545606D01*
X170840080Y-108454394D01*
X170835686Y-108450000D01*
X171796609Y-108450000D01*
X171787990Y-108395586D01*
X171724755Y-108200970D01*
X171631859Y-108018650D01*
X171511582Y-107853105D01*
X171511582Y-107853104D01*
X171366895Y-107708417D01*
X171201349Y-107588140D01*
X171019029Y-107495244D01*
X170824413Y-107432009D01*
X170770000Y-107423390D01*
X170770000Y-108384314D01*
X170765606Y-108379920D01*
X170674394Y-108327259D01*
X170572661Y-108300000D01*
X170467339Y-108300000D01*
X170365606Y-108327259D01*
X170274394Y-108379920D01*
X170270000Y-108384314D01*
X170270000Y-107401341D01*
X170264340Y-107392671D01*
X170263840Y-107322803D01*
X170295380Y-107269208D01*
X172742772Y-104821819D01*
X172804095Y-104788334D01*
X172830453Y-104785500D01*
X178042019Y-104785500D01*
X178109058Y-104805185D01*
G37*
G04 #@! TD.AperFunction*
M02*
