M48
; DRILL file {KiCad 9.0.3} date 2025-07-27T23:40:14-0400
; FORMAT={-:-/ absolute / metric / decimal}
; #@! TF.CreationDate,2025-07-27T23:40:14-04:00
; #@! TF.GenerationSoftware,Kicad,Pcbnew,9.0.3
; #@! TF.FileFunction,Plated,1,2,PTH
FMAT,2
METRIC
; #@! TA.AperFunction,Plated,PTH,ViaDrill
T1C0.400
; #@! TA.AperFunction,Plated,PTH,ComponentDrill
T2C0.800
; #@! TA.AperFunction,Plated,PTH,ComponentDrill
T3C0.850
; #@! TA.AperFunction,Plated,PTH,ComponentDrill
T4C0.900
; #@! TA.AperFunction,Plated,PTH,ComponentDrill
T5C1.000
; #@! TA.AperFunction,Plated,PTH,ComponentDrill
T6C1.100
%
G90
G05
T1
X129.54Y-114.3
X129.55Y-117.2
X129.55Y-122.2
X129.794Y-140.97
X131.572Y-101.092
X135.89Y-149.86
X136.398Y-123.952
X139.192Y-144.78
X139.7Y-134.62
X149.352Y-93.472
X155.702Y-139.954
X157.734Y-134.112
X158.496Y-107.188
X159.004Y-99.06
X162.306Y-132.334
X163.322Y-140.208
X164.338Y-126.746
X165.862Y-96.012
X171.704Y-98.044
X173.736Y-106.68
X181.864Y-144.78
X193.294Y-120.904
T2
X127.7Y-111.7
X129.7Y-111.7
X131.7Y-111.7
X137.585Y-106.9
X137.585Y-114.52
X140.125Y-106.9
X140.125Y-114.52
X142.665Y-106.9
X142.665Y-114.52
X144.9Y-140.9
X145.205Y-106.9
X145.205Y-114.52
X146.9Y-140.9
X147.745Y-106.9
X147.745Y-114.52
X148.9Y-140.9
X150.285Y-106.9
X150.285Y-114.52
X152.825Y-106.9
X152.825Y-114.52
X162.9Y-101.08
X162.9Y-108.7
X165.44Y-101.08
X165.44Y-108.7
X167.98Y-101.08
X167.98Y-108.7
X170.52Y-101.08
X170.52Y-108.7
T3
X189.3Y-143.43
X194.3Y-134.77
T4
X121.6Y-117.2
X121.6Y-122.2
X124.1Y-119.7
X130.764Y-95.3
X134.3Y-91.764
X134.3Y-95.3
T5
X157.86Y-95.2
X160.4Y-95.2
X162.94Y-95.2
X169.06Y-95.185
X171.6Y-95.185
X174.14Y-95.185
X179.315Y-101.62
X179.315Y-104.16
X179.315Y-106.7
T6
X164.3Y-119.2
X164.3Y-121.74
X164.3Y-124.28
X184.755Y-118.56
X184.755Y-121.1
X184.755Y-123.64
T5
X158.65Y-144.3G85X161.15Y-144.3
G05
X158.9Y-150.5G85X160.9Y-150.5
G05
X164.6Y-148.5G85X164.6Y-146.5
G05
M30
